G04 #@! TF.GenerationSoftware,KiCad,Pcbnew,6.0.11-2627ca5db0~126~ubuntu20.04.1*
G04 #@! TF.CreationDate,2024-04-17T12:51:00+05:00*
G04 #@! TF.ProjectId,16EJU24,3136454a-5532-4342-9e6b-696361645f70,rev?*
G04 #@! TF.SameCoordinates,Original*
G04 #@! TF.FileFunction,Legend,Bot*
G04 #@! TF.FilePolarity,Positive*
%FSLAX46Y46*%
G04 Gerber Fmt 4.6, Leading zero omitted, Abs format (unit mm)*
G04 Created by KiCad (PCBNEW 6.0.11-2627ca5db0~126~ubuntu20.04.1) date 2024-04-17 12:51:00*
%MOMM*%
%LPD*%
G01*
G04 APERTURE LIST*
G04 Aperture macros list*
%AMRoundRect*
0 Rectangle with rounded corners*
0 $1 Rounding radius*
0 $2 $3 $4 $5 $6 $7 $8 $9 X,Y pos of 4 corners*
0 Add a 4 corners polygon primitive as box body*
4,1,4,$2,$3,$4,$5,$6,$7,$8,$9,$2,$3,0*
0 Add four circle primitives for the rounded corners*
1,1,$1+$1,$2,$3*
1,1,$1+$1,$4,$5*
1,1,$1+$1,$6,$7*
1,1,$1+$1,$8,$9*
0 Add four rect primitives between the rounded corners*
20,1,$1+$1,$2,$3,$4,$5,0*
20,1,$1+$1,$4,$5,$6,$7,0*
20,1,$1+$1,$6,$7,$8,$9,0*
20,1,$1+$1,$8,$9,$2,$3,0*%
G04 Aperture macros list end*
%ADD10C,0.150000*%
%ADD11C,0.120000*%
%ADD12R,1.800000X1.800000*%
%ADD13C,1.800000*%
%ADD14C,1.700000*%
%ADD15R,1.700000X1.700000*%
%ADD16O,1.700000X1.700000*%
%ADD17RoundRect,0.250000X-0.450000X0.350000X-0.450000X-0.350000X0.450000X-0.350000X0.450000X0.350000X0*%
%ADD18RoundRect,0.250000X-0.350000X-0.450000X0.350000X-0.450000X0.350000X0.450000X-0.350000X0.450000X0*%
%ADD19RoundRect,0.150000X0.150000X-0.587500X0.150000X0.587500X-0.150000X0.587500X-0.150000X-0.587500X0*%
%ADD20RoundRect,0.250000X0.475000X-0.337500X0.475000X0.337500X-0.475000X0.337500X-0.475000X-0.337500X0*%
%ADD21RoundRect,0.250000X-0.475000X0.337500X-0.475000X-0.337500X0.475000X-0.337500X0.475000X0.337500X0*%
%ADD22C,2.000000*%
%ADD23C,0.650000*%
%ADD24O,1.000000X2.100000*%
%ADD25O,1.100000X1.100000*%
%ADD26O,1.000000X1.600000*%
%ADD27O,2.000000X1.700000*%
%ADD28RoundRect,0.350000X-1.300000X0.350000X-1.300000X-0.350000X1.300000X-0.350000X1.300000X0.350000X0*%
%ADD29RoundRect,0.350000X-0.700000X0.350000X-0.700000X-0.350000X0.700000X-0.350000X0.700000X0.350000X0*%
%ADD30R,1.524000X1.524000*%
%ADD31C,1.524000*%
%ADD32C,3.500000*%
%ADD33R,2.000000X2.000000*%
%ADD34C,1.500000*%
%ADD35O,4.000000X2.000000*%
%ADD36O,4.400000X2.000000*%
%ADD37O,2.400000X3.900000*%
%ADD38O,2.700000X3.700000*%
%ADD39O,4.700000X2.000000*%
%ADD40R,3.480000X1.846667*%
%ADD41RoundRect,0.323962X-0.534538X-1.026038X0.534538X-1.026038X0.534538X1.026038X-0.534538X1.026038X0*%
%ADD42RoundRect,0.323962X0.534538X1.026038X-0.534538X1.026038X-0.534538X-1.026038X0.534538X-1.026038X0*%
%ADD43R,1.600000X7.000000*%
%ADD44RoundRect,0.323962X1.026038X-0.534538X1.026038X0.534538X-1.026038X0.534538X-1.026038X-0.534538X0*%
%ADD45R,1.392000X3.048000*%
%ADD46R,1.392000X2.921000*%
%ADD47RoundRect,0.250000X0.450000X-0.350000X0.450000X0.350000X-0.450000X0.350000X-0.450000X-0.350000X0*%
%ADD48RoundRect,0.323962X-1.026038X0.534538X-1.026038X-0.534538X1.026038X-0.534538X1.026038X0.534538X0*%
%ADD49RoundRect,0.250000X0.337500X0.475000X-0.337500X0.475000X-0.337500X-0.475000X0.337500X-0.475000X0*%
G04 APERTURE END LIST*
D10*
X41909952Y-64587428D02*
X41148047Y-64587428D01*
X41529000Y-64968380D02*
X41529000Y-64206476D01*
D11*
X67778759Y-96121755D02*
X69683759Y-96121755D01*
D10*
X49744000Y-112974380D02*
X50315428Y-112974380D01*
X50029714Y-112974380D02*
X50029714Y-111974380D01*
X50124952Y-112117238D01*
X50220190Y-112212476D01*
X50315428Y-112260095D01*
X48886857Y-111974380D02*
X49077333Y-111974380D01*
X49172571Y-112022000D01*
X49220190Y-112069619D01*
X49315428Y-112212476D01*
X49363047Y-112402952D01*
X49363047Y-112783904D01*
X49315428Y-112879142D01*
X49267809Y-112926761D01*
X49172571Y-112974380D01*
X48982095Y-112974380D01*
X48886857Y-112926761D01*
X48839238Y-112879142D01*
X48791619Y-112783904D01*
X48791619Y-112545809D01*
X48839238Y-112450571D01*
X48886857Y-112402952D01*
X48982095Y-112355333D01*
X49172571Y-112355333D01*
X49267809Y-112402952D01*
X49315428Y-112450571D01*
X49363047Y-112545809D01*
X48363047Y-112450571D02*
X48029714Y-112450571D01*
X47886857Y-112974380D02*
X48363047Y-112974380D01*
X48363047Y-111974380D01*
X47886857Y-111974380D01*
X47172571Y-111974380D02*
X47172571Y-112688666D01*
X47220190Y-112831523D01*
X47315428Y-112926761D01*
X47458285Y-112974380D01*
X47553523Y-112974380D01*
X46696380Y-111974380D02*
X46696380Y-112783904D01*
X46648761Y-112879142D01*
X46601142Y-112926761D01*
X46505904Y-112974380D01*
X46315428Y-112974380D01*
X46220190Y-112926761D01*
X46172571Y-112879142D01*
X46124952Y-112783904D01*
X46124952Y-111974380D01*
X45696380Y-112069619D02*
X45648761Y-112022000D01*
X45553523Y-111974380D01*
X45315428Y-111974380D01*
X45220190Y-112022000D01*
X45172571Y-112069619D01*
X45124952Y-112164857D01*
X45124952Y-112260095D01*
X45172571Y-112402952D01*
X45744000Y-112974380D01*
X45124952Y-112974380D01*
X44267809Y-112307714D02*
X44267809Y-112974380D01*
X44505904Y-111926761D02*
X44744000Y-112641047D01*
X44124952Y-112641047D01*
X69153285Y-96547280D02*
X68353285Y-96547280D01*
X68353285Y-96737757D01*
X68391381Y-96852042D01*
X68467571Y-96928233D01*
X68543761Y-96966328D01*
X68696142Y-97004423D01*
X68810428Y-97004423D01*
X68962809Y-96966328D01*
X69039000Y-96928233D01*
X69115190Y-96852042D01*
X69153285Y-96737757D01*
X69153285Y-96547280D01*
X69153285Y-97766328D02*
X69153285Y-97309185D01*
X69153285Y-97537757D02*
X68353285Y-97537757D01*
X68467571Y-97461566D01*
X68543761Y-97385376D01*
X68581857Y-97309185D01*
X65919285Y-45700904D02*
X66185952Y-45319952D01*
X66376428Y-45700904D02*
X66376428Y-44900904D01*
X66071666Y-44900904D01*
X65995476Y-44939000D01*
X65957380Y-44977095D01*
X65919285Y-45053285D01*
X65919285Y-45167571D01*
X65957380Y-45243761D01*
X65995476Y-45281857D01*
X66071666Y-45319952D01*
X66376428Y-45319952D01*
X65652619Y-44900904D02*
X65157380Y-44900904D01*
X65424047Y-45205666D01*
X65309761Y-45205666D01*
X65233571Y-45243761D01*
X65195476Y-45281857D01*
X65157380Y-45358047D01*
X65157380Y-45548523D01*
X65195476Y-45624714D01*
X65233571Y-45662809D01*
X65309761Y-45700904D01*
X65538333Y-45700904D01*
X65614523Y-45662809D01*
X65652619Y-45624714D01*
X64471666Y-44900904D02*
X64624047Y-44900904D01*
X64700238Y-44939000D01*
X64738333Y-44977095D01*
X64814523Y-45091380D01*
X64852619Y-45243761D01*
X64852619Y-45548523D01*
X64814523Y-45624714D01*
X64776428Y-45662809D01*
X64700238Y-45700904D01*
X64547857Y-45700904D01*
X64471666Y-45662809D01*
X64433571Y-45624714D01*
X64395476Y-45548523D01*
X64395476Y-45358047D01*
X64433571Y-45281857D01*
X64471666Y-45243761D01*
X64547857Y-45205666D01*
X64700238Y-45205666D01*
X64776428Y-45243761D01*
X64814523Y-45281857D01*
X64852619Y-45358047D01*
X63379285Y-45700904D02*
X63645952Y-45319952D01*
X63836428Y-45700904D02*
X63836428Y-44900904D01*
X63531666Y-44900904D01*
X63455476Y-44939000D01*
X63417380Y-44977095D01*
X63379285Y-45053285D01*
X63379285Y-45167571D01*
X63417380Y-45243761D01*
X63455476Y-45281857D01*
X63531666Y-45319952D01*
X63836428Y-45319952D01*
X63112619Y-44900904D02*
X62617380Y-44900904D01*
X62884047Y-45205666D01*
X62769761Y-45205666D01*
X62693571Y-45243761D01*
X62655476Y-45281857D01*
X62617380Y-45358047D01*
X62617380Y-45548523D01*
X62655476Y-45624714D01*
X62693571Y-45662809D01*
X62769761Y-45700904D01*
X62998333Y-45700904D01*
X63074523Y-45662809D01*
X63112619Y-45624714D01*
X61893571Y-44900904D02*
X62274523Y-44900904D01*
X62312619Y-45281857D01*
X62274523Y-45243761D01*
X62198333Y-45205666D01*
X62007857Y-45205666D01*
X61931666Y-45243761D01*
X61893571Y-45281857D01*
X61855476Y-45358047D01*
X61855476Y-45548523D01*
X61893571Y-45624714D01*
X61931666Y-45662809D01*
X62007857Y-45700904D01*
X62198333Y-45700904D01*
X62274523Y-45662809D01*
X62312619Y-45624714D01*
X51187285Y-41890904D02*
X51453952Y-41509952D01*
X51644428Y-41890904D02*
X51644428Y-41090904D01*
X51339666Y-41090904D01*
X51263476Y-41129000D01*
X51225380Y-41167095D01*
X51187285Y-41243285D01*
X51187285Y-41357571D01*
X51225380Y-41433761D01*
X51263476Y-41471857D01*
X51339666Y-41509952D01*
X51644428Y-41509952D01*
X50920619Y-41090904D02*
X50425380Y-41090904D01*
X50692047Y-41395666D01*
X50577761Y-41395666D01*
X50501571Y-41433761D01*
X50463476Y-41471857D01*
X50425380Y-41548047D01*
X50425380Y-41738523D01*
X50463476Y-41814714D01*
X50501571Y-41852809D01*
X50577761Y-41890904D01*
X50806333Y-41890904D01*
X50882523Y-41852809D01*
X50920619Y-41814714D01*
X50158714Y-41090904D02*
X49663476Y-41090904D01*
X49930142Y-41395666D01*
X49815857Y-41395666D01*
X49739666Y-41433761D01*
X49701571Y-41471857D01*
X49663476Y-41548047D01*
X49663476Y-41738523D01*
X49701571Y-41814714D01*
X49739666Y-41852809D01*
X49815857Y-41890904D01*
X50044428Y-41890904D01*
X50120619Y-41852809D01*
X50158714Y-41814714D01*
X60712285Y-41890904D02*
X60978952Y-41509952D01*
X61169428Y-41890904D02*
X61169428Y-41090904D01*
X60864666Y-41090904D01*
X60788476Y-41129000D01*
X60750380Y-41167095D01*
X60712285Y-41243285D01*
X60712285Y-41357571D01*
X60750380Y-41433761D01*
X60788476Y-41471857D01*
X60864666Y-41509952D01*
X61169428Y-41509952D01*
X60445619Y-41090904D02*
X59950380Y-41090904D01*
X60217047Y-41395666D01*
X60102761Y-41395666D01*
X60026571Y-41433761D01*
X59988476Y-41471857D01*
X59950380Y-41548047D01*
X59950380Y-41738523D01*
X59988476Y-41814714D01*
X60026571Y-41852809D01*
X60102761Y-41890904D01*
X60331333Y-41890904D01*
X60407523Y-41852809D01*
X60445619Y-41814714D01*
X59645619Y-41167095D02*
X59607523Y-41129000D01*
X59531333Y-41090904D01*
X59340857Y-41090904D01*
X59264666Y-41129000D01*
X59226571Y-41167095D01*
X59188476Y-41243285D01*
X59188476Y-41319476D01*
X59226571Y-41433761D01*
X59683714Y-41890904D01*
X59188476Y-41890904D01*
X63559285Y-56257904D02*
X63825952Y-55876952D01*
X64016428Y-56257904D02*
X64016428Y-55457904D01*
X63711666Y-55457904D01*
X63635476Y-55496000D01*
X63597380Y-55534095D01*
X63559285Y-55610285D01*
X63559285Y-55724571D01*
X63597380Y-55800761D01*
X63635476Y-55838857D01*
X63711666Y-55876952D01*
X64016428Y-55876952D01*
X63292619Y-55457904D02*
X62797380Y-55457904D01*
X63064047Y-55762666D01*
X62949761Y-55762666D01*
X62873571Y-55800761D01*
X62835476Y-55838857D01*
X62797380Y-55915047D01*
X62797380Y-56105523D01*
X62835476Y-56181714D01*
X62873571Y-56219809D01*
X62949761Y-56257904D01*
X63178333Y-56257904D01*
X63254523Y-56219809D01*
X63292619Y-56181714D01*
X62035476Y-56257904D02*
X62492619Y-56257904D01*
X62264047Y-56257904D02*
X62264047Y-55457904D01*
X62340238Y-55572190D01*
X62416428Y-55648380D01*
X62492619Y-55686476D01*
X63633285Y-58146904D02*
X63899952Y-57765952D01*
X64090428Y-58146904D02*
X64090428Y-57346904D01*
X63785666Y-57346904D01*
X63709476Y-57385000D01*
X63671380Y-57423095D01*
X63633285Y-57499285D01*
X63633285Y-57613571D01*
X63671380Y-57689761D01*
X63709476Y-57727857D01*
X63785666Y-57765952D01*
X64090428Y-57765952D01*
X63366619Y-57346904D02*
X62871380Y-57346904D01*
X63138047Y-57651666D01*
X63023761Y-57651666D01*
X62947571Y-57689761D01*
X62909476Y-57727857D01*
X62871380Y-57804047D01*
X62871380Y-57994523D01*
X62909476Y-58070714D01*
X62947571Y-58108809D01*
X63023761Y-58146904D01*
X63252333Y-58146904D01*
X63328523Y-58108809D01*
X63366619Y-58070714D01*
X62376142Y-57346904D02*
X62299952Y-57346904D01*
X62223761Y-57385000D01*
X62185666Y-57423095D01*
X62147571Y-57499285D01*
X62109476Y-57651666D01*
X62109476Y-57842142D01*
X62147571Y-57994523D01*
X62185666Y-58070714D01*
X62223761Y-58108809D01*
X62299952Y-58146904D01*
X62376142Y-58146904D01*
X62452333Y-58108809D01*
X62490428Y-58070714D01*
X62528523Y-57994523D01*
X62566619Y-57842142D01*
X62566619Y-57651666D01*
X62528523Y-57499285D01*
X62490428Y-57423095D01*
X62452333Y-57385000D01*
X62376142Y-57346904D01*
X63633285Y-60051904D02*
X63899952Y-59670952D01*
X64090428Y-60051904D02*
X64090428Y-59251904D01*
X63785666Y-59251904D01*
X63709476Y-59290000D01*
X63671380Y-59328095D01*
X63633285Y-59404285D01*
X63633285Y-59518571D01*
X63671380Y-59594761D01*
X63709476Y-59632857D01*
X63785666Y-59670952D01*
X64090428Y-59670952D01*
X63328523Y-59328095D02*
X63290428Y-59290000D01*
X63214238Y-59251904D01*
X63023761Y-59251904D01*
X62947571Y-59290000D01*
X62909476Y-59328095D01*
X62871380Y-59404285D01*
X62871380Y-59480476D01*
X62909476Y-59594761D01*
X63366619Y-60051904D01*
X62871380Y-60051904D01*
X62490428Y-60051904D02*
X62338047Y-60051904D01*
X62261857Y-60013809D01*
X62223761Y-59975714D01*
X62147571Y-59861428D01*
X62109476Y-59709047D01*
X62109476Y-59404285D01*
X62147571Y-59328095D01*
X62185666Y-59290000D01*
X62261857Y-59251904D01*
X62414238Y-59251904D01*
X62490428Y-59290000D01*
X62528523Y-59328095D01*
X62566619Y-59404285D01*
X62566619Y-59594761D01*
X62528523Y-59670952D01*
X62490428Y-59709047D01*
X62414238Y-59747142D01*
X62261857Y-59747142D01*
X62185666Y-59709047D01*
X62147571Y-59670952D01*
X62109476Y-59594761D01*
X56140285Y-41890904D02*
X56406952Y-41509952D01*
X56597428Y-41890904D02*
X56597428Y-41090904D01*
X56292666Y-41090904D01*
X56216476Y-41129000D01*
X56178380Y-41167095D01*
X56140285Y-41243285D01*
X56140285Y-41357571D01*
X56178380Y-41433761D01*
X56216476Y-41471857D01*
X56292666Y-41509952D01*
X56597428Y-41509952D01*
X55835523Y-41167095D02*
X55797428Y-41129000D01*
X55721238Y-41090904D01*
X55530761Y-41090904D01*
X55454571Y-41129000D01*
X55416476Y-41167095D01*
X55378380Y-41243285D01*
X55378380Y-41319476D01*
X55416476Y-41433761D01*
X55873619Y-41890904D01*
X55378380Y-41890904D01*
X54921238Y-41433761D02*
X54997428Y-41395666D01*
X55035523Y-41357571D01*
X55073619Y-41281380D01*
X55073619Y-41243285D01*
X55035523Y-41167095D01*
X54997428Y-41129000D01*
X54921238Y-41090904D01*
X54768857Y-41090904D01*
X54692666Y-41129000D01*
X54654571Y-41167095D01*
X54616476Y-41243285D01*
X54616476Y-41281380D01*
X54654571Y-41357571D01*
X54692666Y-41395666D01*
X54768857Y-41433761D01*
X54921238Y-41433761D01*
X54997428Y-41471857D01*
X55035523Y-41509952D01*
X55073619Y-41586142D01*
X55073619Y-41738523D01*
X55035523Y-41814714D01*
X54997428Y-41852809D01*
X54921238Y-41890904D01*
X54768857Y-41890904D01*
X54692666Y-41852809D01*
X54654571Y-41814714D01*
X54616476Y-41738523D01*
X54616476Y-41586142D01*
X54654571Y-41509952D01*
X54692666Y-41471857D01*
X54768857Y-41433761D01*
X53162190Y-45523095D02*
X53238380Y-45485000D01*
X53314571Y-45408809D01*
X53428857Y-45294523D01*
X53505047Y-45256428D01*
X53581238Y-45256428D01*
X53543142Y-45446904D02*
X53619333Y-45408809D01*
X53695523Y-45332619D01*
X53733619Y-45180238D01*
X53733619Y-44913571D01*
X53695523Y-44761190D01*
X53619333Y-44685000D01*
X53543142Y-44646904D01*
X53390761Y-44646904D01*
X53314571Y-44685000D01*
X53238380Y-44761190D01*
X53200285Y-44913571D01*
X53200285Y-45180238D01*
X53238380Y-45332619D01*
X53314571Y-45408809D01*
X53390761Y-45446904D01*
X53543142Y-45446904D01*
X52438380Y-45446904D02*
X52895523Y-45446904D01*
X52666952Y-45446904D02*
X52666952Y-44646904D01*
X52743142Y-44761190D01*
X52819333Y-44837380D01*
X52895523Y-44875476D01*
X58553285Y-50704714D02*
X58591380Y-50742809D01*
X58705666Y-50780904D01*
X58781857Y-50780904D01*
X58896142Y-50742809D01*
X58972333Y-50666619D01*
X59010428Y-50590428D01*
X59048523Y-50438047D01*
X59048523Y-50323761D01*
X59010428Y-50171380D01*
X58972333Y-50095190D01*
X58896142Y-50019000D01*
X58781857Y-49980904D01*
X58705666Y-49980904D01*
X58591380Y-50019000D01*
X58553285Y-50057095D01*
X57791380Y-50780904D02*
X58248523Y-50780904D01*
X58019952Y-50780904D02*
X58019952Y-49980904D01*
X58096142Y-50095190D01*
X58172333Y-50171380D01*
X58248523Y-50209476D01*
X57105666Y-50247571D02*
X57105666Y-50780904D01*
X57296142Y-49942809D02*
X57486619Y-50514238D01*
X56991380Y-50514238D01*
X60966285Y-50704714D02*
X61004380Y-50742809D01*
X61118666Y-50780904D01*
X61194857Y-50780904D01*
X61309142Y-50742809D01*
X61385333Y-50666619D01*
X61423428Y-50590428D01*
X61461523Y-50438047D01*
X61461523Y-50323761D01*
X61423428Y-50171380D01*
X61385333Y-50095190D01*
X61309142Y-50019000D01*
X61194857Y-49980904D01*
X61118666Y-49980904D01*
X61004380Y-50019000D01*
X60966285Y-50057095D01*
X60204380Y-50780904D02*
X60661523Y-50780904D01*
X60432952Y-50780904D02*
X60432952Y-49980904D01*
X60509142Y-50095190D01*
X60585333Y-50171380D01*
X60661523Y-50209476D01*
X59937714Y-49980904D02*
X59442476Y-49980904D01*
X59709142Y-50285666D01*
X59594857Y-50285666D01*
X59518666Y-50323761D01*
X59480571Y-50361857D01*
X59442476Y-50438047D01*
X59442476Y-50628523D01*
X59480571Y-50704714D01*
X59518666Y-50742809D01*
X59594857Y-50780904D01*
X59823428Y-50780904D01*
X59899619Y-50742809D01*
X59937714Y-50704714D01*
X48774285Y-41814714D02*
X48812380Y-41852809D01*
X48926666Y-41890904D01*
X49002857Y-41890904D01*
X49117142Y-41852809D01*
X49193333Y-41776619D01*
X49231428Y-41700428D01*
X49269523Y-41548047D01*
X49269523Y-41433761D01*
X49231428Y-41281380D01*
X49193333Y-41205190D01*
X49117142Y-41129000D01*
X49002857Y-41090904D01*
X48926666Y-41090904D01*
X48812380Y-41129000D01*
X48774285Y-41167095D01*
X48012380Y-41890904D02*
X48469523Y-41890904D01*
X48240952Y-41890904D02*
X48240952Y-41090904D01*
X48317142Y-41205190D01*
X48393333Y-41281380D01*
X48469523Y-41319476D01*
X47707619Y-41167095D02*
X47669523Y-41129000D01*
X47593333Y-41090904D01*
X47402857Y-41090904D01*
X47326666Y-41129000D01*
X47288571Y-41167095D01*
X47250476Y-41243285D01*
X47250476Y-41319476D01*
X47288571Y-41433761D01*
X47745714Y-41890904D01*
X47250476Y-41890904D01*
X57918333Y-41814714D02*
X57956428Y-41852809D01*
X58070714Y-41890904D01*
X58146904Y-41890904D01*
X58261190Y-41852809D01*
X58337380Y-41776619D01*
X58375476Y-41700428D01*
X58413571Y-41548047D01*
X58413571Y-41433761D01*
X58375476Y-41281380D01*
X58337380Y-41205190D01*
X58261190Y-41129000D01*
X58146904Y-41090904D01*
X58070714Y-41090904D01*
X57956428Y-41129000D01*
X57918333Y-41167095D01*
X57537380Y-41890904D02*
X57385000Y-41890904D01*
X57308809Y-41852809D01*
X57270714Y-41814714D01*
X57194523Y-41700428D01*
X57156428Y-41548047D01*
X57156428Y-41243285D01*
X57194523Y-41167095D01*
X57232619Y-41129000D01*
X57308809Y-41090904D01*
X57461190Y-41090904D01*
X57537380Y-41129000D01*
X57575476Y-41167095D01*
X57613571Y-41243285D01*
X57613571Y-41433761D01*
X57575476Y-41509952D01*
X57537380Y-41548047D01*
X57461190Y-41586142D01*
X57308809Y-41586142D01*
X57232619Y-41548047D01*
X57194523Y-41509952D01*
X57156428Y-41433761D01*
X47758333Y-68306904D02*
X48025000Y-67925952D01*
X48215476Y-68306904D02*
X48215476Y-67506904D01*
X47910714Y-67506904D01*
X47834523Y-67545000D01*
X47796428Y-67583095D01*
X47758333Y-67659285D01*
X47758333Y-67773571D01*
X47796428Y-67849761D01*
X47834523Y-67887857D01*
X47910714Y-67925952D01*
X48215476Y-67925952D01*
X47072619Y-67506904D02*
X47225000Y-67506904D01*
X47301190Y-67545000D01*
X47339285Y-67583095D01*
X47415476Y-67697380D01*
X47453571Y-67849761D01*
X47453571Y-68154523D01*
X47415476Y-68230714D01*
X47377380Y-68268809D01*
X47301190Y-68306904D01*
X47148809Y-68306904D01*
X47072619Y-68268809D01*
X47034523Y-68230714D01*
X46996428Y-68154523D01*
X46996428Y-67964047D01*
X47034523Y-67887857D01*
X47072619Y-67849761D01*
X47148809Y-67811666D01*
X47301190Y-67811666D01*
X47377380Y-67849761D01*
X47415476Y-67887857D01*
X47453571Y-67964047D01*
X47758333Y-70846904D02*
X48025000Y-70465952D01*
X48215476Y-70846904D02*
X48215476Y-70046904D01*
X47910714Y-70046904D01*
X47834523Y-70085000D01*
X47796428Y-70123095D01*
X47758333Y-70199285D01*
X47758333Y-70313571D01*
X47796428Y-70389761D01*
X47834523Y-70427857D01*
X47910714Y-70465952D01*
X48215476Y-70465952D01*
X47491666Y-70046904D02*
X46958333Y-70046904D01*
X47301190Y-70846904D01*
X47758333Y-55606904D02*
X48025000Y-55225952D01*
X48215476Y-55606904D02*
X48215476Y-54806904D01*
X47910714Y-54806904D01*
X47834523Y-54845000D01*
X47796428Y-54883095D01*
X47758333Y-54959285D01*
X47758333Y-55073571D01*
X47796428Y-55149761D01*
X47834523Y-55187857D01*
X47910714Y-55225952D01*
X48215476Y-55225952D01*
X47453571Y-54883095D02*
X47415476Y-54845000D01*
X47339285Y-54806904D01*
X47148809Y-54806904D01*
X47072619Y-54845000D01*
X47034523Y-54883095D01*
X46996428Y-54959285D01*
X46996428Y-55035476D01*
X47034523Y-55149761D01*
X47491666Y-55606904D01*
X46996428Y-55606904D01*
X47758333Y-53066904D02*
X48025000Y-52685952D01*
X48215476Y-53066904D02*
X48215476Y-52266904D01*
X47910714Y-52266904D01*
X47834523Y-52305000D01*
X47796428Y-52343095D01*
X47758333Y-52419285D01*
X47758333Y-52533571D01*
X47796428Y-52609761D01*
X47834523Y-52647857D01*
X47910714Y-52685952D01*
X48215476Y-52685952D01*
X46996428Y-53066904D02*
X47453571Y-53066904D01*
X47225000Y-53066904D02*
X47225000Y-52266904D01*
X47301190Y-52381190D01*
X47377380Y-52457380D01*
X47453571Y-52495476D01*
X41814714Y-60572666D02*
X41852809Y-60534571D01*
X41890904Y-60420285D01*
X41890904Y-60344095D01*
X41852809Y-60229809D01*
X41776619Y-60153619D01*
X41700428Y-60115523D01*
X41548047Y-60077428D01*
X41433761Y-60077428D01*
X41281380Y-60115523D01*
X41205190Y-60153619D01*
X41129000Y-60229809D01*
X41090904Y-60344095D01*
X41090904Y-60420285D01*
X41129000Y-60534571D01*
X41167095Y-60572666D01*
X41167095Y-60877428D02*
X41129000Y-60915523D01*
X41090904Y-60991714D01*
X41090904Y-61182190D01*
X41129000Y-61258380D01*
X41167095Y-61296476D01*
X41243285Y-61334571D01*
X41319476Y-61334571D01*
X41433761Y-61296476D01*
X41890904Y-60839333D01*
X41890904Y-61334571D01*
X47758333Y-60686904D02*
X48025000Y-60305952D01*
X48215476Y-60686904D02*
X48215476Y-59886904D01*
X47910714Y-59886904D01*
X47834523Y-59925000D01*
X47796428Y-59963095D01*
X47758333Y-60039285D01*
X47758333Y-60153571D01*
X47796428Y-60229761D01*
X47834523Y-60267857D01*
X47910714Y-60305952D01*
X48215476Y-60305952D01*
X47072619Y-60153571D02*
X47072619Y-60686904D01*
X47263095Y-59848809D02*
X47453571Y-60420238D01*
X46958333Y-60420238D01*
X47758333Y-58146904D02*
X48025000Y-57765952D01*
X48215476Y-58146904D02*
X48215476Y-57346904D01*
X47910714Y-57346904D01*
X47834523Y-57385000D01*
X47796428Y-57423095D01*
X47758333Y-57499285D01*
X47758333Y-57613571D01*
X47796428Y-57689761D01*
X47834523Y-57727857D01*
X47910714Y-57765952D01*
X48215476Y-57765952D01*
X47491666Y-57346904D02*
X46996428Y-57346904D01*
X47263095Y-57651666D01*
X47148809Y-57651666D01*
X47072619Y-57689761D01*
X47034523Y-57727857D01*
X46996428Y-57804047D01*
X46996428Y-57994523D01*
X47034523Y-58070714D01*
X47072619Y-58108809D01*
X47148809Y-58146904D01*
X47377380Y-58146904D01*
X47453571Y-58108809D01*
X47491666Y-58070714D01*
X47758333Y-65766904D02*
X48025000Y-65385952D01*
X48215476Y-65766904D02*
X48215476Y-64966904D01*
X47910714Y-64966904D01*
X47834523Y-65005000D01*
X47796428Y-65043095D01*
X47758333Y-65119285D01*
X47758333Y-65233571D01*
X47796428Y-65309761D01*
X47834523Y-65347857D01*
X47910714Y-65385952D01*
X48215476Y-65385952D01*
X47034523Y-64966904D02*
X47415476Y-64966904D01*
X47453571Y-65347857D01*
X47415476Y-65309761D01*
X47339285Y-65271666D01*
X47148809Y-65271666D01*
X47072619Y-65309761D01*
X47034523Y-65347857D01*
X46996428Y-65424047D01*
X46996428Y-65614523D01*
X47034523Y-65690714D01*
X47072619Y-65728809D01*
X47148809Y-65766904D01*
X47339285Y-65766904D01*
X47415476Y-65728809D01*
X47453571Y-65690714D01*
X47758333Y-73386904D02*
X48025000Y-73005952D01*
X48215476Y-73386904D02*
X48215476Y-72586904D01*
X47910714Y-72586904D01*
X47834523Y-72625000D01*
X47796428Y-72663095D01*
X47758333Y-72739285D01*
X47758333Y-72853571D01*
X47796428Y-72929761D01*
X47834523Y-72967857D01*
X47910714Y-73005952D01*
X48215476Y-73005952D01*
X47301190Y-72929761D02*
X47377380Y-72891666D01*
X47415476Y-72853571D01*
X47453571Y-72777380D01*
X47453571Y-72739285D01*
X47415476Y-72663095D01*
X47377380Y-72625000D01*
X47301190Y-72586904D01*
X47148809Y-72586904D01*
X47072619Y-72625000D01*
X47034523Y-72663095D01*
X46996428Y-72739285D01*
X46996428Y-72777380D01*
X47034523Y-72853571D01*
X47072619Y-72891666D01*
X47148809Y-72929761D01*
X47301190Y-72929761D01*
X47377380Y-72967857D01*
X47415476Y-73005952D01*
X47453571Y-73082142D01*
X47453571Y-73234523D01*
X47415476Y-73310714D01*
X47377380Y-73348809D01*
X47301190Y-73386904D01*
X47148809Y-73386904D01*
X47072619Y-73348809D01*
X47034523Y-73310714D01*
X46996428Y-73234523D01*
X46996428Y-73082142D01*
X47034523Y-73005952D01*
X47072619Y-72967857D01*
X47148809Y-72929761D01*
X58172285Y-58797904D02*
X58438952Y-58416952D01*
X58629428Y-58797904D02*
X58629428Y-57997904D01*
X58324666Y-57997904D01*
X58248476Y-58036000D01*
X58210380Y-58074095D01*
X58172285Y-58150285D01*
X58172285Y-58264571D01*
X58210380Y-58340761D01*
X58248476Y-58378857D01*
X58324666Y-58416952D01*
X58629428Y-58416952D01*
X57410380Y-58797904D02*
X57867523Y-58797904D01*
X57638952Y-58797904D02*
X57638952Y-57997904D01*
X57715142Y-58112190D01*
X57791333Y-58188380D01*
X57867523Y-58226476D01*
X57029428Y-58797904D02*
X56877047Y-58797904D01*
X56800857Y-58759809D01*
X56762761Y-58721714D01*
X56686571Y-58607428D01*
X56648476Y-58455047D01*
X56648476Y-58150285D01*
X56686571Y-58074095D01*
X56724666Y-58036000D01*
X56800857Y-57997904D01*
X56953238Y-57997904D01*
X57029428Y-58036000D01*
X57067523Y-58074095D01*
X57105619Y-58150285D01*
X57105619Y-58340761D01*
X57067523Y-58416952D01*
X57029428Y-58455047D01*
X56953238Y-58493142D01*
X56800857Y-58493142D01*
X56724666Y-58455047D01*
X56686571Y-58416952D01*
X56648476Y-58340761D01*
X53346285Y-49129904D02*
X53612952Y-48748952D01*
X53803428Y-49129904D02*
X53803428Y-48329904D01*
X53498666Y-48329904D01*
X53422476Y-48368000D01*
X53384380Y-48406095D01*
X53346285Y-48482285D01*
X53346285Y-48596571D01*
X53384380Y-48672761D01*
X53422476Y-48710857D01*
X53498666Y-48748952D01*
X53803428Y-48748952D01*
X53041523Y-48406095D02*
X53003428Y-48368000D01*
X52927238Y-48329904D01*
X52736761Y-48329904D01*
X52660571Y-48368000D01*
X52622476Y-48406095D01*
X52584380Y-48482285D01*
X52584380Y-48558476D01*
X52622476Y-48672761D01*
X53079619Y-49129904D01*
X52584380Y-49129904D01*
X52317714Y-48329904D02*
X51784380Y-48329904D01*
X52127238Y-49129904D01*
X47839190Y-105005142D02*
X47886809Y-105052761D01*
X48029666Y-105100380D01*
X48124904Y-105100380D01*
X48267761Y-105052761D01*
X48363000Y-104957523D01*
X48410619Y-104862285D01*
X48458238Y-104671809D01*
X48458238Y-104528952D01*
X48410619Y-104338476D01*
X48363000Y-104243238D01*
X48267761Y-104148000D01*
X48124904Y-104100380D01*
X48029666Y-104100380D01*
X47886809Y-104148000D01*
X47839190Y-104195619D01*
X47648714Y-105195619D02*
X46886809Y-105195619D01*
X46172523Y-104100380D02*
X46648714Y-104100380D01*
X46696333Y-104576571D01*
X46648714Y-104528952D01*
X46553476Y-104481333D01*
X46315380Y-104481333D01*
X46220142Y-104528952D01*
X46172523Y-104576571D01*
X46124904Y-104671809D01*
X46124904Y-104909904D01*
X46172523Y-105005142D01*
X46220142Y-105052761D01*
X46315380Y-105100380D01*
X46553476Y-105100380D01*
X46648714Y-105052761D01*
X46696333Y-105005142D01*
X45839190Y-104100380D02*
X45505857Y-105100380D01*
X45172523Y-104100380D01*
X53356749Y-64503086D02*
X53623416Y-64169753D01*
X53813892Y-64503086D02*
X53813892Y-63803086D01*
X53509130Y-63803086D01*
X53432940Y-63836420D01*
X53394844Y-63869753D01*
X53356749Y-63936420D01*
X53356749Y-64036420D01*
X53394844Y-64103086D01*
X53432940Y-64136420D01*
X53509130Y-64169753D01*
X53813892Y-64169753D01*
X53051987Y-63869753D02*
X53013892Y-63836420D01*
X52937702Y-63803086D01*
X52747225Y-63803086D01*
X52671035Y-63836420D01*
X52632940Y-63869753D01*
X52594844Y-63936420D01*
X52594844Y-64003086D01*
X52632940Y-64103086D01*
X53090083Y-64503086D01*
X52594844Y-64503086D01*
X52290083Y-63869753D02*
X52251987Y-63836420D01*
X52175797Y-63803086D01*
X51985321Y-63803086D01*
X51909130Y-63836420D01*
X51871035Y-63869753D01*
X51832940Y-63936420D01*
X51832940Y-64003086D01*
X51871035Y-64103086D01*
X52328178Y-64503086D01*
X51832940Y-64503086D01*
X40473190Y-67921142D02*
X40520809Y-67968761D01*
X40663666Y-68016380D01*
X40758904Y-68016380D01*
X40901761Y-67968761D01*
X40997000Y-67873523D01*
X41044619Y-67778285D01*
X41092238Y-67587809D01*
X41092238Y-67444952D01*
X41044619Y-67254476D01*
X40997000Y-67159238D01*
X40901761Y-67064000D01*
X40758904Y-67016380D01*
X40663666Y-67016380D01*
X40520809Y-67064000D01*
X40473190Y-67111619D01*
X40282714Y-68111619D02*
X39520809Y-68111619D01*
X38806523Y-67016380D02*
X39282714Y-67016380D01*
X39330333Y-67492571D01*
X39282714Y-67444952D01*
X39187476Y-67397333D01*
X38949380Y-67397333D01*
X38854142Y-67444952D01*
X38806523Y-67492571D01*
X38758904Y-67587809D01*
X38758904Y-67825904D01*
X38806523Y-67921142D01*
X38854142Y-67968761D01*
X38949380Y-68016380D01*
X39187476Y-68016380D01*
X39282714Y-67968761D01*
X39330333Y-67921142D01*
X38473190Y-67016380D02*
X38139857Y-68016380D01*
X37806523Y-67016380D01*
X63968190Y-33123142D02*
X64015809Y-33170761D01*
X64158666Y-33218380D01*
X64253904Y-33218380D01*
X64396761Y-33170761D01*
X64492000Y-33075523D01*
X64539619Y-32980285D01*
X64587238Y-32789809D01*
X64587238Y-32646952D01*
X64539619Y-32456476D01*
X64492000Y-32361238D01*
X64396761Y-32266000D01*
X64253904Y-32218380D01*
X64158666Y-32218380D01*
X64015809Y-32266000D01*
X63968190Y-32313619D01*
X63777714Y-33313619D02*
X63015809Y-33313619D01*
X62301523Y-32218380D02*
X62777714Y-32218380D01*
X62825333Y-32694571D01*
X62777714Y-32646952D01*
X62682476Y-32599333D01*
X62444380Y-32599333D01*
X62349142Y-32646952D01*
X62301523Y-32694571D01*
X62253904Y-32789809D01*
X62253904Y-33027904D01*
X62301523Y-33123142D01*
X62349142Y-33170761D01*
X62444380Y-33218380D01*
X62682476Y-33218380D01*
X62777714Y-33170761D01*
X62825333Y-33123142D01*
X61968190Y-32218380D02*
X61634857Y-33218380D01*
X61301523Y-32218380D01*
X56267285Y-48875904D02*
X56533952Y-48494952D01*
X56724428Y-48875904D02*
X56724428Y-48075904D01*
X56419666Y-48075904D01*
X56343476Y-48114000D01*
X56305380Y-48152095D01*
X56267285Y-48228285D01*
X56267285Y-48342571D01*
X56305380Y-48418761D01*
X56343476Y-48456857D01*
X56419666Y-48494952D01*
X56724428Y-48494952D01*
X55962523Y-48152095D02*
X55924428Y-48114000D01*
X55848238Y-48075904D01*
X55657761Y-48075904D01*
X55581571Y-48114000D01*
X55543476Y-48152095D01*
X55505380Y-48228285D01*
X55505380Y-48304476D01*
X55543476Y-48418761D01*
X56000619Y-48875904D01*
X55505380Y-48875904D01*
X54781571Y-48075904D02*
X55162523Y-48075904D01*
X55200619Y-48456857D01*
X55162523Y-48418761D01*
X55086333Y-48380666D01*
X54895857Y-48380666D01*
X54819666Y-48418761D01*
X54781571Y-48456857D01*
X54743476Y-48533047D01*
X54743476Y-48723523D01*
X54781571Y-48799714D01*
X54819666Y-48837809D01*
X54895857Y-48875904D01*
X55086333Y-48875904D01*
X55162523Y-48837809D01*
X55200619Y-48799714D01*
X53346285Y-67066795D02*
X53612952Y-66733462D01*
X53803428Y-67066795D02*
X53803428Y-66366795D01*
X53498666Y-66366795D01*
X53422476Y-66400129D01*
X53384380Y-66433462D01*
X53346285Y-66500129D01*
X53346285Y-66600129D01*
X53384380Y-66666795D01*
X53422476Y-66700129D01*
X53498666Y-66733462D01*
X53803428Y-66733462D01*
X53041523Y-66433462D02*
X53003428Y-66400129D01*
X52927238Y-66366795D01*
X52736761Y-66366795D01*
X52660571Y-66400129D01*
X52622476Y-66433462D01*
X52584380Y-66500129D01*
X52584380Y-66566795D01*
X52622476Y-66666795D01*
X53079619Y-67066795D01*
X52584380Y-67066795D01*
X52089142Y-66366795D02*
X52012952Y-66366795D01*
X51936761Y-66400129D01*
X51898666Y-66433462D01*
X51860571Y-66500129D01*
X51822476Y-66633462D01*
X51822476Y-66800129D01*
X51860571Y-66933462D01*
X51898666Y-67000129D01*
X51936761Y-67033462D01*
X52012952Y-67066795D01*
X52089142Y-67066795D01*
X52165333Y-67033462D01*
X52203428Y-67000129D01*
X52241523Y-66933462D01*
X52279619Y-66800129D01*
X52279619Y-66633462D01*
X52241523Y-66500129D01*
X52203428Y-66433462D01*
X52165333Y-66400129D01*
X52089142Y-66366795D01*
X52038190Y-78843190D02*
X52038190Y-79319380D01*
X52371523Y-78319380D02*
X52038190Y-78843190D01*
X51704857Y-78319380D01*
X50847714Y-79319380D02*
X51419142Y-79319380D01*
X51133428Y-79319380D02*
X51133428Y-78319380D01*
X51228666Y-78462238D01*
X51323904Y-78557476D01*
X51419142Y-78605095D01*
X53355980Y-56861390D02*
X53622647Y-56528057D01*
X53813123Y-56861390D02*
X53813123Y-56161390D01*
X53508361Y-56161390D01*
X53432171Y-56194724D01*
X53394075Y-56228057D01*
X53355980Y-56294724D01*
X53355980Y-56394724D01*
X53394075Y-56461390D01*
X53432171Y-56494724D01*
X53508361Y-56528057D01*
X53813123Y-56528057D01*
X52594075Y-56861390D02*
X53051218Y-56861390D01*
X52822647Y-56861390D02*
X52822647Y-56161390D01*
X52898837Y-56261390D01*
X52975028Y-56328057D01*
X53051218Y-56361390D01*
X52136933Y-56461390D02*
X52213123Y-56428057D01*
X52251218Y-56394724D01*
X52289314Y-56328057D01*
X52289314Y-56294724D01*
X52251218Y-56228057D01*
X52213123Y-56194724D01*
X52136933Y-56161390D01*
X51984552Y-56161390D01*
X51908361Y-56194724D01*
X51870266Y-56228057D01*
X51832171Y-56294724D01*
X51832171Y-56328057D01*
X51870266Y-56394724D01*
X51908361Y-56428057D01*
X51984552Y-56461390D01*
X52136933Y-56461390D01*
X52213123Y-56494724D01*
X52251218Y-56528057D01*
X52289314Y-56594724D01*
X52289314Y-56728057D01*
X52251218Y-56794724D01*
X52213123Y-56828057D01*
X52136933Y-56861390D01*
X51984552Y-56861390D01*
X51908361Y-56828057D01*
X51870266Y-56794724D01*
X51832171Y-56728057D01*
X51832171Y-56594724D01*
X51870266Y-56528057D01*
X51908361Y-56494724D01*
X51984552Y-56461390D01*
X56729190Y-33123142D02*
X56776809Y-33170761D01*
X56919666Y-33218380D01*
X57014904Y-33218380D01*
X57157761Y-33170761D01*
X57253000Y-33075523D01*
X57300619Y-32980285D01*
X57348238Y-32789809D01*
X57348238Y-32646952D01*
X57300619Y-32456476D01*
X57253000Y-32361238D01*
X57157761Y-32266000D01*
X57014904Y-32218380D01*
X56919666Y-32218380D01*
X56776809Y-32266000D01*
X56729190Y-32313619D01*
X56538714Y-33313619D02*
X55776809Y-33313619D01*
X55062523Y-32218380D02*
X55538714Y-32218380D01*
X55586333Y-32694571D01*
X55538714Y-32646952D01*
X55443476Y-32599333D01*
X55205380Y-32599333D01*
X55110142Y-32646952D01*
X55062523Y-32694571D01*
X55014904Y-32789809D01*
X55014904Y-33027904D01*
X55062523Y-33123142D01*
X55110142Y-33170761D01*
X55205380Y-33218380D01*
X55443476Y-33218380D01*
X55538714Y-33170761D01*
X55586333Y-33123142D01*
X54729190Y-32218380D02*
X54395857Y-33218380D01*
X54062523Y-32218380D01*
X44202285Y-47986904D02*
X44468952Y-47605952D01*
X44659428Y-47986904D02*
X44659428Y-47186904D01*
X44354666Y-47186904D01*
X44278476Y-47225000D01*
X44240380Y-47263095D01*
X44202285Y-47339285D01*
X44202285Y-47453571D01*
X44240380Y-47529761D01*
X44278476Y-47567857D01*
X44354666Y-47605952D01*
X44659428Y-47605952D01*
X43440380Y-47986904D02*
X43897523Y-47986904D01*
X43668952Y-47986904D02*
X43668952Y-47186904D01*
X43745142Y-47301190D01*
X43821333Y-47377380D01*
X43897523Y-47415476D01*
X42716571Y-47186904D02*
X43097523Y-47186904D01*
X43135619Y-47567857D01*
X43097523Y-47529761D01*
X43021333Y-47491666D01*
X42830857Y-47491666D01*
X42754666Y-47529761D01*
X42716571Y-47567857D01*
X42678476Y-47644047D01*
X42678476Y-47834523D01*
X42716571Y-47910714D01*
X42754666Y-47948809D01*
X42830857Y-47986904D01*
X43021333Y-47986904D01*
X43097523Y-47948809D01*
X43135619Y-47910714D01*
X40473190Y-73382142D02*
X40520809Y-73429761D01*
X40663666Y-73477380D01*
X40758904Y-73477380D01*
X40901761Y-73429761D01*
X40997000Y-73334523D01*
X41044619Y-73239285D01*
X41092238Y-73048809D01*
X41092238Y-72905952D01*
X41044619Y-72715476D01*
X40997000Y-72620238D01*
X40901761Y-72525000D01*
X40758904Y-72477380D01*
X40663666Y-72477380D01*
X40520809Y-72525000D01*
X40473190Y-72572619D01*
X40282714Y-73572619D02*
X39520809Y-73572619D01*
X38806523Y-72477380D02*
X39282714Y-72477380D01*
X39330333Y-72953571D01*
X39282714Y-72905952D01*
X39187476Y-72858333D01*
X38949380Y-72858333D01*
X38854142Y-72905952D01*
X38806523Y-72953571D01*
X38758904Y-73048809D01*
X38758904Y-73286904D01*
X38806523Y-73382142D01*
X38854142Y-73429761D01*
X38949380Y-73477380D01*
X39187476Y-73477380D01*
X39282714Y-73429761D01*
X39330333Y-73382142D01*
X38473190Y-72477380D02*
X38139857Y-73477380D01*
X37806523Y-72477380D01*
X53300860Y-59393313D02*
X53567527Y-59059980D01*
X53758003Y-59393313D02*
X53758003Y-58693313D01*
X53453241Y-58693313D01*
X53377051Y-58726647D01*
X53338955Y-58759980D01*
X53300860Y-58826647D01*
X53300860Y-58926647D01*
X53338955Y-58993313D01*
X53377051Y-59026647D01*
X53453241Y-59059980D01*
X53758003Y-59059980D01*
X52538955Y-59393313D02*
X52996098Y-59393313D01*
X52767527Y-59393313D02*
X52767527Y-58693313D01*
X52843717Y-58793313D01*
X52919908Y-58859980D01*
X52996098Y-58893313D01*
X51853241Y-58693313D02*
X52005622Y-58693313D01*
X52081813Y-58726647D01*
X52119908Y-58759980D01*
X52196098Y-58859980D01*
X52234194Y-58993313D01*
X52234194Y-59259980D01*
X52196098Y-59326647D01*
X52158003Y-59359980D01*
X52081813Y-59393313D01*
X51929432Y-59393313D01*
X51853241Y-59359980D01*
X51815146Y-59326647D01*
X51777051Y-59259980D01*
X51777051Y-59093313D01*
X51815146Y-59026647D01*
X51853241Y-58993313D01*
X51929432Y-58959980D01*
X52081813Y-58959980D01*
X52158003Y-58993313D01*
X52196098Y-59026647D01*
X52234194Y-59093313D01*
X36917190Y-96242142D02*
X36964809Y-96289761D01*
X37107666Y-96337380D01*
X37202904Y-96337380D01*
X37345761Y-96289761D01*
X37441000Y-96194523D01*
X37488619Y-96099285D01*
X37536238Y-95908809D01*
X37536238Y-95765952D01*
X37488619Y-95575476D01*
X37441000Y-95480238D01*
X37345761Y-95385000D01*
X37202904Y-95337380D01*
X37107666Y-95337380D01*
X36964809Y-95385000D01*
X36917190Y-95432619D01*
X36726714Y-96432619D02*
X35964809Y-96432619D01*
X35250523Y-95337380D02*
X35726714Y-95337380D01*
X35774333Y-95813571D01*
X35726714Y-95765952D01*
X35631476Y-95718333D01*
X35393380Y-95718333D01*
X35298142Y-95765952D01*
X35250523Y-95813571D01*
X35202904Y-95908809D01*
X35202904Y-96146904D01*
X35250523Y-96242142D01*
X35298142Y-96289761D01*
X35393380Y-96337380D01*
X35631476Y-96337380D01*
X35726714Y-96289761D01*
X35774333Y-96242142D01*
X34917190Y-95337380D02*
X34583857Y-96337380D01*
X34250523Y-95337380D01*
X58172285Y-66385904D02*
X58438952Y-66004952D01*
X58629428Y-66385904D02*
X58629428Y-65585904D01*
X58324666Y-65585904D01*
X58248476Y-65624000D01*
X58210380Y-65662095D01*
X58172285Y-65738285D01*
X58172285Y-65852571D01*
X58210380Y-65928761D01*
X58248476Y-65966857D01*
X58324666Y-66004952D01*
X58629428Y-66004952D01*
X57867523Y-65662095D02*
X57829428Y-65624000D01*
X57753238Y-65585904D01*
X57562761Y-65585904D01*
X57486571Y-65624000D01*
X57448476Y-65662095D01*
X57410380Y-65738285D01*
X57410380Y-65814476D01*
X57448476Y-65928761D01*
X57905619Y-66385904D01*
X57410380Y-66385904D01*
X56648476Y-66385904D02*
X57105619Y-66385904D01*
X56877047Y-66385904D02*
X56877047Y-65585904D01*
X56953238Y-65700190D01*
X57029428Y-65776380D01*
X57105619Y-65814476D01*
X58299285Y-62718904D02*
X58565952Y-62337952D01*
X58756428Y-62718904D02*
X58756428Y-61918904D01*
X58451666Y-61918904D01*
X58375476Y-61957000D01*
X58337380Y-61995095D01*
X58299285Y-62071285D01*
X58299285Y-62185571D01*
X58337380Y-62261761D01*
X58375476Y-62299857D01*
X58451666Y-62337952D01*
X58756428Y-62337952D01*
X57537380Y-62718904D02*
X57994523Y-62718904D01*
X57765952Y-62718904D02*
X57765952Y-61918904D01*
X57842142Y-62033190D01*
X57918333Y-62109380D01*
X57994523Y-62147476D01*
X57270714Y-61918904D02*
X56737380Y-61918904D01*
X57080238Y-62718904D01*
X75652190Y-33123142D02*
X75699809Y-33170761D01*
X75842666Y-33218380D01*
X75937904Y-33218380D01*
X76080761Y-33170761D01*
X76176000Y-33075523D01*
X76223619Y-32980285D01*
X76271238Y-32789809D01*
X76271238Y-32646952D01*
X76223619Y-32456476D01*
X76176000Y-32361238D01*
X76080761Y-32266000D01*
X75937904Y-32218380D01*
X75842666Y-32218380D01*
X75699809Y-32266000D01*
X75652190Y-32313619D01*
X75461714Y-33313619D02*
X74699809Y-33313619D01*
X73985523Y-32218380D02*
X74461714Y-32218380D01*
X74509333Y-32694571D01*
X74461714Y-32646952D01*
X74366476Y-32599333D01*
X74128380Y-32599333D01*
X74033142Y-32646952D01*
X73985523Y-32694571D01*
X73937904Y-32789809D01*
X73937904Y-33027904D01*
X73985523Y-33123142D01*
X74033142Y-33170761D01*
X74128380Y-33218380D01*
X74366476Y-33218380D01*
X74461714Y-33170761D01*
X74509333Y-33123142D01*
X73652190Y-32218380D02*
X73318857Y-33218380D01*
X72985523Y-32218380D01*
X76287190Y-90908142D02*
X76334809Y-90955761D01*
X76477666Y-91003380D01*
X76572904Y-91003380D01*
X76715761Y-90955761D01*
X76811000Y-90860523D01*
X76858619Y-90765285D01*
X76906238Y-90574809D01*
X76906238Y-90431952D01*
X76858619Y-90241476D01*
X76811000Y-90146238D01*
X76715761Y-90051000D01*
X76572904Y-90003380D01*
X76477666Y-90003380D01*
X76334809Y-90051000D01*
X76287190Y-90098619D01*
X76096714Y-91098619D02*
X75334809Y-91098619D01*
X75191952Y-90003380D02*
X74572904Y-90003380D01*
X74906238Y-90384333D01*
X74763380Y-90384333D01*
X74668142Y-90431952D01*
X74620523Y-90479571D01*
X74572904Y-90574809D01*
X74572904Y-90812904D01*
X74620523Y-90908142D01*
X74668142Y-90955761D01*
X74763380Y-91003380D01*
X75049095Y-91003380D01*
X75144333Y-90955761D01*
X75191952Y-90908142D01*
X74287190Y-90003380D02*
X73953857Y-91003380D01*
X73620523Y-90003380D01*
X53346285Y-51751666D02*
X53612952Y-51418333D01*
X53803428Y-51751666D02*
X53803428Y-51051666D01*
X53498666Y-51051666D01*
X53422476Y-51085000D01*
X53384380Y-51118333D01*
X53346285Y-51185000D01*
X53346285Y-51285000D01*
X53384380Y-51351666D01*
X53422476Y-51385000D01*
X53498666Y-51418333D01*
X53803428Y-51418333D01*
X53041523Y-51118333D02*
X53003428Y-51085000D01*
X52927238Y-51051666D01*
X52736761Y-51051666D01*
X52660571Y-51085000D01*
X52622476Y-51118333D01*
X52584380Y-51185000D01*
X52584380Y-51251666D01*
X52622476Y-51351666D01*
X53079619Y-51751666D01*
X52584380Y-51751666D01*
X51898666Y-51051666D02*
X52051047Y-51051666D01*
X52127238Y-51085000D01*
X52165333Y-51118333D01*
X52241523Y-51218333D01*
X52279619Y-51351666D01*
X52279619Y-51618333D01*
X52241523Y-51685000D01*
X52203428Y-51718333D01*
X52127238Y-51751666D01*
X51974857Y-51751666D01*
X51898666Y-51718333D01*
X51860571Y-51685000D01*
X51822476Y-51618333D01*
X51822476Y-51451666D01*
X51860571Y-51385000D01*
X51898666Y-51351666D01*
X51974857Y-51318333D01*
X52127238Y-51318333D01*
X52203428Y-51351666D01*
X52241523Y-51385000D01*
X52279619Y-51451666D01*
X58172285Y-56114904D02*
X58438952Y-55733952D01*
X58629428Y-56114904D02*
X58629428Y-55314904D01*
X58324666Y-55314904D01*
X58248476Y-55353000D01*
X58210380Y-55391095D01*
X58172285Y-55467285D01*
X58172285Y-55581571D01*
X58210380Y-55657761D01*
X58248476Y-55695857D01*
X58324666Y-55733952D01*
X58629428Y-55733952D01*
X57867523Y-55391095D02*
X57829428Y-55353000D01*
X57753238Y-55314904D01*
X57562761Y-55314904D01*
X57486571Y-55353000D01*
X57448476Y-55391095D01*
X57410380Y-55467285D01*
X57410380Y-55543476D01*
X57448476Y-55657761D01*
X57905619Y-56114904D01*
X57410380Y-56114904D01*
X57143714Y-55314904D02*
X56648476Y-55314904D01*
X56915142Y-55619666D01*
X56800857Y-55619666D01*
X56724666Y-55657761D01*
X56686571Y-55695857D01*
X56648476Y-55772047D01*
X56648476Y-55962523D01*
X56686571Y-56038714D01*
X56724666Y-56076809D01*
X56800857Y-56114904D01*
X57029428Y-56114904D01*
X57105619Y-56076809D01*
X57143714Y-56038714D01*
X53346285Y-54316304D02*
X53612952Y-53982971D01*
X53803428Y-54316304D02*
X53803428Y-53616304D01*
X53498666Y-53616304D01*
X53422476Y-53649638D01*
X53384380Y-53682971D01*
X53346285Y-53749638D01*
X53346285Y-53849638D01*
X53384380Y-53916304D01*
X53422476Y-53949638D01*
X53498666Y-53982971D01*
X53803428Y-53982971D01*
X53041523Y-53682971D02*
X53003428Y-53649638D01*
X52927238Y-53616304D01*
X52736761Y-53616304D01*
X52660571Y-53649638D01*
X52622476Y-53682971D01*
X52584380Y-53749638D01*
X52584380Y-53816304D01*
X52622476Y-53916304D01*
X53079619Y-54316304D01*
X52584380Y-54316304D01*
X51898666Y-53849638D02*
X51898666Y-54316304D01*
X52089142Y-53582971D02*
X52279619Y-54082971D01*
X51784380Y-54082971D01*
X53327950Y-69580279D02*
X53594617Y-69246946D01*
X53785093Y-69580279D02*
X53785093Y-68880279D01*
X53480331Y-68880279D01*
X53404141Y-68913613D01*
X53366045Y-68946946D01*
X53327950Y-69013613D01*
X53327950Y-69113613D01*
X53366045Y-69180279D01*
X53404141Y-69213613D01*
X53480331Y-69246946D01*
X53785093Y-69246946D01*
X52566045Y-69580279D02*
X53023188Y-69580279D01*
X52794617Y-69580279D02*
X52794617Y-68880279D01*
X52870807Y-68980279D01*
X52946998Y-69046946D01*
X53023188Y-69080279D01*
X51880331Y-69113613D02*
X51880331Y-69580279D01*
X52070807Y-68846946D02*
X52261284Y-69346946D01*
X51766045Y-69346946D01*
D11*
X68664381Y-98391757D02*
X68664381Y-98137757D01*
X68664381Y-95597757D02*
X68664381Y-95343757D01*
X69680381Y-95597757D02*
X69680381Y-98137757D01*
X67775381Y-95597757D02*
X69680381Y-95597757D01*
X69680381Y-98137757D02*
X67775381Y-98137757D01*
X67775381Y-98137757D02*
X67775381Y-95597757D01*
X69654981Y-96207357D02*
X67800781Y-96181957D01*
X64670000Y-47270936D02*
X64670000Y-47725064D01*
X66140000Y-47270936D02*
X66140000Y-47725064D01*
X62130000Y-47270936D02*
X62130000Y-47725064D01*
X63600000Y-47270936D02*
X63600000Y-47725064D01*
X49684000Y-43460936D02*
X49684000Y-43915064D01*
X51154000Y-43460936D02*
X51154000Y-43915064D01*
X58955000Y-43460936D02*
X58955000Y-43915064D01*
X60425000Y-43460936D02*
X60425000Y-43915064D01*
X65669936Y-56615000D02*
X66124064Y-56615000D01*
X65669936Y-55145000D02*
X66124064Y-55145000D01*
X65685936Y-58520000D02*
X66140064Y-58520000D01*
X65685936Y-57050000D02*
X66140064Y-57050000D01*
X65685936Y-60425000D02*
X66140064Y-60425000D01*
X65685936Y-58955000D02*
X66140064Y-58955000D01*
X55145000Y-43460936D02*
X55145000Y-43915064D01*
X56615000Y-43460936D02*
X56615000Y-43915064D01*
X54773000Y-43688000D02*
X54773000Y-43038000D01*
X51653000Y-43688000D02*
X51653000Y-43038000D01*
X54773000Y-43688000D02*
X54773000Y-45363000D01*
X51653000Y-43688000D02*
X51653000Y-44338000D01*
X58393000Y-52839252D02*
X58393000Y-52316748D01*
X56923000Y-52839252D02*
X56923000Y-52316748D01*
X60425000Y-52839252D02*
X60425000Y-52316748D01*
X58955000Y-52839252D02*
X58955000Y-52316748D01*
X49249000Y-43949252D02*
X49249000Y-43426748D01*
X47779000Y-43949252D02*
X47779000Y-43426748D01*
X57050000Y-43426748D02*
X57050000Y-43949252D01*
X58520000Y-43426748D02*
X58520000Y-43949252D01*
X48895000Y-66929000D02*
X48895000Y-68834000D01*
X49149000Y-67945000D02*
X48895000Y-67945000D01*
X46355000Y-68834000D02*
X46355000Y-66929000D01*
X46355000Y-67945000D02*
X46101000Y-67945000D01*
X46355000Y-66929000D02*
X48895000Y-66929000D01*
X48895000Y-68834000D02*
X46355000Y-68834000D01*
X49149000Y-70485000D02*
X48895000Y-70485000D01*
X46355000Y-70485000D02*
X46101000Y-70485000D01*
X46355000Y-69469000D02*
X48895000Y-69469000D01*
X46355000Y-71374000D02*
X46355000Y-69469000D01*
X48895000Y-69469000D02*
X48895000Y-71374000D01*
X48895000Y-71374000D02*
X46355000Y-71374000D01*
X48895000Y-54229000D02*
X48895000Y-56134000D01*
X48895000Y-56134000D02*
X46355000Y-56134000D01*
X46355000Y-54229000D02*
X48895000Y-54229000D01*
X49149000Y-55245000D02*
X48895000Y-55245000D01*
X46355000Y-55245000D02*
X46101000Y-55245000D01*
X46355000Y-56134000D02*
X46355000Y-54229000D01*
X46355000Y-51689000D02*
X48895000Y-51689000D01*
X46355000Y-53594000D02*
X46355000Y-51689000D01*
X48895000Y-53594000D02*
X46355000Y-53594000D01*
X48895000Y-51689000D02*
X48895000Y-53594000D01*
X46355000Y-52705000D02*
X46101000Y-52705000D01*
X49149000Y-52705000D02*
X48895000Y-52705000D01*
X40513000Y-59436000D02*
X42418000Y-59436000D01*
X41529000Y-59182000D02*
X41529000Y-59436000D01*
X41529000Y-61976000D02*
X41529000Y-62230000D01*
X42418000Y-59436000D02*
X42418000Y-61976000D01*
X40513000Y-61976000D02*
X40513000Y-59436000D01*
X42418000Y-61976000D02*
X40513000Y-61976000D01*
X46355000Y-61214000D02*
X46355000Y-59309000D01*
X46355000Y-59309000D02*
X48895000Y-59309000D01*
X46355000Y-60325000D02*
X46101000Y-60325000D01*
X49149000Y-60325000D02*
X48895000Y-60325000D01*
X48895000Y-61214000D02*
X46355000Y-61214000D01*
X48895000Y-59309000D02*
X48895000Y-61214000D01*
X49149000Y-57785000D02*
X48895000Y-57785000D01*
X46355000Y-56769000D02*
X48895000Y-56769000D01*
X46355000Y-57785000D02*
X46101000Y-57785000D01*
X46355000Y-58674000D02*
X46355000Y-56769000D01*
X48895000Y-58674000D02*
X46355000Y-58674000D01*
X48895000Y-56769000D02*
X48895000Y-58674000D01*
X48895000Y-64389000D02*
X48895000Y-66294000D01*
X46355000Y-66294000D02*
X46355000Y-64389000D01*
X49149000Y-65405000D02*
X48895000Y-65405000D01*
X48895000Y-66294000D02*
X46355000Y-66294000D01*
X46355000Y-64389000D02*
X48895000Y-64389000D01*
X46355000Y-65405000D02*
X46101000Y-65405000D01*
X46355000Y-72009000D02*
X48895000Y-72009000D01*
X48895000Y-73914000D02*
X46355000Y-73914000D01*
X46355000Y-73025000D02*
X46101000Y-73025000D01*
X46355000Y-73914000D02*
X46355000Y-72009000D01*
X48895000Y-72009000D02*
X48895000Y-73914000D01*
X49149000Y-73025000D02*
X48895000Y-73025000D01*
X56488000Y-58081936D02*
X56488000Y-58536064D01*
X55018000Y-58081936D02*
X55018000Y-58536064D01*
X52604936Y-50773000D02*
X53059064Y-50773000D01*
X52604936Y-49303000D02*
X53059064Y-49303000D01*
X44069000Y-107188000D02*
X44069000Y-106426000D01*
X46278748Y-105447000D02*
X47701252Y-105447000D01*
X43688000Y-106807000D02*
X44450000Y-106807000D01*
X46278748Y-108167000D02*
X47701252Y-108167000D01*
X52604936Y-66140000D02*
X53059064Y-66140000D01*
X52604936Y-64670000D02*
X53059064Y-64670000D01*
X40081252Y-71083000D02*
X38658748Y-71083000D01*
X40081252Y-68363000D02*
X38658748Y-68363000D01*
X42672000Y-69723000D02*
X41910000Y-69723000D01*
X42291000Y-69342000D02*
X42291000Y-70104000D01*
X62992000Y-39068500D02*
X62992000Y-38306500D01*
X63373000Y-38687500D02*
X62611000Y-38687500D01*
X61632000Y-36477752D02*
X61632000Y-35055248D01*
X64352000Y-36477752D02*
X64352000Y-35055248D01*
X55018000Y-50445936D02*
X55018000Y-50900064D01*
X56488000Y-50445936D02*
X56488000Y-50900064D01*
X52604936Y-68680000D02*
X53059064Y-68680000D01*
X52604936Y-67210000D02*
X53059064Y-67210000D01*
X51312800Y-87133400D02*
X51312800Y-86893400D01*
X51912800Y-79527400D02*
X51312800Y-79527400D01*
X53562800Y-84310400D02*
X53562800Y-82110400D01*
X49662800Y-84310400D02*
X49422800Y-84310400D01*
X49662800Y-82110400D02*
X49662800Y-84310400D01*
X51312800Y-86893400D02*
X51912800Y-86893400D01*
X52604936Y-57050000D02*
X53059064Y-57050000D01*
X52604936Y-58520000D02*
X53059064Y-58520000D01*
X56134000Y-38687500D02*
X55372000Y-38687500D01*
X57113000Y-36477752D02*
X57113000Y-35055248D01*
X54393000Y-36477752D02*
X54393000Y-35055248D01*
X55753000Y-39068500D02*
X55753000Y-38306500D01*
X42953000Y-50011064D02*
X42953000Y-49556936D01*
X44423000Y-50011064D02*
X44423000Y-49556936D01*
X42672000Y-75184000D02*
X41910000Y-75184000D01*
X40081252Y-73824000D02*
X38658748Y-73824000D01*
X40081252Y-76544000D02*
X38658748Y-76544000D01*
X42291000Y-74803000D02*
X42291000Y-75565000D01*
X52604936Y-61060000D02*
X53059064Y-61060000D01*
X52604936Y-59590000D02*
X53059064Y-59590000D01*
X35941000Y-89582500D02*
X35941000Y-90344500D01*
X35560000Y-89963500D02*
X36322000Y-89963500D01*
X34581000Y-92173248D02*
X34581000Y-93595752D01*
X37301000Y-92173248D02*
X37301000Y-93595752D01*
X56488000Y-65796936D02*
X56488000Y-66251064D01*
X55018000Y-65796936D02*
X55018000Y-66251064D01*
X55018000Y-61986936D02*
X55018000Y-62441064D01*
X56488000Y-61986936D02*
X56488000Y-62441064D01*
X73316000Y-36477752D02*
X73316000Y-35055248D01*
X74676000Y-39068500D02*
X74676000Y-38306500D01*
X75057000Y-38687500D02*
X74295000Y-38687500D01*
X76036000Y-36477752D02*
X76036000Y-35055248D01*
X75572252Y-89762000D02*
X75049748Y-89762000D01*
X75572252Y-88292000D02*
X75049748Y-88292000D01*
X52604936Y-51970000D02*
X53059064Y-51970000D01*
X52604936Y-53440000D02*
X53059064Y-53440000D01*
X56488000Y-54271936D02*
X56488000Y-54726064D01*
X55018000Y-54271936D02*
X55018000Y-54726064D01*
X52604936Y-54510000D02*
X53059064Y-54510000D01*
X52604936Y-55980000D02*
X53059064Y-55980000D01*
X52604936Y-69750000D02*
X53059064Y-69750000D01*
X52604936Y-71220000D02*
X53059064Y-71220000D01*
%LPC*%
D12*
X46482000Y-44069000D03*
D13*
X43982000Y-44069000D03*
D14*
X68664381Y-99280757D03*
D12*
X68664381Y-94454757D03*
D15*
X61976000Y-70485000D03*
D16*
X61976000Y-67945000D03*
D15*
X59309000Y-70485000D03*
D16*
X59309000Y-67945000D03*
D15*
X62865000Y-50419000D03*
D16*
X62865000Y-52959000D03*
D15*
X65532000Y-50419000D03*
D16*
X65532000Y-52959000D03*
D17*
X65405000Y-46498000D03*
X65405000Y-48498000D03*
X62865000Y-46498000D03*
X62865000Y-48498000D03*
D12*
X48895000Y-49022000D03*
D13*
X46395000Y-49022000D03*
D17*
X50419000Y-42688000D03*
X50419000Y-44688000D03*
X59690000Y-42688000D03*
X59690000Y-44688000D03*
D18*
X64897000Y-55880000D03*
X66897000Y-55880000D03*
X64913000Y-57785000D03*
X66913000Y-57785000D03*
X64913000Y-59690000D03*
X66913000Y-59690000D03*
D17*
X55880000Y-42688000D03*
X55880000Y-44688000D03*
D19*
X54163000Y-44625500D03*
X52263000Y-44625500D03*
X53213000Y-42750500D03*
D20*
X57658000Y-53615500D03*
X57658000Y-51540500D03*
X59690000Y-53615500D03*
X59690000Y-51540500D03*
X48514000Y-44725500D03*
X48514000Y-42650500D03*
D21*
X57785000Y-42650500D03*
X57785000Y-44725500D03*
D14*
X45212000Y-67945000D03*
X50038000Y-67945000D03*
D22*
X50046413Y-62888717D03*
D14*
X45212000Y-70485000D03*
X50038000Y-70485000D03*
D16*
X69723000Y-81280000D03*
X69723000Y-78740000D03*
D14*
X45212000Y-55245000D03*
X50038000Y-55245000D03*
D16*
X67056000Y-81280000D03*
X67056000Y-78740000D03*
X67056000Y-76200000D03*
X69806000Y-76200000D03*
X72390000Y-86360000D03*
X72390000Y-83820000D03*
X72390000Y-81280000D03*
X72390000Y-78740000D03*
X72390000Y-76200000D03*
X72390000Y-73660000D03*
X72390000Y-71120000D03*
X72390000Y-68580000D03*
X72390000Y-66040000D03*
X72390000Y-63500000D03*
X72390000Y-60960000D03*
X72390000Y-58420000D03*
X72390000Y-55880000D03*
X72390000Y-53340000D03*
X72390000Y-50800000D03*
X72390000Y-48260000D03*
X72390000Y-45720000D03*
X72390000Y-43180000D03*
X72390000Y-40640000D03*
X72390000Y-38100000D03*
D23*
X51500635Y-33684506D03*
X45720635Y-33684506D03*
D24*
X44290635Y-34214506D03*
D25*
X46172235Y-32463706D03*
D26*
X44290635Y-30034506D03*
D25*
X51012235Y-32463706D03*
D24*
X52930635Y-34214506D03*
D26*
X52930635Y-30034506D03*
D27*
X45535980Y-29629012D03*
X51631980Y-29657012D03*
D15*
X37284483Y-102508257D03*
D16*
X37284483Y-105048257D03*
X37284483Y-107588257D03*
X37284483Y-110128257D03*
D15*
X79375000Y-86355000D03*
D16*
X76835000Y-86355000D03*
X79375000Y-83815000D03*
X76835000Y-83815000D03*
X79375000Y-81275000D03*
X76835000Y-81275000D03*
X79375000Y-78735000D03*
X76835000Y-78735000D03*
X79375000Y-76195000D03*
X76835000Y-76195000D03*
X79375000Y-73655000D03*
X76835000Y-73655000D03*
X79375000Y-71115000D03*
X76835000Y-71115000D03*
X79375000Y-68575000D03*
X76835000Y-68575000D03*
X79375000Y-66035000D03*
X76835000Y-66035000D03*
X79375000Y-63495000D03*
X76835000Y-63495000D03*
X79375000Y-60955000D03*
X76835000Y-60955000D03*
X79375000Y-58415000D03*
X76835000Y-58415000D03*
X79375000Y-55875000D03*
X76835000Y-55875000D03*
X79375000Y-53335000D03*
X76835000Y-53335000D03*
X79375000Y-50795000D03*
X76835000Y-50795000D03*
X79375000Y-48255000D03*
X76835000Y-48255000D03*
X79375000Y-45715000D03*
X76835000Y-45715000D03*
X79375000Y-43175000D03*
X76835000Y-43175000D03*
X79375000Y-40635000D03*
X76835000Y-40635000D03*
X79375000Y-38095000D03*
X76835000Y-38095000D03*
D28*
X38227000Y-65038400D03*
D29*
X32267000Y-65038400D03*
X32267000Y-79538400D03*
D28*
X38227000Y-79538400D03*
D30*
X41275000Y-88900000D03*
D31*
X41275000Y-91400000D03*
X41275000Y-93400000D03*
X41275000Y-95900000D03*
D32*
X38565000Y-98970000D03*
X38565000Y-85830000D03*
D33*
X50066639Y-75569345D03*
D14*
X45212000Y-52705000D03*
X50038000Y-52705000D03*
D30*
X61270000Y-102222500D03*
D31*
X63770000Y-102222500D03*
X65770000Y-102222500D03*
X68270000Y-102222500D03*
D32*
X71340000Y-104932500D03*
X58200000Y-104932500D03*
D23*
X59949600Y-33682000D03*
X65729600Y-33682000D03*
D25*
X60401200Y-32461200D03*
D24*
X67159600Y-34212000D03*
D26*
X67159600Y-30032000D03*
D24*
X58519600Y-34212000D03*
D27*
X65860945Y-29654506D03*
D25*
X65241200Y-32461200D03*
D26*
X58519600Y-30032000D03*
D27*
X59764945Y-29626506D03*
D34*
X65024000Y-88011000D03*
X60144000Y-88011000D03*
D14*
X41529000Y-63119000D03*
X41529000Y-58293000D03*
D34*
X48564800Y-85762000D03*
X48564800Y-80882000D03*
D35*
X37958823Y-37707230D03*
X37958823Y-44407230D03*
D36*
X38158823Y-41057230D03*
D37*
X31175823Y-41057230D03*
D38*
X34258823Y-41057230D03*
D39*
X36158823Y-35342230D03*
X36158823Y-46772230D03*
D12*
X70993000Y-32910226D03*
D13*
X70993000Y-30410226D03*
D15*
X44810635Y-40005000D03*
D16*
X47350635Y-40005000D03*
X49890635Y-40005000D03*
X52430635Y-40005000D03*
D22*
X54483000Y-97917000D03*
D35*
X37973000Y-52657000D03*
X37973000Y-59357000D03*
D36*
X38173000Y-56007000D03*
D38*
X34273000Y-56007000D03*
D39*
X36173000Y-50292000D03*
X36173000Y-61722000D03*
D37*
X31190000Y-56007000D03*
D40*
X76806700Y-101970400D03*
X76806700Y-99200400D03*
X76806700Y-96430400D03*
X76806700Y-93660400D03*
D14*
X45212000Y-60325000D03*
X50038000Y-60325000D03*
D15*
X59065000Y-40005000D03*
D16*
X61605000Y-40005000D03*
X64145000Y-40005000D03*
X66685000Y-40005000D03*
D30*
X43490000Y-102222500D03*
D31*
X45990000Y-102222500D03*
X47990000Y-102222500D03*
X50490000Y-102222500D03*
D32*
X40420000Y-104932500D03*
X53560000Y-104932500D03*
D16*
X69723000Y-66040000D03*
X69723000Y-63500000D03*
X69723000Y-60960000D03*
X69723000Y-58420000D03*
X69723000Y-55880000D03*
X69723000Y-53340000D03*
X69723000Y-50800000D03*
X69723000Y-48260000D03*
X69723000Y-45720000D03*
X69723000Y-43180000D03*
X69723000Y-40640000D03*
X69723000Y-38100000D03*
D14*
X45212000Y-57785000D03*
X50038000Y-57785000D03*
X45212000Y-65405000D03*
X50038000Y-65405000D03*
X45212000Y-73025000D03*
X50038000Y-73025000D03*
D17*
X55753000Y-57309000D03*
X55753000Y-59309000D03*
D18*
X51832000Y-50038000D03*
X53832000Y-50038000D03*
D41*
X45623500Y-106807000D03*
X48356500Y-106807000D03*
D18*
X51832000Y-65405000D03*
X53832000Y-65405000D03*
D42*
X40736500Y-69723000D03*
X38003500Y-69723000D03*
D43*
X62764318Y-109982000D03*
X64764318Y-109982000D03*
X66764318Y-109982000D03*
D44*
X62992000Y-37133000D03*
X62992000Y-34400000D03*
D17*
X55753000Y-49673000D03*
X55753000Y-51673000D03*
D18*
X51832000Y-67945000D03*
X53832000Y-67945000D03*
D45*
X50408800Y-85242400D03*
D46*
X50408800Y-81241900D03*
X52816800Y-81241900D03*
D45*
X52816800Y-85242400D03*
D18*
X51832000Y-57785000D03*
X53832000Y-57785000D03*
D44*
X55753000Y-37133000D03*
X55753000Y-34400000D03*
D47*
X43688000Y-50784000D03*
X43688000Y-48784000D03*
D42*
X40736500Y-75184000D03*
X38003500Y-75184000D03*
D18*
X51832000Y-60325000D03*
X53832000Y-60325000D03*
D48*
X35941000Y-91518000D03*
X35941000Y-94251000D03*
D17*
X55753000Y-65024000D03*
X55753000Y-67024000D03*
X55753000Y-61214000D03*
X55753000Y-63214000D03*
D44*
X74676000Y-37133000D03*
X74676000Y-34400000D03*
D49*
X76348500Y-89027000D03*
X74273500Y-89027000D03*
D18*
X51832000Y-52705000D03*
X53832000Y-52705000D03*
D17*
X55753000Y-53499000D03*
X55753000Y-55499000D03*
D18*
X51832000Y-55245000D03*
X53832000Y-55245000D03*
X51832000Y-70485000D03*
X53832000Y-70485000D03*
M02*
