G04 #@! TF.GenerationSoftware,KiCad,Pcbnew,6.0.11-2627ca5db0~126~ubuntu20.04.1*
G04 #@! TF.CreationDate,2024-04-17T12:51:00+05:00*
G04 #@! TF.ProjectId,16EJU24,3136454a-5532-4342-9e6b-696361645f70,rev?*
G04 #@! TF.SameCoordinates,Original*
G04 #@! TF.FileFunction,Soldermask,Bot*
G04 #@! TF.FilePolarity,Negative*
%FSLAX46Y46*%
G04 Gerber Fmt 4.6, Leading zero omitted, Abs format (unit mm)*
G04 Created by KiCad (PCBNEW 6.0.11-2627ca5db0~126~ubuntu20.04.1) date 2024-04-17 12:51:00*
%MOMM*%
%LPD*%
G01*
G04 APERTURE LIST*
G04 Aperture macros list*
%AMRoundRect*
0 Rectangle with rounded corners*
0 $1 Rounding radius*
0 $2 $3 $4 $5 $6 $7 $8 $9 X,Y pos of 4 corners*
0 Add a 4 corners polygon primitive as box body*
4,1,4,$2,$3,$4,$5,$6,$7,$8,$9,$2,$3,0*
0 Add four circle primitives for the rounded corners*
1,1,$1+$1,$2,$3*
1,1,$1+$1,$4,$5*
1,1,$1+$1,$6,$7*
1,1,$1+$1,$8,$9*
0 Add four rect primitives between the rounded corners*
20,1,$1+$1,$2,$3,$4,$5,0*
20,1,$1+$1,$4,$5,$6,$7,0*
20,1,$1+$1,$6,$7,$8,$9,0*
20,1,$1+$1,$8,$9,$2,$3,0*%
G04 Aperture macros list end*
%ADD10R,1.800000X1.800000*%
%ADD11C,1.800000*%
%ADD12C,1.700000*%
%ADD13R,1.700000X1.700000*%
%ADD14O,1.700000X1.700000*%
%ADD15RoundRect,0.250000X-0.450000X0.350000X-0.450000X-0.350000X0.450000X-0.350000X0.450000X0.350000X0*%
%ADD16RoundRect,0.250000X-0.350000X-0.450000X0.350000X-0.450000X0.350000X0.450000X-0.350000X0.450000X0*%
%ADD17RoundRect,0.150000X0.150000X-0.587500X0.150000X0.587500X-0.150000X0.587500X-0.150000X-0.587500X0*%
%ADD18RoundRect,0.250000X0.475000X-0.337500X0.475000X0.337500X-0.475000X0.337500X-0.475000X-0.337500X0*%
%ADD19RoundRect,0.250000X-0.475000X0.337500X-0.475000X-0.337500X0.475000X-0.337500X0.475000X0.337500X0*%
%ADD20C,2.000000*%
%ADD21C,0.650000*%
%ADD22O,1.000000X2.100000*%
%ADD23O,1.100000X1.100000*%
%ADD24O,1.000000X1.600000*%
%ADD25O,2.000000X1.700000*%
%ADD26RoundRect,0.350000X-1.300000X0.350000X-1.300000X-0.350000X1.300000X-0.350000X1.300000X0.350000X0*%
%ADD27RoundRect,0.350000X-0.700000X0.350000X-0.700000X-0.350000X0.700000X-0.350000X0.700000X0.350000X0*%
%ADD28R,1.524000X1.524000*%
%ADD29C,1.524000*%
%ADD30C,3.500000*%
%ADD31R,2.000000X2.000000*%
%ADD32C,1.500000*%
%ADD33O,4.000000X2.000000*%
%ADD34O,4.400000X2.000000*%
%ADD35O,2.400000X3.900000*%
%ADD36O,2.700000X3.700000*%
%ADD37O,4.700000X2.000000*%
%ADD38R,3.480000X1.846667*%
%ADD39RoundRect,0.323962X-0.534538X-1.026038X0.534538X-1.026038X0.534538X1.026038X-0.534538X1.026038X0*%
%ADD40RoundRect,0.323962X0.534538X1.026038X-0.534538X1.026038X-0.534538X-1.026038X0.534538X-1.026038X0*%
%ADD41R,1.600000X7.000000*%
%ADD42RoundRect,0.323962X1.026038X-0.534538X1.026038X0.534538X-1.026038X0.534538X-1.026038X-0.534538X0*%
%ADD43R,1.392000X3.048000*%
%ADD44R,1.392000X2.921000*%
%ADD45RoundRect,0.250000X0.450000X-0.350000X0.450000X0.350000X-0.450000X0.350000X-0.450000X-0.350000X0*%
%ADD46RoundRect,0.323962X-1.026038X0.534538X-1.026038X-0.534538X1.026038X-0.534538X1.026038X0.534538X0*%
%ADD47RoundRect,0.250000X0.337500X0.475000X-0.337500X0.475000X-0.337500X-0.475000X0.337500X-0.475000X0*%
G04 APERTURE END LIST*
D10*
X46482000Y-44069000D03*
D11*
X43982000Y-44069000D03*
D12*
X68664381Y-99280757D03*
D10*
X68664381Y-94454757D03*
D13*
X61976000Y-70485000D03*
D14*
X61976000Y-67945000D03*
D13*
X59309000Y-70485000D03*
D14*
X59309000Y-67945000D03*
D13*
X62865000Y-50419000D03*
D14*
X62865000Y-52959000D03*
D13*
X65532000Y-50419000D03*
D14*
X65532000Y-52959000D03*
D15*
X65405000Y-46498000D03*
X65405000Y-48498000D03*
X62865000Y-46498000D03*
X62865000Y-48498000D03*
D10*
X48895000Y-49022000D03*
D11*
X46395000Y-49022000D03*
D15*
X50419000Y-42688000D03*
X50419000Y-44688000D03*
X59690000Y-42688000D03*
X59690000Y-44688000D03*
D16*
X64897000Y-55880000D03*
X66897000Y-55880000D03*
X64913000Y-57785000D03*
X66913000Y-57785000D03*
X64913000Y-59690000D03*
X66913000Y-59690000D03*
D15*
X55880000Y-42688000D03*
X55880000Y-44688000D03*
D17*
X54163000Y-44625500D03*
X52263000Y-44625500D03*
X53213000Y-42750500D03*
D18*
X57658000Y-53615500D03*
X57658000Y-51540500D03*
X59690000Y-53615500D03*
X59690000Y-51540500D03*
X48514000Y-44725500D03*
X48514000Y-42650500D03*
D19*
X57785000Y-42650500D03*
X57785000Y-44725500D03*
D12*
X45212000Y-67945000D03*
X50038000Y-67945000D03*
D20*
X50046413Y-62888717D03*
D12*
X45212000Y-70485000D03*
X50038000Y-70485000D03*
D14*
X69723000Y-81280000D03*
X69723000Y-78740000D03*
D12*
X45212000Y-55245000D03*
X50038000Y-55245000D03*
D14*
X67056000Y-81280000D03*
X67056000Y-78740000D03*
X67056000Y-76200000D03*
X69806000Y-76200000D03*
X72390000Y-86360000D03*
X72390000Y-83820000D03*
X72390000Y-81280000D03*
X72390000Y-78740000D03*
X72390000Y-76200000D03*
X72390000Y-73660000D03*
X72390000Y-71120000D03*
X72390000Y-68580000D03*
X72390000Y-66040000D03*
X72390000Y-63500000D03*
X72390000Y-60960000D03*
X72390000Y-58420000D03*
X72390000Y-55880000D03*
X72390000Y-53340000D03*
X72390000Y-50800000D03*
X72390000Y-48260000D03*
X72390000Y-45720000D03*
X72390000Y-43180000D03*
X72390000Y-40640000D03*
X72390000Y-38100000D03*
D21*
X51500635Y-33684506D03*
X45720635Y-33684506D03*
D22*
X44290635Y-34214506D03*
D23*
X46172235Y-32463706D03*
D24*
X44290635Y-30034506D03*
D23*
X51012235Y-32463706D03*
D22*
X52930635Y-34214506D03*
D24*
X52930635Y-30034506D03*
D25*
X45535980Y-29629012D03*
X51631980Y-29657012D03*
D13*
X37284483Y-102508257D03*
D14*
X37284483Y-105048257D03*
X37284483Y-107588257D03*
X37284483Y-110128257D03*
D13*
X79375000Y-86355000D03*
D14*
X76835000Y-86355000D03*
X79375000Y-83815000D03*
X76835000Y-83815000D03*
X79375000Y-81275000D03*
X76835000Y-81275000D03*
X79375000Y-78735000D03*
X76835000Y-78735000D03*
X79375000Y-76195000D03*
X76835000Y-76195000D03*
X79375000Y-73655000D03*
X76835000Y-73655000D03*
X79375000Y-71115000D03*
X76835000Y-71115000D03*
X79375000Y-68575000D03*
X76835000Y-68575000D03*
X79375000Y-66035000D03*
X76835000Y-66035000D03*
X79375000Y-63495000D03*
X76835000Y-63495000D03*
X79375000Y-60955000D03*
X76835000Y-60955000D03*
X79375000Y-58415000D03*
X76835000Y-58415000D03*
X79375000Y-55875000D03*
X76835000Y-55875000D03*
X79375000Y-53335000D03*
X76835000Y-53335000D03*
X79375000Y-50795000D03*
X76835000Y-50795000D03*
X79375000Y-48255000D03*
X76835000Y-48255000D03*
X79375000Y-45715000D03*
X76835000Y-45715000D03*
X79375000Y-43175000D03*
X76835000Y-43175000D03*
X79375000Y-40635000D03*
X76835000Y-40635000D03*
X79375000Y-38095000D03*
X76835000Y-38095000D03*
D26*
X38227000Y-65038400D03*
D27*
X32267000Y-65038400D03*
X32267000Y-79538400D03*
D26*
X38227000Y-79538400D03*
D28*
X41275000Y-88900000D03*
D29*
X41275000Y-91400000D03*
X41275000Y-93400000D03*
X41275000Y-95900000D03*
D30*
X38565000Y-98970000D03*
X38565000Y-85830000D03*
D31*
X50066639Y-75569345D03*
D12*
X45212000Y-52705000D03*
X50038000Y-52705000D03*
D28*
X61270000Y-102222500D03*
D29*
X63770000Y-102222500D03*
X65770000Y-102222500D03*
X68270000Y-102222500D03*
D30*
X71340000Y-104932500D03*
X58200000Y-104932500D03*
D21*
X59949600Y-33682000D03*
X65729600Y-33682000D03*
D23*
X60401200Y-32461200D03*
D22*
X67159600Y-34212000D03*
D24*
X67159600Y-30032000D03*
D22*
X58519600Y-34212000D03*
D25*
X65860945Y-29654506D03*
D23*
X65241200Y-32461200D03*
D24*
X58519600Y-30032000D03*
D25*
X59764945Y-29626506D03*
D32*
X65024000Y-88011000D03*
X60144000Y-88011000D03*
D12*
X41529000Y-63119000D03*
X41529000Y-58293000D03*
D32*
X48564800Y-85762000D03*
X48564800Y-80882000D03*
D33*
X37958823Y-37707230D03*
X37958823Y-44407230D03*
D34*
X38158823Y-41057230D03*
D35*
X31175823Y-41057230D03*
D36*
X34258823Y-41057230D03*
D37*
X36158823Y-35342230D03*
X36158823Y-46772230D03*
D10*
X70993000Y-32910226D03*
D11*
X70993000Y-30410226D03*
D13*
X44810635Y-40005000D03*
D14*
X47350635Y-40005000D03*
X49890635Y-40005000D03*
X52430635Y-40005000D03*
D20*
X54483000Y-97917000D03*
D33*
X37973000Y-52657000D03*
X37973000Y-59357000D03*
D34*
X38173000Y-56007000D03*
D36*
X34273000Y-56007000D03*
D37*
X36173000Y-50292000D03*
X36173000Y-61722000D03*
D35*
X31190000Y-56007000D03*
D38*
X76806700Y-101970400D03*
X76806700Y-99200400D03*
X76806700Y-96430400D03*
X76806700Y-93660400D03*
D12*
X45212000Y-60325000D03*
X50038000Y-60325000D03*
D13*
X59065000Y-40005000D03*
D14*
X61605000Y-40005000D03*
X64145000Y-40005000D03*
X66685000Y-40005000D03*
D28*
X43490000Y-102222500D03*
D29*
X45990000Y-102222500D03*
X47990000Y-102222500D03*
X50490000Y-102222500D03*
D30*
X40420000Y-104932500D03*
X53560000Y-104932500D03*
D14*
X69723000Y-66040000D03*
X69723000Y-63500000D03*
X69723000Y-60960000D03*
X69723000Y-58420000D03*
X69723000Y-55880000D03*
X69723000Y-53340000D03*
X69723000Y-50800000D03*
X69723000Y-48260000D03*
X69723000Y-45720000D03*
X69723000Y-43180000D03*
X69723000Y-40640000D03*
X69723000Y-38100000D03*
D12*
X45212000Y-57785000D03*
X50038000Y-57785000D03*
X45212000Y-65405000D03*
X50038000Y-65405000D03*
X45212000Y-73025000D03*
X50038000Y-73025000D03*
D15*
X55753000Y-57309000D03*
X55753000Y-59309000D03*
D16*
X51832000Y-50038000D03*
X53832000Y-50038000D03*
D39*
X45623500Y-106807000D03*
X48356500Y-106807000D03*
D16*
X51832000Y-65405000D03*
X53832000Y-65405000D03*
D40*
X40736500Y-69723000D03*
X38003500Y-69723000D03*
D41*
X62764318Y-109982000D03*
X64764318Y-109982000D03*
X66764318Y-109982000D03*
D42*
X62992000Y-37133000D03*
X62992000Y-34400000D03*
D15*
X55753000Y-49673000D03*
X55753000Y-51673000D03*
D16*
X51832000Y-67945000D03*
X53832000Y-67945000D03*
D43*
X50408800Y-85242400D03*
D44*
X50408800Y-81241900D03*
X52816800Y-81241900D03*
D43*
X52816800Y-85242400D03*
D16*
X51832000Y-57785000D03*
X53832000Y-57785000D03*
D42*
X55753000Y-37133000D03*
X55753000Y-34400000D03*
D45*
X43688000Y-50784000D03*
X43688000Y-48784000D03*
D40*
X40736500Y-75184000D03*
X38003500Y-75184000D03*
D16*
X51832000Y-60325000D03*
X53832000Y-60325000D03*
D46*
X35941000Y-91518000D03*
X35941000Y-94251000D03*
D15*
X55753000Y-65024000D03*
X55753000Y-67024000D03*
X55753000Y-61214000D03*
X55753000Y-63214000D03*
D42*
X74676000Y-37133000D03*
X74676000Y-34400000D03*
D47*
X76348500Y-89027000D03*
X74273500Y-89027000D03*
D16*
X51832000Y-52705000D03*
X53832000Y-52705000D03*
D15*
X55753000Y-53499000D03*
X55753000Y-55499000D03*
D16*
X51832000Y-55245000D03*
X53832000Y-55245000D03*
X51832000Y-70485000D03*
X53832000Y-70485000D03*
M02*
