G04 #@! TF.GenerationSoftware,KiCad,Pcbnew,6.0.11-2627ca5db0~126~ubuntu20.04.1*
G04 #@! TF.CreationDate,2024-04-17T12:51:00+05:00*
G04 #@! TF.ProjectId,16EJU24,3136454a-5532-4342-9e6b-696361645f70,rev?*
G04 #@! TF.SameCoordinates,Original*
G04 #@! TF.FileFunction,Paste,Bot*
G04 #@! TF.FilePolarity,Positive*
%FSLAX46Y46*%
G04 Gerber Fmt 4.6, Leading zero omitted, Abs format (unit mm)*
G04 Created by KiCad (PCBNEW 6.0.11-2627ca5db0~126~ubuntu20.04.1) date 2024-04-17 12:51:00*
%MOMM*%
%LPD*%
G01*
G04 APERTURE LIST*
G04 Aperture macros list*
%AMRoundRect*
0 Rectangle with rounded corners*
0 $1 Rounding radius*
0 $2 $3 $4 $5 $6 $7 $8 $9 X,Y pos of 4 corners*
0 Add a 4 corners polygon primitive as box body*
4,1,4,$2,$3,$4,$5,$6,$7,$8,$9,$2,$3,0*
0 Add four circle primitives for the rounded corners*
1,1,$1+$1,$2,$3*
1,1,$1+$1,$4,$5*
1,1,$1+$1,$6,$7*
1,1,$1+$1,$8,$9*
0 Add four rect primitives between the rounded corners*
20,1,$1+$1,$2,$3,$4,$5,0*
20,1,$1+$1,$4,$5,$6,$7,0*
20,1,$1+$1,$6,$7,$8,$9,0*
20,1,$1+$1,$8,$9,$2,$3,0*%
G04 Aperture macros list end*
%ADD10RoundRect,0.250000X-0.450000X0.350000X-0.450000X-0.350000X0.450000X-0.350000X0.450000X0.350000X0*%
%ADD11RoundRect,0.250000X-0.350000X-0.450000X0.350000X-0.450000X0.350000X0.450000X-0.350000X0.450000X0*%
%ADD12RoundRect,0.150000X0.150000X-0.587500X0.150000X0.587500X-0.150000X0.587500X-0.150000X-0.587500X0*%
%ADD13RoundRect,0.250000X0.475000X-0.337500X0.475000X0.337500X-0.475000X0.337500X-0.475000X-0.337500X0*%
%ADD14RoundRect,0.250000X-0.475000X0.337500X-0.475000X-0.337500X0.475000X-0.337500X0.475000X0.337500X0*%
%ADD15R,3.480000X1.846667*%
%ADD16RoundRect,0.323962X-0.534538X-1.026038X0.534538X-1.026038X0.534538X1.026038X-0.534538X1.026038X0*%
%ADD17RoundRect,0.323962X0.534538X1.026038X-0.534538X1.026038X-0.534538X-1.026038X0.534538X-1.026038X0*%
%ADD18R,1.600000X7.000000*%
%ADD19RoundRect,0.323962X1.026038X-0.534538X1.026038X0.534538X-1.026038X0.534538X-1.026038X-0.534538X0*%
%ADD20R,1.392000X3.048000*%
%ADD21R,1.392000X2.921000*%
%ADD22RoundRect,0.250000X0.450000X-0.350000X0.450000X0.350000X-0.450000X0.350000X-0.450000X-0.350000X0*%
%ADD23RoundRect,0.323962X-1.026038X0.534538X-1.026038X-0.534538X1.026038X-0.534538X1.026038X0.534538X0*%
%ADD24RoundRect,0.250000X0.337500X0.475000X-0.337500X0.475000X-0.337500X-0.475000X0.337500X-0.475000X0*%
G04 APERTURE END LIST*
D10*
X65405000Y-46498000D03*
X65405000Y-48498000D03*
X62865000Y-46498000D03*
X62865000Y-48498000D03*
X50419000Y-42688000D03*
X50419000Y-44688000D03*
X59690000Y-42688000D03*
X59690000Y-44688000D03*
D11*
X64897000Y-55880000D03*
X66897000Y-55880000D03*
X64913000Y-57785000D03*
X66913000Y-57785000D03*
X64913000Y-59690000D03*
X66913000Y-59690000D03*
D10*
X55880000Y-42688000D03*
X55880000Y-44688000D03*
D12*
X54163000Y-44625500D03*
X52263000Y-44625500D03*
X53213000Y-42750500D03*
D13*
X57658000Y-53615500D03*
X57658000Y-51540500D03*
X59690000Y-53615500D03*
X59690000Y-51540500D03*
X48514000Y-44725500D03*
X48514000Y-42650500D03*
D14*
X57785000Y-42650500D03*
X57785000Y-44725500D03*
D15*
X76806700Y-101970400D03*
X76806700Y-99200400D03*
X76806700Y-96430400D03*
X76806700Y-93660400D03*
D10*
X55753000Y-57309000D03*
X55753000Y-59309000D03*
D11*
X51832000Y-50038000D03*
X53832000Y-50038000D03*
D16*
X45623500Y-106807000D03*
X48356500Y-106807000D03*
D11*
X51832000Y-65405000D03*
X53832000Y-65405000D03*
D17*
X40736500Y-69723000D03*
X38003500Y-69723000D03*
D18*
X62764318Y-109982000D03*
X64764318Y-109982000D03*
X66764318Y-109982000D03*
D19*
X62992000Y-37133000D03*
X62992000Y-34400000D03*
D10*
X55753000Y-49673000D03*
X55753000Y-51673000D03*
D11*
X51832000Y-67945000D03*
X53832000Y-67945000D03*
D20*
X50408800Y-85242400D03*
D21*
X50408800Y-81241900D03*
X52816800Y-81241900D03*
D20*
X52816800Y-85242400D03*
D11*
X51832000Y-57785000D03*
X53832000Y-57785000D03*
D19*
X55753000Y-37133000D03*
X55753000Y-34400000D03*
D22*
X43688000Y-50784000D03*
X43688000Y-48784000D03*
D17*
X40736500Y-75184000D03*
X38003500Y-75184000D03*
D11*
X51832000Y-60325000D03*
X53832000Y-60325000D03*
D23*
X35941000Y-91518000D03*
X35941000Y-94251000D03*
D10*
X55753000Y-65024000D03*
X55753000Y-67024000D03*
X55753000Y-61214000D03*
X55753000Y-63214000D03*
D19*
X74676000Y-37133000D03*
X74676000Y-34400000D03*
D24*
X76348500Y-89027000D03*
X74273500Y-89027000D03*
D11*
X51832000Y-52705000D03*
X53832000Y-52705000D03*
D10*
X55753000Y-53499000D03*
X55753000Y-55499000D03*
D11*
X51832000Y-55245000D03*
X53832000Y-55245000D03*
X51832000Y-70485000D03*
X53832000Y-70485000D03*
M02*
