M48
; DRILL file {KiCad 6.0.11-2627ca5db0~126~ubuntu20.04.1} date Ср 17 апр 2024 12:51:03
; FORMAT={-:-/ absolute / metric / decimal}
; #@! TF.CreationDate,2024-04-17T12:51:03+05:00
; #@! TF.GenerationSoftware,Kicad,Pcbnew,6.0.11-2627ca5db0~126~ubuntu20.04.1
; #@! TF.FileFunction,Plated,1,2,PTH
FMAT,2
METRIC
; #@! TA.AperFunction,Plated,PTH,ViaDrill
T1C0.500
; #@! TA.AperFunction,Plated,PTH,ComponentDrill
T2C0.600
; #@! TA.AperFunction,Plated,PTH,ComponentDrill
T3C0.650
; #@! TA.AperFunction,Plated,PTH,ComponentDrill
T4C0.800
; #@! TA.AperFunction,Plated,PTH,ComponentDrill
T5C0.900
; #@! TA.AperFunction,Plated,PTH,ComponentDrill
T6C0.920
; #@! TA.AperFunction,Plated,PTH,ComponentDrill
T7C1.000
; #@! TA.AperFunction,Plated,PTH,ComponentDrill
T8C1.200
; #@! TA.AperFunction,Plated,PTH,ComponentDrill
T9C1.400
; #@! TA.AperFunction,Plated,PTH,ComponentDrill
T10C1.700
; #@! TA.AperFunction,Plated,PTH,ComponentDrill
T11C2.300
; #@! TA.AperFunction,Plated,PTH,ViaDrill
T12C3.000
%
G90
G05
T1
X45.212Y-36.576
X50.865Y-48.506
X51.237Y-36.487
X51.689Y-45.913
X52.275Y-72.484
X54.102Y-46.101
X54.864Y-88.392
X55.743Y-55.509
X55.753Y-65.024
X56.007Y-75.956
X56.388Y-71.501
X56.788Y-85.374
X57.152Y-49.53
X57.206Y-51.452
X57.531Y-56.261
X57.983Y-85.374
X59.182Y-85.374
X59.309Y-62.865
X59.563Y-46.736
X59.69Y-53.594
X59.69Y-44.688
X60.176Y-56.642
X60.383Y-85.374
X60.452Y-59.309
X60.628Y-36.478
X60.754Y-80.635
X62.986Y-96.901
X62.992Y-62.738
X63.462Y-60.87
X63.538Y-56.211
X64.262Y-44.323
X64.77Y-68.199
X64.77Y-71.628
X64.77Y-72.644
X64.77Y-73.66
X64.77Y-82.804
X64.77Y-83.82
X64.77Y-84.836
X65.258Y-36.335
X66.167Y-61.595
X66.62Y-91.821
X66.777Y-65.1
X66.884Y-97.999
X66.953Y-103.91
X67.691Y-55.753
X67.691Y-57.883
X68.326Y-71.247
X70.612Y-70.612
X71.114Y-99.758
X71.236Y-92.329
X71.247Y-67.183
X71.363Y-101.97
X72.136Y-95.377
X73.163Y-101.97
X74.273Y-89.027
X74.676Y-85.344
T3
X46.172Y-32.464
X51.012Y-32.464
X60.401Y-32.461
X65.241Y-32.461
T4
X48.565Y-80.882
X48.565Y-85.762
X60.144Y-88.011
X65.024Y-88.011
T6
X41.275Y-88.9
X41.275Y-91.4
X41.275Y-93.4
X41.275Y-95.9
X43.49Y-102.222
X45.99Y-102.222
X47.99Y-102.222
X50.49Y-102.222
X61.27Y-102.222
X63.77Y-102.222
X65.77Y-102.222
X68.27Y-102.222
T7
X37.284Y-102.508
X37.284Y-105.048
X37.284Y-107.588
X37.284Y-110.128
X41.529Y-58.293
X41.529Y-63.119
X43.982Y-44.069
X44.811Y-40.005
X45.212Y-52.705
X45.212Y-55.245
X45.212Y-57.785
X45.212Y-60.325
X45.212Y-65.405
X45.212Y-67.945
X45.212Y-70.485
X45.212Y-73.025
X46.395Y-49.022
X46.482Y-44.069
X47.351Y-40.005
X48.895Y-49.022
X49.891Y-40.005
X50.038Y-52.705
X50.038Y-55.245
X50.038Y-57.785
X50.038Y-60.325
X50.038Y-65.405
X50.038Y-67.945
X50.038Y-70.485
X50.038Y-73.025
X50.046Y-62.889
X50.067Y-75.569
X52.431Y-40.005
X54.483Y-97.917
X59.065Y-40.005
X59.309Y-67.945
X59.309Y-70.485
X61.605Y-40.005
X61.976Y-67.945
X61.976Y-70.485
X62.865Y-50.419
X62.865Y-52.959
X64.145Y-40.005
X65.532Y-50.419
X65.532Y-52.959
X66.685Y-40.005
X67.056Y-76.2
X67.056Y-78.74
X67.056Y-81.28
X68.664Y-94.455
X68.664Y-99.281
X69.723Y-38.1
X69.723Y-40.64
X69.723Y-43.18
X69.723Y-45.72
X69.723Y-48.26
X69.723Y-50.8
X69.723Y-53.34
X69.723Y-55.88
X69.723Y-58.42
X69.723Y-60.96
X69.723Y-63.5
X69.723Y-66.04
X69.723Y-78.74
X69.723Y-81.28
X69.806Y-76.2
X70.993Y-30.41
X70.993Y-32.91
X72.39Y-38.1
X72.39Y-40.64
X72.39Y-43.18
X72.39Y-45.72
X72.39Y-48.26
X72.39Y-50.8
X72.39Y-53.34
X72.39Y-55.88
X72.39Y-58.42
X72.39Y-60.96
X72.39Y-63.5
X72.39Y-66.04
X72.39Y-68.58
X72.39Y-71.12
X72.39Y-73.66
X72.39Y-76.2
X72.39Y-78.74
X72.39Y-81.28
X72.39Y-83.82
X72.39Y-86.36
X76.835Y-38.095
X76.835Y-40.635
X76.835Y-43.175
X76.835Y-45.715
X76.835Y-48.255
X76.835Y-50.795
X76.835Y-53.335
X76.835Y-55.875
X76.835Y-58.415
X76.835Y-60.955
X76.835Y-63.495
X76.835Y-66.035
X76.835Y-68.575
X76.835Y-71.115
X76.835Y-73.655
X76.835Y-76.195
X76.835Y-78.735
X76.835Y-81.275
X76.835Y-83.815
X76.835Y-86.355
X79.375Y-38.095
X79.375Y-40.635
X79.375Y-43.175
X79.375Y-45.715
X79.375Y-48.255
X79.375Y-50.795
X79.375Y-53.335
X79.375Y-55.875
X79.375Y-58.415
X79.375Y-60.955
X79.375Y-63.495
X79.375Y-66.035
X79.375Y-68.575
X79.375Y-71.115
X79.375Y-73.655
X79.375Y-76.195
X79.375Y-78.735
X79.375Y-81.275
X79.375Y-83.815
X79.375Y-86.355
T11
X38.565Y-85.83
X38.565Y-98.97
X40.42Y-104.932
X53.56Y-104.932
X58.2Y-104.932
X71.34Y-104.932
T12
X33.02Y-31.115
X33.02Y-110.49
X80.645Y-31.115
X80.645Y-110.49
T2
X44.291Y-30.335G85X44.291Y-29.735
G05
X44.291Y-34.765G85X44.291Y-33.665
G05
X52.931Y-30.335G85X52.931Y-29.735
G05
X52.931Y-34.765G85X52.931Y-33.665
G05
X58.52Y-30.332G85X58.52Y-29.732
G05
X58.52Y-34.762G85X58.52Y-33.662
G05
X67.16Y-30.332G85X67.16Y-29.732
G05
X67.16Y-34.762G85X67.16Y-33.662
G05
T5
X32.667Y-65.038G85X31.867Y-65.038
G05
X32.667Y-79.538G85X31.867Y-79.538
G05
X39.127Y-65.038G85X37.327Y-65.038
G05
X39.127Y-79.538G85X37.327Y-79.538
G05
T8
X34.909Y-35.342G85X37.409Y-35.342
G05
X34.909Y-46.772G85X37.409Y-46.772
G05
X34.923Y-50.292G85X37.423Y-50.292
G05
X34.923Y-61.722G85X37.423Y-61.722
G05
X37.059Y-37.707G85X38.859Y-37.707
G05
X37.059Y-44.407G85X38.859Y-44.407
G05
X37.073Y-52.657G85X38.873Y-52.657
G05
X37.073Y-59.357G85X38.873Y-59.357
G05
X37.009Y-41.057G85X39.309Y-41.057
G05
X37.023Y-56.007G85X39.323Y-56.007
G05
X45.436Y-29.629G85X45.636Y-29.629
G05
X51.532Y-29.657G85X51.732Y-29.657
G05
X59.665Y-29.627G85X59.865Y-29.627
G05
X65.761Y-29.655G85X65.961Y-29.655
G05
T9
X31.176Y-41.807G85X31.176Y-40.307
G05
X31.19Y-56.757G85X31.19Y-55.257
G05
T10
X34.259Y-41.557G85X34.259Y-40.557
G05
X34.273Y-56.507G85X34.273Y-55.507
G05
T0
M30
