G04 #@! TF.GenerationSoftware,KiCad,Pcbnew,6.0.11-2627ca5db0~126~ubuntu20.04.1*
G04 #@! TF.CreationDate,2024-04-17T12:51:00+05:00*
G04 #@! TF.ProjectId,16EJU24,3136454a-5532-4342-9e6b-696361645f70,rev?*
G04 #@! TF.SameCoordinates,Original*
G04 #@! TF.FileFunction,Soldermask,Top*
G04 #@! TF.FilePolarity,Negative*
%FSLAX46Y46*%
G04 Gerber Fmt 4.6, Leading zero omitted, Abs format (unit mm)*
G04 Created by KiCad (PCBNEW 6.0.11-2627ca5db0~126~ubuntu20.04.1) date 2024-04-17 12:51:00*
%MOMM*%
%LPD*%
G01*
G04 APERTURE LIST*
G04 Aperture macros list*
%AMRoundRect*
0 Rectangle with rounded corners*
0 $1 Rounding radius*
0 $2 $3 $4 $5 $6 $7 $8 $9 X,Y pos of 4 corners*
0 Add a 4 corners polygon primitive as box body*
4,1,4,$2,$3,$4,$5,$6,$7,$8,$9,$2,$3,0*
0 Add four circle primitives for the rounded corners*
1,1,$1+$1,$2,$3*
1,1,$1+$1,$4,$5*
1,1,$1+$1,$6,$7*
1,1,$1+$1,$8,$9*
0 Add four rect primitives between the rounded corners*
20,1,$1+$1,$2,$3,$4,$5,0*
20,1,$1+$1,$4,$5,$6,$7,0*
20,1,$1+$1,$6,$7,$8,$9,0*
20,1,$1+$1,$8,$9,$2,$3,0*%
%AMOutline4P*
0 Free polygon, 4 corners , with rotation*
0 The origin of the aperture is its center*
0 number of corners: always 4*
0 $1 to $8 corner X, Y*
0 $9 Rotation angle, in degrees counterclockwise*
0 create outline with 4 corners*
4,1,4,$1,$2,$3,$4,$5,$6,$7,$8,$1,$2,$9*%
%AMFreePoly0*
4,1,22,0.500000,-0.750000,0.000000,-0.750000,0.000000,-0.745033,-0.079941,-0.743568,-0.215256,-0.701293,-0.333266,-0.622738,-0.424486,-0.514219,-0.481581,-0.384460,-0.499164,-0.250000,-0.500000,-0.250000,-0.500000,0.250000,-0.499164,0.250000,-0.499963,0.256109,-0.478152,0.396186,-0.417904,0.524511,-0.324060,0.630769,-0.204165,0.706417,-0.067858,0.745374,0.000000,0.744959,0.000000,0.750000,
0.500000,0.750000,0.500000,-0.750000,0.500000,-0.750000,$1*%
%AMFreePoly1*
4,1,20,0.000000,0.744959,0.073905,0.744508,0.209726,0.703889,0.328688,0.626782,0.421226,0.519385,0.479903,0.390333,0.500000,0.250000,0.500000,-0.250000,0.499851,-0.262216,0.476331,-0.402017,0.414519,-0.529596,0.319384,-0.634700,0.198574,-0.708877,0.061801,-0.746166,0.000000,-0.745033,0.000000,-0.750000,-0.500000,-0.750000,-0.500000,0.750000,0.000000,0.750000,0.000000,0.744959,
0.000000,0.744959,$1*%
G04 Aperture macros list end*
%ADD10R,1.800000X1.800000*%
%ADD11C,1.800000*%
%ADD12C,1.700000*%
%ADD13RoundRect,0.250000X-0.450000X0.350000X-0.450000X-0.350000X0.450000X-0.350000X0.450000X0.350000X0*%
%ADD14R,1.700000X1.700000*%
%ADD15O,1.700000X1.700000*%
%ADD16RoundRect,0.150000X-0.800000X-0.150000X0.800000X-0.150000X0.800000X0.150000X-0.800000X0.150000X0*%
%ADD17FreePoly0,0.000000*%
%ADD18FreePoly1,0.000000*%
%ADD19RoundRect,0.250000X0.337500X0.475000X-0.337500X0.475000X-0.337500X-0.475000X0.337500X-0.475000X0*%
%ADD20RoundRect,0.250000X-0.475000X0.337500X-0.475000X-0.337500X0.475000X-0.337500X0.475000X0.337500X0*%
%ADD21RoundRect,0.250000X-0.350000X-0.450000X0.350000X-0.450000X0.350000X0.450000X-0.350000X0.450000X0*%
%ADD22C,2.000000*%
%ADD23C,0.650000*%
%ADD24R,0.600000X1.450000*%
%ADD25R,0.400000X1.650000*%
%ADD26R,0.300000X1.450000*%
%ADD27O,1.000000X2.100000*%
%ADD28Outline4P,-0.675000X-0.675000X0.675000X-0.675000X0.675000X0.675000X-0.675000X0.675000X0.000000*%
%ADD29O,1.100000X1.100000*%
%ADD30R,2.000000X1.500000*%
%ADD31R,1.430000X2.500000*%
%ADD32O,1.000000X1.600000*%
%ADD33R,1.825000X0.700000*%
%ADD34R,0.380714X1.829960*%
%ADD35R,0.382484X1.821706*%
%ADD36O,2.000000X1.700000*%
%ADD37FreePoly0,180.000000*%
%ADD38FreePoly1,180.000000*%
%ADD39R,2.600000X0.300000*%
%ADD40RoundRect,0.350000X-1.300000X0.350000X-1.300000X-0.350000X1.300000X-0.350000X1.300000X0.350000X0*%
%ADD41RoundRect,0.350000X-0.700000X0.350000X-0.700000X-0.350000X0.700000X-0.350000X0.700000X0.350000X0*%
%ADD42R,1.524000X1.524000*%
%ADD43C,1.524000*%
%ADD44C,3.500000*%
%ADD45R,2.000000X2.000000*%
%ADD46RoundRect,0.250000X-0.337500X-0.475000X0.337500X-0.475000X0.337500X0.475000X-0.337500X0.475000X0*%
%ADD47RoundRect,0.150000X0.150000X-0.837500X0.150000X0.837500X-0.150000X0.837500X-0.150000X-0.837500X0*%
%ADD48C,1.500000*%
%ADD49RoundRect,0.250000X0.450000X-0.350000X0.450000X0.350000X-0.450000X0.350000X-0.450000X-0.350000X0*%
%ADD50O,4.000000X2.000000*%
%ADD51O,4.400000X2.000000*%
%ADD52O,2.400000X3.900000*%
%ADD53O,2.700000X3.700000*%
%ADD54O,4.700000X2.000000*%
%ADD55RoundRect,0.150000X0.800000X0.150000X-0.800000X0.150000X-0.800000X-0.150000X0.800000X-0.150000X0*%
%ADD56R,3.480000X1.846667*%
%ADD57RoundRect,0.323962X-1.026038X0.534538X-1.026038X-0.534538X1.026038X-0.534538X1.026038X0.534538X0*%
%ADD58R,0.400000X1.200000*%
%ADD59R,1.392000X3.048000*%
%ADD60R,1.392000X2.921000*%
%ADD61R,1.600000X7.000000*%
G04 APERTURE END LIST*
D10*
X46482000Y-44069000D03*
D11*
X43982000Y-44069000D03*
D12*
X68664381Y-99280757D03*
D13*
X68664381Y-97867757D03*
D10*
X68664381Y-94454757D03*
D13*
X68664381Y-95867757D03*
D14*
X61976000Y-70485000D03*
D15*
X61976000Y-67945000D03*
D14*
X59309000Y-70485000D03*
D15*
X59309000Y-67945000D03*
D14*
X62865000Y-50419000D03*
D15*
X62865000Y-52959000D03*
D14*
X65532000Y-50419000D03*
D15*
X65532000Y-52959000D03*
D10*
X48895000Y-49022000D03*
D11*
X46395000Y-49022000D03*
D16*
X58095000Y-59055000D03*
X58095000Y-60325000D03*
X58095000Y-61595000D03*
X58095000Y-62865000D03*
X65095000Y-62865000D03*
X65095000Y-61595000D03*
X65095000Y-60325000D03*
X65095000Y-59055000D03*
X52507000Y-48768000D03*
X52507000Y-50038000D03*
X52507000Y-51308000D03*
X52507000Y-52578000D03*
X59507000Y-52578000D03*
X59507000Y-51308000D03*
X59507000Y-50038000D03*
X59507000Y-48768000D03*
D13*
X50982000Y-42688000D03*
X50982000Y-44688000D03*
D17*
X68804000Y-69088000D03*
D18*
X70104000Y-69088000D03*
D19*
X62251500Y-56642000D03*
X60176500Y-56642000D03*
D20*
X53086000Y-42650500D03*
X53086000Y-44725500D03*
D21*
X59579000Y-91821000D03*
X61579000Y-91821000D03*
X46625000Y-67945000D03*
D12*
X45212000Y-67945000D03*
D21*
X48625000Y-67945000D03*
D12*
X50038000Y-67945000D03*
D22*
X50046413Y-62888717D03*
D12*
X45212000Y-70485000D03*
D21*
X46625000Y-70485000D03*
X48625000Y-70485000D03*
D12*
X50038000Y-70485000D03*
D20*
X52324000Y-69320500D03*
X52324000Y-71395500D03*
D15*
X69723000Y-81280000D03*
X69723000Y-78740000D03*
D12*
X45212000Y-55245000D03*
D21*
X46625000Y-55245000D03*
X48625000Y-55245000D03*
D12*
X50038000Y-55245000D03*
D15*
X67056000Y-81280000D03*
X67056000Y-78740000D03*
X67056000Y-76200000D03*
X69806000Y-76200000D03*
X72390000Y-86360000D03*
X72390000Y-83820000D03*
X72390000Y-81280000D03*
X72390000Y-78740000D03*
X72390000Y-76200000D03*
X72390000Y-73660000D03*
X72390000Y-71120000D03*
X72390000Y-68580000D03*
X72390000Y-66040000D03*
X72390000Y-63500000D03*
X72390000Y-60960000D03*
X72390000Y-58420000D03*
X72390000Y-55880000D03*
X72390000Y-53340000D03*
X72390000Y-50800000D03*
X72390000Y-48260000D03*
X72390000Y-45720000D03*
X72390000Y-43180000D03*
X72390000Y-40640000D03*
X72390000Y-38100000D03*
D23*
X51500635Y-33684506D03*
X45720635Y-33684506D03*
D24*
X51835635Y-35129506D03*
X51060635Y-35129506D03*
D25*
X49908980Y-32537012D03*
D26*
X50360635Y-35129506D03*
X49860635Y-35129506D03*
D25*
X49258980Y-32537012D03*
D26*
X49360635Y-35129506D03*
X48860635Y-35129506D03*
D25*
X48608980Y-32537012D03*
D26*
X48360635Y-35129506D03*
X47860635Y-35129506D03*
X47360635Y-35129506D03*
X46860635Y-35129506D03*
D24*
X46160635Y-35129506D03*
D25*
X47308980Y-32537012D03*
D24*
X45385635Y-35129506D03*
D27*
X44290635Y-34214506D03*
D28*
X51338980Y-30899012D03*
D29*
X46172235Y-32463706D03*
D30*
X45708980Y-32657012D03*
D31*
X47648980Y-29387012D03*
D32*
X44290635Y-30034506D03*
D33*
X51558980Y-31337012D03*
D34*
X50823219Y-30571992D03*
D33*
X45608980Y-31337012D03*
D29*
X51012235Y-32463706D03*
D27*
X52930635Y-34214506D03*
D32*
X52930635Y-30034506D03*
D28*
X45858980Y-30899012D03*
D35*
X46350311Y-30543394D03*
D30*
X51458980Y-32637012D03*
D36*
X45535980Y-29629012D03*
X51631980Y-29657012D03*
D31*
X49568980Y-29387012D03*
D25*
X47958980Y-32537012D03*
D37*
X52212000Y-97917000D03*
D38*
X50912000Y-97917000D03*
D14*
X37284483Y-102508257D03*
D15*
X37284483Y-105048257D03*
X37284483Y-107588257D03*
X37284483Y-110128257D03*
D13*
X41783000Y-33941000D03*
X41783000Y-35941000D03*
D14*
X79375000Y-86355000D03*
D15*
X76835000Y-86355000D03*
X79375000Y-83815000D03*
X76835000Y-83815000D03*
X79375000Y-81275000D03*
X76835000Y-81275000D03*
X79375000Y-78735000D03*
X76835000Y-78735000D03*
X79375000Y-76195000D03*
X76835000Y-76195000D03*
X79375000Y-73655000D03*
X76835000Y-73655000D03*
X79375000Y-71115000D03*
X76835000Y-71115000D03*
X79375000Y-68575000D03*
X76835000Y-68575000D03*
X79375000Y-66035000D03*
X76835000Y-66035000D03*
X79375000Y-63495000D03*
X76835000Y-63495000D03*
X79375000Y-60955000D03*
X76835000Y-60955000D03*
X79375000Y-58415000D03*
X76835000Y-58415000D03*
X79375000Y-55875000D03*
X76835000Y-55875000D03*
X79375000Y-53335000D03*
X76835000Y-53335000D03*
X79375000Y-50795000D03*
X76835000Y-50795000D03*
X79375000Y-48255000D03*
X76835000Y-48255000D03*
X79375000Y-45715000D03*
X76835000Y-45715000D03*
X79375000Y-43175000D03*
X76835000Y-43175000D03*
X79375000Y-40635000D03*
X76835000Y-40635000D03*
X79375000Y-38095000D03*
X76835000Y-38095000D03*
D39*
X38987000Y-76788400D03*
X38987000Y-76288400D03*
X38987000Y-75788400D03*
X38987000Y-75288400D03*
X38987000Y-74788400D03*
X38987000Y-74288400D03*
X38987000Y-73788400D03*
X38987000Y-73288400D03*
X38987000Y-72788400D03*
X38987000Y-72288400D03*
X38987000Y-71788400D03*
X38987000Y-71288400D03*
X38987000Y-70788400D03*
X38987000Y-70288400D03*
X38987000Y-69788400D03*
X38987000Y-69288400D03*
X38987000Y-68788400D03*
X38987000Y-68288400D03*
X38987000Y-67788400D03*
D40*
X38227000Y-65038400D03*
D41*
X32267000Y-65038400D03*
X32267000Y-79538400D03*
D40*
X38227000Y-79538400D03*
D42*
X41275000Y-88900000D03*
D43*
X41275000Y-91400000D03*
X41275000Y-93400000D03*
X41275000Y-95900000D03*
D44*
X38565000Y-98970000D03*
X38565000Y-85830000D03*
D45*
X50066639Y-75569345D03*
D12*
X45212000Y-52705000D03*
D21*
X46625000Y-52705000D03*
D12*
X50038000Y-52705000D03*
D21*
X48625000Y-52705000D03*
D13*
X70739000Y-95901000D03*
X70739000Y-97901000D03*
D42*
X61270000Y-102222500D03*
D43*
X63770000Y-102222500D03*
X65770000Y-102222500D03*
X68270000Y-102222500D03*
D44*
X71340000Y-104932500D03*
X58200000Y-104932500D03*
D23*
X59949600Y-33682000D03*
X65729600Y-33682000D03*
D24*
X66064600Y-35127000D03*
D25*
X64137945Y-32534506D03*
D24*
X65289600Y-35127000D03*
D26*
X64589600Y-35127000D03*
X64089600Y-35127000D03*
D25*
X63487945Y-32534506D03*
D26*
X63589600Y-35127000D03*
D25*
X62837945Y-32534506D03*
D26*
X63089600Y-35127000D03*
X62589600Y-35127000D03*
X62089600Y-35127000D03*
X61589600Y-35127000D03*
X61089600Y-35127000D03*
D24*
X60389600Y-35127000D03*
X59614600Y-35127000D03*
D25*
X61537945Y-32534506D03*
D29*
X60401200Y-32461200D03*
D27*
X67159600Y-34212000D03*
D33*
X65787945Y-31334506D03*
D32*
X67159600Y-30032000D03*
D28*
X60087945Y-30896506D03*
D27*
X58519600Y-34212000D03*
D35*
X60579276Y-30540888D03*
D33*
X59837945Y-31334506D03*
D31*
X61877945Y-29384506D03*
D36*
X65860945Y-29654506D03*
D34*
X65052184Y-30569486D03*
D30*
X65687945Y-32634506D03*
D29*
X65241200Y-32461200D03*
D30*
X59937945Y-32654506D03*
D28*
X65567945Y-30896506D03*
D31*
X63797945Y-29384506D03*
D32*
X58519600Y-30032000D03*
D36*
X59764945Y-29626506D03*
D25*
X62187945Y-32534506D03*
D46*
X48492500Y-94615000D03*
X50567500Y-94615000D03*
X64494500Y-91821000D03*
X66569500Y-91821000D03*
D47*
X52133500Y-83666500D03*
X53403500Y-83666500D03*
X54673500Y-83666500D03*
X55943500Y-83666500D03*
X57213500Y-83666500D03*
X58483500Y-83666500D03*
X59753500Y-83666500D03*
X61023500Y-83666500D03*
X61023500Y-76741500D03*
X59753500Y-76741500D03*
X58483500Y-76741500D03*
X57213500Y-76741500D03*
X55943500Y-76741500D03*
X54673500Y-76741500D03*
X53403500Y-76741500D03*
X52133500Y-76741500D03*
D48*
X65024000Y-88011000D03*
X60144000Y-88011000D03*
D49*
X41529000Y-61706000D03*
D12*
X41529000Y-63119000D03*
D49*
X41529000Y-59706000D03*
D12*
X41529000Y-58293000D03*
D48*
X48564800Y-85762000D03*
X48564800Y-80882000D03*
D50*
X37958823Y-37707230D03*
X37958823Y-44407230D03*
D51*
X38158823Y-41057230D03*
D52*
X31175823Y-41057230D03*
D53*
X34258823Y-41057230D03*
D54*
X36158823Y-35342230D03*
X36158823Y-46772230D03*
D10*
X70993000Y-32910226D03*
D11*
X70993000Y-30410226D03*
D55*
X64206000Y-98171000D03*
X64206000Y-96901000D03*
X64206000Y-95631000D03*
X64206000Y-94361000D03*
X57206000Y-94361000D03*
X57206000Y-95631000D03*
X57206000Y-96901000D03*
X57206000Y-98171000D03*
D14*
X44810635Y-40005000D03*
D15*
X47350635Y-40005000D03*
X49890635Y-40005000D03*
X52430635Y-40005000D03*
D22*
X54483000Y-97917000D03*
D50*
X37973000Y-52657000D03*
X37973000Y-59357000D03*
D51*
X38173000Y-56007000D03*
D53*
X34273000Y-56007000D03*
D54*
X36173000Y-50292000D03*
X36173000Y-61722000D03*
D52*
X31190000Y-56007000D03*
D46*
X48492500Y-92329000D03*
X50567500Y-92329000D03*
D49*
X64770000Y-70215000D03*
X64770000Y-68215000D03*
D56*
X76806700Y-103355400D03*
X76806700Y-100585400D03*
X76806700Y-97815400D03*
X76806700Y-95045400D03*
X76806700Y-92275400D03*
D12*
X45212000Y-60325000D03*
D21*
X46625000Y-60325000D03*
D12*
X50038000Y-60325000D03*
D21*
X48625000Y-60325000D03*
D14*
X59065000Y-40005000D03*
D15*
X61605000Y-40005000D03*
X64145000Y-40005000D03*
X66685000Y-40005000D03*
D42*
X43490000Y-102222500D03*
D43*
X45990000Y-102222500D03*
X47990000Y-102222500D03*
X50490000Y-102222500D03*
D44*
X40420000Y-104932500D03*
X53560000Y-104932500D03*
D20*
X56388000Y-69320500D03*
X56388000Y-71395500D03*
D15*
X69723000Y-66040000D03*
X69723000Y-63500000D03*
X69723000Y-60960000D03*
X69723000Y-58420000D03*
X69723000Y-55880000D03*
X69723000Y-53340000D03*
X69723000Y-50800000D03*
X69723000Y-48260000D03*
X69723000Y-45720000D03*
X69723000Y-43180000D03*
X69723000Y-40640000D03*
X69723000Y-38100000D03*
D20*
X54356000Y-69320500D03*
X54356000Y-71395500D03*
D13*
X55880000Y-34000000D03*
X55880000Y-36000000D03*
D12*
X45212000Y-57785000D03*
D21*
X46625000Y-57785000D03*
D12*
X50038000Y-57785000D03*
D21*
X48625000Y-57785000D03*
D12*
X45212000Y-65405000D03*
D21*
X46625000Y-65405000D03*
D12*
X50038000Y-65405000D03*
D21*
X48625000Y-65405000D03*
D57*
X75946000Y-106329500D03*
X75946000Y-109062500D03*
D58*
X52451000Y-78994000D03*
X53086000Y-78994000D03*
X53721000Y-78994000D03*
X54356000Y-78994000D03*
X54991000Y-78994000D03*
X55626000Y-78994000D03*
X56261000Y-78994000D03*
X56896000Y-78994000D03*
X57531000Y-78994000D03*
X58166000Y-78994000D03*
X58801000Y-78994000D03*
X59436000Y-78994000D03*
X60071000Y-78994000D03*
X60706000Y-78994000D03*
X60706000Y-73794000D03*
X60071000Y-73794000D03*
X59436000Y-73794000D03*
X58801000Y-73794000D03*
X58166000Y-73794000D03*
X57531000Y-73794000D03*
X56896000Y-73794000D03*
X56261000Y-73794000D03*
X55626000Y-73794000D03*
X54991000Y-73794000D03*
X54356000Y-73794000D03*
X53721000Y-73794000D03*
X53086000Y-73794000D03*
X52451000Y-73794000D03*
D12*
X45212000Y-73025000D03*
D21*
X46625000Y-73025000D03*
D12*
X50038000Y-73025000D03*
D21*
X48625000Y-73025000D03*
D59*
X52451000Y-89822667D03*
D60*
X52451000Y-93823167D03*
X54859000Y-93823167D03*
D59*
X54859000Y-89822667D03*
D61*
X66764318Y-109982000D03*
X62764318Y-109982000D03*
M02*
