G04 #@! TF.GenerationSoftware,KiCad,Pcbnew,6.0.11-2627ca5db0~126~ubuntu20.04.1*
G04 #@! TF.CreationDate,2024-04-17T12:51:00+05:00*
G04 #@! TF.ProjectId,16EJU24,3136454a-5532-4342-9e6b-696361645f70,rev?*
G04 #@! TF.SameCoordinates,Original*
G04 #@! TF.FileFunction,Paste,Top*
G04 #@! TF.FilePolarity,Positive*
%FSLAX46Y46*%
G04 Gerber Fmt 4.6, Leading zero omitted, Abs format (unit mm)*
G04 Created by KiCad (PCBNEW 6.0.11-2627ca5db0~126~ubuntu20.04.1) date 2024-04-17 12:51:00*
%MOMM*%
%LPD*%
G01*
G04 APERTURE LIST*
G04 Aperture macros list*
%AMRoundRect*
0 Rectangle with rounded corners*
0 $1 Rounding radius*
0 $2 $3 $4 $5 $6 $7 $8 $9 X,Y pos of 4 corners*
0 Add a 4 corners polygon primitive as box body*
4,1,4,$2,$3,$4,$5,$6,$7,$8,$9,$2,$3,0*
0 Add four circle primitives for the rounded corners*
1,1,$1+$1,$2,$3*
1,1,$1+$1,$4,$5*
1,1,$1+$1,$6,$7*
1,1,$1+$1,$8,$9*
0 Add four rect primitives between the rounded corners*
20,1,$1+$1,$2,$3,$4,$5,0*
20,1,$1+$1,$4,$5,$6,$7,0*
20,1,$1+$1,$6,$7,$8,$9,0*
20,1,$1+$1,$8,$9,$2,$3,0*%
%AMOutline4P*
0 Free polygon, 4 corners , with rotation*
0 The origin of the aperture is its center*
0 number of corners: always 4*
0 $1 to $8 corner X, Y*
0 $9 Rotation angle, in degrees counterclockwise*
0 create outline with 4 corners*
4,1,4,$1,$2,$3,$4,$5,$6,$7,$8,$1,$2,$9*%
G04 Aperture macros list end*
%ADD10RoundRect,0.250000X-0.450000X0.350000X-0.450000X-0.350000X0.450000X-0.350000X0.450000X0.350000X0*%
%ADD11RoundRect,0.150000X-0.800000X-0.150000X0.800000X-0.150000X0.800000X0.150000X-0.800000X0.150000X0*%
%ADD12RoundRect,0.250000X0.337500X0.475000X-0.337500X0.475000X-0.337500X-0.475000X0.337500X-0.475000X0*%
%ADD13RoundRect,0.250000X-0.475000X0.337500X-0.475000X-0.337500X0.475000X-0.337500X0.475000X0.337500X0*%
%ADD14RoundRect,0.250000X-0.350000X-0.450000X0.350000X-0.450000X0.350000X0.450000X-0.350000X0.450000X0*%
%ADD15R,0.600000X1.450000*%
%ADD16R,0.400000X1.650000*%
%ADD17R,0.300000X1.450000*%
%ADD18Outline4P,-0.675000X-0.675000X0.675000X-0.675000X0.675000X0.675000X-0.675000X0.675000X0.000000*%
%ADD19R,2.000000X1.500000*%
%ADD20R,1.430000X2.500000*%
%ADD21R,1.825000X0.700000*%
%ADD22R,0.380714X1.829960*%
%ADD23R,0.382484X1.821706*%
%ADD24R,2.600000X0.300000*%
%ADD25RoundRect,0.250000X-0.337500X-0.475000X0.337500X-0.475000X0.337500X0.475000X-0.337500X0.475000X0*%
%ADD26RoundRect,0.150000X0.150000X-0.837500X0.150000X0.837500X-0.150000X0.837500X-0.150000X-0.837500X0*%
%ADD27RoundRect,0.250000X0.450000X-0.350000X0.450000X0.350000X-0.450000X0.350000X-0.450000X-0.350000X0*%
%ADD28RoundRect,0.150000X0.800000X0.150000X-0.800000X0.150000X-0.800000X-0.150000X0.800000X-0.150000X0*%
%ADD29R,3.480000X1.846667*%
%ADD30RoundRect,0.323962X-1.026038X0.534538X-1.026038X-0.534538X1.026038X-0.534538X1.026038X0.534538X0*%
%ADD31R,0.400000X1.200000*%
%ADD32R,1.392000X3.048000*%
%ADD33R,1.392000X2.921000*%
%ADD34R,1.600000X7.000000*%
G04 APERTURE END LIST*
D10*
X68664381Y-97867757D03*
X68664381Y-95867757D03*
D11*
X58095000Y-59055000D03*
X58095000Y-60325000D03*
X58095000Y-61595000D03*
X58095000Y-62865000D03*
X65095000Y-62865000D03*
X65095000Y-61595000D03*
X65095000Y-60325000D03*
X65095000Y-59055000D03*
X52507000Y-48768000D03*
X52507000Y-50038000D03*
X52507000Y-51308000D03*
X52507000Y-52578000D03*
X59507000Y-52578000D03*
X59507000Y-51308000D03*
X59507000Y-50038000D03*
X59507000Y-48768000D03*
D10*
X50982000Y-42688000D03*
X50982000Y-44688000D03*
D12*
X62251500Y-56642000D03*
X60176500Y-56642000D03*
D13*
X53086000Y-42650500D03*
X53086000Y-44725500D03*
D14*
X59579000Y-91821000D03*
X61579000Y-91821000D03*
X46625000Y-67945000D03*
X48625000Y-67945000D03*
X46625000Y-70485000D03*
X48625000Y-70485000D03*
D13*
X52324000Y-69320500D03*
X52324000Y-71395500D03*
D14*
X46625000Y-55245000D03*
X48625000Y-55245000D03*
D15*
X51835635Y-35129506D03*
X51060635Y-35129506D03*
D16*
X49908980Y-32537012D03*
D17*
X50360635Y-35129506D03*
X49860635Y-35129506D03*
D16*
X49258980Y-32537012D03*
D17*
X49360635Y-35129506D03*
X48860635Y-35129506D03*
D16*
X48608980Y-32537012D03*
D17*
X48360635Y-35129506D03*
X47860635Y-35129506D03*
X47360635Y-35129506D03*
X46860635Y-35129506D03*
D15*
X46160635Y-35129506D03*
D16*
X47308980Y-32537012D03*
D15*
X45385635Y-35129506D03*
D18*
X51338980Y-30899012D03*
D19*
X45708980Y-32657012D03*
D20*
X47648980Y-29387012D03*
D21*
X51558980Y-31337012D03*
D22*
X50823219Y-30571992D03*
D21*
X45608980Y-31337012D03*
D18*
X45858980Y-30899012D03*
D23*
X46350311Y-30543394D03*
D19*
X51458980Y-32637012D03*
D20*
X49568980Y-29387012D03*
D16*
X47958980Y-32537012D03*
D10*
X41783000Y-33941000D03*
X41783000Y-35941000D03*
D24*
X38987000Y-76788400D03*
X38987000Y-76288400D03*
X38987000Y-75788400D03*
X38987000Y-75288400D03*
X38987000Y-74788400D03*
X38987000Y-74288400D03*
X38987000Y-73788400D03*
X38987000Y-73288400D03*
X38987000Y-72788400D03*
X38987000Y-72288400D03*
X38987000Y-71788400D03*
X38987000Y-71288400D03*
X38987000Y-70788400D03*
X38987000Y-70288400D03*
X38987000Y-69788400D03*
X38987000Y-69288400D03*
X38987000Y-68788400D03*
X38987000Y-68288400D03*
X38987000Y-67788400D03*
D14*
X46625000Y-52705000D03*
X48625000Y-52705000D03*
D10*
X70739000Y-95901000D03*
X70739000Y-97901000D03*
D15*
X66064600Y-35127000D03*
D16*
X64137945Y-32534506D03*
D15*
X65289600Y-35127000D03*
D17*
X64589600Y-35127000D03*
X64089600Y-35127000D03*
D16*
X63487945Y-32534506D03*
D17*
X63589600Y-35127000D03*
D16*
X62837945Y-32534506D03*
D17*
X63089600Y-35127000D03*
X62589600Y-35127000D03*
X62089600Y-35127000D03*
X61589600Y-35127000D03*
X61089600Y-35127000D03*
D15*
X60389600Y-35127000D03*
X59614600Y-35127000D03*
D16*
X61537945Y-32534506D03*
D21*
X65787945Y-31334506D03*
D18*
X60087945Y-30896506D03*
D23*
X60579276Y-30540888D03*
D21*
X59837945Y-31334506D03*
D20*
X61877945Y-29384506D03*
D22*
X65052184Y-30569486D03*
D19*
X65687945Y-32634506D03*
X59937945Y-32654506D03*
D18*
X65567945Y-30896506D03*
D20*
X63797945Y-29384506D03*
D16*
X62187945Y-32534506D03*
D25*
X48492500Y-94615000D03*
X50567500Y-94615000D03*
X64494500Y-91821000D03*
X66569500Y-91821000D03*
D26*
X52133500Y-83666500D03*
X53403500Y-83666500D03*
X54673500Y-83666500D03*
X55943500Y-83666500D03*
X57213500Y-83666500D03*
X58483500Y-83666500D03*
X59753500Y-83666500D03*
X61023500Y-83666500D03*
X61023500Y-76741500D03*
X59753500Y-76741500D03*
X58483500Y-76741500D03*
X57213500Y-76741500D03*
X55943500Y-76741500D03*
X54673500Y-76741500D03*
X53403500Y-76741500D03*
X52133500Y-76741500D03*
D27*
X41529000Y-61706000D03*
X41529000Y-59706000D03*
D28*
X64206000Y-98171000D03*
X64206000Y-96901000D03*
X64206000Y-95631000D03*
X64206000Y-94361000D03*
X57206000Y-94361000D03*
X57206000Y-95631000D03*
X57206000Y-96901000D03*
X57206000Y-98171000D03*
D25*
X48492500Y-92329000D03*
X50567500Y-92329000D03*
D27*
X64770000Y-70215000D03*
X64770000Y-68215000D03*
D29*
X76806700Y-103355400D03*
X76806700Y-100585400D03*
X76806700Y-97815400D03*
X76806700Y-95045400D03*
X76806700Y-92275400D03*
D14*
X46625000Y-60325000D03*
X48625000Y-60325000D03*
D13*
X56388000Y-69320500D03*
X56388000Y-71395500D03*
X54356000Y-69320500D03*
X54356000Y-71395500D03*
D10*
X55880000Y-34000000D03*
X55880000Y-36000000D03*
D14*
X46625000Y-57785000D03*
X48625000Y-57785000D03*
X46625000Y-65405000D03*
X48625000Y-65405000D03*
D30*
X75946000Y-106329500D03*
X75946000Y-109062500D03*
D31*
X52451000Y-78994000D03*
X53086000Y-78994000D03*
X53721000Y-78994000D03*
X54356000Y-78994000D03*
X54991000Y-78994000D03*
X55626000Y-78994000D03*
X56261000Y-78994000D03*
X56896000Y-78994000D03*
X57531000Y-78994000D03*
X58166000Y-78994000D03*
X58801000Y-78994000D03*
X59436000Y-78994000D03*
X60071000Y-78994000D03*
X60706000Y-78994000D03*
X60706000Y-73794000D03*
X60071000Y-73794000D03*
X59436000Y-73794000D03*
X58801000Y-73794000D03*
X58166000Y-73794000D03*
X57531000Y-73794000D03*
X56896000Y-73794000D03*
X56261000Y-73794000D03*
X55626000Y-73794000D03*
X54991000Y-73794000D03*
X54356000Y-73794000D03*
X53721000Y-73794000D03*
X53086000Y-73794000D03*
X52451000Y-73794000D03*
D14*
X46625000Y-73025000D03*
X48625000Y-73025000D03*
D32*
X52451000Y-89822667D03*
D33*
X52451000Y-93823167D03*
X54859000Y-93823167D03*
D32*
X54859000Y-89822667D03*
D34*
X66764318Y-109982000D03*
X62764318Y-109982000D03*
M02*
