%TF.GenerationSoftware,KiCad,Pcbnew,6.0.11-2627ca5db0~126~ubuntu20.04.1*%
%TF.CreationDate,2024-04-17T12:51:05+05:00*%
%TF.ProjectId,16EJU24,3136454a-5532-4342-9e6b-696361645f70,rev?*%
%TF.SameCoordinates,Original*%
%TF.FileFunction,Drillmap*%
%TF.FilePolarity,Positive*%
%FSLAX45Y45*%
G04 Gerber Fmt 4.5, Leading zero omitted, Abs format (unit mm)*
G04 Created by KiCad (PCBNEW 6.0.11-2627ca5db0~126~ubuntu20.04.1) date 2024-04-17 12:51:05*
%MOMM*%
%LPD*%
G01*
G04 APERTURE LIST*
%ADD10C,0.100000*%
%ADD11C,0.050000*%
%ADD12C,0.200000*%
%ADD13C,0.065000*%
G04 APERTURE END LIST*
D10*
X2984500Y-5097780D02*
X2984500Y-4605020D01*
X2984500Y-4605020D02*
X3175000Y-4605020D01*
X3175000Y-5323840D02*
G75*
G03*
X3175000Y-5097780I-18940J113030D01*
G01*
D11*
X8064500Y-11366500D02*
X7162800Y-11366500D01*
X6781800Y-11366550D02*
X6172200Y-11366550D01*
D10*
X2984500Y-5872480D02*
X2984500Y-5323840D01*
X3175000Y-6096000D02*
G75*
G03*
X3175000Y-5872480I0J111760D01*
G01*
D11*
X6781800Y-10693400D02*
X6781800Y-11366550D01*
D10*
X2984500Y-3832860D02*
X3175000Y-3832860D01*
D11*
X6172200Y-10693400D02*
X5791200Y-10693400D01*
D10*
X3175000Y-5872480D02*
X2984500Y-5872480D01*
X3302000Y-2794000D02*
X8064500Y-2794000D01*
D11*
X5791200Y-10693400D02*
X5791200Y-11366500D01*
D10*
X3175000Y-5097780D02*
X2984500Y-5097780D01*
X3175000Y-4605020D02*
G75*
G03*
X3175000Y-4381500I0J111760D01*
G01*
X3175000Y-3832860D02*
G75*
G03*
X3175000Y-3606800I-18940J113030D01*
G01*
X2984500Y-11049000D02*
G75*
G03*
X3302000Y-11366500I317500J0D01*
G01*
X2984500Y-6096000D02*
X3175000Y-6096000D01*
X2984500Y-11049000D02*
X2984500Y-6096000D01*
D11*
X7162800Y-10693400D02*
X6781800Y-10693400D01*
D10*
X7924800Y-8826500D02*
G75*
G03*
X7874000Y-8877300I0J-50800D01*
G01*
X2984500Y-4381500D02*
X2984500Y-3832860D01*
D11*
X6172200Y-11366550D02*
X6172200Y-10693400D01*
D10*
X7874000Y-10693400D02*
G75*
G03*
X7924800Y-10744200I50800J0D01*
G01*
X8382000Y-10744200D02*
X7924800Y-10744200D01*
X7874000Y-10693400D02*
X7874000Y-8877300D01*
X5791200Y-11366500D02*
X3302000Y-11366500D01*
X2984500Y-5323840D02*
X3175000Y-5323840D01*
X3302000Y-2794000D02*
G75*
G03*
X2984500Y-3111500I0J-317500D01*
G01*
X8382000Y-3111500D02*
X8382000Y-8826500D01*
X3175000Y-4381500D02*
X2984500Y-4381500D01*
X3175000Y-3606800D02*
X2984500Y-3606800D01*
X8382000Y-10744200D02*
X8382000Y-11049000D01*
D11*
X7162800Y-11366500D02*
X7162800Y-10693400D01*
D10*
X8382000Y-3111500D02*
G75*
G03*
X8064500Y-2794000I-317500J0D01*
G01*
X7924800Y-8826500D02*
X8382000Y-8826500D01*
X2984500Y-3606800D02*
X2984500Y-3111500D01*
X8064500Y-11366500D02*
G75*
G03*
X8382000Y-11049000I0J317500D01*
G01*
D12*
D13*
X4539564Y-3335951D02*
X4604564Y-3400951D01*
X4604564Y-3335951D02*
X4539564Y-3400951D01*
X5117564Y-3335951D02*
X5182564Y-3400951D01*
X5182564Y-3335951D02*
X5117564Y-3400951D01*
X5962460Y-3335700D02*
X6027460Y-3400700D01*
X6027460Y-3335700D02*
X5962460Y-3400700D01*
X6540460Y-3335700D02*
X6605460Y-3400700D01*
X6605460Y-3335700D02*
X6540460Y-3400700D01*
D12*
X3237119Y-11681976D02*
X3237119Y-11481976D01*
X3284738Y-11481976D01*
X3313309Y-11491500D01*
X3332357Y-11510548D01*
X3341881Y-11529595D01*
X3351405Y-11567690D01*
X3351405Y-11596262D01*
X3341881Y-11634357D01*
X3332357Y-11653405D01*
X3313309Y-11672452D01*
X3284738Y-11681976D01*
X3237119Y-11681976D01*
X3437119Y-11681976D02*
X3437119Y-11548643D01*
X3437119Y-11586738D02*
X3446643Y-11567690D01*
X3456167Y-11558167D01*
X3475214Y-11548643D01*
X3494262Y-11548643D01*
X3560928Y-11681976D02*
X3560928Y-11548643D01*
X3560928Y-11481976D02*
X3551405Y-11491500D01*
X3560928Y-11501024D01*
X3570452Y-11491500D01*
X3560928Y-11481976D01*
X3560928Y-11501024D01*
X3684738Y-11681976D02*
X3665690Y-11672452D01*
X3656167Y-11653405D01*
X3656167Y-11481976D01*
X3789500Y-11681976D02*
X3770452Y-11672452D01*
X3760928Y-11653405D01*
X3760928Y-11481976D01*
X4018071Y-11681976D02*
X4018071Y-11481976D01*
X4084738Y-11624833D01*
X4151405Y-11481976D01*
X4151405Y-11681976D01*
X4332357Y-11681976D02*
X4332357Y-11577214D01*
X4322833Y-11558167D01*
X4303786Y-11548643D01*
X4265690Y-11548643D01*
X4246643Y-11558167D01*
X4332357Y-11672452D02*
X4313310Y-11681976D01*
X4265690Y-11681976D01*
X4246643Y-11672452D01*
X4237119Y-11653405D01*
X4237119Y-11634357D01*
X4246643Y-11615309D01*
X4265690Y-11605786D01*
X4313310Y-11605786D01*
X4332357Y-11596262D01*
X4427595Y-11548643D02*
X4427595Y-11748643D01*
X4427595Y-11558167D02*
X4446643Y-11548643D01*
X4484738Y-11548643D01*
X4503786Y-11558167D01*
X4513310Y-11567690D01*
X4522833Y-11586738D01*
X4522833Y-11643881D01*
X4513310Y-11662928D01*
X4503786Y-11672452D01*
X4484738Y-11681976D01*
X4446643Y-11681976D01*
X4427595Y-11672452D01*
X4608548Y-11662928D02*
X4618071Y-11672452D01*
X4608548Y-11681976D01*
X4599024Y-11672452D01*
X4608548Y-11662928D01*
X4608548Y-11681976D01*
X4608548Y-11558167D02*
X4618071Y-11567690D01*
X4608548Y-11577214D01*
X4599024Y-11567690D01*
X4608548Y-11558167D01*
X4608548Y-11577214D01*
D13*
X2914500Y-11979000D02*
X2979500Y-12044000D01*
X2979500Y-11979000D02*
X2914500Y-12044000D01*
D12*
X3275214Y-11901976D02*
X3294262Y-11901976D01*
X3313309Y-11911500D01*
X3322833Y-11921024D01*
X3332357Y-11940071D01*
X3341881Y-11978167D01*
X3341881Y-12025786D01*
X3332357Y-12063881D01*
X3322833Y-12082928D01*
X3313309Y-12092452D01*
X3294262Y-12101976D01*
X3275214Y-12101976D01*
X3256167Y-12092452D01*
X3246643Y-12082928D01*
X3237119Y-12063881D01*
X3227595Y-12025786D01*
X3227595Y-11978167D01*
X3237119Y-11940071D01*
X3246643Y-11921024D01*
X3256167Y-11911500D01*
X3275214Y-11901976D01*
X3427595Y-12082928D02*
X3437119Y-12092452D01*
X3427595Y-12101976D01*
X3418071Y-12092452D01*
X3427595Y-12082928D01*
X3427595Y-12101976D01*
X3608548Y-11901976D02*
X3570452Y-11901976D01*
X3551405Y-11911500D01*
X3541881Y-11921024D01*
X3522833Y-11949595D01*
X3513309Y-11987690D01*
X3513309Y-12063881D01*
X3522833Y-12082928D01*
X3532357Y-12092452D01*
X3551405Y-12101976D01*
X3589500Y-12101976D01*
X3608548Y-12092452D01*
X3618071Y-12082928D01*
X3627595Y-12063881D01*
X3627595Y-12016262D01*
X3618071Y-11997214D01*
X3608548Y-11987690D01*
X3589500Y-11978167D01*
X3551405Y-11978167D01*
X3532357Y-11987690D01*
X3522833Y-11997214D01*
X3513309Y-12016262D01*
X3808548Y-11901976D02*
X3713309Y-11901976D01*
X3703786Y-11997214D01*
X3713309Y-11987690D01*
X3732357Y-11978167D01*
X3779976Y-11978167D01*
X3799024Y-11987690D01*
X3808548Y-11997214D01*
X3818071Y-12016262D01*
X3818071Y-12063881D01*
X3808548Y-12082928D01*
X3799024Y-12092452D01*
X3779976Y-12101976D01*
X3732357Y-12101976D01*
X3713309Y-12092452D01*
X3703786Y-12082928D01*
X3941881Y-11901976D02*
X3960928Y-11901976D01*
X3979976Y-11911500D01*
X3989500Y-11921024D01*
X3999024Y-11940071D01*
X4008548Y-11978167D01*
X4008548Y-12025786D01*
X3999024Y-12063881D01*
X3989500Y-12082928D01*
X3979976Y-12092452D01*
X3960928Y-12101976D01*
X3941881Y-12101976D01*
X3922833Y-12092452D01*
X3913309Y-12082928D01*
X3903786Y-12063881D01*
X3894262Y-12025786D01*
X3894262Y-11978167D01*
X3903786Y-11940071D01*
X3913309Y-11921024D01*
X3922833Y-11911500D01*
X3941881Y-11901976D01*
X4094262Y-12101976D02*
X4094262Y-11968643D01*
X4094262Y-11987690D02*
X4103786Y-11978167D01*
X4122833Y-11968643D01*
X4151405Y-11968643D01*
X4170452Y-11978167D01*
X4179976Y-11997214D01*
X4179976Y-12101976D01*
X4179976Y-11997214D02*
X4189500Y-11978167D01*
X4208548Y-11968643D01*
X4237119Y-11968643D01*
X4256167Y-11978167D01*
X4265690Y-11997214D01*
X4265690Y-12101976D01*
X4360929Y-12101976D02*
X4360929Y-11968643D01*
X4360929Y-11987690D02*
X4370452Y-11978167D01*
X4389500Y-11968643D01*
X4418071Y-11968643D01*
X4437119Y-11978167D01*
X4446643Y-11997214D01*
X4446643Y-12101976D01*
X4446643Y-11997214D02*
X4456167Y-11978167D01*
X4475214Y-11968643D01*
X4503786Y-11968643D01*
X4522833Y-11978167D01*
X4532357Y-11997214D01*
X4532357Y-12101976D01*
X4922833Y-11892452D02*
X4751405Y-12149595D01*
X5179976Y-11901976D02*
X5199024Y-11901976D01*
X5218071Y-11911500D01*
X5227595Y-11921024D01*
X5237119Y-11940071D01*
X5246643Y-11978167D01*
X5246643Y-12025786D01*
X5237119Y-12063881D01*
X5227595Y-12082928D01*
X5218071Y-12092452D01*
X5199024Y-12101976D01*
X5179976Y-12101976D01*
X5160929Y-12092452D01*
X5151405Y-12082928D01*
X5141881Y-12063881D01*
X5132357Y-12025786D01*
X5132357Y-11978167D01*
X5141881Y-11940071D01*
X5151405Y-11921024D01*
X5160929Y-11911500D01*
X5179976Y-11901976D01*
X5332357Y-12082928D02*
X5341881Y-12092452D01*
X5332357Y-12101976D01*
X5322833Y-12092452D01*
X5332357Y-12082928D01*
X5332357Y-12101976D01*
X5465690Y-11901976D02*
X5484738Y-11901976D01*
X5503786Y-11911500D01*
X5513310Y-11921024D01*
X5522833Y-11940071D01*
X5532357Y-11978167D01*
X5532357Y-12025786D01*
X5522833Y-12063881D01*
X5513310Y-12082928D01*
X5503786Y-12092452D01*
X5484738Y-12101976D01*
X5465690Y-12101976D01*
X5446643Y-12092452D01*
X5437119Y-12082928D01*
X5427595Y-12063881D01*
X5418071Y-12025786D01*
X5418071Y-11978167D01*
X5427595Y-11940071D01*
X5437119Y-11921024D01*
X5446643Y-11911500D01*
X5465690Y-11901976D01*
X5608548Y-11921024D02*
X5618071Y-11911500D01*
X5637119Y-11901976D01*
X5684738Y-11901976D01*
X5703786Y-11911500D01*
X5713309Y-11921024D01*
X5722833Y-11940071D01*
X5722833Y-11959119D01*
X5713309Y-11987690D01*
X5599024Y-12101976D01*
X5722833Y-12101976D01*
X5903786Y-11901976D02*
X5808548Y-11901976D01*
X5799024Y-11997214D01*
X5808548Y-11987690D01*
X5827595Y-11978167D01*
X5875214Y-11978167D01*
X5894262Y-11987690D01*
X5903786Y-11997214D01*
X5913309Y-12016262D01*
X5913309Y-12063881D01*
X5903786Y-12082928D01*
X5894262Y-12092452D01*
X5875214Y-12101976D01*
X5827595Y-12101976D01*
X5808548Y-12092452D01*
X5799024Y-12082928D01*
X6084738Y-11901976D02*
X6046643Y-11901976D01*
X6027595Y-11911500D01*
X6018071Y-11921024D01*
X5999024Y-11949595D01*
X5989500Y-11987690D01*
X5989500Y-12063881D01*
X5999024Y-12082928D01*
X6008548Y-12092452D01*
X6027595Y-12101976D01*
X6065690Y-12101976D01*
X6084738Y-12092452D01*
X6094262Y-12082928D01*
X6103786Y-12063881D01*
X6103786Y-12016262D01*
X6094262Y-11997214D01*
X6084738Y-11987690D01*
X6065690Y-11978167D01*
X6027595Y-11978167D01*
X6008548Y-11987690D01*
X5999024Y-11997214D01*
X5989500Y-12016262D01*
X6179976Y-11901976D02*
X6179976Y-11940071D01*
X6256167Y-11901976D02*
X6256167Y-11940071D01*
X6551405Y-12178167D02*
X6541881Y-12168643D01*
X6522833Y-12140071D01*
X6513309Y-12121024D01*
X6503786Y-12092452D01*
X6494262Y-12044833D01*
X6494262Y-12006738D01*
X6503786Y-11959119D01*
X6513309Y-11930548D01*
X6522833Y-11911500D01*
X6541881Y-11882928D01*
X6551405Y-11873405D01*
X6713309Y-11968643D02*
X6713309Y-12101976D01*
X6665690Y-11892452D02*
X6618071Y-12035309D01*
X6741881Y-12035309D01*
X6970452Y-12101976D02*
X6970452Y-11901976D01*
X7056167Y-12101976D02*
X7056167Y-11997214D01*
X7046643Y-11978167D01*
X7027595Y-11968643D01*
X6999024Y-11968643D01*
X6979976Y-11978167D01*
X6970452Y-11987690D01*
X7179976Y-12101976D02*
X7160928Y-12092452D01*
X7151405Y-12082928D01*
X7141881Y-12063881D01*
X7141881Y-12006738D01*
X7151405Y-11987690D01*
X7160928Y-11978167D01*
X7179976Y-11968643D01*
X7208548Y-11968643D01*
X7227595Y-11978167D01*
X7237119Y-11987690D01*
X7246643Y-12006738D01*
X7246643Y-12063881D01*
X7237119Y-12082928D01*
X7227595Y-12092452D01*
X7208548Y-12101976D01*
X7179976Y-12101976D01*
X7360928Y-12101976D02*
X7341881Y-12092452D01*
X7332357Y-12073405D01*
X7332357Y-11901976D01*
X7513309Y-12092452D02*
X7494262Y-12101976D01*
X7456167Y-12101976D01*
X7437119Y-12092452D01*
X7427595Y-12073405D01*
X7427595Y-11997214D01*
X7437119Y-11978167D01*
X7456167Y-11968643D01*
X7494262Y-11968643D01*
X7513309Y-11978167D01*
X7522833Y-11997214D01*
X7522833Y-12016262D01*
X7427595Y-12035309D01*
X7599024Y-12092452D02*
X7618071Y-12101976D01*
X7656167Y-12101976D01*
X7675214Y-12092452D01*
X7684738Y-12073405D01*
X7684738Y-12063881D01*
X7675214Y-12044833D01*
X7656167Y-12035309D01*
X7627595Y-12035309D01*
X7608548Y-12025786D01*
X7599024Y-12006738D01*
X7599024Y-11997214D01*
X7608548Y-11978167D01*
X7627595Y-11968643D01*
X7656167Y-11968643D01*
X7675214Y-11978167D01*
X7751405Y-12178167D02*
X7760928Y-12168643D01*
X7779976Y-12140071D01*
X7789500Y-12121024D01*
X7799024Y-12092452D01*
X7808548Y-12044833D01*
X7808548Y-12006738D01*
X7799024Y-11959119D01*
X7789500Y-11930548D01*
X7779976Y-11911500D01*
X7760928Y-11882928D01*
X7751405Y-11873405D01*
X8113309Y-12178167D02*
X8103786Y-12168643D01*
X8084738Y-12140071D01*
X8075214Y-12121024D01*
X8065690Y-12092452D01*
X8056167Y-12044833D01*
X8056167Y-12006738D01*
X8065690Y-11959119D01*
X8075214Y-11930548D01*
X8084738Y-11911500D01*
X8103786Y-11882928D01*
X8113309Y-11873405D01*
X8189500Y-11968643D02*
X8189500Y-12101976D01*
X8189500Y-11987690D02*
X8199024Y-11978167D01*
X8218071Y-11968643D01*
X8246643Y-11968643D01*
X8265690Y-11978167D01*
X8275214Y-11997214D01*
X8275214Y-12101976D01*
X8399024Y-12101976D02*
X8379976Y-12092452D01*
X8370452Y-12082928D01*
X8360928Y-12063881D01*
X8360928Y-12006738D01*
X8370452Y-11987690D01*
X8379976Y-11978167D01*
X8399024Y-11968643D01*
X8427595Y-11968643D01*
X8446643Y-11978167D01*
X8456167Y-11987690D01*
X8465690Y-12006738D01*
X8465690Y-12063881D01*
X8456167Y-12082928D01*
X8446643Y-12092452D01*
X8427595Y-12101976D01*
X8399024Y-12101976D01*
X8522833Y-11968643D02*
X8599024Y-11968643D01*
X8551405Y-11901976D02*
X8551405Y-12073405D01*
X8560929Y-12092452D01*
X8579976Y-12101976D01*
X8599024Y-12101976D01*
X8818071Y-11968643D02*
X8818071Y-12168643D01*
X8818071Y-11978167D02*
X8837119Y-11968643D01*
X8875214Y-11968643D01*
X8894262Y-11978167D01*
X8903786Y-11987690D01*
X8913310Y-12006738D01*
X8913310Y-12063881D01*
X8903786Y-12082928D01*
X8894262Y-12092452D01*
X8875214Y-12101976D01*
X8837119Y-12101976D01*
X8818071Y-12092452D01*
X9027595Y-12101976D02*
X9008548Y-12092452D01*
X8999024Y-12073405D01*
X8999024Y-11901976D01*
X9189500Y-12101976D02*
X9189500Y-11997214D01*
X9179976Y-11978167D01*
X9160929Y-11968643D01*
X9122833Y-11968643D01*
X9103786Y-11978167D01*
X9189500Y-12092452D02*
X9170452Y-12101976D01*
X9122833Y-12101976D01*
X9103786Y-12092452D01*
X9094262Y-12073405D01*
X9094262Y-12054357D01*
X9103786Y-12035309D01*
X9122833Y-12025786D01*
X9170452Y-12025786D01*
X9189500Y-12016262D01*
X9256167Y-11968643D02*
X9332357Y-11968643D01*
X9284738Y-11901976D02*
X9284738Y-12073405D01*
X9294262Y-12092452D01*
X9313310Y-12101976D01*
X9332357Y-12101976D01*
X9475214Y-12092452D02*
X9456167Y-12101976D01*
X9418071Y-12101976D01*
X9399024Y-12092452D01*
X9389500Y-12073405D01*
X9389500Y-11997214D01*
X9399024Y-11978167D01*
X9418071Y-11968643D01*
X9456167Y-11968643D01*
X9475214Y-11978167D01*
X9484738Y-11997214D01*
X9484738Y-12016262D01*
X9389500Y-12035309D01*
X9656167Y-12101976D02*
X9656167Y-11901976D01*
X9656167Y-12092452D02*
X9637119Y-12101976D01*
X9599024Y-12101976D01*
X9579976Y-12092452D01*
X9570452Y-12082928D01*
X9560929Y-12063881D01*
X9560929Y-12006738D01*
X9570452Y-11987690D01*
X9579976Y-11978167D01*
X9599024Y-11968643D01*
X9637119Y-11968643D01*
X9656167Y-11978167D01*
X9732357Y-12178167D02*
X9741881Y-12168643D01*
X9760929Y-12140071D01*
X9770452Y-12121024D01*
X9779976Y-12092452D01*
X9789500Y-12044833D01*
X9789500Y-12006738D01*
X9779976Y-11959119D01*
X9770452Y-11930548D01*
X9760929Y-11911500D01*
X9741881Y-11882928D01*
X9732357Y-11873405D01*
M02*
