G04 #@! TF.GenerationSoftware,KiCad,Pcbnew,6.0.11-2627ca5db0~126~ubuntu20.04.1*
G04 #@! TF.CreationDate,2023-10-28T22:46:29+05:00*
G04 #@! TF.ProjectId,33EJU23,3333454a-5532-4332-9e6b-696361645f70,rev?*
G04 #@! TF.SameCoordinates,Original*
G04 #@! TF.FileFunction,Legend,Bot*
G04 #@! TF.FilePolarity,Positive*
%FSLAX46Y46*%
G04 Gerber Fmt 4.6, Leading zero omitted, Abs format (unit mm)*
G04 Created by KiCad (PCBNEW 6.0.11-2627ca5db0~126~ubuntu20.04.1) date 2023-10-28 22:46:29*
%MOMM*%
%LPD*%
G01*
G04 APERTURE LIST*
G04 Aperture macros list*
%AMRoundRect*
0 Rectangle with rounded corners*
0 $1 Rounding radius*
0 $2 $3 $4 $5 $6 $7 $8 $9 X,Y pos of 4 corners*
0 Add a 4 corners polygon primitive as box body*
4,1,4,$2,$3,$4,$5,$6,$7,$8,$9,$2,$3,0*
0 Add four circle primitives for the rounded corners*
1,1,$1+$1,$2,$3*
1,1,$1+$1,$4,$5*
1,1,$1+$1,$6,$7*
1,1,$1+$1,$8,$9*
0 Add four rect primitives between the rounded corners*
20,1,$1+$1,$2,$3,$4,$5,0*
20,1,$1+$1,$4,$5,$6,$7,0*
20,1,$1+$1,$6,$7,$8,$9,0*
20,1,$1+$1,$8,$9,$2,$3,0*%
%AMFreePoly0*
4,1,22,0.550000,-0.750000,0.000000,-0.750000,0.000000,-0.745033,-0.079941,-0.743568,-0.215256,-0.701293,-0.333266,-0.622738,-0.424486,-0.514219,-0.481581,-0.384460,-0.499164,-0.250000,-0.500000,-0.250000,-0.500000,0.250000,-0.499164,0.250000,-0.499963,0.256109,-0.478152,0.396186,-0.417904,0.524511,-0.324060,0.630769,-0.204165,0.706417,-0.067858,0.745374,0.000000,0.744959,0.000000,0.750000,
0.550000,0.750000,0.550000,-0.750000,0.550000,-0.750000,$1*%
%AMFreePoly1*
4,1,20,0.000000,0.744959,0.073905,0.744508,0.209726,0.703889,0.328688,0.626782,0.421226,0.519385,0.479903,0.390333,0.500000,0.250000,0.500000,-0.250000,0.499851,-0.262216,0.476331,-0.402017,0.414519,-0.529596,0.319384,-0.634700,0.198574,-0.708877,0.061801,-0.746166,0.000000,-0.745033,0.000000,-0.750000,-0.550000,-0.750000,-0.550000,0.750000,0.000000,0.750000,0.000000,0.744959,
0.000000,0.744959,$1*%
%AMFreePoly2*
4,1,22,0.500000,-0.750000,0.000000,-0.750000,0.000000,-0.745033,-0.079941,-0.743568,-0.215256,-0.701293,-0.333266,-0.622738,-0.424486,-0.514219,-0.481581,-0.384460,-0.499164,-0.250000,-0.500000,-0.250000,-0.500000,0.250000,-0.499164,0.250000,-0.499963,0.256109,-0.478152,0.396186,-0.417904,0.524511,-0.324060,0.630769,-0.204165,0.706417,-0.067858,0.745374,0.000000,0.744959,0.000000,0.750000,
0.500000,0.750000,0.500000,-0.750000,0.500000,-0.750000,$1*%
%AMFreePoly3*
4,1,20,0.000000,0.744959,0.073905,0.744508,0.209726,0.703889,0.328688,0.626782,0.421226,0.519385,0.479903,0.390333,0.500000,0.250000,0.500000,-0.250000,0.499851,-0.262216,0.476331,-0.402017,0.414519,-0.529596,0.319384,-0.634700,0.198574,-0.708877,0.061801,-0.746166,0.000000,-0.745033,0.000000,-0.750000,-0.500000,-0.750000,-0.500000,0.750000,0.000000,0.750000,0.000000,0.744959,
0.000000,0.744959,$1*%
G04 Aperture macros list end*
%ADD10C,0.120000*%
%ADD11C,0.150000*%
%ADD12C,1.500000*%
%ADD13C,1.700000*%
%ADD14C,2.000000*%
%ADD15O,1.700000X1.700000*%
%ADD16C,0.650000*%
%ADD17O,1.000000X1.600000*%
%ADD18O,1.100000X1.500000*%
%ADD19O,1.000000X2.100000*%
%ADD20R,1.700000X1.700000*%
%ADD21RoundRect,0.350000X-1.300000X0.350000X-1.300000X-0.350000X1.300000X-0.350000X1.300000X0.350000X0*%
%ADD22RoundRect,0.350000X-0.700000X0.350000X-0.700000X-0.350000X0.700000X-0.350000X0.700000X0.350000X0*%
%ADD23R,1.524000X1.524000*%
%ADD24C,1.524000*%
%ADD25C,3.500000*%
%ADD26R,2.000000X2.000000*%
%ADD27R,1.200000X1.200000*%
%ADD28C,1.200000*%
%ADD29R,1.600000X1.600000*%
%ADD30C,1.600000*%
%ADD31O,4.700000X2.000000*%
%ADD32O,4.400000X2.000000*%
%ADD33O,2.700000X3.700000*%
%ADD34R,3.480000X1.846667*%
%ADD35C,4.000000*%
%ADD36RoundRect,0.250000X0.350000X0.450000X-0.350000X0.450000X-0.350000X-0.450000X0.350000X-0.450000X0*%
%ADD37FreePoly0,90.000000*%
%ADD38R,1.500000X1.000000*%
%ADD39FreePoly1,90.000000*%
%ADD40RoundRect,0.323962X0.534538X1.026038X-0.534538X1.026038X-0.534538X-1.026038X0.534538X-1.026038X0*%
%ADD41RoundRect,0.250000X-0.475000X0.337500X-0.475000X-0.337500X0.475000X-0.337500X0.475000X0.337500X0*%
%ADD42RoundRect,0.250000X-0.450000X0.350000X-0.450000X-0.350000X0.450000X-0.350000X0.450000X0.350000X0*%
%ADD43RoundRect,0.250000X-0.350000X-0.450000X0.350000X-0.450000X0.350000X0.450000X-0.350000X0.450000X0*%
%ADD44FreePoly2,90.000000*%
%ADD45FreePoly3,90.000000*%
%ADD46RoundRect,0.250000X0.337500X0.475000X-0.337500X0.475000X-0.337500X-0.475000X0.337500X-0.475000X0*%
%ADD47R,1.600000X7.000000*%
%ADD48RoundRect,0.323962X1.026038X-0.534538X1.026038X0.534538X-1.026038X0.534538X-1.026038X-0.534538X0*%
%ADD49R,1.900000X0.800000*%
%ADD50RoundRect,0.323962X-0.534538X-1.026038X0.534538X-1.026038X0.534538X1.026038X-0.534538X1.026038X0*%
%ADD51RoundRect,0.250000X-0.337500X-0.475000X0.337500X-0.475000X0.337500X0.475000X-0.337500X0.475000X0*%
%ADD52RoundRect,0.323962X-1.026038X0.534538X-1.026038X-0.534538X1.026038X-0.534538X1.026038X0.534538X0*%
G04 APERTURE END LIST*
D10*
X67778759Y-96121755D02*
X69683759Y-96121755D01*
D11*
X50363047Y-111974380D02*
X49744000Y-111974380D01*
X50077333Y-112355333D01*
X49934476Y-112355333D01*
X49839238Y-112402952D01*
X49791619Y-112450571D01*
X49744000Y-112545809D01*
X49744000Y-112783904D01*
X49791619Y-112879142D01*
X49839238Y-112926761D01*
X49934476Y-112974380D01*
X50220190Y-112974380D01*
X50315428Y-112926761D01*
X50363047Y-112879142D01*
X49410666Y-111974380D02*
X48791619Y-111974380D01*
X49124952Y-112355333D01*
X48982095Y-112355333D01*
X48886857Y-112402952D01*
X48839238Y-112450571D01*
X48791619Y-112545809D01*
X48791619Y-112783904D01*
X48839238Y-112879142D01*
X48886857Y-112926761D01*
X48982095Y-112974380D01*
X49267809Y-112974380D01*
X49363047Y-112926761D01*
X49410666Y-112879142D01*
X48363047Y-112450571D02*
X48029714Y-112450571D01*
X47886857Y-112974380D02*
X48363047Y-112974380D01*
X48363047Y-111974380D01*
X47886857Y-111974380D01*
X47172571Y-111974380D02*
X47172571Y-112688666D01*
X47220190Y-112831523D01*
X47315428Y-112926761D01*
X47458285Y-112974380D01*
X47553523Y-112974380D01*
X46696380Y-111974380D02*
X46696380Y-112783904D01*
X46648761Y-112879142D01*
X46601142Y-112926761D01*
X46505904Y-112974380D01*
X46315428Y-112974380D01*
X46220190Y-112926761D01*
X46172571Y-112879142D01*
X46124952Y-112783904D01*
X46124952Y-111974380D01*
X45696380Y-112069619D02*
X45648761Y-112022000D01*
X45553523Y-111974380D01*
X45315428Y-111974380D01*
X45220190Y-112022000D01*
X45172571Y-112069619D01*
X45124952Y-112164857D01*
X45124952Y-112260095D01*
X45172571Y-112402952D01*
X45744000Y-112974380D01*
X45124952Y-112974380D01*
X44791619Y-111974380D02*
X44172571Y-111974380D01*
X44505904Y-112355333D01*
X44363047Y-112355333D01*
X44267809Y-112402952D01*
X44220190Y-112450571D01*
X44172571Y-112545809D01*
X44172571Y-112783904D01*
X44220190Y-112879142D01*
X44267809Y-112926761D01*
X44363047Y-112974380D01*
X44648761Y-112974380D01*
X44744000Y-112926761D01*
X44791619Y-112879142D01*
X47758333Y-68306904D02*
X48025000Y-67925952D01*
X48215476Y-68306904D02*
X48215476Y-67506904D01*
X47910714Y-67506904D01*
X47834523Y-67545000D01*
X47796428Y-67583095D01*
X47758333Y-67659285D01*
X47758333Y-67773571D01*
X47796428Y-67849761D01*
X47834523Y-67887857D01*
X47910714Y-67925952D01*
X48215476Y-67925952D01*
X47072619Y-67506904D02*
X47225000Y-67506904D01*
X47301190Y-67545000D01*
X47339285Y-67583095D01*
X47415476Y-67697380D01*
X47453571Y-67849761D01*
X47453571Y-68154523D01*
X47415476Y-68230714D01*
X47377380Y-68268809D01*
X47301190Y-68306904D01*
X47148809Y-68306904D01*
X47072619Y-68268809D01*
X47034523Y-68230714D01*
X46996428Y-68154523D01*
X46996428Y-67964047D01*
X47034523Y-67887857D01*
X47072619Y-67849761D01*
X47148809Y-67811666D01*
X47301190Y-67811666D01*
X47377380Y-67849761D01*
X47415476Y-67887857D01*
X47453571Y-67964047D01*
X47758333Y-70846904D02*
X48025000Y-70465952D01*
X48215476Y-70846904D02*
X48215476Y-70046904D01*
X47910714Y-70046904D01*
X47834523Y-70085000D01*
X47796428Y-70123095D01*
X47758333Y-70199285D01*
X47758333Y-70313571D01*
X47796428Y-70389761D01*
X47834523Y-70427857D01*
X47910714Y-70465952D01*
X48215476Y-70465952D01*
X47491666Y-70046904D02*
X46958333Y-70046904D01*
X47301190Y-70846904D01*
X47758333Y-55606904D02*
X48025000Y-55225952D01*
X48215476Y-55606904D02*
X48215476Y-54806904D01*
X47910714Y-54806904D01*
X47834523Y-54845000D01*
X47796428Y-54883095D01*
X47758333Y-54959285D01*
X47758333Y-55073571D01*
X47796428Y-55149761D01*
X47834523Y-55187857D01*
X47910714Y-55225952D01*
X48215476Y-55225952D01*
X47453571Y-54883095D02*
X47415476Y-54845000D01*
X47339285Y-54806904D01*
X47148809Y-54806904D01*
X47072619Y-54845000D01*
X47034523Y-54883095D01*
X46996428Y-54959285D01*
X46996428Y-55035476D01*
X47034523Y-55149761D01*
X47491666Y-55606904D01*
X46996428Y-55606904D01*
X69153285Y-96547280D02*
X68353285Y-96547280D01*
X68353285Y-96737757D01*
X68391381Y-96852042D01*
X68467571Y-96928233D01*
X68543761Y-96966328D01*
X68696142Y-97004423D01*
X68810428Y-97004423D01*
X68962809Y-96966328D01*
X69039000Y-96928233D01*
X69115190Y-96852042D01*
X69153285Y-96737757D01*
X69153285Y-96547280D01*
X69153285Y-97766328D02*
X69153285Y-97309185D01*
X69153285Y-97537757D02*
X68353285Y-97537757D01*
X68467571Y-97461566D01*
X68543761Y-97385376D01*
X68581857Y-97309185D01*
X47758333Y-53066904D02*
X48025000Y-52685952D01*
X48215476Y-53066904D02*
X48215476Y-52266904D01*
X47910714Y-52266904D01*
X47834523Y-52305000D01*
X47796428Y-52343095D01*
X47758333Y-52419285D01*
X47758333Y-52533571D01*
X47796428Y-52609761D01*
X47834523Y-52647857D01*
X47910714Y-52685952D01*
X48215476Y-52685952D01*
X46996428Y-53066904D02*
X47453571Y-53066904D01*
X47225000Y-53066904D02*
X47225000Y-52266904D01*
X47301190Y-52381190D01*
X47377380Y-52457380D01*
X47453571Y-52495476D01*
X41560714Y-56016666D02*
X41598809Y-55978571D01*
X41636904Y-55864285D01*
X41636904Y-55788095D01*
X41598809Y-55673809D01*
X41522619Y-55597619D01*
X41446428Y-55559523D01*
X41294047Y-55521428D01*
X41179761Y-55521428D01*
X41027380Y-55559523D01*
X40951190Y-55597619D01*
X40875000Y-55673809D01*
X40836904Y-55788095D01*
X40836904Y-55864285D01*
X40875000Y-55978571D01*
X40913095Y-56016666D01*
X40913095Y-56321428D02*
X40875000Y-56359523D01*
X40836904Y-56435714D01*
X40836904Y-56626190D01*
X40875000Y-56702380D01*
X40913095Y-56740476D01*
X40989285Y-56778571D01*
X41065476Y-56778571D01*
X41179761Y-56740476D01*
X41636904Y-56283333D01*
X41636904Y-56778571D01*
X47758333Y-60686904D02*
X48025000Y-60305952D01*
X48215476Y-60686904D02*
X48215476Y-59886904D01*
X47910714Y-59886904D01*
X47834523Y-59925000D01*
X47796428Y-59963095D01*
X47758333Y-60039285D01*
X47758333Y-60153571D01*
X47796428Y-60229761D01*
X47834523Y-60267857D01*
X47910714Y-60305952D01*
X48215476Y-60305952D01*
X47072619Y-60153571D02*
X47072619Y-60686904D01*
X47263095Y-59848809D02*
X47453571Y-60420238D01*
X46958333Y-60420238D01*
X47758333Y-58146904D02*
X48025000Y-57765952D01*
X48215476Y-58146904D02*
X48215476Y-57346904D01*
X47910714Y-57346904D01*
X47834523Y-57385000D01*
X47796428Y-57423095D01*
X47758333Y-57499285D01*
X47758333Y-57613571D01*
X47796428Y-57689761D01*
X47834523Y-57727857D01*
X47910714Y-57765952D01*
X48215476Y-57765952D01*
X47491666Y-57346904D02*
X46996428Y-57346904D01*
X47263095Y-57651666D01*
X47148809Y-57651666D01*
X47072619Y-57689761D01*
X47034523Y-57727857D01*
X46996428Y-57804047D01*
X46996428Y-57994523D01*
X47034523Y-58070714D01*
X47072619Y-58108809D01*
X47148809Y-58146904D01*
X47377380Y-58146904D01*
X47453571Y-58108809D01*
X47491666Y-58070714D01*
X47758333Y-65766904D02*
X48025000Y-65385952D01*
X48215476Y-65766904D02*
X48215476Y-64966904D01*
X47910714Y-64966904D01*
X47834523Y-65005000D01*
X47796428Y-65043095D01*
X47758333Y-65119285D01*
X47758333Y-65233571D01*
X47796428Y-65309761D01*
X47834523Y-65347857D01*
X47910714Y-65385952D01*
X48215476Y-65385952D01*
X47034523Y-64966904D02*
X47415476Y-64966904D01*
X47453571Y-65347857D01*
X47415476Y-65309761D01*
X47339285Y-65271666D01*
X47148809Y-65271666D01*
X47072619Y-65309761D01*
X47034523Y-65347857D01*
X46996428Y-65424047D01*
X46996428Y-65614523D01*
X47034523Y-65690714D01*
X47072619Y-65728809D01*
X47148809Y-65766904D01*
X47339285Y-65766904D01*
X47415476Y-65728809D01*
X47453571Y-65690714D01*
X47758333Y-73386904D02*
X48025000Y-73005952D01*
X48215476Y-73386904D02*
X48215476Y-72586904D01*
X47910714Y-72586904D01*
X47834523Y-72625000D01*
X47796428Y-72663095D01*
X47758333Y-72739285D01*
X47758333Y-72853571D01*
X47796428Y-72929761D01*
X47834523Y-72967857D01*
X47910714Y-73005952D01*
X48215476Y-73005952D01*
X47301190Y-72929761D02*
X47377380Y-72891666D01*
X47415476Y-72853571D01*
X47453571Y-72777380D01*
X47453571Y-72739285D01*
X47415476Y-72663095D01*
X47377380Y-72625000D01*
X47301190Y-72586904D01*
X47148809Y-72586904D01*
X47072619Y-72625000D01*
X47034523Y-72663095D01*
X46996428Y-72739285D01*
X46996428Y-72777380D01*
X47034523Y-72853571D01*
X47072619Y-72891666D01*
X47148809Y-72929761D01*
X47301190Y-72929761D01*
X47377380Y-72967857D01*
X47415476Y-73005952D01*
X47453571Y-73082142D01*
X47453571Y-73234523D01*
X47415476Y-73310714D01*
X47377380Y-73348809D01*
X47301190Y-73386904D01*
X47148809Y-73386904D01*
X47072619Y-73348809D01*
X47034523Y-73310714D01*
X46996428Y-73234523D01*
X46996428Y-73082142D01*
X47034523Y-73005952D01*
X47072619Y-72967857D01*
X47148809Y-72929761D01*
X51890657Y-45664380D02*
X52223990Y-45188190D01*
X52462085Y-45664380D02*
X52462085Y-44664380D01*
X52081133Y-44664380D01*
X51985895Y-44712000D01*
X51938276Y-44759619D01*
X51890657Y-44854857D01*
X51890657Y-44997714D01*
X51938276Y-45092952D01*
X51985895Y-45140571D01*
X52081133Y-45188190D01*
X52462085Y-45188190D01*
X51557323Y-44664380D02*
X50938276Y-44664380D01*
X51271609Y-45045333D01*
X51128752Y-45045333D01*
X51033514Y-45092952D01*
X50985895Y-45140571D01*
X50938276Y-45235809D01*
X50938276Y-45473904D01*
X50985895Y-45569142D01*
X51033514Y-45616761D01*
X51128752Y-45664380D01*
X51414466Y-45664380D01*
X51509704Y-45616761D01*
X51557323Y-45569142D01*
X50557323Y-44759619D02*
X50509704Y-44712000D01*
X50414466Y-44664380D01*
X50176371Y-44664380D01*
X50081133Y-44712000D01*
X50033514Y-44759619D01*
X49985895Y-44854857D01*
X49985895Y-44950095D01*
X50033514Y-45092952D01*
X50604942Y-45664380D01*
X49985895Y-45664380D01*
X64899712Y-46125505D02*
X65613998Y-46125505D01*
X65756855Y-46077886D01*
X65852093Y-45982648D01*
X65899712Y-45839791D01*
X65899712Y-45744553D01*
X65899712Y-46601696D02*
X64899712Y-46601696D01*
X64899712Y-46982648D01*
X64947332Y-47077886D01*
X64994951Y-47125505D01*
X65090189Y-47173124D01*
X65233046Y-47173124D01*
X65328284Y-47125505D01*
X65375903Y-47077886D01*
X65423522Y-46982648D01*
X65423522Y-46601696D01*
X65328284Y-47744553D02*
X65280665Y-47649315D01*
X65233046Y-47601696D01*
X65137808Y-47554077D01*
X65090189Y-47554077D01*
X64994951Y-47601696D01*
X64947332Y-47649315D01*
X64899712Y-47744553D01*
X64899712Y-47935029D01*
X64947332Y-48030267D01*
X64994951Y-48077886D01*
X65090189Y-48125505D01*
X65137808Y-48125505D01*
X65233046Y-48077886D01*
X65280665Y-48030267D01*
X65328284Y-47935029D01*
X65328284Y-47744553D01*
X65375903Y-47649315D01*
X65423522Y-47601696D01*
X65518760Y-47554077D01*
X65709236Y-47554077D01*
X65804474Y-47601696D01*
X65852093Y-47649315D01*
X65899712Y-47744553D01*
X65899712Y-47935029D01*
X65852093Y-48030267D01*
X65804474Y-48077886D01*
X65709236Y-48125505D01*
X65518760Y-48125505D01*
X65423522Y-48077886D01*
X65375903Y-48030267D01*
X65328284Y-47935029D01*
X63629732Y-49241380D02*
X62629732Y-49241380D01*
X62629732Y-49622333D01*
X62677352Y-49717571D01*
X62724971Y-49765190D01*
X62820209Y-49812809D01*
X62963066Y-49812809D01*
X63058304Y-49765190D01*
X63105923Y-49717571D01*
X63153542Y-49622333D01*
X63153542Y-49241380D01*
X63344018Y-50193761D02*
X63344018Y-50669952D01*
X63629732Y-50098523D02*
X62629732Y-50431857D01*
X63629732Y-50765190D01*
X63629732Y-51574714D02*
X63629732Y-51098523D01*
X62629732Y-51098523D01*
X63580094Y-41409092D02*
X62580094Y-41409092D01*
X63580094Y-41980521D01*
X62580094Y-41980521D01*
X62580094Y-42313854D02*
X62580094Y-42885283D01*
X63580094Y-42599569D02*
X62580094Y-42599569D01*
X63532475Y-43170997D02*
X63580094Y-43313854D01*
X63580094Y-43551950D01*
X63532475Y-43647188D01*
X63484856Y-43694807D01*
X63389618Y-43742426D01*
X63294380Y-43742426D01*
X63199142Y-43694807D01*
X63151523Y-43647188D01*
X63103904Y-43551950D01*
X63056285Y-43361473D01*
X63008666Y-43266235D01*
X62961047Y-43218616D01*
X62865809Y-43170997D01*
X62770571Y-43170997D01*
X62675333Y-43218616D01*
X62627714Y-43266235D01*
X62580094Y-43361473D01*
X62580094Y-43599569D01*
X62627714Y-43742426D01*
X63484856Y-44742426D02*
X63532475Y-44694807D01*
X63580094Y-44551950D01*
X63580094Y-44456711D01*
X63532475Y-44313854D01*
X63437237Y-44218616D01*
X63341999Y-44170997D01*
X63151523Y-44123378D01*
X63008666Y-44123378D01*
X62818190Y-44170997D01*
X62722952Y-44218616D01*
X62627714Y-44313854D01*
X62580094Y-44456711D01*
X62580094Y-44551950D01*
X62627714Y-44694807D01*
X62675333Y-44742426D01*
X52324375Y-80352471D02*
X52371994Y-80304852D01*
X52419613Y-80161995D01*
X52419613Y-80066757D01*
X52371994Y-79923900D01*
X52276756Y-79828662D01*
X52181518Y-79781042D01*
X51991042Y-79733423D01*
X51848185Y-79733423D01*
X51657709Y-79781042D01*
X51562471Y-79828662D01*
X51467233Y-79923900D01*
X51419613Y-80066757D01*
X51419613Y-80161995D01*
X51467233Y-80304852D01*
X51514852Y-80352471D01*
X52514852Y-80542947D02*
X52514852Y-81304852D01*
X51419613Y-82019138D02*
X51419613Y-81542947D01*
X51895804Y-81495328D01*
X51848185Y-81542947D01*
X51800566Y-81638185D01*
X51800566Y-81876281D01*
X51848185Y-81971519D01*
X51895804Y-82019138D01*
X51991042Y-82066757D01*
X52229137Y-82066757D01*
X52324375Y-82019138D01*
X52371994Y-81971519D01*
X52419613Y-81876281D01*
X52419613Y-81638185D01*
X52371994Y-81542947D01*
X52324375Y-81495328D01*
X51419613Y-82352471D02*
X52419613Y-82685804D01*
X51419613Y-83019138D01*
X56522937Y-38822326D02*
X56570556Y-38869945D01*
X56713413Y-38917564D01*
X56808651Y-38917564D01*
X56951508Y-38869945D01*
X57046746Y-38774707D01*
X57094365Y-38679469D01*
X57141984Y-38488993D01*
X57141984Y-38346136D01*
X57094365Y-38155660D01*
X57046746Y-38060422D01*
X56951508Y-37965184D01*
X56808651Y-37917564D01*
X56713413Y-37917564D01*
X56570556Y-37965184D01*
X56522937Y-38012803D01*
X55570556Y-38917564D02*
X56141984Y-38917564D01*
X55856270Y-38917564D02*
X55856270Y-37917564D01*
X55951508Y-38060422D01*
X56046746Y-38155660D01*
X56141984Y-38203279D01*
X55189603Y-38012803D02*
X55141984Y-37965184D01*
X55046746Y-37917564D01*
X54808651Y-37917564D01*
X54713413Y-37965184D01*
X54665794Y-38012803D01*
X54618175Y-38108041D01*
X54618175Y-38203279D01*
X54665794Y-38346136D01*
X55237222Y-38917564D01*
X54618175Y-38917564D01*
X60910668Y-62867543D02*
X61144001Y-62534210D01*
X61310668Y-62867543D02*
X61310668Y-62167543D01*
X61044001Y-62167543D01*
X60977334Y-62200877D01*
X60944001Y-62234210D01*
X60910668Y-62300877D01*
X60910668Y-62400877D01*
X60944001Y-62467543D01*
X60977334Y-62500877D01*
X61044001Y-62534210D01*
X61310668Y-62534210D01*
X60677334Y-62167543D02*
X60244001Y-62167543D01*
X60477334Y-62434210D01*
X60377334Y-62434210D01*
X60310668Y-62467543D01*
X60277334Y-62500877D01*
X60244001Y-62567543D01*
X60244001Y-62734210D01*
X60277334Y-62800877D01*
X60310668Y-62834210D01*
X60377334Y-62867543D01*
X60577334Y-62867543D01*
X60644001Y-62834210D01*
X60677334Y-62800877D01*
X59644001Y-62400877D02*
X59644001Y-62867543D01*
X59810668Y-62134210D02*
X59977334Y-62634210D01*
X59544001Y-62634210D01*
X51976257Y-47924980D02*
X52309590Y-47448790D01*
X52547685Y-47924980D02*
X52547685Y-46924980D01*
X52166733Y-46924980D01*
X52071495Y-46972600D01*
X52023876Y-47020219D01*
X51976257Y-47115457D01*
X51976257Y-47258314D01*
X52023876Y-47353552D01*
X52071495Y-47401171D01*
X52166733Y-47448790D01*
X52547685Y-47448790D01*
X51642923Y-46924980D02*
X51023876Y-46924980D01*
X51357209Y-47305933D01*
X51214352Y-47305933D01*
X51119114Y-47353552D01*
X51071495Y-47401171D01*
X51023876Y-47496409D01*
X51023876Y-47734504D01*
X51071495Y-47829742D01*
X51119114Y-47877361D01*
X51214352Y-47924980D01*
X51500066Y-47924980D01*
X51595304Y-47877361D01*
X51642923Y-47829742D01*
X50071495Y-47924980D02*
X50642923Y-47924980D01*
X50357209Y-47924980D02*
X50357209Y-46924980D01*
X50452447Y-47067838D01*
X50547685Y-47163076D01*
X50642923Y-47210695D01*
X54617857Y-55452380D02*
X54951190Y-54976190D01*
X55189285Y-55452380D02*
X55189285Y-54452380D01*
X54808333Y-54452380D01*
X54713095Y-54500000D01*
X54665476Y-54547619D01*
X54617857Y-54642857D01*
X54617857Y-54785714D01*
X54665476Y-54880952D01*
X54713095Y-54928571D01*
X54808333Y-54976190D01*
X55189285Y-54976190D01*
X53665476Y-55452380D02*
X54236904Y-55452380D01*
X53951190Y-55452380D02*
X53951190Y-54452380D01*
X54046428Y-54595238D01*
X54141666Y-54690476D01*
X54236904Y-54738095D01*
X53189285Y-55452380D02*
X52998809Y-55452380D01*
X52903571Y-55404761D01*
X52855952Y-55357142D01*
X52760714Y-55214285D01*
X52713095Y-55023809D01*
X52713095Y-54642857D01*
X52760714Y-54547619D01*
X52808333Y-54500000D01*
X52903571Y-54452380D01*
X53094047Y-54452380D01*
X53189285Y-54500000D01*
X53236904Y-54547619D01*
X53284523Y-54642857D01*
X53284523Y-54880952D01*
X53236904Y-54976190D01*
X53189285Y-55023809D01*
X53094047Y-55071428D01*
X52903571Y-55071428D01*
X52808333Y-55023809D01*
X52760714Y-54976190D01*
X52713095Y-54880952D01*
X63188000Y-58482666D02*
X63421333Y-58149333D01*
X63588000Y-58482666D02*
X63588000Y-57782666D01*
X63321333Y-57782666D01*
X63254666Y-57816000D01*
X63221333Y-57849333D01*
X63188000Y-57916000D01*
X63188000Y-58016000D01*
X63221333Y-58082666D01*
X63254666Y-58116000D01*
X63321333Y-58149333D01*
X63588000Y-58149333D01*
X62921333Y-57849333D02*
X62888000Y-57816000D01*
X62821333Y-57782666D01*
X62654666Y-57782666D01*
X62588000Y-57816000D01*
X62554666Y-57849333D01*
X62521333Y-57916000D01*
X62521333Y-57982666D01*
X62554666Y-58082666D01*
X62954666Y-58482666D01*
X62521333Y-58482666D01*
X62254666Y-57849333D02*
X62221333Y-57816000D01*
X62154666Y-57782666D01*
X61988000Y-57782666D01*
X61921333Y-57816000D01*
X61888000Y-57849333D01*
X61854666Y-57916000D01*
X61854666Y-57982666D01*
X61888000Y-58082666D01*
X62288000Y-58482666D01*
X61854666Y-58482666D01*
X52322623Y-72816578D02*
X52370242Y-72768959D01*
X52417861Y-72626102D01*
X52417861Y-72530864D01*
X52370242Y-72388007D01*
X52275004Y-72292769D01*
X52179766Y-72245149D01*
X51989290Y-72197530D01*
X51846433Y-72197530D01*
X51655957Y-72245149D01*
X51560719Y-72292769D01*
X51465481Y-72388007D01*
X51417861Y-72530864D01*
X51417861Y-72626102D01*
X51465481Y-72768959D01*
X51513100Y-72816578D01*
X52513100Y-73007054D02*
X52513100Y-73768959D01*
X51417861Y-74483245D02*
X51417861Y-74007054D01*
X51894052Y-73959435D01*
X51846433Y-74007054D01*
X51798814Y-74102292D01*
X51798814Y-74340388D01*
X51846433Y-74435626D01*
X51894052Y-74483245D01*
X51989290Y-74530864D01*
X52227385Y-74530864D01*
X52322623Y-74483245D01*
X52370242Y-74435626D01*
X52417861Y-74340388D01*
X52417861Y-74102292D01*
X52370242Y-74007054D01*
X52322623Y-73959435D01*
X51417861Y-74816578D02*
X52417861Y-75149911D01*
X51417861Y-75483245D01*
X61029000Y-58482666D02*
X61262333Y-58149333D01*
X61429000Y-58482666D02*
X61429000Y-57782666D01*
X61162333Y-57782666D01*
X61095666Y-57816000D01*
X61062333Y-57849333D01*
X61029000Y-57916000D01*
X61029000Y-58016000D01*
X61062333Y-58082666D01*
X61095666Y-58116000D01*
X61162333Y-58149333D01*
X61429000Y-58149333D01*
X60762333Y-57849333D02*
X60729000Y-57816000D01*
X60662333Y-57782666D01*
X60495666Y-57782666D01*
X60429000Y-57816000D01*
X60395666Y-57849333D01*
X60362333Y-57916000D01*
X60362333Y-57982666D01*
X60395666Y-58082666D01*
X60795666Y-58482666D01*
X60362333Y-58482666D01*
X59729000Y-57782666D02*
X60062333Y-57782666D01*
X60095666Y-58116000D01*
X60062333Y-58082666D01*
X59995666Y-58049333D01*
X59829000Y-58049333D01*
X59762333Y-58082666D01*
X59729000Y-58116000D01*
X59695666Y-58182666D01*
X59695666Y-58349333D01*
X59729000Y-58416000D01*
X59762333Y-58449333D01*
X59829000Y-58482666D01*
X59995666Y-58482666D01*
X60062333Y-58449333D01*
X60095666Y-58416000D01*
X42995904Y-50768333D02*
X43567333Y-50768333D01*
X43681619Y-50730238D01*
X43757809Y-50654047D01*
X43795904Y-50539761D01*
X43795904Y-50463571D01*
X43795904Y-51149285D02*
X42995904Y-51149285D01*
X42995904Y-51454047D01*
X43034000Y-51530238D01*
X43072095Y-51568333D01*
X43148285Y-51606428D01*
X43262571Y-51606428D01*
X43338761Y-51568333D01*
X43376857Y-51530238D01*
X43414952Y-51454047D01*
X43414952Y-51149285D01*
X42995904Y-51873095D02*
X42995904Y-52368333D01*
X43300666Y-52101666D01*
X43300666Y-52215952D01*
X43338761Y-52292142D01*
X43376857Y-52330238D01*
X43453047Y-52368333D01*
X43643523Y-52368333D01*
X43719714Y-52330238D01*
X43757809Y-52292142D01*
X43795904Y-52215952D01*
X43795904Y-51987380D01*
X43757809Y-51911190D01*
X43719714Y-51873095D01*
X61602857Y-53411380D02*
X61936190Y-52935190D01*
X62174285Y-53411380D02*
X62174285Y-52411380D01*
X61793333Y-52411380D01*
X61698095Y-52459000D01*
X61650476Y-52506619D01*
X61602857Y-52601857D01*
X61602857Y-52744714D01*
X61650476Y-52839952D01*
X61698095Y-52887571D01*
X61793333Y-52935190D01*
X62174285Y-52935190D01*
X60650476Y-53411380D02*
X61221904Y-53411380D01*
X60936190Y-53411380D02*
X60936190Y-52411380D01*
X61031428Y-52554238D01*
X61126666Y-52649476D01*
X61221904Y-52697095D01*
X59793333Y-52411380D02*
X59983809Y-52411380D01*
X60079047Y-52459000D01*
X60126666Y-52506619D01*
X60221904Y-52649476D01*
X60269523Y-52839952D01*
X60269523Y-53220904D01*
X60221904Y-53316142D01*
X60174285Y-53363761D01*
X60079047Y-53411380D01*
X59888571Y-53411380D01*
X59793333Y-53363761D01*
X59745714Y-53316142D01*
X59698095Y-53220904D01*
X59698095Y-52982809D01*
X59745714Y-52887571D01*
X59793333Y-52839952D01*
X59888571Y-52792333D01*
X60079047Y-52792333D01*
X60174285Y-52839952D01*
X60221904Y-52887571D01*
X60269523Y-52982809D01*
X61594288Y-46018090D02*
X61641907Y-46065709D01*
X61784764Y-46113328D01*
X61880002Y-46113328D01*
X62022859Y-46065709D01*
X62118097Y-45970471D01*
X62165716Y-45875233D01*
X62213335Y-45684757D01*
X62213335Y-45541900D01*
X62165716Y-45351424D01*
X62118097Y-45256186D01*
X62022859Y-45160948D01*
X61880002Y-45113328D01*
X61784764Y-45113328D01*
X61641907Y-45160948D01*
X61594288Y-45208567D01*
X60641907Y-46113328D02*
X61213335Y-46113328D01*
X60927621Y-46113328D02*
X60927621Y-45113328D01*
X61022859Y-45256186D01*
X61118097Y-45351424D01*
X61213335Y-45399043D01*
X60165716Y-46113328D02*
X59975240Y-46113328D01*
X59880002Y-46065709D01*
X59832383Y-46018090D01*
X59737145Y-45875233D01*
X59689526Y-45684757D01*
X59689526Y-45303805D01*
X59737145Y-45208567D01*
X59784764Y-45160948D01*
X59880002Y-45113328D01*
X60070478Y-45113328D01*
X60165716Y-45160948D01*
X60213335Y-45208567D01*
X60260954Y-45303805D01*
X60260954Y-45541900D01*
X60213335Y-45637138D01*
X60165716Y-45684757D01*
X60070478Y-45732376D01*
X59880002Y-45732376D01*
X59784764Y-45684757D01*
X59737145Y-45637138D01*
X59689526Y-45541900D01*
X61602857Y-48077380D02*
X61936190Y-47601190D01*
X62174285Y-48077380D02*
X62174285Y-47077380D01*
X61793333Y-47077380D01*
X61698095Y-47125000D01*
X61650476Y-47172619D01*
X61602857Y-47267857D01*
X61602857Y-47410714D01*
X61650476Y-47505952D01*
X61698095Y-47553571D01*
X61793333Y-47601190D01*
X62174285Y-47601190D01*
X60650476Y-48077380D02*
X61221904Y-48077380D01*
X60936190Y-48077380D02*
X60936190Y-47077380D01*
X61031428Y-47220238D01*
X61126666Y-47315476D01*
X61221904Y-47363095D01*
X59793333Y-47410714D02*
X59793333Y-48077380D01*
X60031428Y-47029761D02*
X60269523Y-47744047D01*
X59650476Y-47744047D01*
X63841190Y-31649942D02*
X63888809Y-31697561D01*
X64031666Y-31745180D01*
X64126904Y-31745180D01*
X64269761Y-31697561D01*
X64365000Y-31602323D01*
X64412619Y-31507085D01*
X64460238Y-31316609D01*
X64460238Y-31173752D01*
X64412619Y-30983276D01*
X64365000Y-30888038D01*
X64269761Y-30792800D01*
X64126904Y-30745180D01*
X64031666Y-30745180D01*
X63888809Y-30792800D01*
X63841190Y-30840419D01*
X63650714Y-31840419D02*
X62888809Y-31840419D01*
X62174523Y-30745180D02*
X62650714Y-30745180D01*
X62698333Y-31221371D01*
X62650714Y-31173752D01*
X62555476Y-31126133D01*
X62317380Y-31126133D01*
X62222142Y-31173752D01*
X62174523Y-31221371D01*
X62126904Y-31316609D01*
X62126904Y-31554704D01*
X62174523Y-31649942D01*
X62222142Y-31697561D01*
X62317380Y-31745180D01*
X62555476Y-31745180D01*
X62650714Y-31697561D01*
X62698333Y-31649942D01*
X61841190Y-30745180D02*
X61507857Y-31745180D01*
X61174523Y-30745180D01*
X58861302Y-58482358D02*
X59094635Y-58149025D01*
X59261302Y-58482358D02*
X59261302Y-57782358D01*
X58994635Y-57782358D01*
X58927968Y-57815692D01*
X58894635Y-57849025D01*
X58861302Y-57915692D01*
X58861302Y-58015692D01*
X58894635Y-58082358D01*
X58927968Y-58115692D01*
X58994635Y-58149025D01*
X59261302Y-58149025D01*
X58594635Y-57849025D02*
X58561302Y-57815692D01*
X58494635Y-57782358D01*
X58327968Y-57782358D01*
X58261302Y-57815692D01*
X58227968Y-57849025D01*
X58194635Y-57915692D01*
X58194635Y-57982358D01*
X58227968Y-58082358D01*
X58627968Y-58482358D01*
X58194635Y-58482358D01*
X57794635Y-58082358D02*
X57861302Y-58049025D01*
X57894635Y-58015692D01*
X57927968Y-57949025D01*
X57927968Y-57915692D01*
X57894635Y-57849025D01*
X57861302Y-57815692D01*
X57794635Y-57782358D01*
X57661302Y-57782358D01*
X57594635Y-57815692D01*
X57561302Y-57849025D01*
X57527968Y-57915692D01*
X57527968Y-57949025D01*
X57561302Y-58015692D01*
X57594635Y-58049025D01*
X57661302Y-58082358D01*
X57794635Y-58082358D01*
X57861302Y-58115692D01*
X57894635Y-58149025D01*
X57927968Y-58215692D01*
X57927968Y-58349025D01*
X57894635Y-58415692D01*
X57861302Y-58449025D01*
X57794635Y-58482358D01*
X57661302Y-58482358D01*
X57594635Y-58449025D01*
X57561302Y-58415692D01*
X57527968Y-58349025D01*
X57527968Y-58215692D01*
X57561302Y-58149025D01*
X57594635Y-58115692D01*
X57661302Y-58082358D01*
X42868904Y-63991333D02*
X43440333Y-63991333D01*
X43554619Y-63953238D01*
X43630809Y-63877047D01*
X43668904Y-63762761D01*
X43668904Y-63686571D01*
X43668904Y-64372285D02*
X42868904Y-64372285D01*
X42868904Y-64677047D01*
X42907000Y-64753238D01*
X42945095Y-64791333D01*
X43021285Y-64829428D01*
X43135571Y-64829428D01*
X43211761Y-64791333D01*
X43249857Y-64753238D01*
X43287952Y-64677047D01*
X43287952Y-64372285D01*
X43668904Y-65591333D02*
X43668904Y-65134190D01*
X43668904Y-65362761D02*
X42868904Y-65362761D01*
X42983190Y-65286571D01*
X43059380Y-65210380D01*
X43097476Y-65134190D01*
X53220857Y-65857380D02*
X53554190Y-65381190D01*
X53792285Y-65857380D02*
X53792285Y-64857380D01*
X53411333Y-64857380D01*
X53316095Y-64905000D01*
X53268476Y-64952619D01*
X53220857Y-65047857D01*
X53220857Y-65190714D01*
X53268476Y-65285952D01*
X53316095Y-65333571D01*
X53411333Y-65381190D01*
X53792285Y-65381190D01*
X52839904Y-64952619D02*
X52792285Y-64905000D01*
X52697047Y-64857380D01*
X52458952Y-64857380D01*
X52363714Y-64905000D01*
X52316095Y-64952619D01*
X52268476Y-65047857D01*
X52268476Y-65143095D01*
X52316095Y-65285952D01*
X52887523Y-65857380D01*
X52268476Y-65857380D01*
X51792285Y-65857380D02*
X51601809Y-65857380D01*
X51506571Y-65809761D01*
X51458952Y-65762142D01*
X51363714Y-65619285D01*
X51316095Y-65428809D01*
X51316095Y-65047857D01*
X51363714Y-64952619D01*
X51411333Y-64905000D01*
X51506571Y-64857380D01*
X51697047Y-64857380D01*
X51792285Y-64905000D01*
X51839904Y-64952619D01*
X51887523Y-65047857D01*
X51887523Y-65285952D01*
X51839904Y-65381190D01*
X51792285Y-65428809D01*
X51697047Y-65476428D01*
X51506571Y-65476428D01*
X51411333Y-65428809D01*
X51363714Y-65381190D01*
X51316095Y-65285952D01*
X44965857Y-43181542D02*
X45013476Y-43229161D01*
X45156333Y-43276780D01*
X45251571Y-43276780D01*
X45394428Y-43229161D01*
X45489666Y-43133923D01*
X45537285Y-43038685D01*
X45584904Y-42848209D01*
X45584904Y-42705352D01*
X45537285Y-42514876D01*
X45489666Y-42419638D01*
X45394428Y-42324400D01*
X45251571Y-42276780D01*
X45156333Y-42276780D01*
X45013476Y-42324400D01*
X44965857Y-42372019D01*
X44584904Y-42372019D02*
X44537285Y-42324400D01*
X44442047Y-42276780D01*
X44203952Y-42276780D01*
X44108714Y-42324400D01*
X44061095Y-42372019D01*
X44013476Y-42467257D01*
X44013476Y-42562495D01*
X44061095Y-42705352D01*
X44632523Y-43276780D01*
X44013476Y-43276780D01*
X43061095Y-43276780D02*
X43632523Y-43276780D01*
X43346809Y-43276780D02*
X43346809Y-42276780D01*
X43442047Y-42419638D01*
X43537285Y-42514876D01*
X43632523Y-42562495D01*
X60166238Y-49696619D02*
X60261476Y-49649000D01*
X60356714Y-49553761D01*
X60499571Y-49410904D01*
X60594809Y-49363285D01*
X60690047Y-49363285D01*
X60642428Y-49601380D02*
X60737666Y-49553761D01*
X60832904Y-49458523D01*
X60880523Y-49268047D01*
X60880523Y-48934714D01*
X60832904Y-48744238D01*
X60737666Y-48649000D01*
X60642428Y-48601380D01*
X60451952Y-48601380D01*
X60356714Y-48649000D01*
X60261476Y-48744238D01*
X60213857Y-48934714D01*
X60213857Y-49268047D01*
X60261476Y-49458523D01*
X60356714Y-49553761D01*
X60451952Y-49601380D01*
X60642428Y-49601380D01*
X59261476Y-49601380D02*
X59832904Y-49601380D01*
X59547190Y-49601380D02*
X59547190Y-48601380D01*
X59642428Y-48744238D01*
X59737666Y-48839476D01*
X59832904Y-48887095D01*
X56672475Y-31698731D02*
X56720094Y-31746350D01*
X56862951Y-31793969D01*
X56958189Y-31793969D01*
X57101046Y-31746350D01*
X57196285Y-31651112D01*
X57243904Y-31555874D01*
X57291523Y-31365398D01*
X57291523Y-31222541D01*
X57243904Y-31032065D01*
X57196285Y-30936827D01*
X57101046Y-30841589D01*
X56958189Y-30793969D01*
X56862951Y-30793969D01*
X56720094Y-30841589D01*
X56672475Y-30889208D01*
X56481999Y-31889208D02*
X55720094Y-31889208D01*
X55005808Y-30793969D02*
X55481999Y-30793969D01*
X55529618Y-31270160D01*
X55481999Y-31222541D01*
X55386761Y-31174922D01*
X55148665Y-31174922D01*
X55053427Y-31222541D01*
X55005808Y-31270160D01*
X54958189Y-31365398D01*
X54958189Y-31603493D01*
X55005808Y-31698731D01*
X55053427Y-31746350D01*
X55148665Y-31793969D01*
X55386761Y-31793969D01*
X55481999Y-31746350D01*
X55529618Y-31698731D01*
X54672475Y-30793969D02*
X54339142Y-31793969D01*
X54005808Y-30793969D01*
X61220642Y-77128809D02*
X61268261Y-77081190D01*
X61315880Y-76938333D01*
X61315880Y-76843095D01*
X61268261Y-76700238D01*
X61173023Y-76605000D01*
X61077785Y-76557380D01*
X60887309Y-76509761D01*
X60744452Y-76509761D01*
X60553976Y-76557380D01*
X60458738Y-76605000D01*
X60363500Y-76700238D01*
X60315880Y-76843095D01*
X60315880Y-76938333D01*
X60363500Y-77081190D01*
X60411119Y-77128809D01*
X61411119Y-77319285D02*
X61411119Y-78081190D01*
X60315880Y-78795476D02*
X60315880Y-78319285D01*
X60792071Y-78271666D01*
X60744452Y-78319285D01*
X60696833Y-78414523D01*
X60696833Y-78652619D01*
X60744452Y-78747857D01*
X60792071Y-78795476D01*
X60887309Y-78843095D01*
X61125404Y-78843095D01*
X61220642Y-78795476D01*
X61268261Y-78747857D01*
X61315880Y-78652619D01*
X61315880Y-78414523D01*
X61268261Y-78319285D01*
X61220642Y-78271666D01*
X60315880Y-79128809D02*
X61315880Y-79462142D01*
X60315880Y-79795476D01*
X42868904Y-55848333D02*
X43440333Y-55848333D01*
X43554619Y-55810238D01*
X43630809Y-55734047D01*
X43668904Y-55619761D01*
X43668904Y-55543571D01*
X43668904Y-56229285D02*
X42868904Y-56229285D01*
X42868904Y-56534047D01*
X42907000Y-56610238D01*
X42945095Y-56648333D01*
X43021285Y-56686428D01*
X43135571Y-56686428D01*
X43211761Y-56648333D01*
X43249857Y-56610238D01*
X43287952Y-56534047D01*
X43287952Y-56229285D01*
X42945095Y-56991190D02*
X42907000Y-57029285D01*
X42868904Y-57105476D01*
X42868904Y-57295952D01*
X42907000Y-57372142D01*
X42945095Y-57410238D01*
X43021285Y-57448333D01*
X43097476Y-57448333D01*
X43211761Y-57410238D01*
X43668904Y-56953095D01*
X43668904Y-57448333D01*
X63182362Y-66430961D02*
X63415695Y-66097628D01*
X63582362Y-66430961D02*
X63582362Y-65730961D01*
X63315695Y-65730961D01*
X63249028Y-65764295D01*
X63215695Y-65797628D01*
X63182362Y-65864295D01*
X63182362Y-65964295D01*
X63215695Y-66030961D01*
X63249028Y-66064295D01*
X63315695Y-66097628D01*
X63582362Y-66097628D01*
X62949028Y-65730961D02*
X62515695Y-65730961D01*
X62749028Y-65997628D01*
X62649028Y-65997628D01*
X62582362Y-66030961D01*
X62549028Y-66064295D01*
X62515695Y-66130961D01*
X62515695Y-66297628D01*
X62549028Y-66364295D01*
X62582362Y-66397628D01*
X62649028Y-66430961D01*
X62849028Y-66430961D01*
X62915695Y-66397628D01*
X62949028Y-66364295D01*
X62282362Y-65730961D02*
X61849028Y-65730961D01*
X62082362Y-65997628D01*
X61982362Y-65997628D01*
X61915695Y-66030961D01*
X61882362Y-66064295D01*
X61849028Y-66130961D01*
X61849028Y-66297628D01*
X61882362Y-66364295D01*
X61915695Y-66397628D01*
X61982362Y-66430961D01*
X62182362Y-66430961D01*
X62249028Y-66397628D01*
X62282362Y-66364295D01*
X53174406Y-61572983D02*
X53507739Y-61096793D01*
X53745834Y-61572983D02*
X53745834Y-60572983D01*
X53364882Y-60572983D01*
X53269644Y-60620603D01*
X53222025Y-60668222D01*
X53174406Y-60763460D01*
X53174406Y-60906317D01*
X53222025Y-61001555D01*
X53269644Y-61049174D01*
X53364882Y-61096793D01*
X53745834Y-61096793D01*
X52793453Y-60668222D02*
X52745834Y-60620603D01*
X52650596Y-60572983D01*
X52412501Y-60572983D01*
X52317263Y-60620603D01*
X52269644Y-60668222D01*
X52222025Y-60763460D01*
X52222025Y-60858698D01*
X52269644Y-61001555D01*
X52841072Y-61572983D01*
X52222025Y-61572983D01*
X51888691Y-60572983D02*
X51222025Y-60572983D01*
X51650596Y-61572983D01*
X52061857Y-43276780D02*
X52395190Y-42800590D01*
X52633285Y-43276780D02*
X52633285Y-42276780D01*
X52252333Y-42276780D01*
X52157095Y-42324400D01*
X52109476Y-42372019D01*
X52061857Y-42467257D01*
X52061857Y-42610114D01*
X52109476Y-42705352D01*
X52157095Y-42752971D01*
X52252333Y-42800590D01*
X52633285Y-42800590D01*
X51109476Y-43276780D02*
X51680904Y-43276780D01*
X51395190Y-43276780D02*
X51395190Y-42276780D01*
X51490428Y-42419638D01*
X51585666Y-42514876D01*
X51680904Y-42562495D01*
X50776142Y-42276780D02*
X50109476Y-42276780D01*
X50538047Y-43276780D01*
X61602857Y-44172142D02*
X61650476Y-44219761D01*
X61793333Y-44267380D01*
X61888571Y-44267380D01*
X62031428Y-44219761D01*
X62126666Y-44124523D01*
X62174285Y-44029285D01*
X62221904Y-43838809D01*
X62221904Y-43695952D01*
X62174285Y-43505476D01*
X62126666Y-43410238D01*
X62031428Y-43315000D01*
X61888571Y-43267380D01*
X61793333Y-43267380D01*
X61650476Y-43315000D01*
X61602857Y-43362619D01*
X60650476Y-44267380D02*
X61221904Y-44267380D01*
X60936190Y-44267380D02*
X60936190Y-43267380D01*
X61031428Y-43410238D01*
X61126666Y-43505476D01*
X61221904Y-43553095D01*
X59745714Y-43267380D02*
X60221904Y-43267380D01*
X60269523Y-43743571D01*
X60221904Y-43695952D01*
X60126666Y-43648333D01*
X59888571Y-43648333D01*
X59793333Y-43695952D01*
X59745714Y-43743571D01*
X59698095Y-43838809D01*
X59698095Y-44076904D01*
X59745714Y-44172142D01*
X59793333Y-44219761D01*
X59888571Y-44267380D01*
X60126666Y-44267380D01*
X60221904Y-44219761D01*
X60269523Y-44172142D01*
X61605521Y-55266026D02*
X61653140Y-55313645D01*
X61795997Y-55361264D01*
X61891235Y-55361264D01*
X62034092Y-55313645D01*
X62129330Y-55218407D01*
X62176949Y-55123169D01*
X62224568Y-54932693D01*
X62224568Y-54789836D01*
X62176949Y-54599360D01*
X62129330Y-54504122D01*
X62034092Y-54408884D01*
X61891235Y-54361264D01*
X61795997Y-54361264D01*
X61653140Y-54408884D01*
X61605521Y-54456503D01*
X60653140Y-55361264D02*
X61224568Y-55361264D01*
X60938854Y-55361264D02*
X60938854Y-54361264D01*
X61034092Y-54504122D01*
X61129330Y-54599360D01*
X61224568Y-54646979D01*
X60081711Y-54789836D02*
X60176949Y-54742217D01*
X60224568Y-54694598D01*
X60272187Y-54599360D01*
X60272187Y-54551741D01*
X60224568Y-54456503D01*
X60176949Y-54408884D01*
X60081711Y-54361264D01*
X59891235Y-54361264D01*
X59795997Y-54408884D01*
X59748378Y-54456503D01*
X59700759Y-54551741D01*
X59700759Y-54599360D01*
X59748378Y-54694598D01*
X59795997Y-54742217D01*
X59891235Y-54789836D01*
X60081711Y-54789836D01*
X60176949Y-54837455D01*
X60224568Y-54885074D01*
X60272187Y-54980312D01*
X60272187Y-55170788D01*
X60224568Y-55266026D01*
X60176949Y-55313645D01*
X60081711Y-55361264D01*
X59891235Y-55361264D01*
X59795997Y-55313645D01*
X59748378Y-55266026D01*
X59700759Y-55170788D01*
X59700759Y-54980312D01*
X59748378Y-54885074D01*
X59795997Y-54837455D01*
X59891235Y-54789836D01*
X58904675Y-62823419D02*
X59138008Y-62490086D01*
X59304675Y-62823419D02*
X59304675Y-62123419D01*
X59038008Y-62123419D01*
X58971341Y-62156753D01*
X58938008Y-62190086D01*
X58904675Y-62256753D01*
X58904675Y-62356753D01*
X58938008Y-62423419D01*
X58971341Y-62456753D01*
X59038008Y-62490086D01*
X59304675Y-62490086D01*
X58671341Y-62123419D02*
X58238008Y-62123419D01*
X58471341Y-62390086D01*
X58371341Y-62390086D01*
X58304675Y-62423419D01*
X58271341Y-62456753D01*
X58238008Y-62523419D01*
X58238008Y-62690086D01*
X58271341Y-62756753D01*
X58304675Y-62790086D01*
X58371341Y-62823419D01*
X58571341Y-62823419D01*
X58638008Y-62790086D01*
X58671341Y-62756753D01*
X57604675Y-62123419D02*
X57938008Y-62123419D01*
X57971341Y-62456753D01*
X57938008Y-62423419D01*
X57871341Y-62390086D01*
X57704675Y-62390086D01*
X57638008Y-62423419D01*
X57604675Y-62456753D01*
X57571341Y-62523419D01*
X57571341Y-62690086D01*
X57604675Y-62756753D01*
X57638008Y-62790086D01*
X57704675Y-62823419D01*
X57871341Y-62823419D01*
X57938008Y-62790086D01*
X57971341Y-62756753D01*
X36511951Y-91292816D02*
X36559570Y-91245197D01*
X36607189Y-91102340D01*
X36607189Y-91007102D01*
X36559570Y-90864245D01*
X36464332Y-90769007D01*
X36369094Y-90721387D01*
X36178618Y-90673768D01*
X36035761Y-90673768D01*
X35845285Y-90721387D01*
X35750047Y-90769007D01*
X35654809Y-90864245D01*
X35607189Y-91007102D01*
X35607189Y-91102340D01*
X35654809Y-91245197D01*
X35702428Y-91292816D01*
X36702428Y-91483292D02*
X36702428Y-92245197D01*
X35607189Y-92959483D02*
X35607189Y-92483292D01*
X36083380Y-92435673D01*
X36035761Y-92483292D01*
X35988142Y-92578530D01*
X35988142Y-92816626D01*
X36035761Y-92911864D01*
X36083380Y-92959483D01*
X36178618Y-93007102D01*
X36416713Y-93007102D01*
X36511951Y-92959483D01*
X36559570Y-92911864D01*
X36607189Y-92816626D01*
X36607189Y-92578530D01*
X36559570Y-92483292D01*
X36511951Y-92435673D01*
X35607189Y-93292816D02*
X36607189Y-93626149D01*
X35607189Y-93959483D01*
X61602857Y-57253142D02*
X61650476Y-57300761D01*
X61793333Y-57348380D01*
X61888571Y-57348380D01*
X62031428Y-57300761D01*
X62126666Y-57205523D01*
X62174285Y-57110285D01*
X62221904Y-56919809D01*
X62221904Y-56776952D01*
X62174285Y-56586476D01*
X62126666Y-56491238D01*
X62031428Y-56396000D01*
X61888571Y-56348380D01*
X61793333Y-56348380D01*
X61650476Y-56396000D01*
X61602857Y-56443619D01*
X60650476Y-57348380D02*
X61221904Y-57348380D01*
X60936190Y-57348380D02*
X60936190Y-56348380D01*
X61031428Y-56491238D01*
X61126666Y-56586476D01*
X61221904Y-56634095D01*
X60317142Y-56348380D02*
X59650476Y-56348380D01*
X60079047Y-57348380D01*
X51884057Y-49550580D02*
X52217390Y-49074390D01*
X52455485Y-49550580D02*
X52455485Y-48550580D01*
X52074533Y-48550580D01*
X51979295Y-48598200D01*
X51931676Y-48645819D01*
X51884057Y-48741057D01*
X51884057Y-48883914D01*
X51931676Y-48979152D01*
X51979295Y-49026771D01*
X52074533Y-49074390D01*
X52455485Y-49074390D01*
X51550723Y-48550580D02*
X50931676Y-48550580D01*
X51265009Y-48931533D01*
X51122152Y-48931533D01*
X51026914Y-48979152D01*
X50979295Y-49026771D01*
X50931676Y-49122009D01*
X50931676Y-49360104D01*
X50979295Y-49455342D01*
X51026914Y-49502961D01*
X51122152Y-49550580D01*
X51407866Y-49550580D01*
X51503104Y-49502961D01*
X51550723Y-49455342D01*
X50312628Y-48550580D02*
X50217390Y-48550580D01*
X50122152Y-48598200D01*
X50074533Y-48645819D01*
X50026914Y-48741057D01*
X49979295Y-48931533D01*
X49979295Y-49169628D01*
X50026914Y-49360104D01*
X50074533Y-49455342D01*
X50122152Y-49502961D01*
X50217390Y-49550580D01*
X50312628Y-49550580D01*
X50407866Y-49502961D01*
X50455485Y-49455342D01*
X50503104Y-49360104D01*
X50550723Y-49169628D01*
X50550723Y-48931533D01*
X50503104Y-48741057D01*
X50455485Y-48645819D01*
X50407866Y-48598200D01*
X50312628Y-48550580D01*
X53220857Y-63952380D02*
X53554190Y-63476190D01*
X53792285Y-63952380D02*
X53792285Y-62952380D01*
X53411333Y-62952380D01*
X53316095Y-63000000D01*
X53268476Y-63047619D01*
X53220857Y-63142857D01*
X53220857Y-63285714D01*
X53268476Y-63380952D01*
X53316095Y-63428571D01*
X53411333Y-63476190D01*
X53792285Y-63476190D01*
X52839904Y-63047619D02*
X52792285Y-63000000D01*
X52697047Y-62952380D01*
X52458952Y-62952380D01*
X52363714Y-63000000D01*
X52316095Y-63047619D01*
X52268476Y-63142857D01*
X52268476Y-63238095D01*
X52316095Y-63380952D01*
X52887523Y-63952380D01*
X52268476Y-63952380D01*
X51411333Y-62952380D02*
X51601809Y-62952380D01*
X51697047Y-63000000D01*
X51744666Y-63047619D01*
X51839904Y-63190476D01*
X51887523Y-63380952D01*
X51887523Y-63761904D01*
X51839904Y-63857142D01*
X51792285Y-63904761D01*
X51697047Y-63952380D01*
X51506571Y-63952380D01*
X51411333Y-63904761D01*
X51363714Y-63857142D01*
X51316095Y-63761904D01*
X51316095Y-63523809D01*
X51363714Y-63428571D01*
X51411333Y-63380952D01*
X51506571Y-63333333D01*
X51697047Y-63333333D01*
X51792285Y-63380952D01*
X51839904Y-63428571D01*
X51887523Y-63523809D01*
X54617857Y-58998380D02*
X54951190Y-58522190D01*
X55189285Y-58998380D02*
X55189285Y-57998380D01*
X54808333Y-57998380D01*
X54713095Y-58046000D01*
X54665476Y-58093619D01*
X54617857Y-58188857D01*
X54617857Y-58331714D01*
X54665476Y-58426952D01*
X54713095Y-58474571D01*
X54808333Y-58522190D01*
X55189285Y-58522190D01*
X53665476Y-58998380D02*
X54236904Y-58998380D01*
X53951190Y-58998380D02*
X53951190Y-57998380D01*
X54046428Y-58141238D01*
X54141666Y-58236476D01*
X54236904Y-58284095D01*
X53094047Y-58426952D02*
X53189285Y-58379333D01*
X53236904Y-58331714D01*
X53284523Y-58236476D01*
X53284523Y-58188857D01*
X53236904Y-58093619D01*
X53189285Y-58046000D01*
X53094047Y-57998380D01*
X52903571Y-57998380D01*
X52808333Y-58046000D01*
X52760714Y-58093619D01*
X52713095Y-58188857D01*
X52713095Y-58236476D01*
X52760714Y-58331714D01*
X52808333Y-58379333D01*
X52903571Y-58426952D01*
X53094047Y-58426952D01*
X53189285Y-58474571D01*
X53236904Y-58522190D01*
X53284523Y-58617428D01*
X53284523Y-58807904D01*
X53236904Y-58903142D01*
X53189285Y-58950761D01*
X53094047Y-58998380D01*
X52903571Y-58998380D01*
X52808333Y-58950761D01*
X52760714Y-58903142D01*
X52713095Y-58807904D01*
X52713095Y-58617428D01*
X52760714Y-58522190D01*
X52808333Y-58474571D01*
X52903571Y-58426952D01*
X49612225Y-31649942D02*
X49659844Y-31697561D01*
X49802701Y-31745180D01*
X49897939Y-31745180D01*
X50040796Y-31697561D01*
X50136035Y-31602323D01*
X50183654Y-31507085D01*
X50231273Y-31316609D01*
X50231273Y-31173752D01*
X50183654Y-30983276D01*
X50136035Y-30888038D01*
X50040796Y-30792800D01*
X49897939Y-30745180D01*
X49802701Y-30745180D01*
X49659844Y-30792800D01*
X49612225Y-30840419D01*
X49421749Y-31840419D02*
X48659844Y-31840419D01*
X47945558Y-30745180D02*
X48421749Y-30745180D01*
X48469368Y-31221371D01*
X48421749Y-31173752D01*
X48326511Y-31126133D01*
X48088415Y-31126133D01*
X47993177Y-31173752D01*
X47945558Y-31221371D01*
X47897939Y-31316609D01*
X47897939Y-31554704D01*
X47945558Y-31649942D01*
X47993177Y-31697561D01*
X48088415Y-31745180D01*
X48326511Y-31745180D01*
X48421749Y-31697561D01*
X48469368Y-31649942D01*
X47612225Y-30745180D02*
X47278892Y-31745180D01*
X46945558Y-30745180D01*
X76255931Y-90982971D02*
X76303550Y-91030590D01*
X76446407Y-91078209D01*
X76541645Y-91078209D01*
X76684502Y-91030590D01*
X76779741Y-90935352D01*
X76827360Y-90840114D01*
X76874979Y-90649638D01*
X76874979Y-90506781D01*
X76827360Y-90316305D01*
X76779741Y-90221067D01*
X76684502Y-90125829D01*
X76541645Y-90078209D01*
X76446407Y-90078209D01*
X76303550Y-90125829D01*
X76255931Y-90173448D01*
X76065455Y-91173448D02*
X75303550Y-91173448D01*
X75160693Y-90078209D02*
X74541645Y-90078209D01*
X74874979Y-90459162D01*
X74732121Y-90459162D01*
X74636883Y-90506781D01*
X74589264Y-90554400D01*
X74541645Y-90649638D01*
X74541645Y-90887733D01*
X74589264Y-90982971D01*
X74636883Y-91030590D01*
X74732121Y-91078209D01*
X75017836Y-91078209D01*
X75113074Y-91030590D01*
X75160693Y-90982971D01*
X74255931Y-90078209D02*
X73922598Y-91078209D01*
X73589264Y-90078209D01*
X47839190Y-109069142D02*
X47886809Y-109116761D01*
X48029666Y-109164380D01*
X48124904Y-109164380D01*
X48267761Y-109116761D01*
X48363000Y-109021523D01*
X48410619Y-108926285D01*
X48458238Y-108735809D01*
X48458238Y-108592952D01*
X48410619Y-108402476D01*
X48363000Y-108307238D01*
X48267761Y-108212000D01*
X48124904Y-108164380D01*
X48029666Y-108164380D01*
X47886809Y-108212000D01*
X47839190Y-108259619D01*
X47648714Y-109259619D02*
X46886809Y-109259619D01*
X46172523Y-108164380D02*
X46648714Y-108164380D01*
X46696333Y-108640571D01*
X46648714Y-108592952D01*
X46553476Y-108545333D01*
X46315380Y-108545333D01*
X46220142Y-108592952D01*
X46172523Y-108640571D01*
X46124904Y-108735809D01*
X46124904Y-108973904D01*
X46172523Y-109069142D01*
X46220142Y-109116761D01*
X46315380Y-109164380D01*
X46553476Y-109164380D01*
X46648714Y-109116761D01*
X46696333Y-109069142D01*
X45839190Y-108164380D02*
X45505857Y-109164380D01*
X45172523Y-108164380D01*
D10*
X48895000Y-66929000D02*
X48895000Y-68834000D01*
X49149000Y-67945000D02*
X48895000Y-67945000D01*
X46355000Y-68834000D02*
X46355000Y-66929000D01*
X46355000Y-67945000D02*
X46101000Y-67945000D01*
X46355000Y-66929000D02*
X48895000Y-66929000D01*
X48895000Y-68834000D02*
X46355000Y-68834000D01*
X49149000Y-70485000D02*
X48895000Y-70485000D01*
X46355000Y-70485000D02*
X46101000Y-70485000D01*
X46355000Y-69469000D02*
X48895000Y-69469000D01*
X46355000Y-71374000D02*
X46355000Y-69469000D01*
X48895000Y-69469000D02*
X48895000Y-71374000D01*
X48895000Y-71374000D02*
X46355000Y-71374000D01*
X48895000Y-54229000D02*
X48895000Y-56134000D01*
X48895000Y-56134000D02*
X46355000Y-56134000D01*
X46355000Y-54229000D02*
X48895000Y-54229000D01*
X49149000Y-55245000D02*
X48895000Y-55245000D01*
X46355000Y-55245000D02*
X46101000Y-55245000D01*
X46355000Y-56134000D02*
X46355000Y-54229000D01*
X67775381Y-98137757D02*
X67775381Y-95597757D01*
X69680381Y-98137757D02*
X67775381Y-98137757D01*
X67775381Y-95597757D02*
X69680381Y-95597757D01*
X69680381Y-95597757D02*
X69680381Y-98137757D01*
X68664381Y-95597757D02*
X68664381Y-95343757D01*
X68664381Y-98391757D02*
X68664381Y-98137757D01*
X46355000Y-51689000D02*
X48895000Y-51689000D01*
X46355000Y-53594000D02*
X46355000Y-51689000D01*
X48895000Y-53594000D02*
X46355000Y-53594000D01*
X48895000Y-51689000D02*
X48895000Y-53594000D01*
X46355000Y-52705000D02*
X46101000Y-52705000D01*
X49149000Y-52705000D02*
X48895000Y-52705000D01*
X40259000Y-54880000D02*
X42164000Y-54880000D01*
X41275000Y-54626000D02*
X41275000Y-54880000D01*
X41275000Y-57420000D02*
X41275000Y-57674000D01*
X42164000Y-54880000D02*
X42164000Y-57420000D01*
X40259000Y-57420000D02*
X40259000Y-54880000D01*
X42164000Y-57420000D02*
X40259000Y-57420000D01*
X46355000Y-61214000D02*
X46355000Y-59309000D01*
X46355000Y-59309000D02*
X48895000Y-59309000D01*
X46355000Y-60325000D02*
X46101000Y-60325000D01*
X49149000Y-60325000D02*
X48895000Y-60325000D01*
X48895000Y-61214000D02*
X46355000Y-61214000D01*
X48895000Y-59309000D02*
X48895000Y-61214000D01*
X49149000Y-57785000D02*
X48895000Y-57785000D01*
X46355000Y-56769000D02*
X48895000Y-56769000D01*
X46355000Y-57785000D02*
X46101000Y-57785000D01*
X46355000Y-58674000D02*
X46355000Y-56769000D01*
X48895000Y-58674000D02*
X46355000Y-58674000D01*
X48895000Y-56769000D02*
X48895000Y-58674000D01*
X48895000Y-64389000D02*
X48895000Y-66294000D01*
X46355000Y-66294000D02*
X46355000Y-64389000D01*
X49149000Y-65405000D02*
X48895000Y-65405000D01*
X48895000Y-66294000D02*
X46355000Y-66294000D01*
X46355000Y-64389000D02*
X48895000Y-64389000D01*
X46355000Y-65405000D02*
X46101000Y-65405000D01*
X46355000Y-72009000D02*
X48895000Y-72009000D01*
X48895000Y-73914000D02*
X46355000Y-73914000D01*
X46355000Y-73025000D02*
X46101000Y-73025000D01*
X46355000Y-73914000D02*
X46355000Y-72009000D01*
X48895000Y-72009000D02*
X48895000Y-73914000D01*
X49149000Y-73025000D02*
X48895000Y-73025000D01*
X48325264Y-44502400D02*
X47871136Y-44502400D01*
X48325264Y-45972400D02*
X47871136Y-45972400D01*
X63947332Y-44908839D02*
X63347332Y-44908839D01*
X63347332Y-49008839D02*
X63947332Y-49008839D01*
X64647332Y-48358839D02*
X64647332Y-45558839D01*
X62647332Y-45558839D02*
X62647332Y-48358839D01*
X62647332Y-48308839D02*
G75*
G03*
X63347332Y-49008839I699999J-1D01*
G01*
X63347332Y-44908839D02*
G75*
G03*
X62647332Y-45608839I0J-700000D01*
G01*
X64647332Y-45608839D02*
G75*
G03*
X63947332Y-44908839I-700000J0D01*
G01*
X63947332Y-49008839D02*
G75*
G03*
X64647332Y-48308839I1J699999D01*
G01*
X57810306Y-80960871D02*
X57810306Y-81722871D01*
X55600558Y-82701871D02*
X54178054Y-82701871D01*
X58191306Y-81341871D02*
X57429306Y-81341871D01*
X55600558Y-79981871D02*
X54178054Y-79981871D01*
X55652866Y-40574392D02*
X55652866Y-41096896D01*
X54182866Y-40574392D02*
X54182866Y-41096896D01*
X61314000Y-64415936D02*
X61314000Y-64870064D01*
X59844000Y-64415936D02*
X59844000Y-64870064D01*
X48334664Y-47902800D02*
X47880536Y-47902800D01*
X48334664Y-46432800D02*
X47880536Y-46432800D01*
X53747936Y-52615000D02*
X54202064Y-52615000D01*
X53747936Y-54085000D02*
X54202064Y-54085000D01*
X62003000Y-59970936D02*
X62003000Y-60425064D01*
X63473000Y-59970936D02*
X63473000Y-60425064D01*
X55622266Y-75162621D02*
X54199762Y-75162621D01*
X55622266Y-72442621D02*
X54199762Y-72442621D01*
X58213014Y-73802621D02*
X57451014Y-73802621D01*
X57832014Y-73421621D02*
X57832014Y-74183621D01*
X59844000Y-59970936D02*
X59844000Y-60425064D01*
X61314000Y-59970936D02*
X61314000Y-60425064D01*
X42307000Y-53260000D02*
X42307000Y-54660000D01*
X44307000Y-54660000D02*
X44307000Y-53260000D01*
X43007000Y-55360000D02*
X43607000Y-55360000D01*
X43607000Y-52560000D02*
X43007000Y-52560000D01*
X43607000Y-55360000D02*
G75*
G03*
X44307000Y-54660000I1J699999D01*
G01*
X44307000Y-53260000D02*
G75*
G03*
X43607000Y-52560000I-700000J0D01*
G01*
X43007000Y-52560000D02*
G75*
G03*
X42307000Y-53260000I0J-700000D01*
G01*
X42307000Y-54660000D02*
G75*
G03*
X43007000Y-55360000I699999J-1D01*
G01*
X57684936Y-52224000D02*
X58139064Y-52224000D01*
X57684936Y-53694000D02*
X58139064Y-53694000D01*
X58059183Y-44925948D02*
X57536679Y-44925948D01*
X58059183Y-46395948D02*
X57536679Y-46395948D01*
X58012064Y-48360000D02*
X57557936Y-48360000D01*
X58012064Y-46890000D02*
X57557936Y-46890000D01*
X62839600Y-37592000D02*
X62839600Y-36830000D01*
X63220600Y-37211000D02*
X62458600Y-37211000D01*
X61479600Y-35001252D02*
X61479600Y-33578748D01*
X64199600Y-35001252D02*
X64199600Y-33578748D01*
X57685000Y-59970936D02*
X57685000Y-60425064D01*
X59155000Y-59970936D02*
X59155000Y-60425064D01*
X43607000Y-65783000D02*
X43007000Y-65783000D01*
X42307000Y-66483000D02*
X42307000Y-67883000D01*
X43007000Y-68583000D02*
X43607000Y-68583000D01*
X44307000Y-67883000D02*
X44307000Y-66483000D01*
X43007000Y-65783000D02*
G75*
G03*
X42307000Y-66483000I0J-700000D01*
G01*
X43607000Y-68583000D02*
G75*
G03*
X44307000Y-67883000I1J699999D01*
G01*
X42307000Y-67883000D02*
G75*
G03*
X43007000Y-68583000I699999J-1D01*
G01*
X44307000Y-66483000D02*
G75*
G03*
X43607000Y-65783000I-700000J0D01*
G01*
X55853064Y-64543000D02*
X55398936Y-64543000D01*
X55853064Y-66013000D02*
X55398936Y-66013000D01*
X44533452Y-43638800D02*
X44010948Y-43638800D01*
X44533452Y-45108800D02*
X44010948Y-45108800D01*
X59053000Y-51872000D02*
X55893000Y-51872000D01*
X59053000Y-51872000D02*
X59053000Y-50942000D01*
X59053000Y-48712000D02*
X57593000Y-48712000D01*
X59053000Y-48712000D02*
X59053000Y-49642000D01*
X56051885Y-37259789D02*
X55289885Y-37259789D01*
X57030885Y-35050041D02*
X57030885Y-33627537D01*
X54310885Y-35050041D02*
X54310885Y-33627537D01*
X55670885Y-37640789D02*
X55670885Y-36878789D01*
X54386500Y-78105000D02*
X55148500Y-78105000D01*
X56977248Y-79465000D02*
X58399752Y-79465000D01*
X56977248Y-76745000D02*
X58399752Y-76745000D01*
X54767500Y-78486000D02*
X54767500Y-77724000D01*
X43607000Y-57640000D02*
X43007000Y-57640000D01*
X44307000Y-59740000D02*
X44307000Y-58340000D01*
X42307000Y-58340000D02*
X42307000Y-59740000D01*
X43007000Y-60440000D02*
X43607000Y-60440000D01*
X42307000Y-59740000D02*
G75*
G03*
X43007000Y-60440000I699999J-1D01*
G01*
X44307000Y-58340000D02*
G75*
G03*
X43607000Y-57640000I-700000J0D01*
G01*
X43607000Y-60440000D02*
G75*
G03*
X44307000Y-59740000I1J699999D01*
G01*
X43007000Y-57640000D02*
G75*
G03*
X42307000Y-58340000I0J-700000D01*
G01*
X62003000Y-63653936D02*
X62003000Y-64108064D01*
X63473000Y-63653936D02*
X63473000Y-64108064D01*
X55806613Y-61855603D02*
X55352485Y-61855603D01*
X55806613Y-60385603D02*
X55352485Y-60385603D01*
X48233064Y-43559400D02*
X47778936Y-43559400D01*
X48233064Y-42089400D02*
X47778936Y-42089400D01*
X57523748Y-44423000D02*
X58046252Y-44423000D01*
X57523748Y-42953000D02*
X58046252Y-42953000D01*
X58049805Y-55651607D02*
X57527301Y-55651607D01*
X58049805Y-54181607D02*
X57527301Y-54181607D01*
X59155000Y-64431936D02*
X59155000Y-64886064D01*
X57685000Y-64431936D02*
X57685000Y-64886064D01*
X38440809Y-89094007D02*
X38440809Y-89856007D01*
X38059809Y-89475007D02*
X38821809Y-89475007D01*
X37080809Y-91684755D02*
X37080809Y-93107259D01*
X39800809Y-91684755D02*
X39800809Y-93107259D01*
X56146067Y-40537061D02*
X56146067Y-41059565D01*
X57616067Y-40537061D02*
X57616067Y-41059565D01*
X57502248Y-56161000D02*
X58024752Y-56161000D01*
X57502248Y-57631000D02*
X58024752Y-57631000D01*
X48334664Y-48363200D02*
X47880536Y-48363200D01*
X48334664Y-49833200D02*
X47880536Y-49833200D01*
X55853064Y-62638000D02*
X55398936Y-62638000D01*
X55853064Y-64108000D02*
X55398936Y-64108000D01*
X53747936Y-57631000D02*
X54202064Y-57631000D01*
X53747936Y-56161000D02*
X54202064Y-56161000D01*
X47250635Y-35001252D02*
X47250635Y-33578748D01*
X48610635Y-37592000D02*
X48610635Y-36830000D01*
X48991635Y-37211000D02*
X48229635Y-37211000D01*
X49970635Y-35001252D02*
X49970635Y-33578748D01*
X75572252Y-89762000D02*
X75049748Y-89762000D01*
X75572252Y-88292000D02*
X75049748Y-88292000D01*
X46278748Y-107786000D02*
X47701252Y-107786000D01*
X46278748Y-105066000D02*
X47701252Y-105066000D01*
X44069000Y-106807000D02*
X44069000Y-106045000D01*
X43688000Y-106426000D02*
X44450000Y-106426000D01*
%LPC*%
D12*
X64516000Y-54737000D03*
X64516000Y-49857000D03*
D13*
X45212000Y-67945000D03*
X50038000Y-67945000D03*
D14*
X50046413Y-62888717D03*
D13*
X45212000Y-70485000D03*
X50038000Y-70485000D03*
D15*
X69723000Y-81280000D03*
X69723000Y-78740000D03*
D13*
X45212000Y-55245000D03*
X50038000Y-55245000D03*
D15*
X67056000Y-81280000D03*
X67056000Y-78740000D03*
X67056000Y-76200000D03*
X69806000Y-76200000D03*
X72390000Y-86360000D03*
X72390000Y-83820000D03*
X72390000Y-81280000D03*
X72390000Y-78740000D03*
X72390000Y-76200000D03*
X72390000Y-73660000D03*
X72390000Y-71120000D03*
X72390000Y-68580000D03*
X72390000Y-66040000D03*
X72390000Y-63500000D03*
X72390000Y-60960000D03*
X72390000Y-58420000D03*
X72390000Y-55880000D03*
X72390000Y-53340000D03*
X72390000Y-50800000D03*
X72390000Y-48260000D03*
X72390000Y-45720000D03*
X72390000Y-43180000D03*
X72390000Y-40640000D03*
X72390000Y-38100000D03*
D16*
X45720635Y-33684506D03*
X51500635Y-33684506D03*
D17*
X52930635Y-30034506D03*
D15*
X51631980Y-29657012D03*
D18*
X51028980Y-32657012D03*
D19*
X52930635Y-34214506D03*
D17*
X44290635Y-30034506D03*
D18*
X46188980Y-32657012D03*
D15*
X45535980Y-29629012D03*
D19*
X44290635Y-34214506D03*
D20*
X37284483Y-102508257D03*
D15*
X37284483Y-105048257D03*
X37284483Y-107588257D03*
X37284483Y-110128257D03*
D20*
X61976000Y-70485000D03*
D15*
X61976000Y-67945000D03*
D20*
X79375000Y-86355000D03*
D15*
X76835000Y-86355000D03*
X79375000Y-83815000D03*
X76835000Y-83815000D03*
X79375000Y-81275000D03*
X76835000Y-81275000D03*
X79375000Y-78735000D03*
X76835000Y-78735000D03*
X79375000Y-76195000D03*
X76835000Y-76195000D03*
X79375000Y-73655000D03*
X76835000Y-73655000D03*
X79375000Y-71115000D03*
X76835000Y-71115000D03*
X79375000Y-68575000D03*
X76835000Y-68575000D03*
X79375000Y-66035000D03*
X76835000Y-66035000D03*
X79375000Y-63495000D03*
X76835000Y-63495000D03*
X79375000Y-60955000D03*
X76835000Y-60955000D03*
X79375000Y-58415000D03*
X76835000Y-58415000D03*
X79375000Y-55875000D03*
X76835000Y-55875000D03*
X79375000Y-53335000D03*
X76835000Y-53335000D03*
X79375000Y-50795000D03*
X76835000Y-50795000D03*
X79375000Y-48255000D03*
X76835000Y-48255000D03*
X79375000Y-45715000D03*
X76835000Y-45715000D03*
X79375000Y-43175000D03*
X76835000Y-43175000D03*
X79375000Y-40635000D03*
X76835000Y-40635000D03*
X79375000Y-38095000D03*
X76835000Y-38095000D03*
D21*
X39695000Y-60695000D03*
D22*
X33735000Y-60695000D03*
X33735000Y-75195000D03*
D21*
X39695000Y-75195000D03*
D13*
X68664381Y-94454757D03*
X68664381Y-99280757D03*
D23*
X41275000Y-88900000D03*
D24*
X41275000Y-91400000D03*
X41275000Y-93400000D03*
X41275000Y-95900000D03*
D25*
X38565000Y-98970000D03*
X38565000Y-85830000D03*
D26*
X50066639Y-75569345D03*
D13*
X45212000Y-52705000D03*
X50038000Y-52705000D03*
D23*
X61270000Y-102222500D03*
D24*
X63770000Y-102222500D03*
X65770000Y-102222500D03*
X68270000Y-102222500D03*
D25*
X71340000Y-104932500D03*
X58200000Y-104932500D03*
D16*
X65729600Y-33682000D03*
X59949600Y-33682000D03*
D17*
X67159600Y-30032000D03*
D15*
X65860945Y-29654506D03*
D18*
X65257945Y-32654506D03*
D17*
X58519600Y-30032000D03*
D15*
X59764945Y-29626506D03*
D19*
X58519600Y-34212000D03*
X67159600Y-34212000D03*
D18*
X60417945Y-32654506D03*
D27*
X44838400Y-46990000D03*
D28*
X42838400Y-46990000D03*
D20*
X31369000Y-38684200D03*
D15*
X31369000Y-36144200D03*
X33909000Y-38684200D03*
X33909000Y-36144200D03*
X36449000Y-38684200D03*
X36449000Y-36144200D03*
X38989000Y-38684200D03*
X38989000Y-36144200D03*
X41529000Y-38684200D03*
X41529000Y-36144200D03*
D20*
X59309000Y-70485000D03*
D15*
X59309000Y-67945000D03*
D12*
X65024000Y-88011000D03*
X60144000Y-88011000D03*
D13*
X41275000Y-58563000D03*
X41275000Y-53737000D03*
D12*
X48260000Y-85762000D03*
X48260000Y-80882000D03*
D29*
X73025000Y-33020000D03*
D30*
X73025000Y-30520000D03*
D31*
X37955019Y-50786245D03*
D32*
X38155019Y-47036245D03*
D31*
X37955019Y-43286245D03*
D33*
X34255019Y-47036245D03*
D20*
X44810635Y-40005000D03*
D15*
X47350635Y-40005000D03*
X49890635Y-40005000D03*
X52430635Y-40005000D03*
D14*
X54483000Y-97917000D03*
D34*
X76806700Y-101970400D03*
X76806700Y-99200400D03*
X76806700Y-96430400D03*
X76806700Y-93660400D03*
D13*
X45212000Y-60325000D03*
X50038000Y-60325000D03*
D20*
X59065000Y-40005000D03*
D15*
X61605000Y-40005000D03*
X64145000Y-40005000D03*
X66685000Y-40005000D03*
D35*
X35350331Y-80575000D03*
X35350331Y-55575000D03*
D29*
X37400331Y-72390000D03*
D30*
X37400331Y-70100000D03*
X37400331Y-67810000D03*
X37400331Y-65520000D03*
X37400331Y-63230000D03*
X35420331Y-73535000D03*
X35420331Y-71245000D03*
X35420331Y-68955000D03*
X35420331Y-66665000D03*
X35420331Y-64375000D03*
X33440331Y-72390000D03*
X33440331Y-70100000D03*
X33440331Y-67810000D03*
X33440331Y-65520000D03*
X33440331Y-63230000D03*
D23*
X43490000Y-102222500D03*
D24*
X45990000Y-102222500D03*
X47990000Y-102222500D03*
X50490000Y-102222500D03*
D25*
X40420000Y-104932500D03*
X53560000Y-104932500D03*
D15*
X69723000Y-66040000D03*
X69723000Y-63500000D03*
X69723000Y-60960000D03*
X69723000Y-58420000D03*
X69723000Y-55880000D03*
X69723000Y-53340000D03*
X69723000Y-50800000D03*
X69723000Y-48260000D03*
X69723000Y-45720000D03*
X69723000Y-43180000D03*
X69723000Y-40640000D03*
X69723000Y-38100000D03*
D13*
X45212000Y-57785000D03*
X50038000Y-57785000D03*
X45212000Y-65405000D03*
X50038000Y-65405000D03*
X45212000Y-73025000D03*
X50038000Y-73025000D03*
D36*
X49098200Y-45237400D03*
X47098200Y-45237400D03*
D37*
X63647332Y-48258839D03*
D38*
X63647332Y-46958839D03*
D39*
X63647332Y-45658839D03*
D40*
X56255806Y-81341871D03*
X53522806Y-81341871D03*
D41*
X54917866Y-39798144D03*
X54917866Y-41873144D03*
D42*
X60579000Y-63643000D03*
X60579000Y-65643000D03*
D36*
X49107600Y-47167800D03*
X47107600Y-47167800D03*
D43*
X52975000Y-53350000D03*
X54975000Y-53350000D03*
D42*
X62738000Y-59198000D03*
X62738000Y-61198000D03*
D40*
X56277514Y-73802621D03*
X53544514Y-73802621D03*
D42*
X60579000Y-59198000D03*
X60579000Y-61198000D03*
D44*
X43307000Y-54610000D03*
D45*
X43307000Y-53310000D03*
D43*
X56912000Y-52959000D03*
X58912000Y-52959000D03*
D46*
X58835431Y-45660948D03*
X56760431Y-45660948D03*
D47*
X62764318Y-109982000D03*
X64764318Y-109982000D03*
X66764318Y-109982000D03*
D36*
X58785000Y-47625000D03*
X56785000Y-47625000D03*
D48*
X62839600Y-35656500D03*
X62839600Y-32923500D03*
D42*
X58420000Y-59198000D03*
X58420000Y-61198000D03*
D44*
X43307000Y-67833000D03*
D45*
X43307000Y-66533000D03*
D36*
X56626000Y-65278000D03*
X54626000Y-65278000D03*
D46*
X45309700Y-44373800D03*
X43234700Y-44373800D03*
D49*
X56793000Y-51242000D03*
X56793000Y-49342000D03*
X59793000Y-50292000D03*
D48*
X55670885Y-35705289D03*
X55670885Y-32972289D03*
D50*
X56322000Y-78105000D03*
X59055000Y-78105000D03*
D44*
X43307000Y-59690000D03*
D45*
X43307000Y-58390000D03*
D42*
X62738000Y-62881000D03*
X62738000Y-64881000D03*
D36*
X56579549Y-61120603D03*
X54579549Y-61120603D03*
X49006000Y-42824400D03*
X47006000Y-42824400D03*
D51*
X56747500Y-43688000D03*
X58822500Y-43688000D03*
D46*
X58826053Y-54916607D03*
X56751053Y-54916607D03*
D42*
X58420000Y-63659000D03*
X58420000Y-65659000D03*
D52*
X38440809Y-91029507D03*
X38440809Y-93762507D03*
D41*
X56881067Y-39760813D03*
X56881067Y-41835813D03*
D51*
X56726000Y-56896000D03*
X58801000Y-56896000D03*
D36*
X49107600Y-49098200D03*
X47107600Y-49098200D03*
X56626000Y-63373000D03*
X54626000Y-63373000D03*
D43*
X52975000Y-56896000D03*
X54975000Y-56896000D03*
D48*
X48610635Y-35656500D03*
X48610635Y-32923500D03*
D46*
X76348500Y-89027000D03*
X74273500Y-89027000D03*
D50*
X45623500Y-106426000D03*
X48356500Y-106426000D03*
M02*
