M48
; DRILL file {KiCad 6.0.11-2627ca5db0~126~ubuntu20.04.1} date Вт 26 сен 2023 13:35:44
; FORMAT={-:-/ absolute / metric / decimal}
; #@! TF.CreationDate,2023-09-26T13:35:44+05:00
; #@! TF.GenerationSoftware,Kicad,Pcbnew,6.0.11-2627ca5db0~126~ubuntu20.04.1
; #@! TF.FileFunction,Plated,1,2,PTH
FMAT,2
METRIC
; #@! TA.AperFunction,Plated,PTH,ViaDrill
T1C0.400
; #@! TA.AperFunction,Plated,PTH,ViaDrill
T2C0.500
; #@! TA.AperFunction,Plated,PTH,ComponentDrill
T3C0.600
; #@! TA.AperFunction,Plated,PTH,ComponentDrill
T4C0.650
; #@! TA.AperFunction,Plated,PTH,ComponentDrill
T5C0.800
; #@! TA.AperFunction,Plated,PTH,ComponentDrill
T6C0.900
; #@! TA.AperFunction,Plated,PTH,ComponentDrill
T7C0.920
; #@! TA.AperFunction,Plated,PTH,ComponentDrill
T8C1.000
; #@! TA.AperFunction,Plated,PTH,ComponentDrill
T9C1.200
; #@! TA.AperFunction,Plated,PTH,ComponentDrill
T10C1.700
; #@! TA.AperFunction,Plated,PTH,ComponentDrill
T11C2.300
; #@! TA.AperFunction,Plated,PTH,ViaDrill
T12C3.000
; #@! TA.AperFunction,Plated,PTH,ComponentDrill
T13C3.200
%
G90
G05
T1
X40.894Y-79.375
X42.401Y-64.525
X42.672Y-88.9
X43.434Y-88.9
X44.196Y-88.9
X44.653Y-50.978
X45.212Y-91.313
X45.212Y-93.345
X45.72Y-50.521
X46.161Y-36.516
X46.161Y-37.405
X46.228Y-38.862
X47.945Y-50.338
X49.784Y-97.917
X50.038Y-42.672
X50.076Y-96.304
X50.825Y-49.893
X51.0Y-38.867
X51.061Y-36.569
X51.061Y-37.331
X52.451Y-94.234
X53.725Y-75.602
X54.61Y-86.487
X55.88Y-86.487
X55.944Y-75.755
X56.134Y-90.551
X57.15Y-85.344
X57.531Y-72.538
X57.859Y-70.485
X58.293Y-85.344
X58.42Y-75.602
X59.563Y-98.647
X59.69Y-85.344
X59.692Y-75.529
X60.39Y-36.257
X60.39Y-37.022
X61.087Y-85.344
X61.849Y-93.472
X65.278Y-37.084
X65.31Y-36.242
X65.48Y-98.119
X65.482Y-96.901
X65.659Y-93.726
X66.294Y-93.218
X71.617Y-95.066
X71.939Y-93.599
T2
X41.275Y-99.695
X41.846Y-62.23
X42.898Y-70.118
X44.35Y-63.246
X45.187Y-42.799
X50.038Y-42.672
X50.331Y-44.917
X50.698Y-46.584
X52.324Y-68.326
X55.245Y-66.675
X55.296Y-48.506
X55.308Y-43.116
X55.774Y-54.87
X55.824Y-58.154
X55.947Y-45.72
X55.997Y-49.61
X56.007Y-44.323
X56.495Y-59.148
X57.277Y-62.103
X59.3Y-42.274
X59.574Y-62.241
X61.591Y-48.777
X61.669Y-62.304
X61.735Y-57.01
X61.849Y-46.516
X63.24Y-43.125
X63.271Y-48.877
X64.389Y-67.183
X64.419Y-60.759
X64.516Y-58.547
X64.516Y-59.563
X65.151Y-66.421
X66.04Y-65.659
X66.04Y-105.664
X73.914Y-102.108
T3
X42.838Y-46.99
X44.838Y-46.99
T5
X48.26Y-80.882
X48.26Y-85.762
X60.144Y-88.011
X64.516Y-49.857
X64.516Y-54.737
X65.024Y-88.011
X73.025Y-30.52
X73.025Y-33.02
T7
X41.275Y-88.9
X41.275Y-91.4
X41.275Y-93.4
X41.275Y-95.9
X43.49Y-102.222
X45.99Y-102.222
X47.99Y-102.222
X50.49Y-102.222
X61.27Y-102.222
X63.77Y-102.222
X65.77Y-102.222
X68.27Y-102.222
T8
X31.369Y-36.144
X31.369Y-38.684
X33.44Y-63.23
X33.44Y-65.52
X33.44Y-67.81
X33.44Y-70.1
X33.44Y-72.39
X33.909Y-36.144
X33.909Y-38.684
X35.42Y-64.375
X35.42Y-66.665
X35.42Y-68.955
X35.42Y-71.245
X35.42Y-73.535
X36.449Y-36.144
X36.449Y-38.684
X37.284Y-102.508
X37.284Y-105.048
X37.284Y-107.588
X37.284Y-110.128
X37.4Y-63.23
X37.4Y-65.52
X37.4Y-67.81
X37.4Y-70.1
X37.4Y-72.39
X38.989Y-36.144
X38.989Y-38.684
X41.275Y-53.737
X41.275Y-58.563
X41.529Y-36.144
X41.529Y-38.684
X44.811Y-40.005
X45.212Y-52.705
X45.212Y-55.245
X45.212Y-57.785
X45.212Y-60.325
X45.212Y-65.405
X45.212Y-67.945
X45.212Y-70.485
X45.212Y-73.025
X47.351Y-40.005
X49.891Y-40.005
X50.038Y-52.705
X50.038Y-55.245
X50.038Y-57.785
X50.038Y-60.325
X50.038Y-65.405
X50.038Y-67.945
X50.038Y-70.485
X50.038Y-73.025
X50.046Y-62.889
X50.067Y-75.569
X52.431Y-40.005
X54.483Y-97.917
X59.065Y-40.005
X59.309Y-67.945
X59.309Y-70.485
X61.605Y-40.005
X61.976Y-67.945
X61.976Y-70.485
X64.145Y-40.005
X66.685Y-40.005
X67.056Y-76.2
X67.056Y-78.74
X67.056Y-81.28
X68.664Y-94.455
X68.664Y-99.281
X69.723Y-38.1
X69.723Y-40.64
X69.723Y-43.18
X69.723Y-45.72
X69.723Y-48.26
X69.723Y-50.8
X69.723Y-53.34
X69.723Y-55.88
X69.723Y-58.42
X69.723Y-60.96
X69.723Y-63.5
X69.723Y-66.04
X69.723Y-78.74
X69.723Y-81.28
X69.806Y-76.2
X72.39Y-38.1
X72.39Y-40.64
X72.39Y-43.18
X72.39Y-45.72
X72.39Y-48.26
X72.39Y-50.8
X72.39Y-53.34
X72.39Y-55.88
X72.39Y-58.42
X72.39Y-60.96
X72.39Y-63.5
X72.39Y-66.04
X72.39Y-68.58
X72.39Y-71.12
X72.39Y-73.66
X72.39Y-76.2
X72.39Y-78.74
X72.39Y-81.28
X72.39Y-83.82
X72.39Y-86.36
X76.835Y-38.095
X76.835Y-40.635
X76.835Y-43.175
X76.835Y-45.715
X76.835Y-48.255
X76.835Y-50.795
X76.835Y-53.335
X76.835Y-55.875
X76.835Y-58.415
X76.835Y-60.955
X76.835Y-63.495
X76.835Y-66.035
X76.835Y-68.575
X76.835Y-71.115
X76.835Y-73.655
X76.835Y-76.195
X76.835Y-78.735
X76.835Y-81.275
X76.835Y-83.815
X76.835Y-86.355
X79.375Y-38.095
X79.375Y-40.635
X79.375Y-43.175
X79.375Y-45.715
X79.375Y-48.255
X79.375Y-50.795
X79.375Y-53.335
X79.375Y-55.875
X79.375Y-58.415
X79.375Y-60.955
X79.375Y-63.495
X79.375Y-66.035
X79.375Y-68.575
X79.375Y-71.115
X79.375Y-73.655
X79.375Y-76.195
X79.375Y-78.735
X79.375Y-81.275
X79.375Y-83.815
X79.375Y-86.355
T11
X38.565Y-85.83
X38.565Y-98.97
X40.42Y-104.932
X53.56Y-104.932
X58.2Y-104.932
X71.34Y-104.932
T12
X33.02Y-31.115
X33.02Y-110.49
X80.645Y-31.115
X80.645Y-110.49
T13
X35.35Y-55.575
X35.35Y-80.575
T3
X44.291Y-30.335G85X44.291Y-29.735
G05
X44.291Y-34.765G85X44.291Y-33.665
G05
X52.931Y-30.335G85X52.931Y-29.735
G05
X52.931Y-34.765G85X52.931Y-33.665
G05
X58.52Y-30.332G85X58.52Y-29.732
G05
X58.52Y-34.762G85X58.52Y-33.662
G05
X67.16Y-30.332G85X67.16Y-29.732
G05
X67.16Y-34.762G85X67.16Y-33.662
G05
T4
X46.189Y-32.857G85X46.189Y-32.457
G05
X51.029Y-32.857G85X51.029Y-32.457
G05
X60.418Y-32.855G85X60.418Y-32.455
G05
X65.258Y-32.855G85X65.258Y-32.455
G05
T6
X34.135Y-60.695G85X33.335Y-60.695
G05
X34.135Y-75.195G85X33.335Y-75.195
G05
X40.595Y-60.695G85X38.795Y-60.695
G05
X40.595Y-75.195G85X38.795Y-75.195
G05
T9
X36.655Y-43.286G85X39.255Y-43.286
G05
X36.655Y-50.786G85X39.255Y-50.786
G05
X37.005Y-47.036G85X39.305Y-47.036
G05
X45.536Y-29.629G85X45.536Y-29.629
G05
X51.632Y-29.657G85X51.632Y-29.657
G05
X59.765Y-29.627G85X59.765Y-29.627
G05
X65.861Y-29.655G85X65.861Y-29.655
G05
T10
X34.255Y-47.536G85X34.255Y-46.536
G05
T0
M30
