G04 #@! TF.GenerationSoftware,KiCad,Pcbnew,6.0.11-2627ca5db0~126~ubuntu20.04.1*
G04 #@! TF.CreationDate,2023-10-28T22:46:29+05:00*
G04 #@! TF.ProjectId,33EJU23,3333454a-5532-4332-9e6b-696361645f70,rev?*
G04 #@! TF.SameCoordinates,Original*
G04 #@! TF.FileFunction,Legend,Top*
G04 #@! TF.FilePolarity,Positive*
%FSLAX46Y46*%
G04 Gerber Fmt 4.6, Leading zero omitted, Abs format (unit mm)*
G04 Created by KiCad (PCBNEW 6.0.11-2627ca5db0~126~ubuntu20.04.1) date 2023-10-28 22:46:29*
%MOMM*%
%LPD*%
G01*
G04 APERTURE LIST*
G04 Aperture macros list*
%AMRoundRect*
0 Rectangle with rounded corners*
0 $1 Rounding radius*
0 $2 $3 $4 $5 $6 $7 $8 $9 X,Y pos of 4 corners*
0 Add a 4 corners polygon primitive as box body*
4,1,4,$2,$3,$4,$5,$6,$7,$8,$9,$2,$3,0*
0 Add four circle primitives for the rounded corners*
1,1,$1+$1,$2,$3*
1,1,$1+$1,$4,$5*
1,1,$1+$1,$6,$7*
1,1,$1+$1,$8,$9*
0 Add four rect primitives between the rounded corners*
20,1,$1+$1,$2,$3,$4,$5,0*
20,1,$1+$1,$4,$5,$6,$7,0*
20,1,$1+$1,$6,$7,$8,$9,0*
20,1,$1+$1,$8,$9,$2,$3,0*%
%AMOutline4P*
0 Free polygon, 4 corners , with rotation*
0 The origin of the aperture is its center*
0 number of corners: always 4*
0 $1 to $8 corner X, Y*
0 $9 Rotation angle, in degrees counterclockwise*
0 create outline with 4 corners*
4,1,4,$1,$2,$3,$4,$5,$6,$7,$8,$1,$2,$9*%
%AMFreePoly0*
4,1,22,0.500000,-0.750000,0.000000,-0.750000,0.000000,-0.745033,-0.079941,-0.743568,-0.215256,-0.701293,-0.333266,-0.622738,-0.424486,-0.514219,-0.481581,-0.384460,-0.499164,-0.250000,-0.500000,-0.250000,-0.500000,0.250000,-0.499164,0.250000,-0.499963,0.256109,-0.478152,0.396186,-0.417904,0.524511,-0.324060,0.630769,-0.204165,0.706417,-0.067858,0.745374,0.000000,0.744959,0.000000,0.750000,
0.500000,0.750000,0.500000,-0.750000,0.500000,-0.750000,$1*%
%AMFreePoly1*
4,1,20,0.000000,0.744959,0.073905,0.744508,0.209726,0.703889,0.328688,0.626782,0.421226,0.519385,0.479903,0.390333,0.500000,0.250000,0.500000,-0.250000,0.499851,-0.262216,0.476331,-0.402017,0.414519,-0.529596,0.319384,-0.634700,0.198574,-0.708877,0.061801,-0.746166,0.000000,-0.745033,0.000000,-0.750000,-0.500000,-0.750000,-0.500000,0.750000,0.000000,0.750000,0.000000,0.744959,
0.000000,0.744959,$1*%
G04 Aperture macros list end*
%ADD10C,0.120000*%
%ADD11C,0.150000*%
%ADD12C,0.125000*%
%ADD13RoundRect,0.250000X0.350000X0.450000X-0.350000X0.450000X-0.350000X-0.450000X0.350000X-0.450000X0*%
%ADD14RoundRect,0.250000X-0.350000X-0.450000X0.350000X-0.450000X0.350000X0.450000X-0.350000X0.450000X0*%
%ADD15C,1.500000*%
%ADD16C,1.700000*%
%ADD17C,2.000000*%
%ADD18RoundRect,0.250000X-0.475000X0.337500X-0.475000X-0.337500X0.475000X-0.337500X0.475000X0.337500X0*%
%ADD19O,1.700000X1.700000*%
%ADD20RoundRect,0.150000X0.837500X0.150000X-0.837500X0.150000X-0.837500X-0.150000X0.837500X-0.150000X0*%
%ADD21C,0.650000*%
%ADD22R,0.600000X1.450000*%
%ADD23R,0.400000X1.650000*%
%ADD24R,0.300000X1.450000*%
%ADD25O,1.000000X1.600000*%
%ADD26R,0.380714X1.829960*%
%ADD27R,1.430000X2.500000*%
%ADD28R,1.825000X0.700000*%
%ADD29O,1.100000X1.500000*%
%ADD30R,0.382484X1.821706*%
%ADD31O,1.000000X2.100000*%
%ADD32R,2.000000X1.500000*%
%ADD33Outline4P,-0.675000X-0.675000X0.675000X-0.675000X0.675000X0.675000X-0.675000X0.675000X0.000000*%
%ADD34FreePoly0,180.000000*%
%ADD35FreePoly1,180.000000*%
%ADD36R,1.700000X1.700000*%
%ADD37RoundRect,0.250000X0.450000X-0.350000X0.450000X0.350000X-0.450000X0.350000X-0.450000X-0.350000X0*%
%ADD38R,2.600000X0.300000*%
%ADD39RoundRect,0.350000X-1.300000X0.350000X-1.300000X-0.350000X1.300000X-0.350000X1.300000X0.350000X0*%
%ADD40RoundRect,0.350000X-0.700000X0.350000X-0.700000X-0.350000X0.700000X-0.350000X0.700000X0.350000X0*%
%ADD41RoundRect,0.250000X-0.450000X0.350000X-0.450000X-0.350000X0.450000X-0.350000X0.450000X0.350000X0*%
%ADD42R,1.524000X1.524000*%
%ADD43C,1.524000*%
%ADD44C,3.500000*%
%ADD45R,2.000000X2.000000*%
%ADD46R,1.392000X3.048000*%
%ADD47R,1.392000X2.921000*%
%ADD48R,1.200000X1.200000*%
%ADD49C,1.200000*%
%ADD50RoundRect,0.250000X-0.337500X-0.475000X0.337500X-0.475000X0.337500X0.475000X-0.337500X0.475000X0*%
%ADD51RoundRect,0.250000X0.475000X-0.337500X0.475000X0.337500X-0.475000X0.337500X-0.475000X-0.337500X0*%
%ADD52RoundRect,0.150000X0.150000X-0.837500X0.150000X0.837500X-0.150000X0.837500X-0.150000X-0.837500X0*%
%ADD53R,1.600000X1.600000*%
%ADD54C,1.600000*%
%ADD55O,4.700000X2.000000*%
%ADD56O,4.400000X2.000000*%
%ADD57O,2.700000X3.700000*%
%ADD58RoundRect,0.150000X0.800000X0.150000X-0.800000X0.150000X-0.800000X-0.150000X0.800000X-0.150000X0*%
%ADD59RoundRect,0.250000X0.337500X0.475000X-0.337500X0.475000X-0.337500X-0.475000X0.337500X-0.475000X0*%
%ADD60R,3.480000X1.846667*%
%ADD61C,4.000000*%
%ADD62RoundRect,0.323962X-1.026038X0.534538X-1.026038X-0.534538X1.026038X-0.534538X1.026038X0.534538X0*%
%ADD63R,0.400000X1.200000*%
%ADD64R,1.600000X7.000000*%
G04 APERTURE END LIST*
D10*
X69063382Y-95148687D02*
X69088000Y-95377000D01*
X67929381Y-96640693D02*
X67917127Y-95010984D01*
X69401763Y-95004444D02*
X67917127Y-95010984D01*
X67902381Y-95232757D02*
X67917127Y-95010984D01*
X68605400Y-40487600D02*
X68884800Y-40487600D01*
X67902381Y-95105757D02*
X69426381Y-95105757D01*
X69399381Y-96640693D02*
X69401763Y-95004444D01*
X68605400Y-45745400D02*
X68910200Y-45745400D01*
X67902381Y-95232757D02*
X69426381Y-95232757D01*
X69426381Y-95169257D02*
X67902381Y-95105757D01*
X68605400Y-40513000D02*
X68605400Y-45745400D01*
D11*
X68123498Y-60688949D02*
X67694927Y-61022282D01*
X68123498Y-61260377D02*
X67223498Y-61260377D01*
X67223498Y-60879425D01*
X67266356Y-60784187D01*
X67309213Y-60736568D01*
X67394927Y-60688949D01*
X67523498Y-60688949D01*
X67609213Y-60736568D01*
X67652070Y-60784187D01*
X67694927Y-60879425D01*
X67694927Y-61260377D01*
X80957000Y-45458095D02*
X80914142Y-45553333D01*
X80914142Y-45696190D01*
X80957000Y-45839047D01*
X81042714Y-45934285D01*
X81128428Y-45981904D01*
X81299857Y-46029523D01*
X81428428Y-46029523D01*
X81599857Y-45981904D01*
X81685571Y-45934285D01*
X81771285Y-45839047D01*
X81814142Y-45696190D01*
X81814142Y-45600952D01*
X81771285Y-45458095D01*
X81728428Y-45410476D01*
X81428428Y-45410476D01*
X81428428Y-45600952D01*
X60666380Y-98956476D02*
X61666380Y-98289809D01*
X60666380Y-98289809D02*
X61666380Y-98956476D01*
X61666380Y-97908857D02*
X60666380Y-97908857D01*
X61666380Y-97337428D01*
X60666380Y-97337428D01*
X60761619Y-96908857D02*
X60714000Y-96861238D01*
X60666380Y-96766000D01*
X60666380Y-96527904D01*
X60714000Y-96432666D01*
X60761619Y-96385047D01*
X60856857Y-96337428D01*
X60952095Y-96337428D01*
X61094952Y-96385047D01*
X61666380Y-96956476D01*
X61666380Y-96337428D01*
X61666380Y-95861238D02*
X61666380Y-95670761D01*
X61618761Y-95575523D01*
X61571142Y-95527904D01*
X61428285Y-95432666D01*
X61237809Y-95385047D01*
X60856857Y-95385047D01*
X60761619Y-95432666D01*
X60714000Y-95480285D01*
X60666380Y-95575523D01*
X60666380Y-95766000D01*
X60714000Y-95861238D01*
X60761619Y-95908857D01*
X60856857Y-95956476D01*
X61094952Y-95956476D01*
X61190190Y-95908857D01*
X61237809Y-95861238D01*
X61285428Y-95766000D01*
X61285428Y-95575523D01*
X61237809Y-95480285D01*
X61190190Y-95432666D01*
X61094952Y-95385047D01*
X60666380Y-95051714D02*
X60666380Y-94385047D01*
X61666380Y-94813619D01*
X61666380Y-93527904D02*
X61666380Y-94004095D01*
X60666380Y-94004095D01*
X35012962Y-110791126D02*
X34979628Y-110857793D01*
X34979628Y-110957793D01*
X35012962Y-111057793D01*
X35079628Y-111124459D01*
X35146295Y-111157793D01*
X35279628Y-111191126D01*
X35379628Y-111191126D01*
X35512962Y-111157793D01*
X35579628Y-111124459D01*
X35646295Y-111057793D01*
X35679628Y-110957793D01*
X35679628Y-110891126D01*
X35646295Y-110791126D01*
X35612962Y-110757793D01*
X35379628Y-110757793D01*
X35379628Y-110891126D01*
X35679628Y-110457793D02*
X34979628Y-110457793D01*
X35679628Y-110057793D01*
X34979628Y-110057793D01*
X35679628Y-109724459D02*
X34979628Y-109724459D01*
X34979628Y-109557793D01*
X35012962Y-109457793D01*
X35079628Y-109391126D01*
X35146295Y-109357793D01*
X35279628Y-109324459D01*
X35379628Y-109324459D01*
X35512962Y-109357793D01*
X35579628Y-109391126D01*
X35646295Y-109457793D01*
X35679628Y-109557793D01*
X35679628Y-109724459D01*
X74613285Y-47385142D02*
X74613285Y-46699428D01*
X74956142Y-47042285D02*
X74270428Y-47042285D01*
X74056142Y-46356571D02*
X74056142Y-45799428D01*
X74399000Y-46099428D01*
X74399000Y-45970857D01*
X74441857Y-45885142D01*
X74484714Y-45842285D01*
X74570428Y-45799428D01*
X74784714Y-45799428D01*
X74870428Y-45842285D01*
X74913285Y-45885142D01*
X74956142Y-45970857D01*
X74956142Y-46228000D01*
X74913285Y-46313714D01*
X74870428Y-46356571D01*
X74056142Y-45542285D02*
X74956142Y-45242285D01*
X74056142Y-44942285D01*
X80957000Y-73398095D02*
X80914142Y-73493333D01*
X80914142Y-73636190D01*
X80957000Y-73779047D01*
X81042714Y-73874285D01*
X81128428Y-73921904D01*
X81299857Y-73969523D01*
X81428428Y-73969523D01*
X81599857Y-73921904D01*
X81685571Y-73874285D01*
X81771285Y-73779047D01*
X81814142Y-73636190D01*
X81814142Y-73540952D01*
X81771285Y-73398095D01*
X81728428Y-73350476D01*
X81428428Y-73350476D01*
X81428428Y-73540952D01*
D12*
X68123498Y-49092092D02*
X67223498Y-49092092D01*
X67223498Y-48901615D01*
X67266356Y-48853996D01*
X67309213Y-48830187D01*
X67394927Y-48806377D01*
X67523498Y-48806377D01*
X67609213Y-48830187D01*
X67652070Y-48853996D01*
X67694927Y-48901615D01*
X67694927Y-49092092D01*
X68080641Y-48615901D02*
X68123498Y-48544473D01*
X68123498Y-48425425D01*
X68080641Y-48377806D01*
X68037784Y-48353996D01*
X67952070Y-48330187D01*
X67866356Y-48330187D01*
X67780641Y-48353996D01*
X67737784Y-48377806D01*
X67694927Y-48425425D01*
X67652070Y-48520663D01*
X67609213Y-48568282D01*
X67566356Y-48592092D01*
X67480641Y-48615901D01*
X67394927Y-48615901D01*
X67309213Y-48592092D01*
X67266356Y-48568282D01*
X67223498Y-48520663D01*
X67223498Y-48401615D01*
X67266356Y-48330187D01*
X67309213Y-48139711D02*
X67266356Y-48115901D01*
X67223498Y-48068282D01*
X67223498Y-47949234D01*
X67266356Y-47901615D01*
X67309213Y-47877806D01*
X67394927Y-47853996D01*
X67480641Y-47853996D01*
X67609213Y-47877806D01*
X68123498Y-48163520D01*
X68123498Y-47853996D01*
X68209213Y-47758758D02*
X68209213Y-47377806D01*
X68037784Y-46973044D02*
X68080641Y-46996853D01*
X68123498Y-47068282D01*
X68123498Y-47115901D01*
X68080641Y-47187330D01*
X67994927Y-47234949D01*
X67909213Y-47258758D01*
X67737784Y-47282568D01*
X67609213Y-47282568D01*
X67437784Y-47258758D01*
X67352070Y-47234949D01*
X67266356Y-47187330D01*
X67223498Y-47115901D01*
X67223498Y-47068282D01*
X67266356Y-46996853D01*
X67309213Y-46973044D01*
D11*
X74956142Y-81470476D02*
X74956142Y-82041904D01*
X74956142Y-81756190D02*
X74056142Y-81756190D01*
X74184714Y-81851428D01*
X74270428Y-81946666D01*
X74313285Y-82041904D01*
X74056142Y-80613333D02*
X74056142Y-80803809D01*
X74099000Y-80899047D01*
X74141857Y-80946666D01*
X74270428Y-81041904D01*
X74441857Y-81089523D01*
X74784714Y-81089523D01*
X74870428Y-81041904D01*
X74913285Y-80994285D01*
X74956142Y-80899047D01*
X74956142Y-80708571D01*
X74913285Y-80613333D01*
X74870428Y-80565714D01*
X74784714Y-80518095D01*
X74570428Y-80518095D01*
X74484714Y-80565714D01*
X74441857Y-80613333D01*
X74399000Y-80708571D01*
X74399000Y-80899047D01*
X74441857Y-80994285D01*
X74484714Y-81041904D01*
X74570428Y-81089523D01*
X80957000Y-75938095D02*
X80914142Y-76033333D01*
X80914142Y-76176190D01*
X80957000Y-76319047D01*
X81042714Y-76414285D01*
X81128428Y-76461904D01*
X81299857Y-76509523D01*
X81428428Y-76509523D01*
X81599857Y-76461904D01*
X81685571Y-76414285D01*
X81771285Y-76319047D01*
X81814142Y-76176190D01*
X81814142Y-76080952D01*
X81771285Y-75938095D01*
X81728428Y-75890476D01*
X81428428Y-75890476D01*
X81428428Y-76080952D01*
X74613285Y-39384142D02*
X74613285Y-38698428D01*
X74956142Y-39041285D02*
X74270428Y-39041285D01*
X74056142Y-37841285D02*
X74056142Y-38269857D01*
X74484714Y-38312714D01*
X74441857Y-38269857D01*
X74399000Y-38184142D01*
X74399000Y-37969857D01*
X74441857Y-37884142D01*
X74484714Y-37841285D01*
X74570428Y-37798428D01*
X74784714Y-37798428D01*
X74870428Y-37841285D01*
X74913285Y-37884142D01*
X74956142Y-37969857D01*
X74956142Y-38184142D01*
X74913285Y-38269857D01*
X74870428Y-38312714D01*
X74056142Y-37541285D02*
X74956142Y-37241285D01*
X74056142Y-36941285D01*
X52537586Y-38482245D02*
X52537586Y-37796531D01*
X52880443Y-38139388D02*
X52194729Y-38139388D01*
X51980443Y-36939388D02*
X51980443Y-37367960D01*
X52409015Y-37410817D01*
X52366158Y-37367960D01*
X52323301Y-37282245D01*
X52323301Y-37067960D01*
X52366158Y-36982245D01*
X52409015Y-36939388D01*
X52494729Y-36896531D01*
X52709015Y-36896531D01*
X52794729Y-36939388D01*
X52837586Y-36982245D01*
X52880443Y-37067960D01*
X52880443Y-37282245D01*
X52837586Y-37367960D01*
X52794729Y-37410817D01*
X51980443Y-36639388D02*
X52880443Y-36339388D01*
X51980443Y-36039388D01*
X41840114Y-34174000D02*
X41878209Y-34202571D01*
X41916304Y-34288285D01*
X41916304Y-34345428D01*
X41878209Y-34431142D01*
X41802019Y-34488285D01*
X41725828Y-34516857D01*
X41573447Y-34545428D01*
X41459161Y-34545428D01*
X41306780Y-34516857D01*
X41230590Y-34488285D01*
X41154400Y-34431142D01*
X41116304Y-34345428D01*
X41116304Y-34288285D01*
X41154400Y-34202571D01*
X41192495Y-34174000D01*
X41992495Y-34059714D02*
X41992495Y-33602571D01*
X41116304Y-33345428D02*
X41116304Y-33231142D01*
X41154400Y-33174000D01*
X41230590Y-33116857D01*
X41382971Y-33088285D01*
X41649638Y-33088285D01*
X41802019Y-33116857D01*
X41878209Y-33174000D01*
X41916304Y-33231142D01*
X41916304Y-33345428D01*
X41878209Y-33402571D01*
X41802019Y-33459714D01*
X41649638Y-33488285D01*
X41382971Y-33488285D01*
X41230590Y-33459714D01*
X41154400Y-33402571D01*
X41116304Y-33345428D01*
X41116304Y-32831142D02*
X41763923Y-32831142D01*
X41840114Y-32802571D01*
X41878209Y-32774000D01*
X41916304Y-32716857D01*
X41916304Y-32602571D01*
X41878209Y-32545428D01*
X41840114Y-32516857D01*
X41763923Y-32488285D01*
X41116304Y-32488285D01*
X41116304Y-32288285D02*
X41116304Y-31945428D01*
X41916304Y-32116857D02*
X41116304Y-32116857D01*
D12*
X62428380Y-72830476D02*
X61428380Y-72830476D01*
X61428380Y-72711428D01*
X61476000Y-72640000D01*
X61571238Y-72592380D01*
X61666476Y-72568571D01*
X61856952Y-72544761D01*
X61999809Y-72544761D01*
X62190285Y-72568571D01*
X62285523Y-72592380D01*
X62380761Y-72640000D01*
X62428380Y-72711428D01*
X62428380Y-72830476D01*
X62047428Y-72330476D02*
X62047428Y-71949523D01*
D11*
X30943600Y-41478142D02*
X30905504Y-41535285D01*
X30905504Y-41621000D01*
X30943600Y-41706714D01*
X31019790Y-41763857D01*
X31095980Y-41792428D01*
X31248361Y-41821000D01*
X31362647Y-41821000D01*
X31515028Y-41792428D01*
X31591219Y-41763857D01*
X31667409Y-41706714D01*
X31705504Y-41621000D01*
X31705504Y-41563857D01*
X31667409Y-41478142D01*
X31629314Y-41449571D01*
X31362647Y-41449571D01*
X31362647Y-41563857D01*
X31705504Y-41192428D02*
X30905504Y-41192428D01*
X31705504Y-40849571D01*
X30905504Y-40849571D01*
X31705504Y-40563857D02*
X30905504Y-40563857D01*
X30905504Y-40421000D01*
X30943600Y-40335285D01*
X31019790Y-40278142D01*
X31095980Y-40249571D01*
X31248361Y-40221000D01*
X31362647Y-40221000D01*
X31515028Y-40249571D01*
X31591219Y-40278142D01*
X31667409Y-40335285D01*
X31705504Y-40421000D01*
X31705504Y-40563857D01*
D12*
X59888380Y-72830476D02*
X58888380Y-72830476D01*
X58888380Y-72711428D01*
X58936000Y-72640000D01*
X59031238Y-72592380D01*
X59126476Y-72568571D01*
X59316952Y-72544761D01*
X59459809Y-72544761D01*
X59650285Y-72568571D01*
X59745523Y-72592380D01*
X59840761Y-72640000D01*
X59888380Y-72711428D01*
X59888380Y-72830476D01*
X59507428Y-72330476D02*
X59507428Y-71949523D01*
X59888380Y-72140000D02*
X59126476Y-72140000D01*
D11*
X81814142Y-43508571D02*
X81385571Y-43708571D01*
X81814142Y-43851428D02*
X80914142Y-43851428D01*
X80914142Y-43622857D01*
X80957000Y-43565714D01*
X80999857Y-43537142D01*
X81085571Y-43508571D01*
X81214142Y-43508571D01*
X81299857Y-43537142D01*
X81342714Y-43565714D01*
X81385571Y-43622857D01*
X81385571Y-43851428D01*
X81771285Y-43280000D02*
X81814142Y-43194285D01*
X81814142Y-43051428D01*
X81771285Y-42994285D01*
X81728428Y-42965714D01*
X81642714Y-42937142D01*
X81557000Y-42937142D01*
X81471285Y-42965714D01*
X81428428Y-42994285D01*
X81385571Y-43051428D01*
X81342714Y-43165714D01*
X81299857Y-43222857D01*
X81257000Y-43251428D01*
X81171285Y-43280000D01*
X81085571Y-43280000D01*
X80999857Y-43251428D01*
X80957000Y-43222857D01*
X80914142Y-43165714D01*
X80914142Y-43022857D01*
X80957000Y-42937142D01*
X80914142Y-42765714D02*
X80914142Y-42422857D01*
X81814142Y-42594285D02*
X80914142Y-42594285D01*
X81814142Y-58110476D02*
X81814142Y-58586666D01*
X80914142Y-58586666D01*
X36760114Y-34159742D02*
X36798209Y-34188314D01*
X36836304Y-34274028D01*
X36836304Y-34331171D01*
X36798209Y-34416885D01*
X36722019Y-34474028D01*
X36645828Y-34502600D01*
X36493447Y-34531171D01*
X36379161Y-34531171D01*
X36226780Y-34502600D01*
X36150590Y-34474028D01*
X36074400Y-34416885D01*
X36036304Y-34331171D01*
X36036304Y-34274028D01*
X36074400Y-34188314D01*
X36112495Y-34159742D01*
X36036304Y-33988314D02*
X36836304Y-33788314D01*
X36036304Y-33588314D01*
X36417257Y-33188314D02*
X36455352Y-33102600D01*
X36493447Y-33074028D01*
X36569638Y-33045457D01*
X36683923Y-33045457D01*
X36760114Y-33074028D01*
X36798209Y-33102600D01*
X36836304Y-33159742D01*
X36836304Y-33388314D01*
X36036304Y-33388314D01*
X36036304Y-33188314D01*
X36074400Y-33131171D01*
X36112495Y-33102600D01*
X36188685Y-33074028D01*
X36264876Y-33074028D01*
X36341066Y-33102600D01*
X36379161Y-33131171D01*
X36417257Y-33188314D01*
X36417257Y-33388314D01*
X36798209Y-32816885D02*
X36836304Y-32731171D01*
X36836304Y-32588314D01*
X36798209Y-32531171D01*
X36760114Y-32502600D01*
X36683923Y-32474028D01*
X36607733Y-32474028D01*
X36531542Y-32502600D01*
X36493447Y-32531171D01*
X36455352Y-32588314D01*
X36417257Y-32702600D01*
X36379161Y-32759742D01*
X36341066Y-32788314D01*
X36264876Y-32816885D01*
X36188685Y-32816885D01*
X36112495Y-32788314D01*
X36074400Y-32759742D01*
X36036304Y-32702600D01*
X36036304Y-32559742D01*
X36074400Y-32474028D01*
X67459291Y-38447029D02*
X67459291Y-37761315D01*
X67802148Y-38104172D02*
X67116434Y-38104172D01*
X66902148Y-36904172D02*
X66902148Y-37332744D01*
X67330720Y-37375601D01*
X67287863Y-37332744D01*
X67245006Y-37247029D01*
X67245006Y-37032744D01*
X67287863Y-36947029D01*
X67330720Y-36904172D01*
X67416434Y-36861315D01*
X67630720Y-36861315D01*
X67716434Y-36904172D01*
X67759291Y-36947029D01*
X67802148Y-37032744D01*
X67802148Y-37247029D01*
X67759291Y-37332744D01*
X67716434Y-37375601D01*
X66902148Y-36604172D02*
X67802148Y-36304172D01*
X66902148Y-36004172D01*
X50572142Y-38345952D02*
X49672142Y-38345952D01*
X49672142Y-38107857D01*
X49715000Y-37965000D01*
X49800714Y-37869761D01*
X49886428Y-37822142D01*
X50057857Y-37774523D01*
X50186428Y-37774523D01*
X50357857Y-37822142D01*
X50443571Y-37869761D01*
X50529285Y-37965000D01*
X50572142Y-38107857D01*
X50572142Y-38345952D01*
X50229285Y-37345952D02*
X50229285Y-36584047D01*
X48204428Y-64020571D02*
X48204428Y-63411047D01*
X48585380Y-63715809D02*
X47823476Y-63715809D01*
X47585380Y-62649142D02*
X47585380Y-63030095D01*
X48061571Y-63068190D01*
X48013952Y-63030095D01*
X47966333Y-62953904D01*
X47966333Y-62763428D01*
X48013952Y-62687238D01*
X48061571Y-62649142D01*
X48156809Y-62611047D01*
X48394904Y-62611047D01*
X48490142Y-62649142D01*
X48537761Y-62687238D01*
X48585380Y-62763428D01*
X48585380Y-62953904D01*
X48537761Y-63030095D01*
X48490142Y-63068190D01*
X47585380Y-62382476D02*
X48585380Y-62115809D01*
X47585380Y-61849142D01*
D12*
X81814142Y-49053619D02*
X80914142Y-49053619D01*
X80914142Y-48863142D01*
X80957000Y-48815523D01*
X80999857Y-48791714D01*
X81085571Y-48767904D01*
X81214142Y-48767904D01*
X81299857Y-48791714D01*
X81342714Y-48815523D01*
X81385571Y-48863142D01*
X81385571Y-49053619D01*
X81771285Y-48577428D02*
X81814142Y-48506000D01*
X81814142Y-48386952D01*
X81771285Y-48339333D01*
X81728428Y-48315523D01*
X81642714Y-48291714D01*
X81557000Y-48291714D01*
X81471285Y-48315523D01*
X81428428Y-48339333D01*
X81385571Y-48386952D01*
X81342714Y-48482190D01*
X81299857Y-48529809D01*
X81257000Y-48553619D01*
X81171285Y-48577428D01*
X81085571Y-48577428D01*
X80999857Y-48553619D01*
X80957000Y-48529809D01*
X80914142Y-48482190D01*
X80914142Y-48363142D01*
X80957000Y-48291714D01*
X80999857Y-48101238D02*
X80957000Y-48077428D01*
X80914142Y-48029809D01*
X80914142Y-47910761D01*
X80957000Y-47863142D01*
X80999857Y-47839333D01*
X81085571Y-47815523D01*
X81171285Y-47815523D01*
X81299857Y-47839333D01*
X81814142Y-48125047D01*
X81814142Y-47815523D01*
X81899857Y-47720285D02*
X81899857Y-47339333D01*
X81728428Y-46934571D02*
X81771285Y-46958380D01*
X81814142Y-47029809D01*
X81814142Y-47077428D01*
X81771285Y-47148857D01*
X81685571Y-47196476D01*
X81599857Y-47220285D01*
X81428428Y-47244095D01*
X81299857Y-47244095D01*
X81128428Y-47220285D01*
X81042714Y-47196476D01*
X80957000Y-47148857D01*
X80914142Y-47077428D01*
X80914142Y-47029809D01*
X80957000Y-46958380D01*
X80999857Y-46934571D01*
D11*
X67266356Y-63276568D02*
X67223498Y-63371806D01*
X67223498Y-63514663D01*
X67266356Y-63657520D01*
X67352070Y-63752758D01*
X67437784Y-63800377D01*
X67609213Y-63847996D01*
X67737784Y-63847996D01*
X67909213Y-63800377D01*
X67994927Y-63752758D01*
X68080641Y-63657520D01*
X68123498Y-63514663D01*
X68123498Y-63419425D01*
X68080641Y-63276568D01*
X68037784Y-63228949D01*
X67737784Y-63228949D01*
X67737784Y-63419425D01*
X67266356Y-53116568D02*
X67223498Y-53211806D01*
X67223498Y-53354663D01*
X67266356Y-53497520D01*
X67352070Y-53592758D01*
X67437784Y-53640377D01*
X67609213Y-53687996D01*
X67737784Y-53687996D01*
X67909213Y-53640377D01*
X67994927Y-53592758D01*
X68080641Y-53497520D01*
X68123498Y-53354663D01*
X68123498Y-53259425D01*
X68080641Y-53116568D01*
X68037784Y-53068949D01*
X67737784Y-53068949D01*
X67737784Y-53259425D01*
X80957000Y-53078095D02*
X80914142Y-53173333D01*
X80914142Y-53316190D01*
X80957000Y-53459047D01*
X81042714Y-53554285D01*
X81128428Y-53601904D01*
X81299857Y-53649523D01*
X81428428Y-53649523D01*
X81599857Y-53601904D01*
X81685571Y-53554285D01*
X81771285Y-53459047D01*
X81814142Y-53316190D01*
X81814142Y-53220952D01*
X81771285Y-53078095D01*
X81728428Y-53030476D01*
X81428428Y-53030476D01*
X81428428Y-53220952D01*
X74056142Y-41368571D02*
X74956142Y-41068571D01*
X74056142Y-40768571D01*
X74913285Y-40511428D02*
X74956142Y-40382857D01*
X74956142Y-40168571D01*
X74913285Y-40082857D01*
X74870428Y-40040000D01*
X74784714Y-39997142D01*
X74699000Y-39997142D01*
X74613285Y-40040000D01*
X74570428Y-40082857D01*
X74527571Y-40168571D01*
X74484714Y-40340000D01*
X74441857Y-40425714D01*
X74399000Y-40468571D01*
X74313285Y-40511428D01*
X74227571Y-40511428D01*
X74141857Y-40468571D01*
X74099000Y-40425714D01*
X74056142Y-40340000D01*
X74056142Y-40125714D01*
X74099000Y-39997142D01*
X74141857Y-66928904D02*
X74099000Y-66881285D01*
X74056142Y-66786047D01*
X74056142Y-66547952D01*
X74099000Y-66452714D01*
X74141857Y-66405095D01*
X74227571Y-66357476D01*
X74313285Y-66357476D01*
X74441857Y-66405095D01*
X74956142Y-66976523D01*
X74956142Y-66357476D01*
X74141857Y-65976523D02*
X74099000Y-65928904D01*
X74056142Y-65833666D01*
X74056142Y-65595571D01*
X74099000Y-65500333D01*
X74141857Y-65452714D01*
X74227571Y-65405095D01*
X74313285Y-65405095D01*
X74441857Y-65452714D01*
X74956142Y-66024142D01*
X74956142Y-65405095D01*
X62002142Y-38345952D02*
X61102142Y-38345952D01*
X61102142Y-38107857D01*
X61145000Y-37965000D01*
X61230714Y-37869761D01*
X61316428Y-37822142D01*
X61487857Y-37774523D01*
X61616428Y-37774523D01*
X61787857Y-37822142D01*
X61873571Y-37869761D01*
X61959285Y-37965000D01*
X62002142Y-38107857D01*
X62002142Y-38345952D01*
X61659285Y-37345952D02*
X61659285Y-36584047D01*
X62002142Y-36965000D02*
X61316428Y-36965000D01*
X63825380Y-88772904D02*
X63825380Y-89344333D01*
X63825380Y-89058619D02*
X62825380Y-89058619D01*
X62968238Y-89153857D01*
X63063476Y-89249095D01*
X63111095Y-89344333D01*
X62825380Y-87915761D02*
X62825380Y-88106238D01*
X62873000Y-88201476D01*
X62920619Y-88249095D01*
X63063476Y-88344333D01*
X63253952Y-88391952D01*
X63634904Y-88391952D01*
X63730142Y-88344333D01*
X63777761Y-88296714D01*
X63825380Y-88201476D01*
X63825380Y-88011000D01*
X63777761Y-87915761D01*
X63730142Y-87868142D01*
X63634904Y-87820523D01*
X63396809Y-87820523D01*
X63301571Y-87868142D01*
X63253952Y-87915761D01*
X63206333Y-88011000D01*
X63206333Y-88201476D01*
X63253952Y-88296714D01*
X63301571Y-88344333D01*
X63396809Y-88391952D01*
X63825380Y-87391952D02*
X62825380Y-87391952D01*
X63539666Y-87058619D01*
X62825380Y-86725285D01*
X63825380Y-86725285D01*
X38906457Y-40913057D02*
X38944552Y-40798771D01*
X38982647Y-40760676D01*
X39058838Y-40722580D01*
X39173123Y-40722580D01*
X39249314Y-40760676D01*
X39287409Y-40798771D01*
X39325504Y-40874961D01*
X39325504Y-41179723D01*
X38525504Y-41179723D01*
X38525504Y-40913057D01*
X38563600Y-40836866D01*
X38601695Y-40798771D01*
X38677885Y-40760676D01*
X38754076Y-40760676D01*
X38830266Y-40798771D01*
X38868361Y-40836866D01*
X38906457Y-40913057D01*
X38906457Y-41179723D01*
X52451000Y-79938428D02*
X52593857Y-80081285D01*
X52451000Y-80224142D01*
X52308142Y-80081285D01*
X52451000Y-79938428D01*
X52451000Y-80224142D01*
X68123498Y-66602282D02*
X67223498Y-66602282D01*
X68123498Y-66126092D02*
X67223498Y-66126092D01*
X68123498Y-65554663D01*
X67223498Y-65554663D01*
X80957000Y-70858095D02*
X80914142Y-70953333D01*
X80914142Y-71096190D01*
X80957000Y-71239047D01*
X81042714Y-71334285D01*
X81128428Y-71381904D01*
X81299857Y-71429523D01*
X81428428Y-71429523D01*
X81599857Y-71381904D01*
X81685571Y-71334285D01*
X81771285Y-71239047D01*
X81814142Y-71096190D01*
X81814142Y-71000952D01*
X81771285Y-70858095D01*
X81728428Y-70810476D01*
X81428428Y-70810476D01*
X81428428Y-71000952D01*
X80957000Y-83558095D02*
X80914142Y-83653333D01*
X80914142Y-83796190D01*
X80957000Y-83939047D01*
X81042714Y-84034285D01*
X81128428Y-84081904D01*
X81299857Y-84129523D01*
X81428428Y-84129523D01*
X81599857Y-84081904D01*
X81685571Y-84034285D01*
X81771285Y-83939047D01*
X81814142Y-83796190D01*
X81814142Y-83700952D01*
X81771285Y-83558095D01*
X81728428Y-83510476D01*
X81428428Y-83510476D01*
X81428428Y-83700952D01*
X80957000Y-63238095D02*
X80914142Y-63333333D01*
X80914142Y-63476190D01*
X80957000Y-63619047D01*
X81042714Y-63714285D01*
X81128428Y-63761904D01*
X81299857Y-63809523D01*
X81428428Y-63809523D01*
X81599857Y-63761904D01*
X81685571Y-63714285D01*
X81771285Y-63619047D01*
X81814142Y-63476190D01*
X81814142Y-63380952D01*
X81771285Y-63238095D01*
X81728428Y-63190476D01*
X81428428Y-63190476D01*
X81428428Y-63380952D01*
X80957000Y-40378095D02*
X80914142Y-40473333D01*
X80914142Y-40616190D01*
X80957000Y-40759047D01*
X81042714Y-40854285D01*
X81128428Y-40901904D01*
X81299857Y-40949523D01*
X81428428Y-40949523D01*
X81599857Y-40901904D01*
X81685571Y-40854285D01*
X81771285Y-40759047D01*
X81814142Y-40616190D01*
X81814142Y-40520952D01*
X81771285Y-40378095D01*
X81728428Y-40330476D01*
X81428428Y-40330476D01*
X81428428Y-40520952D01*
X34270904Y-40697180D02*
X33889952Y-40963847D01*
X34270904Y-41154323D02*
X33470904Y-41154323D01*
X33470904Y-40849561D01*
X33509000Y-40773371D01*
X33547095Y-40735276D01*
X33623285Y-40697180D01*
X33737571Y-40697180D01*
X33813761Y-40735276D01*
X33851857Y-40773371D01*
X33889952Y-40849561D01*
X33889952Y-41154323D01*
X80957000Y-81018095D02*
X80914142Y-81113333D01*
X80914142Y-81256190D01*
X80957000Y-81399047D01*
X81042714Y-81494285D01*
X81128428Y-81541904D01*
X81299857Y-81589523D01*
X81428428Y-81589523D01*
X81599857Y-81541904D01*
X81685571Y-81494285D01*
X81771285Y-81399047D01*
X81814142Y-81256190D01*
X81814142Y-81160952D01*
X81771285Y-81018095D01*
X81728428Y-80970476D01*
X81428428Y-80970476D01*
X81428428Y-81160952D01*
X47760000Y-76174523D02*
X47712380Y-76250714D01*
X47712380Y-76365000D01*
X47760000Y-76479285D01*
X47855238Y-76555476D01*
X47950476Y-76593571D01*
X48140952Y-76631666D01*
X48283809Y-76631666D01*
X48474285Y-76593571D01*
X48569523Y-76555476D01*
X48664761Y-76479285D01*
X48712380Y-76365000D01*
X48712380Y-76288809D01*
X48664761Y-76174523D01*
X48617142Y-76136428D01*
X48283809Y-76136428D01*
X48283809Y-76288809D01*
X48712380Y-75793571D02*
X47712380Y-75793571D01*
X48712380Y-75336428D01*
X47712380Y-75336428D01*
X48712380Y-74955476D02*
X47712380Y-74955476D01*
X47712380Y-74765000D01*
X47760000Y-74650714D01*
X47855238Y-74574523D01*
X47950476Y-74536428D01*
X48140952Y-74498333D01*
X48283809Y-74498333D01*
X48474285Y-74536428D01*
X48569523Y-74574523D01*
X48664761Y-74650714D01*
X48712380Y-74765000D01*
X48712380Y-74955476D01*
X52197000Y-85145428D02*
X52339857Y-85288285D01*
X52197000Y-85431142D01*
X52054142Y-85288285D01*
X52197000Y-85145428D01*
X52197000Y-85431142D01*
X81814142Y-66563809D02*
X80914142Y-66563809D01*
X81814142Y-66087619D02*
X80914142Y-66087619D01*
X81814142Y-65516190D01*
X80914142Y-65516190D01*
X74141857Y-44195857D02*
X74099000Y-44148238D01*
X74056142Y-44053000D01*
X74056142Y-43814904D01*
X74099000Y-43719666D01*
X74141857Y-43672047D01*
X74227571Y-43624428D01*
X74313285Y-43624428D01*
X74441857Y-43672047D01*
X74956142Y-44243476D01*
X74956142Y-43624428D01*
X74056142Y-43291095D02*
X74056142Y-42672047D01*
X74399000Y-43005380D01*
X74399000Y-42862523D01*
X74441857Y-42767285D01*
X74484714Y-42719666D01*
X74570428Y-42672047D01*
X74784714Y-42672047D01*
X74870428Y-42719666D01*
X74913285Y-42767285D01*
X74956142Y-42862523D01*
X74956142Y-43148238D01*
X74913285Y-43243476D01*
X74870428Y-43291095D01*
X74056142Y-42100619D02*
X74270428Y-42100619D01*
X74184714Y-42338714D02*
X74270428Y-42100619D01*
X74184714Y-41862523D01*
X74441857Y-42243476D02*
X74270428Y-42100619D01*
X74441857Y-41957761D01*
X58777142Y-52728428D02*
X58824761Y-52776047D01*
X58872380Y-52918904D01*
X58872380Y-53014142D01*
X58824761Y-53157000D01*
X58729523Y-53252238D01*
X58634285Y-53299857D01*
X58443809Y-53347476D01*
X58300952Y-53347476D01*
X58110476Y-53299857D01*
X58015238Y-53252238D01*
X57920000Y-53157000D01*
X57872380Y-53014142D01*
X57872380Y-52918904D01*
X57920000Y-52776047D01*
X57967619Y-52728428D01*
X57872380Y-52395095D02*
X58872380Y-51728428D01*
X57872380Y-51728428D02*
X58872380Y-52395095D01*
X58586666Y-51395095D02*
X58586666Y-50918904D01*
X58872380Y-51490333D02*
X57872380Y-51157000D01*
X58872380Y-50823666D01*
X58872380Y-49966523D02*
X58872380Y-50537952D01*
X58872380Y-50252238D02*
X57872380Y-50252238D01*
X58015238Y-50347476D01*
X58110476Y-50442714D01*
X58158095Y-50537952D01*
X57872380Y-49109380D02*
X57872380Y-49299857D01*
X57920000Y-49395095D01*
X57967619Y-49442714D01*
X58110476Y-49537952D01*
X58300952Y-49585571D01*
X58681904Y-49585571D01*
X58777142Y-49537952D01*
X58824761Y-49490333D01*
X58872380Y-49395095D01*
X58872380Y-49204619D01*
X58824761Y-49109380D01*
X58777142Y-49061761D01*
X58681904Y-49014142D01*
X58443809Y-49014142D01*
X58348571Y-49061761D01*
X58300952Y-49109380D01*
X58253333Y-49204619D01*
X58253333Y-49395095D01*
X58300952Y-49490333D01*
X58348571Y-49537952D01*
X58443809Y-49585571D01*
X58205714Y-48157000D02*
X58872380Y-48157000D01*
X57824761Y-48395095D02*
X58539047Y-48633190D01*
X58539047Y-48014142D01*
X57872380Y-47157000D02*
X57872380Y-47633190D01*
X58348571Y-47680809D01*
X58300952Y-47633190D01*
X58253333Y-47537952D01*
X58253333Y-47299857D01*
X58300952Y-47204619D01*
X58348571Y-47157000D01*
X58443809Y-47109380D01*
X58681904Y-47109380D01*
X58777142Y-47157000D01*
X58824761Y-47204619D01*
X58872380Y-47299857D01*
X58872380Y-47537952D01*
X58824761Y-47633190D01*
X58777142Y-47680809D01*
X58872380Y-46680809D02*
X57872380Y-46680809D01*
X58586666Y-46347476D01*
X57872380Y-46014142D01*
X58872380Y-46014142D01*
X68123498Y-58148949D02*
X68123498Y-58625139D01*
X67223498Y-58625139D01*
X74956142Y-73850476D02*
X74956142Y-74421904D01*
X74956142Y-74136190D02*
X74056142Y-74136190D01*
X74184714Y-74231428D01*
X74270428Y-74326666D01*
X74313285Y-74421904D01*
X74956142Y-73374285D02*
X74956142Y-73183809D01*
X74913285Y-73088571D01*
X74870428Y-73040952D01*
X74741857Y-72945714D01*
X74570428Y-72898095D01*
X74227571Y-72898095D01*
X74141857Y-72945714D01*
X74099000Y-72993333D01*
X74056142Y-73088571D01*
X74056142Y-73279047D01*
X74099000Y-73374285D01*
X74141857Y-73421904D01*
X74227571Y-73469523D01*
X74441857Y-73469523D01*
X74527571Y-73421904D01*
X74570428Y-73374285D01*
X74613285Y-73279047D01*
X74613285Y-73088571D01*
X74570428Y-72993333D01*
X74527571Y-72945714D01*
X74441857Y-72898095D01*
X74956142Y-84010476D02*
X74956142Y-84581904D01*
X74956142Y-84296190D02*
X74056142Y-84296190D01*
X74184714Y-84391428D01*
X74270428Y-84486666D01*
X74313285Y-84581904D01*
X74056142Y-83105714D02*
X74056142Y-83581904D01*
X74484714Y-83629523D01*
X74441857Y-83581904D01*
X74399000Y-83486666D01*
X74399000Y-83248571D01*
X74441857Y-83153333D01*
X74484714Y-83105714D01*
X74570428Y-83058095D01*
X74784714Y-83058095D01*
X74870428Y-83105714D01*
X74913285Y-83153333D01*
X74956142Y-83248571D01*
X74956142Y-83486666D01*
X74913285Y-83581904D01*
X74870428Y-83629523D01*
X74956142Y-78930476D02*
X74956142Y-79501904D01*
X74956142Y-79216190D02*
X74056142Y-79216190D01*
X74184714Y-79311428D01*
X74270428Y-79406666D01*
X74313285Y-79501904D01*
X74056142Y-78597142D02*
X74056142Y-77930476D01*
X74956142Y-78359047D01*
X65825714Y-53895428D02*
X66492380Y-53895428D01*
X65444761Y-54133523D02*
X66159047Y-54371619D01*
X66159047Y-53752571D01*
X66397142Y-53371619D02*
X66444761Y-53324000D01*
X66492380Y-53371619D01*
X66444761Y-53419238D01*
X66397142Y-53371619D01*
X66492380Y-53371619D01*
X65825714Y-52466857D02*
X66492380Y-52466857D01*
X65444761Y-52704952D02*
X66159047Y-52943047D01*
X66159047Y-52324000D01*
X65492380Y-52038285D02*
X65492380Y-51419238D01*
X65873333Y-51752571D01*
X65873333Y-51609714D01*
X65920952Y-51514476D01*
X65968571Y-51466857D01*
X66063809Y-51419238D01*
X66301904Y-51419238D01*
X66397142Y-51466857D01*
X66444761Y-51514476D01*
X66492380Y-51609714D01*
X66492380Y-51895428D01*
X66444761Y-51990666D01*
X66397142Y-52038285D01*
X66492380Y-50990666D02*
X65492380Y-50990666D01*
X66206666Y-50657333D01*
X65492380Y-50324000D01*
X66492380Y-50324000D01*
X39020752Y-34359714D02*
X39401704Y-34359714D01*
X38601704Y-34559714D02*
X39020752Y-34359714D01*
X38601704Y-34159714D01*
X39477895Y-34102571D02*
X39477895Y-33645428D01*
X38601704Y-33388285D02*
X38601704Y-33274000D01*
X38639800Y-33216857D01*
X38715990Y-33159714D01*
X38868371Y-33131142D01*
X39135038Y-33131142D01*
X39287419Y-33159714D01*
X39363609Y-33216857D01*
X39401704Y-33274000D01*
X39401704Y-33388285D01*
X39363609Y-33445428D01*
X39287419Y-33502571D01*
X39135038Y-33531142D01*
X38868371Y-33531142D01*
X38715990Y-33502571D01*
X38639800Y-33445428D01*
X38601704Y-33388285D01*
X38601704Y-32874000D02*
X39249323Y-32874000D01*
X39325514Y-32845428D01*
X39363609Y-32816857D01*
X39401704Y-32759714D01*
X39401704Y-32645428D01*
X39363609Y-32588285D01*
X39325514Y-32559714D01*
X39249323Y-32531142D01*
X38601704Y-32531142D01*
X38601704Y-32331142D02*
X38601704Y-31988285D01*
X39401704Y-32159714D02*
X38601704Y-32159714D01*
X80957000Y-86098095D02*
X80914142Y-86193333D01*
X80914142Y-86336190D01*
X80957000Y-86479047D01*
X81042714Y-86574285D01*
X81128428Y-86621904D01*
X81299857Y-86669523D01*
X81428428Y-86669523D01*
X81599857Y-86621904D01*
X81685571Y-86574285D01*
X81771285Y-86479047D01*
X81814142Y-86336190D01*
X81814142Y-86240952D01*
X81771285Y-86098095D01*
X81728428Y-86050476D01*
X81428428Y-86050476D01*
X81428428Y-86240952D01*
D12*
X81814142Y-52101619D02*
X80914142Y-52101619D01*
X80914142Y-51911142D01*
X80957000Y-51863523D01*
X80999857Y-51839714D01*
X81085571Y-51815904D01*
X81214142Y-51815904D01*
X81299857Y-51839714D01*
X81342714Y-51863523D01*
X81385571Y-51911142D01*
X81385571Y-52101619D01*
X81771285Y-51625428D02*
X81814142Y-51554000D01*
X81814142Y-51434952D01*
X81771285Y-51387333D01*
X81728428Y-51363523D01*
X81642714Y-51339714D01*
X81557000Y-51339714D01*
X81471285Y-51363523D01*
X81428428Y-51387333D01*
X81385571Y-51434952D01*
X81342714Y-51530190D01*
X81299857Y-51577809D01*
X81257000Y-51601619D01*
X81171285Y-51625428D01*
X81085571Y-51625428D01*
X80999857Y-51601619D01*
X80957000Y-51577809D01*
X80914142Y-51530190D01*
X80914142Y-51411142D01*
X80957000Y-51339714D01*
X80999857Y-51149238D02*
X80957000Y-51125428D01*
X80914142Y-51077809D01*
X80914142Y-50958761D01*
X80957000Y-50911142D01*
X80999857Y-50887333D01*
X81085571Y-50863523D01*
X81171285Y-50863523D01*
X81299857Y-50887333D01*
X81814142Y-51173047D01*
X81814142Y-50863523D01*
X81899857Y-50768285D02*
X81899857Y-50387333D01*
X81814142Y-50268285D02*
X80914142Y-50268285D01*
X80914142Y-50149238D01*
X80957000Y-50077809D01*
X81042714Y-50030190D01*
X81128428Y-50006380D01*
X81299857Y-49982571D01*
X81428428Y-49982571D01*
X81599857Y-50006380D01*
X81685571Y-50030190D01*
X81771285Y-50077809D01*
X81814142Y-50149238D01*
X81814142Y-50268285D01*
D11*
X74141857Y-56768904D02*
X74099000Y-56721285D01*
X74056142Y-56626047D01*
X74056142Y-56387952D01*
X74099000Y-56292714D01*
X74141857Y-56245095D01*
X74227571Y-56197476D01*
X74313285Y-56197476D01*
X74441857Y-56245095D01*
X74956142Y-56816523D01*
X74956142Y-56197476D01*
X74441857Y-55626047D02*
X74399000Y-55721285D01*
X74356142Y-55768904D01*
X74270428Y-55816523D01*
X74227571Y-55816523D01*
X74141857Y-55768904D01*
X74099000Y-55721285D01*
X74056142Y-55626047D01*
X74056142Y-55435571D01*
X74099000Y-55340333D01*
X74141857Y-55292714D01*
X74227571Y-55245095D01*
X74270428Y-55245095D01*
X74356142Y-55292714D01*
X74399000Y-55340333D01*
X74441857Y-55435571D01*
X74441857Y-55626047D01*
X74484714Y-55721285D01*
X74527571Y-55768904D01*
X74613285Y-55816523D01*
X74784714Y-55816523D01*
X74870428Y-55768904D01*
X74913285Y-55721285D01*
X74956142Y-55626047D01*
X74956142Y-55435571D01*
X74913285Y-55340333D01*
X74870428Y-55292714D01*
X74784714Y-55245095D01*
X74613285Y-55245095D01*
X74527571Y-55292714D01*
X74484714Y-55340333D01*
X74441857Y-55435571D01*
X74141857Y-69341904D02*
X74099000Y-69294285D01*
X74056142Y-69199047D01*
X74056142Y-68960952D01*
X74099000Y-68865714D01*
X74141857Y-68818095D01*
X74227571Y-68770476D01*
X74313285Y-68770476D01*
X74441857Y-68818095D01*
X74956142Y-69389523D01*
X74956142Y-68770476D01*
X74956142Y-67818095D02*
X74956142Y-68389523D01*
X74956142Y-68103809D02*
X74056142Y-68103809D01*
X74184714Y-68199047D01*
X74270428Y-68294285D01*
X74313285Y-68389523D01*
X67652070Y-55847044D02*
X67694927Y-55704187D01*
X67737784Y-55656568D01*
X67823498Y-55608949D01*
X67952070Y-55608949D01*
X68037784Y-55656568D01*
X68080641Y-55704187D01*
X68123498Y-55799425D01*
X68123498Y-56180377D01*
X67223498Y-56180377D01*
X67223498Y-55847044D01*
X67266356Y-55751806D01*
X67309213Y-55704187D01*
X67394927Y-55656568D01*
X67480641Y-55656568D01*
X67566356Y-55704187D01*
X67609213Y-55751806D01*
X67652070Y-55847044D01*
X67652070Y-56180377D01*
X36074400Y-40735276D02*
X36036304Y-40811466D01*
X36036304Y-40925752D01*
X36074400Y-41040038D01*
X36150590Y-41116228D01*
X36226780Y-41154323D01*
X36379161Y-41192419D01*
X36493447Y-41192419D01*
X36645828Y-41154323D01*
X36722019Y-41116228D01*
X36798209Y-41040038D01*
X36836304Y-40925752D01*
X36836304Y-40849561D01*
X36798209Y-40735276D01*
X36760114Y-40697180D01*
X36493447Y-40697180D01*
X36493447Y-40849561D01*
X81471285Y-39384142D02*
X81471285Y-38698428D01*
X81814142Y-39041285D02*
X81128428Y-39041285D01*
X80914142Y-37841285D02*
X80914142Y-38269857D01*
X81342714Y-38312714D01*
X81299857Y-38269857D01*
X81257000Y-38184142D01*
X81257000Y-37969857D01*
X81299857Y-37884142D01*
X81342714Y-37841285D01*
X81428428Y-37798428D01*
X81642714Y-37798428D01*
X81728428Y-37841285D01*
X81771285Y-37884142D01*
X81814142Y-37969857D01*
X81814142Y-38184142D01*
X81771285Y-38269857D01*
X81728428Y-38312714D01*
X80914142Y-37541285D02*
X81814142Y-37241285D01*
X80914142Y-36941285D01*
X74056142Y-48434619D02*
X74056142Y-48339380D01*
X74099000Y-48244142D01*
X74141857Y-48196523D01*
X74227571Y-48148904D01*
X74399000Y-48101285D01*
X74613285Y-48101285D01*
X74784714Y-48148904D01*
X74870428Y-48196523D01*
X74913285Y-48244142D01*
X74956142Y-48339380D01*
X74956142Y-48434619D01*
X74913285Y-48529857D01*
X74870428Y-48577476D01*
X74784714Y-48625095D01*
X74613285Y-48672714D01*
X74399000Y-48672714D01*
X74227571Y-48625095D01*
X74141857Y-48577476D01*
X74099000Y-48529857D01*
X74056142Y-48434619D01*
X30994400Y-34239142D02*
X30956304Y-34296285D01*
X30956304Y-34382000D01*
X30994400Y-34467714D01*
X31070590Y-34524857D01*
X31146780Y-34553428D01*
X31299161Y-34582000D01*
X31413447Y-34582000D01*
X31565828Y-34553428D01*
X31642019Y-34524857D01*
X31718209Y-34467714D01*
X31756304Y-34382000D01*
X31756304Y-34324857D01*
X31718209Y-34239142D01*
X31680114Y-34210571D01*
X31413447Y-34210571D01*
X31413447Y-34324857D01*
X31756304Y-33953428D02*
X30956304Y-33953428D01*
X31756304Y-33610571D01*
X30956304Y-33610571D01*
X31756304Y-33324857D02*
X30956304Y-33324857D01*
X30956304Y-33182000D01*
X30994400Y-33096285D01*
X31070590Y-33039142D01*
X31146780Y-33010571D01*
X31299161Y-32982000D01*
X31413447Y-32982000D01*
X31565828Y-33010571D01*
X31642019Y-33039142D01*
X31718209Y-33096285D01*
X31756304Y-33182000D01*
X31756304Y-33324857D01*
X54610238Y-75007000D02*
X54276904Y-75007000D01*
X54276904Y-75373666D02*
X54276904Y-74673666D01*
X54753095Y-74673666D01*
X55134047Y-75007000D02*
X55467380Y-75007000D01*
X55610238Y-75373666D02*
X55134047Y-75373666D01*
X55134047Y-74673666D01*
X55610238Y-74673666D01*
X56562619Y-75373666D02*
X55991190Y-75373666D01*
X56276904Y-75373666D02*
X56276904Y-74673666D01*
X56181666Y-74773666D01*
X56086428Y-74840333D01*
X55991190Y-74873666D01*
X56991190Y-75307000D02*
X57038809Y-75340333D01*
X56991190Y-75373666D01*
X56943571Y-75340333D01*
X56991190Y-75307000D01*
X56991190Y-75373666D01*
X57991190Y-75373666D02*
X57419761Y-75373666D01*
X57705476Y-75373666D02*
X57705476Y-74673666D01*
X57610238Y-74773666D01*
X57515000Y-74840333D01*
X57419761Y-74873666D01*
X58372142Y-75340333D02*
X58467380Y-75373666D01*
X58657857Y-75373666D01*
X58753095Y-75340333D01*
X58800714Y-75273666D01*
X58800714Y-75240333D01*
X58753095Y-75173666D01*
X58657857Y-75140333D01*
X58515000Y-75140333D01*
X58419761Y-75107000D01*
X58372142Y-75040333D01*
X58372142Y-75007000D01*
X58419761Y-74940333D01*
X58515000Y-74907000D01*
X58657857Y-74907000D01*
X58753095Y-74940333D01*
X81342714Y-55808571D02*
X81385571Y-55665714D01*
X81428428Y-55618095D01*
X81514142Y-55570476D01*
X81642714Y-55570476D01*
X81728428Y-55618095D01*
X81771285Y-55665714D01*
X81814142Y-55760952D01*
X81814142Y-56141904D01*
X80914142Y-56141904D01*
X80914142Y-55808571D01*
X80957000Y-55713333D01*
X80999857Y-55665714D01*
X81085571Y-55618095D01*
X81171285Y-55618095D01*
X81257000Y-55665714D01*
X81299857Y-55713333D01*
X81342714Y-55808571D01*
X81342714Y-56141904D01*
X35694730Y-105694418D02*
X34994730Y-105694418D01*
X34994730Y-105527752D01*
X35028064Y-105427752D01*
X35094730Y-105361085D01*
X35161397Y-105327752D01*
X35294730Y-105294418D01*
X35394730Y-105294418D01*
X35528064Y-105327752D01*
X35594730Y-105361085D01*
X35661397Y-105427752D01*
X35694730Y-105527752D01*
X35694730Y-105694418D01*
X35428064Y-104994418D02*
X35428064Y-104461085D01*
X58668391Y-38112619D02*
X58625533Y-38193571D01*
X58625533Y-38315000D01*
X58668391Y-38436428D01*
X58754105Y-38517380D01*
X58839819Y-38557857D01*
X59011248Y-38598333D01*
X59139819Y-38598333D01*
X59311248Y-38557857D01*
X59396962Y-38517380D01*
X59482676Y-38436428D01*
X59525533Y-38315000D01*
X59525533Y-38234047D01*
X59482676Y-38112619D01*
X59439819Y-38072142D01*
X59139819Y-38072142D01*
X59139819Y-38234047D01*
X59525533Y-37707857D02*
X58625533Y-37707857D01*
X59525533Y-37222142D01*
X58625533Y-37222142D01*
X59525533Y-36817380D02*
X58625533Y-36817380D01*
X58625533Y-36615000D01*
X58668391Y-36493571D01*
X58754105Y-36412619D01*
X58839819Y-36372142D01*
X59011248Y-36331666D01*
X59139819Y-36331666D01*
X59311248Y-36372142D01*
X59396962Y-36412619D01*
X59482676Y-36493571D01*
X59525533Y-36615000D01*
X59525533Y-36817380D01*
X66040000Y-97972428D02*
X66182857Y-98115285D01*
X66040000Y-98258142D01*
X65897142Y-98115285D01*
X66040000Y-97972428D01*
X66040000Y-98258142D01*
X80957000Y-78478095D02*
X80914142Y-78573333D01*
X80914142Y-78716190D01*
X80957000Y-78859047D01*
X81042714Y-78954285D01*
X81128428Y-79001904D01*
X81299857Y-79049523D01*
X81428428Y-79049523D01*
X81599857Y-79001904D01*
X81685571Y-78954285D01*
X81771285Y-78859047D01*
X81814142Y-78716190D01*
X81814142Y-78620952D01*
X81771285Y-78478095D01*
X81728428Y-78430476D01*
X81428428Y-78430476D01*
X81428428Y-78620952D01*
X64582142Y-38345952D02*
X63682142Y-38345952D01*
X63682142Y-38107857D01*
X63725000Y-37965000D01*
X63810714Y-37869761D01*
X63896428Y-37822142D01*
X64067857Y-37774523D01*
X64196428Y-37774523D01*
X64367857Y-37822142D01*
X64453571Y-37869761D01*
X64539285Y-37965000D01*
X64582142Y-38107857D01*
X64582142Y-38345952D01*
X64239285Y-37345952D02*
X64239285Y-36584047D01*
X67266356Y-45496568D02*
X67223498Y-45591806D01*
X67223498Y-45734663D01*
X67266356Y-45877520D01*
X67352070Y-45972758D01*
X67437784Y-46020377D01*
X67609213Y-46067996D01*
X67737784Y-46067996D01*
X67909213Y-46020377D01*
X67994927Y-45972758D01*
X68080641Y-45877520D01*
X68123498Y-45734663D01*
X68123498Y-45639425D01*
X68080641Y-45496568D01*
X68037784Y-45448949D01*
X67737784Y-45448949D01*
X67737784Y-45639425D01*
X35694730Y-108216479D02*
X34994730Y-108216479D01*
X34994730Y-108049813D01*
X35028064Y-107949813D01*
X35094730Y-107883146D01*
X35161397Y-107849813D01*
X35294730Y-107816479D01*
X35394730Y-107816479D01*
X35528064Y-107849813D01*
X35594730Y-107883146D01*
X35661397Y-107949813D01*
X35694730Y-108049813D01*
X35694730Y-108216479D01*
X35428064Y-107516479D02*
X35428064Y-106983146D01*
X35694730Y-107249813D02*
X35161397Y-107249813D01*
X74141857Y-61848904D02*
X74099000Y-61801285D01*
X74056142Y-61706047D01*
X74056142Y-61467952D01*
X74099000Y-61372714D01*
X74141857Y-61325095D01*
X74227571Y-61277476D01*
X74313285Y-61277476D01*
X74441857Y-61325095D01*
X74956142Y-61896523D01*
X74956142Y-61277476D01*
X74056142Y-60420333D02*
X74056142Y-60610809D01*
X74099000Y-60706047D01*
X74141857Y-60753666D01*
X74270428Y-60848904D01*
X74441857Y-60896523D01*
X74784714Y-60896523D01*
X74870428Y-60848904D01*
X74913285Y-60801285D01*
X74956142Y-60706047D01*
X74956142Y-60515571D01*
X74913285Y-60420333D01*
X74870428Y-60372714D01*
X74784714Y-60325095D01*
X74570428Y-60325095D01*
X74484714Y-60372714D01*
X74441857Y-60420333D01*
X74399000Y-60515571D01*
X74399000Y-60706047D01*
X74441857Y-60801285D01*
X74484714Y-60848904D01*
X74570428Y-60896523D01*
X34016942Y-34604228D02*
X34016942Y-34147085D01*
X34321704Y-34375657D02*
X33712180Y-34375657D01*
X33521704Y-33575657D02*
X33521704Y-33861371D01*
X33902657Y-33889942D01*
X33864561Y-33861371D01*
X33826466Y-33804228D01*
X33826466Y-33661371D01*
X33864561Y-33604228D01*
X33902657Y-33575657D01*
X33978847Y-33547085D01*
X34169323Y-33547085D01*
X34245514Y-33575657D01*
X34283609Y-33604228D01*
X34321704Y-33661371D01*
X34321704Y-33804228D01*
X34283609Y-33861371D01*
X34245514Y-33889942D01*
X33521704Y-33375657D02*
X34321704Y-33175657D01*
X33521704Y-32975657D01*
X65222380Y-113116904D02*
X64222380Y-113116904D01*
X65222380Y-112545476D01*
X64222380Y-112545476D01*
X65222380Y-111926428D02*
X65174761Y-112021666D01*
X65127142Y-112069285D01*
X65031904Y-112116904D01*
X64746190Y-112116904D01*
X64650952Y-112069285D01*
X64603333Y-112021666D01*
X64555714Y-111926428D01*
X64555714Y-111783571D01*
X64603333Y-111688333D01*
X64650952Y-111640714D01*
X64746190Y-111593095D01*
X65031904Y-111593095D01*
X65127142Y-111640714D01*
X65174761Y-111688333D01*
X65222380Y-111783571D01*
X65222380Y-111926428D01*
X64555714Y-111307380D02*
X64555714Y-110926428D01*
X64222380Y-111164523D02*
X65079523Y-111164523D01*
X65174761Y-111116904D01*
X65222380Y-111021666D01*
X65222380Y-110926428D01*
X65174761Y-110164523D02*
X65222380Y-110259761D01*
X65222380Y-110450238D01*
X65174761Y-110545476D01*
X65127142Y-110593095D01*
X65031904Y-110640714D01*
X64746190Y-110640714D01*
X64650952Y-110593095D01*
X64603333Y-110545476D01*
X64555714Y-110450238D01*
X64555714Y-110259761D01*
X64603333Y-110164523D01*
X65222380Y-109735952D02*
X64222380Y-109735952D01*
X65222380Y-109307380D02*
X64698571Y-109307380D01*
X64603333Y-109355000D01*
X64555714Y-109450238D01*
X64555714Y-109593095D01*
X64603333Y-109688333D01*
X64650952Y-109735952D01*
X64222380Y-108069285D02*
X65031904Y-108069285D01*
X65127142Y-108021666D01*
X65174761Y-107974047D01*
X65222380Y-107878809D01*
X65222380Y-107688333D01*
X65174761Y-107593095D01*
X65127142Y-107545476D01*
X65031904Y-107497857D01*
X64222380Y-107497857D01*
X64555714Y-107021666D02*
X65555714Y-107021666D01*
X64603333Y-107021666D02*
X64555714Y-106926428D01*
X64555714Y-106735952D01*
X64603333Y-106640714D01*
X64650952Y-106593095D01*
X64746190Y-106545476D01*
X65031904Y-106545476D01*
X65127142Y-106593095D01*
X65174761Y-106640714D01*
X65222380Y-106735952D01*
X65222380Y-106926428D01*
X65174761Y-107021666D01*
X74141857Y-59308904D02*
X74099000Y-59261285D01*
X74056142Y-59166047D01*
X74056142Y-58927952D01*
X74099000Y-58832714D01*
X74141857Y-58785095D01*
X74227571Y-58737476D01*
X74313285Y-58737476D01*
X74441857Y-58785095D01*
X74956142Y-59356523D01*
X74956142Y-58737476D01*
X74056142Y-58404142D02*
X74056142Y-57737476D01*
X74956142Y-58166047D01*
X68123498Y-43547044D02*
X67694927Y-43747044D01*
X68123498Y-43889901D02*
X67223498Y-43889901D01*
X67223498Y-43661330D01*
X67266356Y-43604187D01*
X67309213Y-43575615D01*
X67394927Y-43547044D01*
X67523498Y-43547044D01*
X67609213Y-43575615D01*
X67652070Y-43604187D01*
X67694927Y-43661330D01*
X67694927Y-43889901D01*
X68080641Y-43318473D02*
X68123498Y-43232758D01*
X68123498Y-43089901D01*
X68080641Y-43032758D01*
X68037784Y-43004187D01*
X67952070Y-42975615D01*
X67866356Y-42975615D01*
X67780641Y-43004187D01*
X67737784Y-43032758D01*
X67694927Y-43089901D01*
X67652070Y-43204187D01*
X67609213Y-43261330D01*
X67566356Y-43289901D01*
X67480641Y-43318473D01*
X67394927Y-43318473D01*
X67309213Y-43289901D01*
X67266356Y-43261330D01*
X67223498Y-43204187D01*
X67223498Y-43061330D01*
X67266356Y-42975615D01*
X67223498Y-42804187D02*
X67223498Y-42461330D01*
X68123498Y-42632758D02*
X67223498Y-42632758D01*
X81814142Y-60650476D02*
X81385571Y-60983809D01*
X81814142Y-61221904D02*
X80914142Y-61221904D01*
X80914142Y-60840952D01*
X80957000Y-60745714D01*
X80999857Y-60698095D01*
X81085571Y-60650476D01*
X81214142Y-60650476D01*
X81299857Y-60698095D01*
X81342714Y-60745714D01*
X81385571Y-60840952D01*
X81385571Y-61221904D01*
X74141857Y-54355857D02*
X74099000Y-54308238D01*
X74056142Y-54213000D01*
X74056142Y-53974904D01*
X74099000Y-53879666D01*
X74141857Y-53832047D01*
X74227571Y-53784428D01*
X74313285Y-53784428D01*
X74441857Y-53832047D01*
X74956142Y-54403476D01*
X74956142Y-53784428D01*
X74956142Y-53308238D02*
X74956142Y-53117761D01*
X74913285Y-53022523D01*
X74870428Y-52974904D01*
X74741857Y-52879666D01*
X74570428Y-52832047D01*
X74227571Y-52832047D01*
X74141857Y-52879666D01*
X74099000Y-52927285D01*
X74056142Y-53022523D01*
X74056142Y-53213000D01*
X74099000Y-53308238D01*
X74141857Y-53355857D01*
X74227571Y-53403476D01*
X74441857Y-53403476D01*
X74527571Y-53355857D01*
X74570428Y-53308238D01*
X74613285Y-53213000D01*
X74613285Y-53022523D01*
X74570428Y-52927285D01*
X74527571Y-52879666D01*
X74441857Y-52832047D01*
X74056142Y-52260619D02*
X74270428Y-52260619D01*
X74184714Y-52498714D02*
X74270428Y-52260619D01*
X74184714Y-52022523D01*
X74441857Y-52403476D02*
X74270428Y-52260619D01*
X74441857Y-52117761D01*
D12*
X68123498Y-52140092D02*
X67223498Y-52140092D01*
X67223498Y-51949615D01*
X67266356Y-51901996D01*
X67309213Y-51878187D01*
X67394927Y-51854377D01*
X67523498Y-51854377D01*
X67609213Y-51878187D01*
X67652070Y-51901996D01*
X67694927Y-51949615D01*
X67694927Y-52140092D01*
X68080641Y-51663901D02*
X68123498Y-51592473D01*
X68123498Y-51473425D01*
X68080641Y-51425806D01*
X68037784Y-51401996D01*
X67952070Y-51378187D01*
X67866356Y-51378187D01*
X67780641Y-51401996D01*
X67737784Y-51425806D01*
X67694927Y-51473425D01*
X67652070Y-51568663D01*
X67609213Y-51616282D01*
X67566356Y-51640092D01*
X67480641Y-51663901D01*
X67394927Y-51663901D01*
X67309213Y-51640092D01*
X67266356Y-51616282D01*
X67223498Y-51568663D01*
X67223498Y-51449615D01*
X67266356Y-51378187D01*
X67309213Y-51187711D02*
X67266356Y-51163901D01*
X67223498Y-51116282D01*
X67223498Y-50997234D01*
X67266356Y-50949615D01*
X67309213Y-50925806D01*
X67394927Y-50901996D01*
X67480641Y-50901996D01*
X67609213Y-50925806D01*
X68123498Y-51211520D01*
X68123498Y-50901996D01*
X68209213Y-50806758D02*
X68209213Y-50425806D01*
X68123498Y-50306758D02*
X67223498Y-50306758D01*
X67223498Y-50187711D01*
X67266356Y-50116282D01*
X67352070Y-50068663D01*
X67437784Y-50044853D01*
X67609213Y-50021044D01*
X67737784Y-50021044D01*
X67909213Y-50044853D01*
X67994927Y-50068663D01*
X68080641Y-50116282D01*
X68123498Y-50187711D01*
X68123498Y-50306758D01*
D11*
X44400019Y-38077644D02*
X44357161Y-38158596D01*
X44357161Y-38280025D01*
X44400019Y-38401453D01*
X44485733Y-38482405D01*
X44571447Y-38522882D01*
X44742876Y-38563358D01*
X44871447Y-38563358D01*
X45042876Y-38522882D01*
X45128590Y-38482405D01*
X45214304Y-38401453D01*
X45257161Y-38280025D01*
X45257161Y-38199072D01*
X45214304Y-38077644D01*
X45171447Y-38037167D01*
X44871447Y-38037167D01*
X44871447Y-38199072D01*
X45257161Y-37672882D02*
X44357161Y-37672882D01*
X45257161Y-37187167D01*
X44357161Y-37187167D01*
X45257161Y-36782405D02*
X44357161Y-36782405D01*
X44357161Y-36580025D01*
X44400019Y-36458596D01*
X44485733Y-36377644D01*
X44571447Y-36337167D01*
X44742876Y-36296691D01*
X44871447Y-36296691D01*
X45042876Y-36337167D01*
X45128590Y-36377644D01*
X45214304Y-36458596D01*
X45257161Y-36580025D01*
X45257161Y-36782405D01*
X74141857Y-71881904D02*
X74099000Y-71834285D01*
X74056142Y-71739047D01*
X74056142Y-71500952D01*
X74099000Y-71405714D01*
X74141857Y-71358095D01*
X74227571Y-71310476D01*
X74313285Y-71310476D01*
X74441857Y-71358095D01*
X74956142Y-71929523D01*
X74956142Y-71310476D01*
X74056142Y-70691428D02*
X74056142Y-70596190D01*
X74099000Y-70500952D01*
X74141857Y-70453333D01*
X74227571Y-70405714D01*
X74399000Y-70358095D01*
X74613285Y-70358095D01*
X74784714Y-70405714D01*
X74870428Y-70453333D01*
X74913285Y-70500952D01*
X74956142Y-70596190D01*
X74956142Y-70691428D01*
X74913285Y-70786666D01*
X74870428Y-70834285D01*
X74784714Y-70881904D01*
X74613285Y-70929523D01*
X74399000Y-70929523D01*
X74227571Y-70881904D01*
X74141857Y-70834285D01*
X74099000Y-70786666D01*
X74056142Y-70691428D01*
X74099000Y-63365095D02*
X74056142Y-63460333D01*
X74056142Y-63603190D01*
X74099000Y-63746047D01*
X74184714Y-63841285D01*
X74270428Y-63888904D01*
X74441857Y-63936523D01*
X74570428Y-63936523D01*
X74741857Y-63888904D01*
X74827571Y-63841285D01*
X74913285Y-63746047D01*
X74956142Y-63603190D01*
X74956142Y-63507952D01*
X74913285Y-63365095D01*
X74870428Y-63317476D01*
X74570428Y-63317476D01*
X74570428Y-63507952D01*
X53403904Y-81732380D02*
X53403904Y-80732380D01*
X53737238Y-81446666D01*
X54070571Y-80732380D01*
X54070571Y-81732380D01*
X54451523Y-80732380D02*
X54689619Y-81732380D01*
X54880095Y-81018095D01*
X55070571Y-81732380D01*
X55308666Y-80732380D01*
X55594380Y-80732380D02*
X56261047Y-80732380D01*
X55832476Y-81732380D01*
X56594380Y-80827619D02*
X56642000Y-80780000D01*
X56737238Y-80732380D01*
X56975333Y-80732380D01*
X57070571Y-80780000D01*
X57118190Y-80827619D01*
X57165809Y-80922857D01*
X57165809Y-81018095D01*
X57118190Y-81160952D01*
X56546761Y-81732380D01*
X57165809Y-81732380D01*
X58118190Y-81732380D02*
X57546761Y-81732380D01*
X57832476Y-81732380D02*
X57832476Y-80732380D01*
X57737238Y-80875238D01*
X57642000Y-80970476D01*
X57546761Y-81018095D01*
X59070571Y-81732380D02*
X58499142Y-81732380D01*
X58784857Y-81732380D02*
X58784857Y-80732380D01*
X58689619Y-80875238D01*
X58594380Y-80970476D01*
X58499142Y-81018095D01*
X59451523Y-81446666D02*
X59927714Y-81446666D01*
X59356285Y-81732380D02*
X59689619Y-80732380D01*
X60022952Y-81732380D01*
X35397860Y-103512970D02*
X35397860Y-102979637D01*
X35664526Y-103246304D02*
X35131193Y-103246304D01*
X34964526Y-102312970D02*
X34964526Y-102646304D01*
X35297860Y-102679637D01*
X35264526Y-102646304D01*
X35231193Y-102579637D01*
X35231193Y-102412970D01*
X35264526Y-102346304D01*
X35297860Y-102312970D01*
X35364526Y-102279637D01*
X35531193Y-102279637D01*
X35597860Y-102312970D01*
X35631193Y-102346304D01*
X35664526Y-102412970D01*
X35664526Y-102579637D01*
X35631193Y-102646304D01*
X35597860Y-102679637D01*
X35197860Y-102046304D02*
X35664526Y-101879637D01*
X35197860Y-101712970D01*
X49855380Y-84200904D02*
X49855380Y-84772333D01*
X49855380Y-84486619D02*
X48855380Y-84486619D01*
X48998238Y-84581857D01*
X49093476Y-84677095D01*
X49141095Y-84772333D01*
X48950619Y-83819952D02*
X48903000Y-83772333D01*
X48855380Y-83677095D01*
X48855380Y-83439000D01*
X48903000Y-83343761D01*
X48950619Y-83296142D01*
X49045857Y-83248523D01*
X49141095Y-83248523D01*
X49283952Y-83296142D01*
X49855380Y-83867571D01*
X49855380Y-83248523D01*
X49855380Y-82819952D02*
X48855380Y-82819952D01*
X49569666Y-82486619D01*
X48855380Y-82153285D01*
X49855380Y-82153285D01*
X41903609Y-42970276D02*
X41941704Y-42855990D01*
X41941704Y-42665514D01*
X41903609Y-42589323D01*
X41865514Y-42551228D01*
X41789323Y-42513133D01*
X41713133Y-42513133D01*
X41636942Y-42551228D01*
X41598847Y-42589323D01*
X41560752Y-42665514D01*
X41522657Y-42817895D01*
X41484561Y-42894085D01*
X41446466Y-42932180D01*
X41370276Y-42970276D01*
X41294085Y-42970276D01*
X41217895Y-42932180D01*
X41179800Y-42894085D01*
X41141704Y-42817895D01*
X41141704Y-42627419D01*
X41179800Y-42513133D01*
X41560752Y-42017895D02*
X41941704Y-42017895D01*
X41141704Y-42284561D02*
X41560752Y-42017895D01*
X41141704Y-41751228D01*
X41941704Y-41484561D02*
X41141704Y-41484561D01*
X41941704Y-41027419D01*
X41141704Y-41027419D01*
X41865514Y-40189323D02*
X41903609Y-40227419D01*
X41941704Y-40341704D01*
X41941704Y-40417895D01*
X41903609Y-40532180D01*
X41827419Y-40608371D01*
X41751228Y-40646466D01*
X41598847Y-40684561D01*
X41484561Y-40684561D01*
X41332180Y-40646466D01*
X41255990Y-40608371D01*
X41179800Y-40532180D01*
X41141704Y-40417895D01*
X41141704Y-40341704D01*
X41179800Y-40227419D01*
X41217895Y-40189323D01*
X74956142Y-50514285D02*
X74956142Y-51085714D01*
X74956142Y-50800000D02*
X74056142Y-50800000D01*
X74184714Y-50895238D01*
X74270428Y-50990476D01*
X74313285Y-51085714D01*
X47992142Y-38345952D02*
X47092142Y-38345952D01*
X47092142Y-38107857D01*
X47135000Y-37965000D01*
X47220714Y-37869761D01*
X47306428Y-37822142D01*
X47477857Y-37774523D01*
X47606428Y-37774523D01*
X47777857Y-37822142D01*
X47863571Y-37869761D01*
X47949285Y-37965000D01*
X47992142Y-38107857D01*
X47992142Y-38345952D01*
X47649285Y-37345952D02*
X47649285Y-36584047D01*
X47992142Y-36965000D02*
X47306428Y-36965000D01*
X80957000Y-68318095D02*
X80914142Y-68413333D01*
X80914142Y-68556190D01*
X80957000Y-68699047D01*
X81042714Y-68794285D01*
X81128428Y-68841904D01*
X81299857Y-68889523D01*
X81428428Y-68889523D01*
X81599857Y-68841904D01*
X81685571Y-68794285D01*
X81771285Y-68699047D01*
X81814142Y-68556190D01*
X81814142Y-68460952D01*
X81771285Y-68318095D01*
X81728428Y-68270476D01*
X81428428Y-68270476D01*
X81428428Y-68460952D01*
X74956142Y-76390476D02*
X74956142Y-76961904D01*
X74956142Y-76676190D02*
X74056142Y-76676190D01*
X74184714Y-76771428D01*
X74270428Y-76866666D01*
X74313285Y-76961904D01*
X74441857Y-75819047D02*
X74399000Y-75914285D01*
X74356142Y-75961904D01*
X74270428Y-76009523D01*
X74227571Y-76009523D01*
X74141857Y-75961904D01*
X74099000Y-75914285D01*
X74056142Y-75819047D01*
X74056142Y-75628571D01*
X74099000Y-75533333D01*
X74141857Y-75485714D01*
X74227571Y-75438095D01*
X74270428Y-75438095D01*
X74356142Y-75485714D01*
X74399000Y-75533333D01*
X74441857Y-75628571D01*
X74441857Y-75819047D01*
X74484714Y-75914285D01*
X74527571Y-75961904D01*
X74613285Y-76009523D01*
X74784714Y-76009523D01*
X74870428Y-75961904D01*
X74913285Y-75914285D01*
X74956142Y-75819047D01*
X74956142Y-75628571D01*
X74913285Y-75533333D01*
X74870428Y-75485714D01*
X74784714Y-75438095D01*
X74613285Y-75438095D01*
X74527571Y-75485714D01*
X74484714Y-75533333D01*
X74441857Y-75628571D01*
X61849000Y-56443428D02*
X61991857Y-56586285D01*
X61849000Y-56729142D01*
X61706142Y-56586285D01*
X61849000Y-56443428D01*
X61849000Y-56729142D01*
X74956142Y-86550476D02*
X74956142Y-87121904D01*
X74956142Y-86836190D02*
X74056142Y-86836190D01*
X74184714Y-86931428D01*
X74270428Y-87026666D01*
X74313285Y-87121904D01*
X74356142Y-85693333D02*
X74956142Y-85693333D01*
X74013285Y-85931428D02*
X74656142Y-86169523D01*
X74656142Y-85550476D01*
X31202380Y-71405238D02*
X32202380Y-71071904D01*
X31202380Y-70738571D01*
X31250000Y-69881428D02*
X31202380Y-69976666D01*
X31202380Y-70119523D01*
X31250000Y-70262380D01*
X31345238Y-70357619D01*
X31440476Y-70405238D01*
X31630952Y-70452857D01*
X31773809Y-70452857D01*
X31964285Y-70405238D01*
X32059523Y-70357619D01*
X32154761Y-70262380D01*
X32202380Y-70119523D01*
X32202380Y-70024285D01*
X32154761Y-69881428D01*
X32107142Y-69833809D01*
X31773809Y-69833809D01*
X31773809Y-70024285D01*
X31916666Y-69452857D02*
X31916666Y-68976666D01*
X32202380Y-69548095D02*
X31202380Y-69214761D01*
X32202380Y-68881428D01*
X31821428Y-68548095D02*
X31821428Y-67786190D01*
X32202380Y-68167142D02*
X31440476Y-68167142D01*
X32202380Y-67310000D02*
X31202380Y-67310000D01*
X31678571Y-67310000D02*
X31678571Y-66738571D01*
X32202380Y-66738571D02*
X31202380Y-66738571D01*
X32202380Y-66262380D02*
X31202380Y-66262380D01*
X31202380Y-66024285D01*
X31250000Y-65881428D01*
X31345238Y-65786190D01*
X31440476Y-65738571D01*
X31630952Y-65690952D01*
X31773809Y-65690952D01*
X31964285Y-65738571D01*
X32059523Y-65786190D01*
X32154761Y-65881428D01*
X32202380Y-66024285D01*
X32202380Y-66262380D01*
X32202380Y-65262380D02*
X31202380Y-65262380D01*
X31916666Y-64929047D01*
X31202380Y-64595714D01*
X32202380Y-64595714D01*
X32202380Y-64119523D02*
X31202380Y-64119523D01*
X55987904Y-60013000D02*
X55606952Y-60246333D01*
X55987904Y-60413000D02*
X55187904Y-60413000D01*
X55187904Y-60146333D01*
X55226000Y-60079666D01*
X55264095Y-60046333D01*
X55340285Y-60013000D01*
X55454571Y-60013000D01*
X55530761Y-60046333D01*
X55568857Y-60079666D01*
X55606952Y-60146333D01*
X55606952Y-60413000D01*
X55264095Y-59746333D02*
X55226000Y-59713000D01*
X55187904Y-59646333D01*
X55187904Y-59479666D01*
X55226000Y-59413000D01*
X55264095Y-59379666D01*
X55340285Y-59346333D01*
X55416476Y-59346333D01*
X55530761Y-59379666D01*
X55987904Y-59779666D01*
X55987904Y-59346333D01*
X55454571Y-58746333D02*
X55987904Y-58746333D01*
X55149809Y-58913000D02*
X55721238Y-59079666D01*
X55721238Y-58646333D01*
X63571380Y-92335285D02*
X63095190Y-92601952D01*
X63571380Y-92792428D02*
X62571380Y-92792428D01*
X62571380Y-92487666D01*
X62619000Y-92411476D01*
X62666619Y-92373380D01*
X62761857Y-92335285D01*
X62904714Y-92335285D01*
X62999952Y-92373380D01*
X63047571Y-92411476D01*
X63095190Y-92487666D01*
X63095190Y-92792428D01*
X63571380Y-91573380D02*
X63571380Y-92030523D01*
X63571380Y-91801952D02*
X62571380Y-91801952D01*
X62714238Y-91878142D01*
X62809476Y-91954333D01*
X62857095Y-92030523D01*
X62571380Y-91306714D02*
X62571380Y-90811476D01*
X62952333Y-91078142D01*
X62952333Y-90963857D01*
X62999952Y-90887666D01*
X63047571Y-90849571D01*
X63142809Y-90811476D01*
X63380904Y-90811476D01*
X63476142Y-90849571D01*
X63523761Y-90887666D01*
X63571380Y-90963857D01*
X63571380Y-91192428D01*
X63523761Y-91268619D01*
X63476142Y-91306714D01*
X63476190Y-52763190D02*
X63952380Y-52763190D01*
X62952380Y-53096523D02*
X63476190Y-52763190D01*
X62952380Y-52429857D01*
X62952380Y-51620333D02*
X62952380Y-52096523D01*
X63428571Y-52144142D01*
X63380952Y-52096523D01*
X63333333Y-52001285D01*
X63333333Y-51763190D01*
X63380952Y-51667952D01*
X63428571Y-51620333D01*
X63523809Y-51572714D01*
X63761904Y-51572714D01*
X63857142Y-51620333D01*
X63904761Y-51667952D01*
X63952380Y-51763190D01*
X63952380Y-52001285D01*
X63904761Y-52096523D01*
X63857142Y-52144142D01*
X55987904Y-63950000D02*
X55606952Y-64183333D01*
X55987904Y-64350000D02*
X55187904Y-64350000D01*
X55187904Y-64083333D01*
X55226000Y-64016666D01*
X55264095Y-63983333D01*
X55340285Y-63950000D01*
X55454571Y-63950000D01*
X55530761Y-63983333D01*
X55568857Y-64016666D01*
X55606952Y-64083333D01*
X55606952Y-64350000D01*
X55264095Y-63683333D02*
X55226000Y-63650000D01*
X55187904Y-63583333D01*
X55187904Y-63416666D01*
X55226000Y-63350000D01*
X55264095Y-63316666D01*
X55340285Y-63283333D01*
X55416476Y-63283333D01*
X55530761Y-63316666D01*
X55987904Y-63716666D01*
X55987904Y-63283333D01*
X55987904Y-62616666D02*
X55987904Y-63016666D01*
X55987904Y-62816666D02*
X55187904Y-62816666D01*
X55302190Y-62883333D01*
X55378380Y-62950000D01*
X55416476Y-63016666D01*
X44140380Y-68111666D02*
X43664190Y-68445000D01*
X44140380Y-68683095D02*
X43140380Y-68683095D01*
X43140380Y-68302142D01*
X43188000Y-68206904D01*
X43235619Y-68159285D01*
X43330857Y-68111666D01*
X43473714Y-68111666D01*
X43568952Y-68159285D01*
X43616571Y-68206904D01*
X43664190Y-68302142D01*
X43664190Y-68683095D01*
X43140380Y-67254523D02*
X43140380Y-67445000D01*
X43188000Y-67540238D01*
X43235619Y-67587857D01*
X43378476Y-67683095D01*
X43568952Y-67730714D01*
X43949904Y-67730714D01*
X44045142Y-67683095D01*
X44092761Y-67635476D01*
X44140380Y-67540238D01*
X44140380Y-67349761D01*
X44092761Y-67254523D01*
X44045142Y-67206904D01*
X43949904Y-67159285D01*
X43711809Y-67159285D01*
X43616571Y-67206904D01*
X43568952Y-67254523D01*
X43521333Y-67349761D01*
X43521333Y-67540238D01*
X43568952Y-67635476D01*
X43616571Y-67683095D01*
X43711809Y-67730714D01*
X44140380Y-70651666D02*
X43664190Y-70985000D01*
X44140380Y-71223095D02*
X43140380Y-71223095D01*
X43140380Y-70842142D01*
X43188000Y-70746904D01*
X43235619Y-70699285D01*
X43330857Y-70651666D01*
X43473714Y-70651666D01*
X43568952Y-70699285D01*
X43616571Y-70746904D01*
X43664190Y-70842142D01*
X43664190Y-71223095D01*
X43140380Y-70318333D02*
X43140380Y-69651666D01*
X44140380Y-70080238D01*
X52681142Y-67730666D02*
X52728761Y-67778285D01*
X52776380Y-67921142D01*
X52776380Y-68016380D01*
X52728761Y-68159238D01*
X52633523Y-68254476D01*
X52538285Y-68302095D01*
X52347809Y-68349714D01*
X52204952Y-68349714D01*
X52014476Y-68302095D01*
X51919238Y-68254476D01*
X51824000Y-68159238D01*
X51776380Y-68016380D01*
X51776380Y-67921142D01*
X51824000Y-67778285D01*
X51871619Y-67730666D01*
X51776380Y-66825904D02*
X51776380Y-67302095D01*
X52252571Y-67349714D01*
X52204952Y-67302095D01*
X52157333Y-67206857D01*
X52157333Y-66968761D01*
X52204952Y-66873523D01*
X52252571Y-66825904D01*
X52347809Y-66778285D01*
X52585904Y-66778285D01*
X52681142Y-66825904D01*
X52728761Y-66873523D01*
X52776380Y-66968761D01*
X52776380Y-67206857D01*
X52728761Y-67302095D01*
X52681142Y-67349714D01*
X69175380Y-84756523D02*
X69889666Y-84756523D01*
X70032523Y-84804142D01*
X70127761Y-84899380D01*
X70175380Y-85042238D01*
X70175380Y-85137476D01*
X70175380Y-83756523D02*
X70175380Y-84327952D01*
X70175380Y-84042238D02*
X69175380Y-84042238D01*
X69318238Y-84137476D01*
X69413476Y-84232714D01*
X69461095Y-84327952D01*
X69175380Y-83137476D02*
X69175380Y-83042238D01*
X69223000Y-82947000D01*
X69270619Y-82899380D01*
X69365857Y-82851761D01*
X69556333Y-82804142D01*
X69794428Y-82804142D01*
X69984904Y-82851761D01*
X70080142Y-82899380D01*
X70127761Y-82947000D01*
X70175380Y-83042238D01*
X70175380Y-83137476D01*
X70127761Y-83232714D01*
X70080142Y-83280333D01*
X69984904Y-83327952D01*
X69794428Y-83375571D01*
X69556333Y-83375571D01*
X69365857Y-83327952D01*
X69270619Y-83280333D01*
X69223000Y-83232714D01*
X69175380Y-83137476D01*
X44140380Y-55411666D02*
X43664190Y-55745000D01*
X44140380Y-55983095D02*
X43140380Y-55983095D01*
X43140380Y-55602142D01*
X43188000Y-55506904D01*
X43235619Y-55459285D01*
X43330857Y-55411666D01*
X43473714Y-55411666D01*
X43568952Y-55459285D01*
X43616571Y-55506904D01*
X43664190Y-55602142D01*
X43664190Y-55983095D01*
X43235619Y-55030714D02*
X43188000Y-54983095D01*
X43140380Y-54887857D01*
X43140380Y-54649761D01*
X43188000Y-54554523D01*
X43235619Y-54506904D01*
X43330857Y-54459285D01*
X43426095Y-54459285D01*
X43568952Y-54506904D01*
X44140380Y-55078333D01*
X44140380Y-54459285D01*
X66508380Y-84756523D02*
X67222666Y-84756523D01*
X67365523Y-84804142D01*
X67460761Y-84899380D01*
X67508380Y-85042238D01*
X67508380Y-85137476D01*
X67508380Y-83756523D02*
X67508380Y-84327952D01*
X67508380Y-84042238D02*
X66508380Y-84042238D01*
X66651238Y-84137476D01*
X66746476Y-84232714D01*
X66794095Y-84327952D01*
X67508380Y-82804142D02*
X67508380Y-83375571D01*
X67508380Y-83089857D02*
X66508380Y-83089857D01*
X66651238Y-83185095D01*
X66746476Y-83280333D01*
X66794095Y-83375571D01*
X55987904Y-62045000D02*
X55606952Y-62278333D01*
X55987904Y-62445000D02*
X55187904Y-62445000D01*
X55187904Y-62178333D01*
X55226000Y-62111666D01*
X55264095Y-62078333D01*
X55340285Y-62045000D01*
X55454571Y-62045000D01*
X55530761Y-62078333D01*
X55568857Y-62111666D01*
X55606952Y-62178333D01*
X55606952Y-62445000D01*
X55264095Y-61778333D02*
X55226000Y-61745000D01*
X55187904Y-61678333D01*
X55187904Y-61511666D01*
X55226000Y-61445000D01*
X55264095Y-61411666D01*
X55340285Y-61378333D01*
X55416476Y-61378333D01*
X55530761Y-61411666D01*
X55987904Y-61811666D01*
X55987904Y-61378333D01*
X55187904Y-61145000D02*
X55187904Y-60711666D01*
X55492666Y-60945000D01*
X55492666Y-60845000D01*
X55530761Y-60778333D01*
X55568857Y-60745000D01*
X55645047Y-60711666D01*
X55835523Y-60711666D01*
X55911714Y-60745000D01*
X55949809Y-60778333D01*
X55987904Y-60845000D01*
X55987904Y-61045000D01*
X55949809Y-61111666D01*
X55911714Y-61145000D01*
X71842380Y-36147333D02*
X72556666Y-36147333D01*
X72699523Y-36194952D01*
X72794761Y-36290190D01*
X72842380Y-36433047D01*
X72842380Y-36528285D01*
X72270952Y-35528285D02*
X72223333Y-35623523D01*
X72175714Y-35671142D01*
X72080476Y-35718761D01*
X72032857Y-35718761D01*
X71937619Y-35671142D01*
X71890000Y-35623523D01*
X71842380Y-35528285D01*
X71842380Y-35337809D01*
X71890000Y-35242571D01*
X71937619Y-35194952D01*
X72032857Y-35147333D01*
X72080476Y-35147333D01*
X72175714Y-35194952D01*
X72223333Y-35242571D01*
X72270952Y-35337809D01*
X72270952Y-35528285D01*
X72318571Y-35623523D01*
X72366190Y-35671142D01*
X72461428Y-35718761D01*
X72651904Y-35718761D01*
X72747142Y-35671142D01*
X72794761Y-35623523D01*
X72842380Y-35528285D01*
X72842380Y-35337809D01*
X72794761Y-35242571D01*
X72747142Y-35194952D01*
X72651904Y-35147333D01*
X72461428Y-35147333D01*
X72366190Y-35194952D01*
X72318571Y-35242571D01*
X72270952Y-35337809D01*
X56348380Y-50418904D02*
X57157904Y-50418904D01*
X57253142Y-50371285D01*
X57300761Y-50323666D01*
X57348380Y-50228428D01*
X57348380Y-50037952D01*
X57300761Y-49942714D01*
X57253142Y-49895095D01*
X57157904Y-49847476D01*
X56348380Y-49847476D01*
X56681714Y-48942714D02*
X57348380Y-48942714D01*
X56300761Y-49180809D02*
X57015047Y-49418904D01*
X57015047Y-48799857D01*
X48347380Y-98750333D02*
X49061666Y-98750333D01*
X49204523Y-98797952D01*
X49299761Y-98893190D01*
X49347380Y-99036047D01*
X49347380Y-99131285D01*
X49347380Y-98274142D02*
X48347380Y-98274142D01*
X48347380Y-97893190D01*
X48395000Y-97797952D01*
X48442619Y-97750333D01*
X48537857Y-97702714D01*
X48680714Y-97702714D01*
X48775952Y-97750333D01*
X48823571Y-97797952D01*
X48871190Y-97893190D01*
X48871190Y-98274142D01*
X48347380Y-96845571D02*
X48347380Y-97036047D01*
X48395000Y-97131285D01*
X48442619Y-97178904D01*
X48585476Y-97274142D01*
X48775952Y-97321761D01*
X49156904Y-97321761D01*
X49252142Y-97274142D01*
X49299761Y-97226523D01*
X49347380Y-97131285D01*
X49347380Y-96940809D01*
X49299761Y-96845571D01*
X49252142Y-96797952D01*
X49156904Y-96750333D01*
X48918809Y-96750333D01*
X48823571Y-96797952D01*
X48775952Y-96845571D01*
X48728333Y-96940809D01*
X48728333Y-97131285D01*
X48775952Y-97226523D01*
X48823571Y-97274142D01*
X48918809Y-97321761D01*
X36736863Y-112553923D02*
X37451149Y-112553923D01*
X37594006Y-112592018D01*
X37689244Y-112668209D01*
X37736863Y-112782495D01*
X37736863Y-112858685D01*
X36736863Y-112249161D02*
X36736863Y-111715828D01*
X37736863Y-112058685D01*
X61610142Y-66071666D02*
X62253000Y-66071666D01*
X62381571Y-66109761D01*
X62467285Y-66185952D01*
X62510142Y-66300238D01*
X62510142Y-66376428D01*
X62510142Y-65690714D02*
X61610142Y-65690714D01*
X61610142Y-65385952D01*
X61653000Y-65309761D01*
X61695857Y-65271666D01*
X61781571Y-65233571D01*
X61910142Y-65233571D01*
X61995857Y-65271666D01*
X62038714Y-65309761D01*
X62081571Y-65385952D01*
X62081571Y-65690714D01*
X61610142Y-64509761D02*
X61610142Y-64890714D01*
X62038714Y-64928809D01*
X61995857Y-64890714D01*
X61953000Y-64814523D01*
X61953000Y-64624047D01*
X61995857Y-64547857D01*
X62038714Y-64509761D01*
X62124428Y-64471666D01*
X62338714Y-64471666D01*
X62424428Y-64509761D01*
X62467285Y-64547857D01*
X62510142Y-64624047D01*
X62510142Y-64814523D01*
X62467285Y-64890714D01*
X62424428Y-64928809D01*
X54806352Y-31742045D02*
X54330162Y-32075378D01*
X54806352Y-32313473D02*
X53806352Y-32313473D01*
X53806352Y-31932521D01*
X53853972Y-31837283D01*
X53901591Y-31789664D01*
X53996829Y-31742045D01*
X54139686Y-31742045D01*
X54234924Y-31789664D01*
X54282543Y-31837283D01*
X54330162Y-31932521D01*
X54330162Y-32313473D01*
X54806352Y-30789664D02*
X54806352Y-31361092D01*
X54806352Y-31075378D02*
X53806352Y-31075378D01*
X53949210Y-31170616D01*
X54044448Y-31265854D01*
X54092067Y-31361092D01*
X53901591Y-30408711D02*
X53853972Y-30361092D01*
X53806352Y-30265854D01*
X53806352Y-30027759D01*
X53853972Y-29932521D01*
X53901591Y-29884902D01*
X53996829Y-29837283D01*
X54092067Y-29837283D01*
X54234924Y-29884902D01*
X54806352Y-30456330D01*
X54806352Y-29837283D01*
X77557380Y-36020333D02*
X78271666Y-36020333D01*
X78414523Y-36067952D01*
X78509761Y-36163190D01*
X78557380Y-36306047D01*
X78557380Y-36401285D01*
X77652619Y-35591761D02*
X77605000Y-35544142D01*
X77557380Y-35448904D01*
X77557380Y-35210809D01*
X77605000Y-35115571D01*
X77652619Y-35067952D01*
X77747857Y-35020333D01*
X77843095Y-35020333D01*
X77985952Y-35067952D01*
X78557380Y-35639380D01*
X78557380Y-35020333D01*
X50600583Y-49728380D02*
X50300583Y-49252190D01*
X50086297Y-49728380D02*
X50086297Y-48728380D01*
X50429155Y-48728380D01*
X50514869Y-48776000D01*
X50557726Y-48823619D01*
X50600583Y-48918857D01*
X50600583Y-49061714D01*
X50557726Y-49156952D01*
X50514869Y-49204571D01*
X50429155Y-49252190D01*
X50086297Y-49252190D01*
X51457726Y-49728380D02*
X50943440Y-49728380D01*
X51200583Y-49728380D02*
X51200583Y-48728380D01*
X51114869Y-48871238D01*
X51029155Y-48966476D01*
X50943440Y-49014095D01*
X52272012Y-48728380D02*
X51843440Y-48728380D01*
X51800583Y-49204571D01*
X51843440Y-49156952D01*
X51929155Y-49109333D01*
X52143440Y-49109333D01*
X52229155Y-49156952D01*
X52272012Y-49204571D01*
X52314869Y-49299809D01*
X52314869Y-49537904D01*
X52272012Y-49633142D01*
X52229155Y-49680761D01*
X52143440Y-49728380D01*
X51929155Y-49728380D01*
X51843440Y-49680761D01*
X51800583Y-49633142D01*
X67592761Y-97494852D02*
X66592761Y-97494852D01*
X66592761Y-97256757D01*
X66640381Y-97113899D01*
X66735619Y-97018661D01*
X66830857Y-96971042D01*
X67021333Y-96923423D01*
X67164190Y-96923423D01*
X67354666Y-96971042D01*
X67449904Y-97018661D01*
X67545142Y-97113899D01*
X67592761Y-97256757D01*
X67592761Y-97494852D01*
X67592761Y-95971042D02*
X67592761Y-96542471D01*
X67592761Y-96256757D02*
X66592761Y-96256757D01*
X66735619Y-96351995D01*
X66830857Y-96447233D01*
X66878476Y-96542471D01*
X40727380Y-86693333D02*
X41441666Y-86693333D01*
X41584523Y-86740952D01*
X41679761Y-86836190D01*
X41727380Y-86979047D01*
X41727380Y-87074285D01*
X40727380Y-85788571D02*
X40727380Y-85979047D01*
X40775000Y-86074285D01*
X40822619Y-86121904D01*
X40965476Y-86217142D01*
X41155952Y-86264761D01*
X41536904Y-86264761D01*
X41632142Y-86217142D01*
X41679761Y-86169523D01*
X41727380Y-86074285D01*
X41727380Y-85883809D01*
X41679761Y-85788571D01*
X41632142Y-85740952D01*
X41536904Y-85693333D01*
X41298809Y-85693333D01*
X41203571Y-85740952D01*
X41155952Y-85788571D01*
X41108333Y-85883809D01*
X41108333Y-86074285D01*
X41155952Y-86169523D01*
X41203571Y-86217142D01*
X41298809Y-86264761D01*
X44140380Y-52871666D02*
X43664190Y-53205000D01*
X44140380Y-53443095D02*
X43140380Y-53443095D01*
X43140380Y-53062142D01*
X43188000Y-52966904D01*
X43235619Y-52919285D01*
X43330857Y-52871666D01*
X43473714Y-52871666D01*
X43568952Y-52919285D01*
X43616571Y-52966904D01*
X43664190Y-53062142D01*
X43664190Y-53443095D01*
X44140380Y-51919285D02*
X44140380Y-52490714D01*
X44140380Y-52205000D02*
X43140380Y-52205000D01*
X43283238Y-52300238D01*
X43378476Y-52395476D01*
X43426095Y-52490714D01*
X72080380Y-97956666D02*
X71604190Y-98290000D01*
X72080380Y-98528095D02*
X71080380Y-98528095D01*
X71080380Y-98147142D01*
X71128000Y-98051904D01*
X71175619Y-98004285D01*
X71270857Y-97956666D01*
X71413714Y-97956666D01*
X71508952Y-98004285D01*
X71556571Y-98051904D01*
X71604190Y-98147142D01*
X71604190Y-98528095D01*
X72080380Y-97480476D02*
X72080380Y-97290000D01*
X72032761Y-97194761D01*
X71985142Y-97147142D01*
X71842285Y-97051904D01*
X71651809Y-97004285D01*
X71270857Y-97004285D01*
X71175619Y-97051904D01*
X71128000Y-97099523D01*
X71080380Y-97194761D01*
X71080380Y-97385238D01*
X71128000Y-97480476D01*
X71175619Y-97528095D01*
X71270857Y-97575714D01*
X71508952Y-97575714D01*
X71604190Y-97528095D01*
X71651809Y-97480476D01*
X71699428Y-97385238D01*
X71699428Y-97194761D01*
X71651809Y-97099523D01*
X71604190Y-97051904D01*
X71508952Y-97004285D01*
X58772380Y-102568333D02*
X59486666Y-102568333D01*
X59629523Y-102615952D01*
X59724761Y-102711190D01*
X59772380Y-102854047D01*
X59772380Y-102949285D01*
X58772380Y-101615952D02*
X58772380Y-102092142D01*
X59248571Y-102139761D01*
X59200952Y-102092142D01*
X59153333Y-101996904D01*
X59153333Y-101758809D01*
X59200952Y-101663571D01*
X59248571Y-101615952D01*
X59343809Y-101568333D01*
X59581904Y-101568333D01*
X59677142Y-101615952D01*
X59724761Y-101663571D01*
X59772380Y-101758809D01*
X59772380Y-101996904D01*
X59724761Y-102092142D01*
X59677142Y-102139761D01*
X40489190Y-81121190D02*
X40965380Y-81121190D01*
X39965380Y-81454523D02*
X40489190Y-81121190D01*
X39965380Y-80787857D01*
X40965380Y-79930714D02*
X40965380Y-80502142D01*
X40965380Y-80216428D02*
X39965380Y-80216428D01*
X40108238Y-80311666D01*
X40203476Y-80406904D01*
X40251095Y-80502142D01*
X41679459Y-50065582D02*
X41727078Y-50113201D01*
X41774697Y-50256058D01*
X41774697Y-50351296D01*
X41727078Y-50494153D01*
X41631840Y-50589391D01*
X41536602Y-50637010D01*
X41346126Y-50684629D01*
X41203269Y-50684629D01*
X41012793Y-50637010D01*
X40917555Y-50589391D01*
X40822317Y-50494153D01*
X40774697Y-50351296D01*
X40774697Y-50256058D01*
X40822317Y-50113201D01*
X40869936Y-50065582D01*
X40869936Y-49684629D02*
X40822317Y-49637010D01*
X40774697Y-49541772D01*
X40774697Y-49303677D01*
X40822317Y-49208439D01*
X40869936Y-49160820D01*
X40965174Y-49113201D01*
X41060412Y-49113201D01*
X41203269Y-49160820D01*
X41774697Y-49732248D01*
X41774697Y-49113201D01*
X40774697Y-48494153D02*
X40774697Y-48398915D01*
X40822317Y-48303677D01*
X40869936Y-48256058D01*
X40965174Y-48208439D01*
X41155650Y-48160820D01*
X41393745Y-48160820D01*
X41584221Y-48208439D01*
X41679459Y-48256058D01*
X41727078Y-48303677D01*
X41774697Y-48398915D01*
X41774697Y-48494153D01*
X41727078Y-48589391D01*
X41679459Y-48637010D01*
X41584221Y-48684629D01*
X41393745Y-48732248D01*
X41155650Y-48732248D01*
X40965174Y-48684629D01*
X40869936Y-48637010D01*
X40822317Y-48589391D01*
X40774697Y-48494153D01*
X58816142Y-66071666D02*
X59459000Y-66071666D01*
X59587571Y-66109761D01*
X59673285Y-66185952D01*
X59716142Y-66300238D01*
X59716142Y-66376428D01*
X59716142Y-65690714D02*
X58816142Y-65690714D01*
X58816142Y-65385952D01*
X58859000Y-65309761D01*
X58901857Y-65271666D01*
X58987571Y-65233571D01*
X59116142Y-65233571D01*
X59201857Y-65271666D01*
X59244714Y-65309761D01*
X59287571Y-65385952D01*
X59287571Y-65690714D01*
X59116142Y-64547857D02*
X59716142Y-64547857D01*
X58773285Y-64738333D02*
X59416142Y-64928809D01*
X59416142Y-64433571D01*
X47347142Y-94781666D02*
X47394761Y-94829285D01*
X47442380Y-94972142D01*
X47442380Y-95067380D01*
X47394761Y-95210238D01*
X47299523Y-95305476D01*
X47204285Y-95353095D01*
X47013809Y-95400714D01*
X46870952Y-95400714D01*
X46680476Y-95353095D01*
X46585238Y-95305476D01*
X46490000Y-95210238D01*
X46442380Y-95067380D01*
X46442380Y-94972142D01*
X46490000Y-94829285D01*
X46537619Y-94781666D01*
X46870952Y-94210238D02*
X46823333Y-94305476D01*
X46775714Y-94353095D01*
X46680476Y-94400714D01*
X46632857Y-94400714D01*
X46537619Y-94353095D01*
X46490000Y-94305476D01*
X46442380Y-94210238D01*
X46442380Y-94019761D01*
X46490000Y-93924523D01*
X46537619Y-93876904D01*
X46632857Y-93829285D01*
X46680476Y-93829285D01*
X46775714Y-93876904D01*
X46823333Y-93924523D01*
X46870952Y-94019761D01*
X46870952Y-94210238D01*
X46918571Y-94305476D01*
X46966190Y-94353095D01*
X47061428Y-94400714D01*
X47251904Y-94400714D01*
X47347142Y-94353095D01*
X47394761Y-94305476D01*
X47442380Y-94210238D01*
X47442380Y-94019761D01*
X47394761Y-93924523D01*
X47347142Y-93876904D01*
X47251904Y-93829285D01*
X47061428Y-93829285D01*
X46966190Y-93876904D01*
X46918571Y-93924523D01*
X46870952Y-94019761D01*
X60900428Y-63633285D02*
X60943285Y-63671380D01*
X60986142Y-63785666D01*
X60986142Y-63861857D01*
X60943285Y-63976142D01*
X60857571Y-64052333D01*
X60771857Y-64090428D01*
X60600428Y-64128523D01*
X60471857Y-64128523D01*
X60300428Y-64090428D01*
X60214714Y-64052333D01*
X60129000Y-63976142D01*
X60086142Y-63861857D01*
X60086142Y-63785666D01*
X60129000Y-63671380D01*
X60171857Y-63633285D01*
X60986142Y-62871380D02*
X60986142Y-63328523D01*
X60986142Y-63099952D02*
X60086142Y-63099952D01*
X60214714Y-63176142D01*
X60300428Y-63252333D01*
X60343285Y-63328523D01*
X60086142Y-62376142D02*
X60086142Y-62299952D01*
X60129000Y-62223761D01*
X60171857Y-62185666D01*
X60257571Y-62147571D01*
X60429000Y-62109476D01*
X60643285Y-62109476D01*
X60814714Y-62147571D01*
X60900428Y-62185666D01*
X60943285Y-62223761D01*
X60986142Y-62299952D01*
X60986142Y-62376142D01*
X60943285Y-62452333D01*
X60900428Y-62490428D01*
X60814714Y-62528523D01*
X60643285Y-62566619D01*
X60429000Y-62566619D01*
X60257571Y-62528523D01*
X60171857Y-62490428D01*
X60129000Y-62452333D01*
X60086142Y-62376142D01*
X68302142Y-91987666D02*
X68349761Y-92035285D01*
X68397380Y-92178142D01*
X68397380Y-92273380D01*
X68349761Y-92416238D01*
X68254523Y-92511476D01*
X68159285Y-92559095D01*
X67968809Y-92606714D01*
X67825952Y-92606714D01*
X67635476Y-92559095D01*
X67540238Y-92511476D01*
X67445000Y-92416238D01*
X67397380Y-92273380D01*
X67397380Y-92178142D01*
X67445000Y-92035285D01*
X67492619Y-91987666D01*
X67397380Y-91130523D02*
X67397380Y-91321000D01*
X67445000Y-91416238D01*
X67492619Y-91463857D01*
X67635476Y-91559095D01*
X67825952Y-91606714D01*
X68206904Y-91606714D01*
X68302142Y-91559095D01*
X68349761Y-91511476D01*
X68397380Y-91416238D01*
X68397380Y-91225761D01*
X68349761Y-91130523D01*
X68302142Y-91082904D01*
X68206904Y-91035285D01*
X67968809Y-91035285D01*
X67873571Y-91082904D01*
X67825952Y-91130523D01*
X67778333Y-91225761D01*
X67778333Y-91416238D01*
X67825952Y-91511476D01*
X67873571Y-91559095D01*
X67968809Y-91606714D01*
X62063380Y-80965904D02*
X62872904Y-80965904D01*
X62968142Y-80918285D01*
X63015761Y-80870666D01*
X63063380Y-80775428D01*
X63063380Y-80584952D01*
X63015761Y-80489714D01*
X62968142Y-80442095D01*
X62872904Y-80394476D01*
X62063380Y-80394476D01*
X62158619Y-79965904D02*
X62111000Y-79918285D01*
X62063380Y-79823047D01*
X62063380Y-79584952D01*
X62111000Y-79489714D01*
X62158619Y-79442095D01*
X62253857Y-79394476D01*
X62349095Y-79394476D01*
X62491952Y-79442095D01*
X63063380Y-80013523D01*
X63063380Y-79394476D01*
X61825190Y-88487190D02*
X62301380Y-88487190D01*
X61301380Y-88820523D02*
X61825190Y-88487190D01*
X61301380Y-88153857D01*
X61301380Y-87915761D02*
X61301380Y-87296714D01*
X61682333Y-87630047D01*
X61682333Y-87487190D01*
X61729952Y-87391952D01*
X61777571Y-87344333D01*
X61872809Y-87296714D01*
X62110904Y-87296714D01*
X62206142Y-87344333D01*
X62253761Y-87391952D01*
X62301380Y-87487190D01*
X62301380Y-87772904D01*
X62253761Y-87868142D01*
X62206142Y-87915761D01*
X40179807Y-56316666D02*
X40227426Y-56364285D01*
X40275045Y-56507142D01*
X40275045Y-56602380D01*
X40227426Y-56745238D01*
X40132188Y-56840476D01*
X40036950Y-56888095D01*
X39846474Y-56935714D01*
X39703617Y-56935714D01*
X39513141Y-56888095D01*
X39417903Y-56840476D01*
X39322665Y-56745238D01*
X39275045Y-56602380D01*
X39275045Y-56507142D01*
X39322665Y-56364285D01*
X39370284Y-56316666D01*
X39370284Y-55935714D02*
X39322665Y-55888095D01*
X39275045Y-55792857D01*
X39275045Y-55554761D01*
X39322665Y-55459523D01*
X39370284Y-55411904D01*
X39465522Y-55364285D01*
X39560760Y-55364285D01*
X39703617Y-55411904D01*
X40275045Y-55983333D01*
X40275045Y-55364285D01*
X47474190Y-83788190D02*
X47950380Y-83788190D01*
X46950380Y-84121523D02*
X47474190Y-83788190D01*
X46950380Y-83454857D01*
X47045619Y-83169142D02*
X46998000Y-83121523D01*
X46950380Y-83026285D01*
X46950380Y-82788190D01*
X46998000Y-82692952D01*
X47045619Y-82645333D01*
X47140857Y-82597714D01*
X47236095Y-82597714D01*
X47378952Y-82645333D01*
X47950380Y-83216761D01*
X47950380Y-82597714D01*
X63186428Y-62871333D02*
X63229285Y-62909428D01*
X63272142Y-63023714D01*
X63272142Y-63099904D01*
X63229285Y-63214190D01*
X63143571Y-63290380D01*
X63057857Y-63328476D01*
X62886428Y-63366571D01*
X62757857Y-63366571D01*
X62586428Y-63328476D01*
X62500714Y-63290380D01*
X62415000Y-63214190D01*
X62372142Y-63099904D01*
X62372142Y-63023714D01*
X62415000Y-62909428D01*
X62457857Y-62871333D01*
X63272142Y-62490380D02*
X63272142Y-62338000D01*
X63229285Y-62261809D01*
X63186428Y-62223714D01*
X63057857Y-62147523D01*
X62886428Y-62109428D01*
X62543571Y-62109428D01*
X62457857Y-62147523D01*
X62415000Y-62185619D01*
X62372142Y-62261809D01*
X62372142Y-62414190D01*
X62415000Y-62490380D01*
X62457857Y-62528476D01*
X62543571Y-62566571D01*
X62757857Y-62566571D01*
X62843571Y-62528476D01*
X62886428Y-62490380D01*
X62929285Y-62414190D01*
X62929285Y-62261809D01*
X62886428Y-62185619D01*
X62843571Y-62147523D01*
X62757857Y-62109428D01*
X69632142Y-31936666D02*
X69679761Y-31984285D01*
X69727380Y-32127142D01*
X69727380Y-32222380D01*
X69679761Y-32365238D01*
X69584523Y-32460476D01*
X69489285Y-32508095D01*
X69298809Y-32555714D01*
X69155952Y-32555714D01*
X68965476Y-32508095D01*
X68870238Y-32460476D01*
X68775000Y-32365238D01*
X68727380Y-32222380D01*
X68727380Y-32127142D01*
X68775000Y-31984285D01*
X68822619Y-31936666D01*
X69727380Y-30984285D02*
X69727380Y-31555714D01*
X69727380Y-31270000D02*
X68727380Y-31270000D01*
X68870238Y-31365238D01*
X68965476Y-31460476D01*
X69013095Y-31555714D01*
X59142380Y-97027904D02*
X59951904Y-97027904D01*
X60047142Y-96980285D01*
X60094761Y-96932666D01*
X60142380Y-96837428D01*
X60142380Y-96646952D01*
X60094761Y-96551714D01*
X60047142Y-96504095D01*
X59951904Y-96456476D01*
X59142380Y-96456476D01*
X59142380Y-96075523D02*
X59142380Y-95456476D01*
X59523333Y-95789809D01*
X59523333Y-95646952D01*
X59570952Y-95551714D01*
X59618571Y-95504095D01*
X59713809Y-95456476D01*
X59951904Y-95456476D01*
X60047142Y-95504095D01*
X60094761Y-95551714D01*
X60142380Y-95646952D01*
X60142380Y-95932666D01*
X60094761Y-96027904D01*
X60047142Y-96075523D01*
X50697092Y-47691168D02*
X50654235Y-47738787D01*
X50525664Y-47786406D01*
X50439949Y-47786406D01*
X50311378Y-47738787D01*
X50225664Y-47643549D01*
X50182806Y-47548311D01*
X50139949Y-47357835D01*
X50139949Y-47214978D01*
X50182806Y-47024502D01*
X50225664Y-46929264D01*
X50311378Y-46834026D01*
X50439949Y-46786406D01*
X50525664Y-46786406D01*
X50654235Y-46834026D01*
X50697092Y-46881645D01*
X51554235Y-47786406D02*
X51039949Y-47786406D01*
X51297092Y-47786406D02*
X51297092Y-46786406D01*
X51211378Y-46929264D01*
X51125664Y-47024502D01*
X51039949Y-47072121D01*
X51854235Y-46786406D02*
X52411378Y-46786406D01*
X52111378Y-47167359D01*
X52239949Y-47167359D01*
X52325664Y-47214978D01*
X52368521Y-47262597D01*
X52411378Y-47357835D01*
X52411378Y-47595930D01*
X52368521Y-47691168D01*
X52325664Y-47738787D01*
X52239949Y-47786406D01*
X51982806Y-47786406D01*
X51897092Y-47738787D01*
X51854235Y-47691168D01*
X47325642Y-92495666D02*
X47373261Y-92543285D01*
X47420880Y-92686142D01*
X47420880Y-92781380D01*
X47373261Y-92924238D01*
X47278023Y-93019476D01*
X47182785Y-93067095D01*
X46992309Y-93114714D01*
X46849452Y-93114714D01*
X46658976Y-93067095D01*
X46563738Y-93019476D01*
X46468500Y-92924238D01*
X46420880Y-92781380D01*
X46420880Y-92686142D01*
X46468500Y-92543285D01*
X46516119Y-92495666D01*
X46420880Y-92162333D02*
X46420880Y-91495666D01*
X47420880Y-91924238D01*
X65222380Y-66047857D02*
X64746190Y-66381190D01*
X65222380Y-66619285D02*
X64222380Y-66619285D01*
X64222380Y-66238333D01*
X64270000Y-66143095D01*
X64317619Y-66095476D01*
X64412857Y-66047857D01*
X64555714Y-66047857D01*
X64650952Y-66095476D01*
X64698571Y-66143095D01*
X64746190Y-66238333D01*
X64746190Y-66619285D01*
X65222380Y-65095476D02*
X65222380Y-65666904D01*
X65222380Y-65381190D02*
X64222380Y-65381190D01*
X64365238Y-65476428D01*
X64460476Y-65571666D01*
X64508095Y-65666904D01*
X64222380Y-64476428D02*
X64222380Y-64381190D01*
X64270000Y-64285952D01*
X64317619Y-64238333D01*
X64412857Y-64190714D01*
X64603333Y-64143095D01*
X64841428Y-64143095D01*
X65031904Y-64190714D01*
X65127142Y-64238333D01*
X65174761Y-64285952D01*
X65222380Y-64381190D01*
X65222380Y-64476428D01*
X65174761Y-64571666D01*
X65127142Y-64619285D01*
X65031904Y-64666904D01*
X64841428Y-64714523D01*
X64603333Y-64714523D01*
X64412857Y-64666904D01*
X64317619Y-64619285D01*
X64270000Y-64571666D01*
X64222380Y-64476428D01*
X76287380Y-90376333D02*
X77001666Y-90376333D01*
X77144523Y-90423952D01*
X77239761Y-90519190D01*
X77287380Y-90662047D01*
X77287380Y-90757285D01*
X76287380Y-89995380D02*
X76287380Y-89376333D01*
X76668333Y-89709666D01*
X76668333Y-89566809D01*
X76715952Y-89471571D01*
X76763571Y-89423952D01*
X76858809Y-89376333D01*
X77096904Y-89376333D01*
X77192142Y-89423952D01*
X77239761Y-89471571D01*
X77287380Y-89566809D01*
X77287380Y-89852523D01*
X77239761Y-89947761D01*
X77192142Y-89995380D01*
X44140380Y-60491666D02*
X43664190Y-60825000D01*
X44140380Y-61063095D02*
X43140380Y-61063095D01*
X43140380Y-60682142D01*
X43188000Y-60586904D01*
X43235619Y-60539285D01*
X43330857Y-60491666D01*
X43473714Y-60491666D01*
X43568952Y-60539285D01*
X43616571Y-60586904D01*
X43664190Y-60682142D01*
X43664190Y-61063095D01*
X43473714Y-59634523D02*
X44140380Y-59634523D01*
X43092761Y-59872619D02*
X43807047Y-60110714D01*
X43807047Y-59491666D01*
X40857380Y-102568333D02*
X41571666Y-102568333D01*
X41714523Y-102615952D01*
X41809761Y-102711190D01*
X41857380Y-102854047D01*
X41857380Y-102949285D01*
X41190714Y-101663571D02*
X41857380Y-101663571D01*
X40809761Y-101901666D02*
X41524047Y-102139761D01*
X41524047Y-101520714D01*
X56745142Y-67730666D02*
X56792761Y-67778285D01*
X56840380Y-67921142D01*
X56840380Y-68016380D01*
X56792761Y-68159238D01*
X56697523Y-68254476D01*
X56602285Y-68302095D01*
X56411809Y-68349714D01*
X56268952Y-68349714D01*
X56078476Y-68302095D01*
X55983238Y-68254476D01*
X55888000Y-68159238D01*
X55840380Y-68016380D01*
X55840380Y-67921142D01*
X55888000Y-67778285D01*
X55935619Y-67730666D01*
X55840380Y-67397333D02*
X55840380Y-66778285D01*
X56221333Y-67111619D01*
X56221333Y-66968761D01*
X56268952Y-66873523D01*
X56316571Y-66825904D01*
X56411809Y-66778285D01*
X56649904Y-66778285D01*
X56745142Y-66825904D01*
X56792761Y-66873523D01*
X56840380Y-66968761D01*
X56840380Y-67254476D01*
X56792761Y-67349714D01*
X56745142Y-67397333D01*
X55987904Y-65982000D02*
X55606952Y-66215333D01*
X55987904Y-66382000D02*
X55187904Y-66382000D01*
X55187904Y-66115333D01*
X55226000Y-66048666D01*
X55264095Y-66015333D01*
X55340285Y-65982000D01*
X55454571Y-65982000D01*
X55530761Y-66015333D01*
X55568857Y-66048666D01*
X55606952Y-66115333D01*
X55606952Y-66382000D01*
X55264095Y-65715333D02*
X55226000Y-65682000D01*
X55187904Y-65615333D01*
X55187904Y-65448666D01*
X55226000Y-65382000D01*
X55264095Y-65348666D01*
X55340285Y-65315333D01*
X55416476Y-65315333D01*
X55530761Y-65348666D01*
X55987904Y-65748666D01*
X55987904Y-65315333D01*
X55187904Y-64882000D02*
X55187904Y-64815333D01*
X55226000Y-64748666D01*
X55264095Y-64715333D01*
X55340285Y-64682000D01*
X55492666Y-64648666D01*
X55683142Y-64648666D01*
X55835523Y-64682000D01*
X55911714Y-64715333D01*
X55949809Y-64748666D01*
X55987904Y-64815333D01*
X55987904Y-64882000D01*
X55949809Y-64948666D01*
X55911714Y-64982000D01*
X55835523Y-65015333D01*
X55683142Y-65048666D01*
X55492666Y-65048666D01*
X55340285Y-65015333D01*
X55264095Y-64982000D01*
X55226000Y-64948666D01*
X55187904Y-64882000D01*
X50724391Y-43194234D02*
X50681534Y-43241853D01*
X50552963Y-43289472D01*
X50467248Y-43289472D01*
X50338677Y-43241853D01*
X50252963Y-43146615D01*
X50210105Y-43051377D01*
X50167248Y-42860901D01*
X50167248Y-42718044D01*
X50210105Y-42527568D01*
X50252963Y-42432330D01*
X50338677Y-42337092D01*
X50467248Y-42289472D01*
X50552963Y-42289472D01*
X50681534Y-42337092D01*
X50724391Y-42384711D01*
X51581534Y-43289472D02*
X51067248Y-43289472D01*
X51324391Y-43289472D02*
X51324391Y-42289472D01*
X51238677Y-42432330D01*
X51152963Y-42527568D01*
X51067248Y-42575187D01*
X52352963Y-42289472D02*
X52181534Y-42289472D01*
X52095820Y-42337092D01*
X52052963Y-42384711D01*
X51967248Y-42527568D01*
X51924391Y-42718044D01*
X51924391Y-43098996D01*
X51967248Y-43194234D01*
X52010105Y-43241853D01*
X52095820Y-43289472D01*
X52267248Y-43289472D01*
X52352963Y-43241853D01*
X52395820Y-43194234D01*
X52438677Y-43098996D01*
X52438677Y-42860901D01*
X52395820Y-42765663D01*
X52352963Y-42718044D01*
X52267248Y-42670425D01*
X52095820Y-42670425D01*
X52010105Y-42718044D01*
X51967248Y-42765663D01*
X51924391Y-42860901D01*
X58741428Y-63506285D02*
X58784285Y-63544380D01*
X58827142Y-63658666D01*
X58827142Y-63734857D01*
X58784285Y-63849142D01*
X58698571Y-63925333D01*
X58612857Y-63963428D01*
X58441428Y-64001523D01*
X58312857Y-64001523D01*
X58141428Y-63963428D01*
X58055714Y-63925333D01*
X57970000Y-63849142D01*
X57927142Y-63734857D01*
X57927142Y-63658666D01*
X57970000Y-63544380D01*
X58012857Y-63506285D01*
X58827142Y-62744380D02*
X58827142Y-63201523D01*
X58827142Y-62972952D02*
X57927142Y-62972952D01*
X58055714Y-63049142D01*
X58141428Y-63125333D01*
X58184285Y-63201523D01*
X58827142Y-61982476D02*
X58827142Y-62439619D01*
X58827142Y-62211047D02*
X57927142Y-62211047D01*
X58055714Y-62287238D01*
X58141428Y-62363428D01*
X58184285Y-62439619D01*
X69175380Y-36147333D02*
X69889666Y-36147333D01*
X70032523Y-36194952D01*
X70127761Y-36290190D01*
X70175380Y-36433047D01*
X70175380Y-36528285D01*
X70175380Y-35623523D02*
X70175380Y-35433047D01*
X70127761Y-35337809D01*
X70080142Y-35290190D01*
X69937285Y-35194952D01*
X69746809Y-35147333D01*
X69365857Y-35147333D01*
X69270619Y-35194952D01*
X69223000Y-35242571D01*
X69175380Y-35337809D01*
X69175380Y-35528285D01*
X69223000Y-35623523D01*
X69270619Y-35671142D01*
X69365857Y-35718761D01*
X69603952Y-35718761D01*
X69699190Y-35671142D01*
X69746809Y-35623523D01*
X69794428Y-35528285D01*
X69794428Y-35337809D01*
X69746809Y-35242571D01*
X69699190Y-35194952D01*
X69603952Y-35147333D01*
X50707603Y-45188142D02*
X50664746Y-45235761D01*
X50536175Y-45283380D01*
X50450460Y-45283380D01*
X50321889Y-45235761D01*
X50236175Y-45140523D01*
X50193317Y-45045285D01*
X50150460Y-44854809D01*
X50150460Y-44711952D01*
X50193317Y-44521476D01*
X50236175Y-44426238D01*
X50321889Y-44331000D01*
X50450460Y-44283380D01*
X50536175Y-44283380D01*
X50664746Y-44331000D01*
X50707603Y-44378619D01*
X51564746Y-45283380D02*
X51050460Y-45283380D01*
X51307603Y-45283380D02*
X51307603Y-44283380D01*
X51221889Y-44426238D01*
X51136175Y-44521476D01*
X51050460Y-44569095D01*
X52336175Y-44616714D02*
X52336175Y-45283380D01*
X52121889Y-44235761D02*
X51907603Y-44950047D01*
X52464746Y-44950047D01*
X54713142Y-67730666D02*
X54760761Y-67778285D01*
X54808380Y-67921142D01*
X54808380Y-68016380D01*
X54760761Y-68159238D01*
X54665523Y-68254476D01*
X54570285Y-68302095D01*
X54379809Y-68349714D01*
X54236952Y-68349714D01*
X54046476Y-68302095D01*
X53951238Y-68254476D01*
X53856000Y-68159238D01*
X53808380Y-68016380D01*
X53808380Y-67921142D01*
X53856000Y-67778285D01*
X53903619Y-67730666D01*
X54141714Y-66873523D02*
X54808380Y-66873523D01*
X53760761Y-67111619D02*
X54475047Y-67349714D01*
X54475047Y-66730666D01*
X54820839Y-35642856D02*
X54344649Y-35976189D01*
X54820839Y-36214284D02*
X53820839Y-36214284D01*
X53820839Y-35833332D01*
X53868459Y-35738094D01*
X53916078Y-35690475D01*
X54011316Y-35642856D01*
X54154173Y-35642856D01*
X54249411Y-35690475D01*
X54297030Y-35738094D01*
X54344649Y-35833332D01*
X54344649Y-36214284D01*
X54820839Y-34690475D02*
X54820839Y-35261903D01*
X54820839Y-34976189D02*
X53820839Y-34976189D01*
X53963697Y-35071427D01*
X54058935Y-35166665D01*
X54106554Y-35261903D01*
X54820839Y-33738094D02*
X54820839Y-34309522D01*
X54820839Y-34023808D02*
X53820839Y-34023808D01*
X53963697Y-34119046D01*
X54058935Y-34214284D01*
X54106554Y-34309522D01*
X44140380Y-57951666D02*
X43664190Y-58285000D01*
X44140380Y-58523095D02*
X43140380Y-58523095D01*
X43140380Y-58142142D01*
X43188000Y-58046904D01*
X43235619Y-57999285D01*
X43330857Y-57951666D01*
X43473714Y-57951666D01*
X43568952Y-57999285D01*
X43616571Y-58046904D01*
X43664190Y-58142142D01*
X43664190Y-58523095D01*
X43140380Y-57618333D02*
X43140380Y-56999285D01*
X43521333Y-57332619D01*
X43521333Y-57189761D01*
X43568952Y-57094523D01*
X43616571Y-57046904D01*
X43711809Y-56999285D01*
X43949904Y-56999285D01*
X44045142Y-57046904D01*
X44092761Y-57094523D01*
X44140380Y-57189761D01*
X44140380Y-57475476D01*
X44092761Y-57570714D01*
X44045142Y-57618333D01*
X44140380Y-65571666D02*
X43664190Y-65905000D01*
X44140380Y-66143095D02*
X43140380Y-66143095D01*
X43140380Y-65762142D01*
X43188000Y-65666904D01*
X43235619Y-65619285D01*
X43330857Y-65571666D01*
X43473714Y-65571666D01*
X43568952Y-65619285D01*
X43616571Y-65666904D01*
X43664190Y-65762142D01*
X43664190Y-66143095D01*
X43140380Y-64666904D02*
X43140380Y-65143095D01*
X43616571Y-65190714D01*
X43568952Y-65143095D01*
X43521333Y-65047857D01*
X43521333Y-64809761D01*
X43568952Y-64714523D01*
X43616571Y-64666904D01*
X43711809Y-64619285D01*
X43949904Y-64619285D01*
X44045142Y-64666904D01*
X44092761Y-64714523D01*
X44140380Y-64809761D01*
X44140380Y-65047857D01*
X44092761Y-65143095D01*
X44045142Y-65190714D01*
X74017142Y-108164190D02*
X74064761Y-108211809D01*
X74112380Y-108354666D01*
X74112380Y-108449904D01*
X74064761Y-108592761D01*
X73969523Y-108688000D01*
X73874285Y-108735619D01*
X73683809Y-108783238D01*
X73540952Y-108783238D01*
X73350476Y-108735619D01*
X73255238Y-108688000D01*
X73160000Y-108592761D01*
X73112380Y-108449904D01*
X73112380Y-108354666D01*
X73160000Y-108211809D01*
X73207619Y-108164190D01*
X74207619Y-107973714D02*
X74207619Y-107211809D01*
X73112380Y-106497523D02*
X73112380Y-106973714D01*
X73588571Y-107021333D01*
X73540952Y-106973714D01*
X73493333Y-106878476D01*
X73493333Y-106640380D01*
X73540952Y-106545142D01*
X73588571Y-106497523D01*
X73683809Y-106449904D01*
X73921904Y-106449904D01*
X74017142Y-106497523D01*
X74064761Y-106545142D01*
X74112380Y-106640380D01*
X74112380Y-106878476D01*
X74064761Y-106973714D01*
X74017142Y-107021333D01*
X73112380Y-106164190D02*
X74112380Y-105830857D01*
X73112380Y-105497523D01*
X62063380Y-77088904D02*
X62872904Y-77088904D01*
X62968142Y-77041285D01*
X63015761Y-76993666D01*
X63063380Y-76898428D01*
X63063380Y-76707952D01*
X63015761Y-76612714D01*
X62968142Y-76565095D01*
X62872904Y-76517476D01*
X62063380Y-76517476D01*
X63063380Y-75517476D02*
X63063380Y-76088904D01*
X63063380Y-75803190D02*
X62063380Y-75803190D01*
X62206238Y-75898428D01*
X62301476Y-75993666D01*
X62349095Y-76088904D01*
X44140380Y-73191666D02*
X43664190Y-73525000D01*
X44140380Y-73763095D02*
X43140380Y-73763095D01*
X43140380Y-73382142D01*
X43188000Y-73286904D01*
X43235619Y-73239285D01*
X43330857Y-73191666D01*
X43473714Y-73191666D01*
X43568952Y-73239285D01*
X43616571Y-73286904D01*
X43664190Y-73382142D01*
X43664190Y-73763095D01*
X43568952Y-72620238D02*
X43521333Y-72715476D01*
X43473714Y-72763095D01*
X43378476Y-72810714D01*
X43330857Y-72810714D01*
X43235619Y-72763095D01*
X43188000Y-72715476D01*
X43140380Y-72620238D01*
X43140380Y-72429761D01*
X43188000Y-72334523D01*
X43235619Y-72286904D01*
X43330857Y-72239285D01*
X43378476Y-72239285D01*
X43473714Y-72286904D01*
X43521333Y-72334523D01*
X43568952Y-72429761D01*
X43568952Y-72620238D01*
X43616571Y-72715476D01*
X43664190Y-72763095D01*
X43759428Y-72810714D01*
X43949904Y-72810714D01*
X44045142Y-72763095D01*
X44092761Y-72715476D01*
X44140380Y-72620238D01*
X44140380Y-72429761D01*
X44092761Y-72334523D01*
X44045142Y-72286904D01*
X43949904Y-72239285D01*
X43759428Y-72239285D01*
X43664190Y-72286904D01*
X43616571Y-72334523D01*
X43568952Y-72429761D01*
X50903190Y-90138190D02*
X51379380Y-90138190D01*
X50379380Y-90471523D02*
X50903190Y-90138190D01*
X50379380Y-89804857D01*
X50712714Y-89042952D02*
X51379380Y-89042952D01*
X50331761Y-89281047D02*
X51046047Y-89519142D01*
X51046047Y-88900095D01*
D10*
X53440064Y-59082000D02*
X52985936Y-59082000D01*
X53440064Y-60552000D02*
X52985936Y-60552000D01*
X60351936Y-91086000D02*
X60806064Y-91086000D01*
X60351936Y-92556000D02*
X60806064Y-92556000D01*
X61991000Y-55497000D02*
X61991000Y-49097000D01*
X67041000Y-55497000D02*
X67041000Y-49097000D01*
X67041000Y-49097000D02*
G75*
G03*
X61991000Y-49097000I-2525000J0D01*
G01*
X61991000Y-55497000D02*
G75*
G03*
X67041000Y-55497000I2525000J0D01*
G01*
X53440064Y-64362000D02*
X52985936Y-64362000D01*
X53440064Y-62892000D02*
X52985936Y-62892000D01*
X47397936Y-67210000D02*
X47852064Y-67210000D01*
X47397936Y-68680000D02*
X47852064Y-68680000D01*
X47397936Y-71220000D02*
X47852064Y-71220000D01*
X47397936Y-69750000D02*
X47852064Y-69750000D01*
X51589000Y-70096748D02*
X51589000Y-70619252D01*
X53059000Y-70096748D02*
X53059000Y-70619252D01*
X68393000Y-82550000D02*
X68393000Y-77410000D01*
X71053000Y-77410000D02*
X68393000Y-77410000D01*
X71053000Y-82550000D02*
X68393000Y-82550000D01*
X71053000Y-82550000D02*
X71053000Y-77410000D01*
X47397936Y-54510000D02*
X47852064Y-54510000D01*
X47397936Y-55980000D02*
X47852064Y-55980000D01*
X68388000Y-77470000D02*
X71058000Y-77470000D01*
X65726000Y-82550000D02*
X65726000Y-74930000D01*
X68386000Y-82550000D02*
X68386000Y-77470000D01*
X71056000Y-77470000D02*
X71056000Y-74930000D01*
X68386000Y-82550000D02*
X65726000Y-82550000D01*
X65726000Y-74930000D02*
X71056000Y-74930000D01*
X53440064Y-60987000D02*
X52985936Y-60987000D01*
X53440064Y-62457000D02*
X52985936Y-62457000D01*
X73720000Y-85090000D02*
X71060000Y-85090000D01*
X73720000Y-36770000D02*
X71060000Y-36770000D01*
X73720000Y-87690000D02*
X72390000Y-87690000D01*
X73720000Y-86360000D02*
X73720000Y-87690000D01*
X73720000Y-85090000D02*
X73720000Y-36770000D01*
X71060000Y-85090000D02*
X71060000Y-36770000D01*
X57023000Y-42047000D02*
X59673000Y-42047000D01*
X57023000Y-57267000D02*
X61473000Y-57267000D01*
X57023000Y-57267000D02*
X54373000Y-57267000D01*
X57023000Y-42047000D02*
X54373000Y-42047000D01*
X44458980Y-30837012D02*
X44458980Y-32387012D01*
X44758980Y-30837012D02*
X44458980Y-30837012D01*
X44758980Y-28037012D02*
X44758980Y-30837012D01*
X50308980Y-34087012D02*
X49508980Y-34087012D01*
X49508980Y-34087012D02*
X49908980Y-33637012D01*
X52458980Y-28037012D02*
X52458980Y-30837012D01*
X52758980Y-30837012D02*
X52758980Y-32387012D01*
X49908980Y-33637012D02*
X50308980Y-34087012D01*
X52758980Y-30837012D02*
X52458980Y-30837012D01*
X52262000Y-98917000D02*
X50862000Y-98917000D01*
X50162000Y-98217000D02*
X50162000Y-97617000D01*
X52962000Y-97617000D02*
X52962000Y-98217000D01*
X50862000Y-96917000D02*
X52262000Y-96917000D01*
X50862000Y-96917000D02*
G75*
G03*
X50162000Y-97617000I0J-700000D01*
G01*
X52262000Y-98917000D02*
G75*
G03*
X52962000Y-98217000I1J699999D01*
G01*
X52962000Y-97617000D02*
G75*
G03*
X52262000Y-96917000I-699999J1D01*
G01*
X50162000Y-98217000D02*
G75*
G03*
X50862000Y-98917000I700000J0D01*
G01*
X35954483Y-103778257D02*
X38614483Y-103778257D01*
X35954483Y-102508257D02*
X35954483Y-101178257D01*
X35954483Y-111458257D02*
X38614483Y-111458257D01*
X38614483Y-103778257D02*
X38614483Y-111458257D01*
X35954483Y-101178257D02*
X37284483Y-101178257D01*
X35954483Y-103778257D02*
X35954483Y-111458257D01*
X63306000Y-66615000D02*
X60646000Y-66615000D01*
X63306000Y-69215000D02*
X63306000Y-66615000D01*
X63306000Y-71815000D02*
X61976000Y-71815000D01*
X63306000Y-69215000D02*
X60646000Y-69215000D01*
X60646000Y-69215000D02*
X60646000Y-66615000D01*
X63306000Y-70485000D02*
X63306000Y-71815000D01*
X55135000Y-31311570D02*
X55135000Y-30857442D01*
X56605000Y-31311570D02*
X56605000Y-30857442D01*
X78105000Y-85085000D02*
X78105000Y-87685000D01*
X78105000Y-87685000D02*
X75505000Y-87685000D01*
X80705000Y-85085000D02*
X78105000Y-85085000D01*
X80705000Y-36765000D02*
X75505000Y-36765000D01*
X75505000Y-87685000D02*
X75505000Y-36765000D01*
X80705000Y-87685000D02*
X79375000Y-87685000D01*
X80705000Y-86355000D02*
X80705000Y-87685000D01*
X80705000Y-85085000D02*
X80705000Y-36765000D01*
D11*
X37695000Y-60645000D02*
X35295000Y-60645000D01*
X32195000Y-60645000D02*
X29695000Y-60645000D01*
X37695000Y-75245000D02*
X35295000Y-75245000D01*
X42695000Y-75245000D02*
X41695000Y-75245000D01*
X29695000Y-60645000D02*
X29695000Y-75245000D01*
X42695000Y-60645000D02*
X42695000Y-75245000D01*
X41695000Y-60645000D02*
X42695000Y-60645000D01*
X29695000Y-75245000D02*
X32195000Y-75245000D01*
D10*
X48233064Y-50011000D02*
X47778936Y-50011000D01*
X48233064Y-48541000D02*
X47778936Y-48541000D01*
X69399381Y-96640693D02*
X69399381Y-97094821D01*
X67929381Y-96640693D02*
X67929381Y-97094821D01*
X42395000Y-85040000D02*
X42395000Y-99760000D01*
X42775000Y-88900000D02*
X43275000Y-89400000D01*
X43275000Y-88400000D02*
X42775000Y-88900000D01*
X36715000Y-99760000D02*
X28175000Y-99760000D01*
X43275000Y-89400000D02*
X43275000Y-88400000D01*
X36715000Y-85040000D02*
X28175000Y-85040000D01*
X42395000Y-85040000D02*
X40415000Y-85040000D01*
X28175000Y-85040000D02*
X28175000Y-99760000D01*
X40415000Y-99760000D02*
X42395000Y-99760000D01*
X47397936Y-53440000D02*
X47852064Y-53440000D01*
X47397936Y-51970000D02*
X47852064Y-51970000D01*
X71400936Y-100303000D02*
X71855064Y-100303000D01*
X71400936Y-98833000D02*
X71855064Y-98833000D01*
X61270000Y-100722500D02*
X61770000Y-100222500D01*
X60770000Y-100222500D02*
X61270000Y-100722500D01*
X57410000Y-115322500D02*
X72130000Y-115322500D01*
X57410000Y-101102500D02*
X57410000Y-103082500D01*
X61770000Y-100222500D02*
X60770000Y-100222500D01*
X72130000Y-103082500D02*
X72130000Y-101102500D01*
X57410000Y-106782500D02*
X57410000Y-115322500D01*
X57410000Y-101102500D02*
X72130000Y-101102500D01*
X72130000Y-106782500D02*
X72130000Y-115322500D01*
X43607000Y-84441000D02*
X43607000Y-84201000D01*
X43007000Y-76835000D02*
X43607000Y-76835000D01*
X41357000Y-81618000D02*
X41357000Y-79418000D01*
X45257000Y-81618000D02*
X45497000Y-81618000D01*
X45257000Y-79418000D02*
X45257000Y-81618000D01*
X43607000Y-84201000D02*
X43007000Y-84201000D01*
X64137945Y-33634506D02*
X64537945Y-34084506D01*
X63737945Y-34084506D02*
X64137945Y-33634506D01*
X66987945Y-30834506D02*
X66687945Y-30834506D01*
X58987945Y-28034506D02*
X58987945Y-30834506D01*
X64537945Y-34084506D02*
X63737945Y-34084506D01*
X66687945Y-28034506D02*
X66687945Y-30834506D01*
X58987945Y-30834506D02*
X58687945Y-30834506D01*
X66987945Y-30834506D02*
X66987945Y-32384506D01*
X58687945Y-30834506D02*
X58687945Y-32384506D01*
X42117400Y-48190000D02*
X42117400Y-47830000D01*
X43438400Y-49032000D02*
X43438400Y-47830000D01*
X43798400Y-49070000D02*
X43798400Y-44910000D01*
X43238400Y-46150000D02*
X43238400Y-44996000D01*
X43158400Y-46150000D02*
X43158400Y-45022000D01*
X42477400Y-46150000D02*
X42477400Y-45403000D01*
X42397400Y-46150000D02*
X42397400Y-45474000D01*
X42757400Y-48775000D02*
X42757400Y-47830000D01*
X42797400Y-46150000D02*
X42797400Y-45182000D01*
X42597400Y-46150000D02*
X42597400Y-45310000D01*
X43278400Y-48995000D02*
X43278400Y-47830000D01*
X43077400Y-48930000D02*
X43077400Y-47830000D01*
X42117400Y-46150000D02*
X42117400Y-45790000D01*
X42877400Y-48841000D02*
X42877400Y-47830000D01*
X43278400Y-46150000D02*
X43278400Y-44985000D01*
X42357400Y-48468000D02*
X42357400Y-47830000D01*
X41837400Y-47654000D02*
X41837400Y-46326000D01*
X42717400Y-48750000D02*
X42717400Y-47830000D01*
X43838400Y-49070000D02*
X43838400Y-44910000D01*
X42517400Y-46150000D02*
X42517400Y-45371000D01*
X43518400Y-49046000D02*
X43518400Y-47830000D01*
X43718400Y-49067000D02*
X43718400Y-44913000D01*
X43478400Y-46150000D02*
X43478400Y-44940000D01*
X42317400Y-48428000D02*
X42317400Y-47830000D01*
X41917400Y-47849000D02*
X41917400Y-46131000D01*
X43198400Y-46150000D02*
X43198400Y-45008000D01*
X42637400Y-46150000D02*
X42637400Y-45282000D01*
X42637400Y-48698000D02*
X42637400Y-47830000D01*
X41877400Y-47758000D02*
X41877400Y-46222000D01*
X42837400Y-46150000D02*
X42837400Y-45160000D01*
X42957400Y-46150000D02*
X42957400Y-45101000D01*
X42437400Y-48542000D02*
X42437400Y-47830000D01*
X43438400Y-46150000D02*
X43438400Y-44948000D01*
X43238400Y-48984000D02*
X43238400Y-47830000D01*
X41957400Y-47930000D02*
X41957400Y-46050000D01*
X42517400Y-48609000D02*
X42517400Y-47830000D01*
X42077400Y-46150000D02*
X42077400Y-45848000D01*
X43558400Y-46150000D02*
X43558400Y-44928000D01*
X43558400Y-49052000D02*
X43558400Y-47830000D01*
X43758400Y-49069000D02*
X43758400Y-44911000D01*
X41797400Y-47527000D02*
X41797400Y-46453000D01*
X43598400Y-46150000D02*
X43598400Y-44923000D01*
X43318400Y-46150000D02*
X43318400Y-44974000D01*
X43117400Y-48944000D02*
X43117400Y-47830000D01*
X42677400Y-48725000D02*
X42677400Y-47830000D01*
X42197400Y-48294000D02*
X42197400Y-47830000D01*
X41997400Y-48003000D02*
X41997400Y-45977000D01*
X42037400Y-48070000D02*
X42037400Y-47830000D01*
X43678400Y-49064000D02*
X43678400Y-44916000D01*
X42797400Y-48798000D02*
X42797400Y-47830000D01*
X43638400Y-46150000D02*
X43638400Y-44919000D01*
X42317400Y-46150000D02*
X42317400Y-45552000D01*
X43318400Y-49006000D02*
X43318400Y-47830000D01*
X43158400Y-48958000D02*
X43158400Y-47830000D01*
X42477400Y-48577000D02*
X42477400Y-47830000D01*
X42397400Y-48506000D02*
X42397400Y-47830000D01*
X43358400Y-49015000D02*
X43358400Y-47830000D01*
X43518400Y-46150000D02*
X43518400Y-44934000D01*
X43037400Y-48914000D02*
X43037400Y-47830000D01*
X43117400Y-46150000D02*
X43117400Y-45036000D01*
X42677400Y-46150000D02*
X42677400Y-45255000D01*
X42157400Y-46150000D02*
X42157400Y-45736000D01*
X42197400Y-46150000D02*
X42197400Y-45686000D01*
X42357400Y-46150000D02*
X42357400Y-45512000D01*
X42997400Y-46150000D02*
X42997400Y-45083000D01*
X43198400Y-48972000D02*
X43198400Y-47830000D01*
X42277400Y-46150000D02*
X42277400Y-45594000D01*
X42877400Y-46150000D02*
X42877400Y-45139000D01*
X42717400Y-46150000D02*
X42717400Y-45230000D01*
X42037400Y-46150000D02*
X42037400Y-45910000D01*
X43478400Y-49040000D02*
X43478400Y-47830000D01*
X43077400Y-46150000D02*
X43077400Y-45050000D01*
X42757400Y-46150000D02*
X42757400Y-45205000D01*
X42157400Y-48244000D02*
X42157400Y-47830000D01*
X46108201Y-48185000D02*
X45708201Y-48185000D01*
X43398400Y-49024000D02*
X43398400Y-47830000D01*
X43358400Y-46150000D02*
X43358400Y-44965000D01*
X42997400Y-48897000D02*
X42997400Y-47830000D01*
X42237400Y-48341000D02*
X42237400Y-47830000D01*
X42557400Y-46150000D02*
X42557400Y-45340000D01*
X43398400Y-46150000D02*
X43398400Y-44956000D01*
X42837400Y-48820000D02*
X42837400Y-47830000D01*
X42557400Y-48640000D02*
X42557400Y-47830000D01*
X42237400Y-46150000D02*
X42237400Y-45639000D01*
X43638400Y-49061000D02*
X43638400Y-47830000D01*
X42077400Y-48132000D02*
X42077400Y-47830000D01*
X42437400Y-46150000D02*
X42437400Y-45438000D01*
X45908201Y-48385000D02*
X45908201Y-47985000D01*
X42277400Y-48386000D02*
X42277400Y-47830000D01*
X42917400Y-48860000D02*
X42917400Y-47830000D01*
X42957400Y-48879000D02*
X42957400Y-47830000D01*
X43037400Y-46150000D02*
X43037400Y-45066000D01*
X41757400Y-47360000D02*
X41757400Y-46620000D01*
X42597400Y-48670000D02*
X42597400Y-47830000D01*
X43598400Y-49057000D02*
X43598400Y-47830000D01*
X42917400Y-46150000D02*
X42917400Y-45120000D01*
X45958400Y-46990000D02*
G75*
G03*
X45958400Y-46990000I-2120000J0D01*
G01*
X30039000Y-40014200D02*
X30039000Y-38684200D01*
X32639000Y-37414200D02*
X30039000Y-37414200D01*
X30039000Y-34814200D02*
X42859000Y-34814200D01*
X32639000Y-40014200D02*
X42859000Y-40014200D01*
X31369000Y-40014200D02*
X30039000Y-40014200D01*
X30039000Y-37414200D02*
X30039000Y-34814200D01*
X32639000Y-40014200D02*
X32639000Y-37414200D01*
X42859000Y-40014200D02*
X42859000Y-34814200D01*
X60639000Y-66615000D02*
X57979000Y-66615000D01*
X60639000Y-71815000D02*
X59309000Y-71815000D01*
X60639000Y-69215000D02*
X60639000Y-66615000D01*
X60639000Y-70485000D02*
X60639000Y-71815000D01*
X60639000Y-69215000D02*
X57979000Y-69215000D01*
X57979000Y-69215000D02*
X57979000Y-66615000D01*
X49268748Y-95350000D02*
X49791252Y-95350000D01*
X49268748Y-93880000D02*
X49791252Y-93880000D01*
X61314000Y-60459252D02*
X61314000Y-59936748D01*
X59844000Y-60459252D02*
X59844000Y-59936748D01*
X65270748Y-92556000D02*
X65793252Y-92556000D01*
X65270748Y-91086000D02*
X65793252Y-91086000D01*
X51368500Y-82964000D02*
X51573500Y-82964000D01*
X51368500Y-80204000D02*
X51368500Y-82964000D01*
X61788500Y-82964000D02*
X61583500Y-82964000D01*
X61788500Y-80204000D02*
X61788500Y-77444000D01*
X51573500Y-82964000D02*
X51573500Y-84654000D01*
X51368500Y-80204000D02*
X51368500Y-77444000D01*
X61788500Y-80204000D02*
X61788500Y-82964000D01*
X61788500Y-77444000D02*
X61583500Y-77444000D01*
X51368500Y-77444000D02*
X51573500Y-77444000D01*
X65784000Y-85486000D02*
X59384000Y-85486000D01*
X65784000Y-90536000D02*
X59384000Y-90536000D01*
X59384000Y-85486000D02*
G75*
G03*
X59384000Y-90536000I0J-2525000D01*
G01*
X65784000Y-90536000D02*
G75*
G03*
X65784000Y-85486000I0J2525000D01*
G01*
X40540000Y-56377064D02*
X40540000Y-55922936D01*
X42010000Y-56377064D02*
X42010000Y-55922936D01*
X45735000Y-86522000D02*
X45735000Y-80122000D01*
X50785000Y-86522000D02*
X50785000Y-80122000D01*
X50785000Y-80122000D02*
G75*
G03*
X45735000Y-80122000I-2525000J0D01*
G01*
X45735000Y-86522000D02*
G75*
G03*
X50785000Y-86522000I2525000J0D01*
G01*
X62003000Y-60459252D02*
X62003000Y-59936748D01*
X63473000Y-60459252D02*
X63473000Y-59936748D01*
G36*
X33094830Y-96171910D02*
G01*
X32890441Y-96171910D01*
X32890441Y-95763131D01*
X33094830Y-95763131D01*
X33094830Y-96171910D01*
G37*
G36*
X32277273Y-96171910D02*
G01*
X32072884Y-96171910D01*
X32072884Y-92288515D01*
X32277273Y-92288515D01*
X32277273Y-96171910D01*
G37*
G36*
X37145452Y-88981127D02*
G01*
X36810997Y-88981127D01*
X36810997Y-88442283D01*
X37145452Y-88442283D01*
X37145452Y-88981127D01*
G37*
G36*
X32686051Y-92697294D02*
G01*
X32481662Y-92697294D01*
X32481662Y-92288515D01*
X32686051Y-92288515D01*
X32686051Y-92697294D01*
G37*
G36*
X34116776Y-96376299D02*
G01*
X35343111Y-96376299D01*
X35343111Y-94360278D01*
X35519629Y-94360278D01*
X35779760Y-94360278D01*
X35785344Y-94263667D01*
X35790928Y-94167057D01*
X35887538Y-94161473D01*
X35984149Y-94155889D01*
X35995317Y-93962667D01*
X36091928Y-93957084D01*
X36188539Y-93951500D01*
X36194122Y-93854889D01*
X36199706Y-93758278D01*
X36296317Y-93752694D01*
X36392928Y-93747111D01*
X36398544Y-93649561D01*
X36404160Y-93552012D01*
X36734731Y-93552012D01*
X36740347Y-93649561D01*
X36745964Y-93747111D01*
X36842574Y-93752694D01*
X36939185Y-93758278D01*
X36950353Y-93951500D01*
X37046964Y-93957084D01*
X37143575Y-93962667D01*
X37149158Y-94059278D01*
X37154742Y-94155889D01*
X37347964Y-94167057D01*
X37353547Y-94263667D01*
X37359131Y-94360278D01*
X37468536Y-94365927D01*
X37532188Y-94367401D01*
X37582684Y-94365323D01*
X37603677Y-94361700D01*
X37613097Y-94351577D01*
X37619705Y-94326469D01*
X37623786Y-94281694D01*
X37625624Y-94212571D01*
X37625503Y-94114419D01*
X37624338Y-94021596D01*
X37619263Y-93691368D01*
X37522652Y-93685785D01*
X37426041Y-93680201D01*
X37420457Y-93583590D01*
X37414874Y-93486979D01*
X37318263Y-93481395D01*
X37221652Y-93475812D01*
X37210484Y-93282590D01*
X37112935Y-93276974D01*
X37015386Y-93271357D01*
X37015386Y-93078201D01*
X37767909Y-93078201D01*
X37767909Y-93747111D01*
X37864520Y-93752694D01*
X37961131Y-93758278D01*
X37972299Y-93951500D01*
X38574265Y-93961702D01*
X38579866Y-94058795D01*
X38585466Y-94155889D01*
X38694871Y-94161538D01*
X38772603Y-94164183D01*
X38820183Y-94158153D01*
X38844539Y-94137236D01*
X38852599Y-94095217D01*
X38851292Y-94025884D01*
X38851098Y-94021433D01*
X38845598Y-93895757D01*
X38748987Y-93890174D01*
X38652376Y-93884590D01*
X38646792Y-93787979D01*
X38641209Y-93691368D01*
X38339270Y-93686263D01*
X38037332Y-93681157D01*
X38037332Y-93348348D01*
X38845598Y-93338332D01*
X38845598Y-93078201D01*
X37767909Y-93078201D01*
X37015386Y-93078201D01*
X37015386Y-92940787D01*
X37112935Y-92935170D01*
X37210484Y-92929554D01*
X37221652Y-92736332D01*
X37318263Y-92730749D01*
X37414874Y-92725165D01*
X37420457Y-92628554D01*
X37426041Y-92531943D01*
X37522652Y-92526359D01*
X37619263Y-92520776D01*
X37619263Y-91851866D01*
X37767909Y-91851866D01*
X37767909Y-92725165D01*
X37864520Y-92730749D01*
X37961131Y-92736332D01*
X37972299Y-92929554D01*
X38436819Y-92929554D01*
X38442436Y-92832005D01*
X38446722Y-92775318D01*
X38455482Y-92746391D01*
X38475297Y-92735884D01*
X38511143Y-92734455D01*
X38547897Y-92736036D01*
X38567237Y-92747007D01*
X38575742Y-92776708D01*
X38579850Y-92832005D01*
X38585466Y-92929554D01*
X38694871Y-92935203D01*
X38772603Y-92937848D01*
X38820183Y-92931818D01*
X38844539Y-92910901D01*
X38852599Y-92868882D01*
X38851292Y-92799549D01*
X38851098Y-92795098D01*
X38845598Y-92669422D01*
X38748048Y-92663806D01*
X38650499Y-92658190D01*
X38650499Y-92123230D01*
X38748048Y-92117614D01*
X38845598Y-92111997D01*
X38845598Y-91851866D01*
X37767909Y-91851866D01*
X37619263Y-91851866D01*
X37359131Y-91851866D01*
X37353547Y-91948477D01*
X37347964Y-92045088D01*
X37322378Y-92046567D01*
X37251353Y-92050671D01*
X37154742Y-92056255D01*
X37149158Y-92152866D01*
X37143575Y-92249477D01*
X37046964Y-92255060D01*
X36950353Y-92260644D01*
X36939185Y-92453866D01*
X36842574Y-92459450D01*
X36745964Y-92465033D01*
X36740347Y-92562583D01*
X36734731Y-92660132D01*
X36404160Y-92660132D01*
X36398544Y-92562583D01*
X36392928Y-92465033D01*
X36296317Y-92459450D01*
X36199706Y-92453866D01*
X36194122Y-92357255D01*
X36188539Y-92260644D01*
X36091928Y-92255060D01*
X35995317Y-92249477D01*
X35984149Y-92056255D01*
X35938515Y-92053617D01*
X35887538Y-92050671D01*
X35790928Y-92045088D01*
X35779760Y-91851866D01*
X35519629Y-91851866D01*
X35519629Y-92520776D01*
X35616239Y-92526359D01*
X35712850Y-92531943D01*
X35724018Y-92725165D01*
X35820629Y-92730749D01*
X35917240Y-92736332D01*
X35922823Y-92832943D01*
X35928407Y-92929554D01*
X36025956Y-92935170D01*
X36123506Y-92940787D01*
X36123506Y-93271357D01*
X36025956Y-93276974D01*
X35928407Y-93282590D01*
X35922823Y-93379201D01*
X35917240Y-93475812D01*
X35820629Y-93481395D01*
X35724018Y-93486979D01*
X35712850Y-93680201D01*
X35616239Y-93685785D01*
X35519629Y-93691368D01*
X35519629Y-94360278D01*
X35343111Y-94360278D01*
X35343111Y-92084126D01*
X34116776Y-92084126D01*
X34116776Y-91703219D01*
X34497683Y-91703219D01*
X35426724Y-91708054D01*
X35609536Y-91708829D01*
X35781345Y-91709217D01*
X35938515Y-91709234D01*
X36077408Y-91708896D01*
X36194390Y-91708217D01*
X36285822Y-91707214D01*
X36348068Y-91705902D01*
X36377492Y-91704298D01*
X36379086Y-91703956D01*
X36383125Y-91695591D01*
X36386655Y-91672534D01*
X36389697Y-91632901D01*
X36392270Y-91574808D01*
X36394394Y-91496372D01*
X36396090Y-91395710D01*
X36397376Y-91270937D01*
X36398272Y-91120170D01*
X36398799Y-90941525D01*
X36398976Y-90733119D01*
X36398907Y-90625531D01*
X36541574Y-90625531D01*
X36541574Y-90885662D01*
X36734796Y-90896830D01*
X36745964Y-91090052D01*
X36843513Y-91095668D01*
X36900200Y-91099954D01*
X36929126Y-91108715D01*
X36939633Y-91128529D01*
X36941062Y-91164375D01*
X36939481Y-91201129D01*
X36928511Y-91220469D01*
X36898810Y-91228974D01*
X36843513Y-91233082D01*
X36745964Y-91238698D01*
X36734796Y-91431920D01*
X36638185Y-91437504D01*
X36541574Y-91443087D01*
X36541574Y-91703219D01*
X37061587Y-91708166D01*
X37197776Y-91709131D01*
X37322378Y-91709382D01*
X37430394Y-91708961D01*
X37516825Y-91707907D01*
X37576671Y-91706260D01*
X37604932Y-91704062D01*
X37605931Y-91703776D01*
X37606345Y-91703219D01*
X37767909Y-91703219D01*
X38028041Y-91703219D01*
X38038589Y-91303731D01*
X38434351Y-91303731D01*
X38552103Y-91303139D01*
X38657147Y-91301485D01*
X38743854Y-91298949D01*
X38806592Y-91295713D01*
X38839729Y-91291956D01*
X38843262Y-91290583D01*
X38849234Y-91266524D01*
X38851965Y-91216531D01*
X38851004Y-91155872D01*
X38845598Y-91034309D01*
X38641209Y-91031773D01*
X38442090Y-91029303D01*
X38038581Y-91024297D01*
X38028041Y-90625531D01*
X37767909Y-90625531D01*
X37767909Y-91703219D01*
X37606345Y-91703219D01*
X37619676Y-91685305D01*
X37625632Y-91640193D01*
X37624763Y-91568763D01*
X37619263Y-91443087D01*
X37317324Y-91437982D01*
X37015386Y-91432876D01*
X37015386Y-91305673D01*
X37210484Y-91294441D01*
X37210484Y-91034309D01*
X37015386Y-91023077D01*
X37015386Y-90895873D01*
X37317324Y-90890768D01*
X37619263Y-90885662D01*
X37619263Y-90625531D01*
X36541574Y-90625531D01*
X36398907Y-90625531D01*
X36398822Y-90493067D01*
X36398358Y-90219487D01*
X36397667Y-89933942D01*
X36396228Y-89399196D01*
X36541574Y-89399196D01*
X36541574Y-89659327D01*
X36941062Y-89669875D01*
X36941062Y-90206205D01*
X36741318Y-90211479D01*
X36541574Y-90216752D01*
X36541574Y-90476884D01*
X37006095Y-90476884D01*
X37017263Y-90283662D01*
X37113874Y-90278079D01*
X37210484Y-90272495D01*
X37215590Y-89970556D01*
X37220695Y-89668618D01*
X37348920Y-89668618D01*
X37354026Y-89970556D01*
X37359131Y-90272495D01*
X37468536Y-90278144D01*
X37532188Y-90279617D01*
X37582684Y-90277540D01*
X37603677Y-90273917D01*
X37605000Y-90272495D01*
X37767909Y-90272495D01*
X37864520Y-90278079D01*
X37961131Y-90283662D01*
X37972299Y-90476884D01*
X38641209Y-90476884D01*
X38646825Y-90379335D01*
X38652441Y-90281785D01*
X38741277Y-90281785D01*
X38796129Y-90279307D01*
X38834327Y-90273020D01*
X38842915Y-90268984D01*
X38846794Y-90247093D01*
X38849623Y-90194300D01*
X38851258Y-90116852D01*
X38851557Y-90020997D01*
X38850657Y-89929883D01*
X38845598Y-89603585D01*
X38652376Y-89592417D01*
X38646792Y-89495807D01*
X38641209Y-89399196D01*
X37972299Y-89399196D01*
X37966715Y-89495807D01*
X37961131Y-89592417D01*
X37767909Y-89603585D01*
X37767909Y-90272495D01*
X37605000Y-90272495D01*
X37613097Y-90263794D01*
X37619705Y-90238685D01*
X37623786Y-90193910D01*
X37625624Y-90124788D01*
X37625503Y-90026636D01*
X37624338Y-89933813D01*
X37619263Y-89603585D01*
X37426041Y-89592417D01*
X37420457Y-89495807D01*
X37414874Y-89399196D01*
X36541574Y-89399196D01*
X36396228Y-89399196D01*
X36395828Y-89250549D01*
X36541574Y-89250549D01*
X37061587Y-89255496D01*
X37197776Y-89256461D01*
X37322378Y-89256712D01*
X37430394Y-89256291D01*
X37516825Y-89255237D01*
X37576671Y-89253590D01*
X37604932Y-89251392D01*
X37605931Y-89251106D01*
X37606345Y-89250549D01*
X37767909Y-89250549D01*
X38287922Y-89255496D01*
X38424111Y-89256461D01*
X38548713Y-89256712D01*
X38656729Y-89256291D01*
X38743160Y-89255237D01*
X38803006Y-89253590D01*
X38831267Y-89251392D01*
X38832266Y-89251106D01*
X38846011Y-89232635D01*
X38851967Y-89187523D01*
X38851098Y-89116093D01*
X38845598Y-88990417D01*
X38748504Y-88984817D01*
X38651410Y-88979216D01*
X38646310Y-88678233D01*
X38641209Y-88377250D01*
X38447987Y-88366082D01*
X38442403Y-88269472D01*
X38436819Y-88172861D01*
X37972299Y-88172861D01*
X37966715Y-88269472D01*
X37961131Y-88366082D01*
X37767909Y-88377250D01*
X37767909Y-89250549D01*
X37606345Y-89250549D01*
X37619676Y-89232635D01*
X37625632Y-89187523D01*
X37624763Y-89116093D01*
X37619263Y-88990417D01*
X37522169Y-88984817D01*
X37425075Y-88979216D01*
X37419975Y-88678233D01*
X37414874Y-88377250D01*
X37221652Y-88366082D01*
X37216068Y-88269472D01*
X37210484Y-88172861D01*
X36745964Y-88172861D01*
X36740380Y-88269472D01*
X36734796Y-88366082D01*
X36541574Y-88377250D01*
X36541574Y-89250549D01*
X36395828Y-89250549D01*
X36392928Y-88172861D01*
X34497683Y-88172861D01*
X34497683Y-91703219D01*
X34116776Y-91703219D01*
X34116776Y-91470959D01*
X33912386Y-91470959D01*
X33912386Y-90857791D01*
X34116776Y-90857791D01*
X34116776Y-91470959D01*
X34321165Y-91470959D01*
X34321165Y-90857791D01*
X34116776Y-90857791D01*
X34116776Y-89018289D01*
X34321165Y-89018289D01*
X34321165Y-88405121D01*
X34116776Y-88405121D01*
X34116776Y-89018289D01*
X33912386Y-89018289D01*
X33912386Y-90857791D01*
X33707997Y-90857791D01*
X33707997Y-90653402D01*
X33503608Y-90653402D01*
X33503608Y-90857791D01*
X33299219Y-90857791D01*
X33299219Y-90653402D01*
X33094830Y-90653402D01*
X33094830Y-91062180D01*
X32686051Y-91062180D01*
X32686051Y-90857791D01*
X32481662Y-90857791D01*
X32481662Y-90653402D01*
X32890441Y-90653402D01*
X32890441Y-90449013D01*
X33094830Y-90449013D01*
X33094830Y-90040234D01*
X33299219Y-90040234D01*
X33299219Y-90244624D01*
X33503608Y-90244624D01*
X33503608Y-90040234D01*
X33299219Y-90040234D01*
X33299219Y-89835845D01*
X33503608Y-89835845D01*
X33503608Y-89631456D01*
X33299219Y-89631456D01*
X33299219Y-89835845D01*
X33094830Y-89835845D01*
X33094830Y-89427067D01*
X32890441Y-89427067D01*
X32890441Y-89222678D01*
X32481662Y-89222678D01*
X32481662Y-89631456D01*
X32686051Y-89631456D01*
X32686051Y-89835845D01*
X33094830Y-89835845D01*
X33094830Y-90040234D01*
X32686051Y-90040234D01*
X32686051Y-90244624D01*
X32481662Y-90244624D01*
X32481662Y-90653402D01*
X32277273Y-90653402D01*
X32277273Y-90244624D01*
X32071963Y-90244624D01*
X32077069Y-89942685D01*
X32082174Y-89640747D01*
X32179724Y-89635130D01*
X32277273Y-89629514D01*
X32277273Y-89222678D01*
X32481662Y-89222678D01*
X32481662Y-89019546D01*
X32082174Y-89008998D01*
X32076558Y-88911449D01*
X32070942Y-88813899D01*
X32481662Y-88813899D01*
X32481662Y-89018289D01*
X32686051Y-89018289D01*
X32686051Y-88813899D01*
X33094830Y-88813899D01*
X33094830Y-89222678D01*
X33299219Y-89222678D01*
X33299219Y-89018289D01*
X33503608Y-89018289D01*
X33503608Y-89222678D01*
X33707997Y-89222678D01*
X33707997Y-89018289D01*
X33912386Y-89018289D01*
X33912386Y-88405121D01*
X34116776Y-88405121D01*
X34116776Y-87996343D01*
X39022116Y-87996343D01*
X39022116Y-96785077D01*
X34116776Y-96785077D01*
X34116776Y-96608559D01*
X35519629Y-96608559D01*
X35984149Y-96608559D01*
X35989048Y-96000037D01*
X35993948Y-95391515D01*
X36121564Y-95391515D01*
X36132796Y-95586613D01*
X36326018Y-95597781D01*
X36331602Y-95694392D01*
X36337185Y-95791003D01*
X36433796Y-95796586D01*
X36530407Y-95802170D01*
X36535991Y-95898781D01*
X36541574Y-95995392D01*
X36638185Y-96000975D01*
X36734796Y-96006559D01*
X36745964Y-96199781D01*
X36842574Y-96205365D01*
X36939185Y-96210948D01*
X36950353Y-96404170D01*
X37046964Y-96409754D01*
X37143575Y-96415337D01*
X37149158Y-96511948D01*
X37154742Y-96608559D01*
X37367285Y-96613846D01*
X37454209Y-96615170D01*
X37528538Y-96614744D01*
X37581751Y-96612716D01*
X37604346Y-96609724D01*
X37609712Y-96601755D01*
X37614203Y-96580596D01*
X37617866Y-96543668D01*
X37620749Y-96488396D01*
X37622902Y-96412200D01*
X37624372Y-96312503D01*
X37625206Y-96186728D01*
X37625455Y-96032298D01*
X37625165Y-95846633D01*
X37624384Y-95627157D01*
X37624063Y-95554621D01*
X37623954Y-95530871D01*
X37767909Y-95530871D01*
X37767909Y-95791003D01*
X37864520Y-95796586D01*
X37961131Y-95802170D01*
X37972299Y-95995392D01*
X38069848Y-96001008D01*
X38126535Y-96005294D01*
X38155462Y-96014055D01*
X38165969Y-96033869D01*
X38167397Y-96069715D01*
X38165816Y-96106469D01*
X38154846Y-96125809D01*
X38125145Y-96134314D01*
X38069848Y-96138422D01*
X37972299Y-96144038D01*
X37961131Y-96337260D01*
X37767909Y-96348428D01*
X37767909Y-96608559D01*
X38287922Y-96613506D01*
X38424111Y-96614471D01*
X38548713Y-96614722D01*
X38656729Y-96614301D01*
X38743160Y-96613247D01*
X38803006Y-96611601D01*
X38831267Y-96609402D01*
X38832266Y-96609116D01*
X38846011Y-96590646D01*
X38851967Y-96545533D01*
X38851098Y-96474103D01*
X38845598Y-96348428D01*
X38543659Y-96343322D01*
X38241721Y-96338217D01*
X38241721Y-96211013D01*
X38436819Y-96199781D01*
X38436819Y-95939649D01*
X38241721Y-95928417D01*
X38241721Y-95801213D01*
X38543659Y-95796108D01*
X38845598Y-95791003D01*
X38845598Y-95530871D01*
X37767909Y-95530871D01*
X37623954Y-95530871D01*
X37623272Y-95382224D01*
X37767909Y-95382224D01*
X38232430Y-95382224D01*
X38243598Y-95189002D01*
X38340209Y-95183419D01*
X38436819Y-95177835D01*
X38441925Y-94875896D01*
X38447030Y-94573958D01*
X38575255Y-94573958D01*
X38580361Y-94875896D01*
X38585466Y-95177835D01*
X38694871Y-95183484D01*
X38758523Y-95184957D01*
X38809019Y-95182880D01*
X38830012Y-95179257D01*
X38839432Y-95169134D01*
X38846040Y-95144025D01*
X38850121Y-95099251D01*
X38851959Y-95030128D01*
X38851838Y-94931976D01*
X38850673Y-94839153D01*
X38845598Y-94508925D01*
X38772603Y-94504706D01*
X38748987Y-94503341D01*
X38652376Y-94497758D01*
X38646792Y-94401147D01*
X38641209Y-94304536D01*
X37767909Y-94304536D01*
X37767909Y-94564667D01*
X38167397Y-94575215D01*
X38167397Y-95111545D01*
X37767909Y-95122093D01*
X37767909Y-95382224D01*
X37623272Y-95382224D01*
X37619263Y-94508925D01*
X37154742Y-94508925D01*
X37149843Y-95117447D01*
X37144944Y-95725970D01*
X37017328Y-95725970D01*
X37011711Y-95628420D01*
X37006095Y-95530871D01*
X36812873Y-95519703D01*
X36807290Y-95423093D01*
X36801706Y-95326482D01*
X36608484Y-95315314D01*
X36602901Y-95218703D01*
X36597317Y-95122093D01*
X36404095Y-95110925D01*
X36398511Y-95014314D01*
X36392928Y-94917703D01*
X36296317Y-94912120D01*
X36199706Y-94906536D01*
X36194122Y-94809925D01*
X36188539Y-94713314D01*
X36091928Y-94707730D01*
X35995317Y-94702147D01*
X35984149Y-94508925D01*
X35519629Y-94508925D01*
X35519629Y-96608559D01*
X34116776Y-96608559D01*
X34116776Y-96376299D01*
G37*
G36*
X38371787Y-92660132D02*
G01*
X38037332Y-92660132D01*
X38037332Y-92121288D01*
X38371787Y-92121288D01*
X38371787Y-92660132D01*
G37*
G36*
X33912386Y-96171910D02*
G01*
X33707997Y-96171910D01*
X33707997Y-95763131D01*
X33912386Y-95763131D01*
X33912386Y-96171910D01*
G37*
G36*
X33503608Y-96171910D02*
G01*
X33299219Y-96171910D01*
X33299219Y-95763131D01*
X33503608Y-95763131D01*
X33503608Y-96171910D01*
G37*
G36*
X38371787Y-88981127D02*
G01*
X38037332Y-88981127D01*
X38037332Y-88442283D01*
X38371787Y-88442283D01*
X38371787Y-88981127D01*
G37*
G36*
X38576176Y-90207462D02*
G01*
X38037332Y-90207462D01*
X38037332Y-89668618D01*
X38576176Y-89668618D01*
X38576176Y-90207462D01*
G37*
G36*
X34729943Y-96171910D02*
G01*
X34525554Y-96171910D01*
X34525554Y-95763131D01*
X34729943Y-95763131D01*
X34729943Y-96171910D01*
G37*
G36*
X32686051Y-96171910D02*
G01*
X32481662Y-96171910D01*
X32481662Y-95763131D01*
X32686051Y-95763131D01*
X32686051Y-96171910D01*
G37*
G36*
X34767105Y-88442283D02*
G01*
X36123506Y-88442283D01*
X36123506Y-91433797D01*
X34767105Y-91433797D01*
X34767105Y-91034309D01*
X34906461Y-91034309D01*
X34906461Y-91294441D01*
X35015866Y-91300090D01*
X35093597Y-91302735D01*
X35141177Y-91296705D01*
X35165534Y-91275787D01*
X35173594Y-91233769D01*
X35172287Y-91164436D01*
X35172093Y-91159985D01*
X35166593Y-91034309D01*
X35315239Y-91034309D01*
X35315239Y-91294441D01*
X35424644Y-91300090D01*
X35502376Y-91302735D01*
X35549956Y-91296705D01*
X35574312Y-91275787D01*
X35582372Y-91233769D01*
X35581065Y-91164436D01*
X35580871Y-91159985D01*
X35575371Y-91034309D01*
X35724018Y-91034309D01*
X35724018Y-91294441D01*
X35833422Y-91300090D01*
X35911154Y-91302735D01*
X35958734Y-91296705D01*
X35983090Y-91275787D01*
X35991151Y-91233769D01*
X35989843Y-91164436D01*
X35989649Y-91159985D01*
X35984149Y-91034309D01*
X35724018Y-91034309D01*
X35575371Y-91034309D01*
X35315239Y-91034309D01*
X35166593Y-91034309D01*
X34906461Y-91034309D01*
X34767105Y-91034309D01*
X34767105Y-88990417D01*
X34906461Y-88990417D01*
X34906461Y-90885662D01*
X35015866Y-90891311D01*
X35079460Y-90892801D01*
X35129842Y-90890767D01*
X35150747Y-90887184D01*
X35156560Y-90879785D01*
X35161380Y-90860581D01*
X35165268Y-90826770D01*
X35168283Y-90775550D01*
X35170488Y-90704120D01*
X35171698Y-90625531D01*
X35315239Y-90625531D01*
X35315239Y-90885662D01*
X35424644Y-90891311D01*
X35502376Y-90893956D01*
X35549956Y-90887927D01*
X35574312Y-90867009D01*
X35582372Y-90824990D01*
X35581065Y-90755658D01*
X35580871Y-90751206D01*
X35575371Y-90625531D01*
X35724018Y-90625531D01*
X35724018Y-90885662D01*
X35833422Y-90891311D01*
X35911154Y-90893956D01*
X35958734Y-90887927D01*
X35983090Y-90867009D01*
X35991151Y-90824990D01*
X35989843Y-90755658D01*
X35989649Y-90751206D01*
X35984149Y-90625531D01*
X35724018Y-90625531D01*
X35575371Y-90625531D01*
X35315239Y-90625531D01*
X35171698Y-90625531D01*
X35171942Y-90609680D01*
X35172706Y-90489428D01*
X35172842Y-90340563D01*
X35172545Y-90216752D01*
X35315239Y-90216752D01*
X35315239Y-90476884D01*
X35424644Y-90482533D01*
X35502376Y-90485178D01*
X35549956Y-90479148D01*
X35574312Y-90458231D01*
X35582372Y-90416212D01*
X35581065Y-90346879D01*
X35580871Y-90342428D01*
X35575371Y-90216752D01*
X35724018Y-90216752D01*
X35724018Y-90476884D01*
X35833422Y-90482533D01*
X35911154Y-90485178D01*
X35958734Y-90479148D01*
X35983090Y-90458231D01*
X35991151Y-90416212D01*
X35989843Y-90346879D01*
X35989649Y-90342428D01*
X35984149Y-90216752D01*
X35724018Y-90216752D01*
X35575371Y-90216752D01*
X35315239Y-90216752D01*
X35172545Y-90216752D01*
X35172409Y-90160284D01*
X35171469Y-89945790D01*
X35171408Y-89933912D01*
X35170765Y-89807974D01*
X35315239Y-89807974D01*
X35315239Y-90068106D01*
X35424644Y-90073755D01*
X35502376Y-90076400D01*
X35549956Y-90070370D01*
X35574312Y-90049452D01*
X35582372Y-90007434D01*
X35581065Y-89938101D01*
X35580871Y-89933650D01*
X35575371Y-89807974D01*
X35724018Y-89807974D01*
X35724018Y-90068106D01*
X35833422Y-90073755D01*
X35911154Y-90076400D01*
X35958734Y-90070370D01*
X35983090Y-90049452D01*
X35991151Y-90007434D01*
X35989843Y-89938101D01*
X35989649Y-89933650D01*
X35984149Y-89807974D01*
X35724018Y-89807974D01*
X35575371Y-89807974D01*
X35315239Y-89807974D01*
X35170765Y-89807974D01*
X35168679Y-89399196D01*
X35315239Y-89399196D01*
X35315239Y-89659327D01*
X35424644Y-89664976D01*
X35502376Y-89667621D01*
X35549956Y-89661592D01*
X35574312Y-89640674D01*
X35582372Y-89598655D01*
X35581065Y-89529323D01*
X35580871Y-89524871D01*
X35575371Y-89399196D01*
X35724018Y-89399196D01*
X35724018Y-89659327D01*
X35833422Y-89664976D01*
X35911154Y-89667621D01*
X35958734Y-89661592D01*
X35983090Y-89640674D01*
X35991151Y-89598655D01*
X35989843Y-89529323D01*
X35989649Y-89524871D01*
X35984149Y-89399196D01*
X35724018Y-89399196D01*
X35575371Y-89399196D01*
X35315239Y-89399196D01*
X35168679Y-89399196D01*
X35166593Y-88990417D01*
X35315239Y-88990417D01*
X35315239Y-89250549D01*
X35424644Y-89256198D01*
X35502376Y-89258843D01*
X35549956Y-89252813D01*
X35574312Y-89231896D01*
X35582372Y-89189877D01*
X35581065Y-89120544D01*
X35580871Y-89116093D01*
X35575371Y-88990417D01*
X35724018Y-88990417D01*
X35724018Y-89250549D01*
X35833422Y-89256198D01*
X35911154Y-89258843D01*
X35958734Y-89252813D01*
X35983090Y-89231896D01*
X35991151Y-89189877D01*
X35989843Y-89120544D01*
X35989649Y-89116093D01*
X35984149Y-88990417D01*
X35724018Y-88990417D01*
X35575371Y-88990417D01*
X35315239Y-88990417D01*
X35166593Y-88990417D01*
X34906461Y-88990417D01*
X34767105Y-88990417D01*
X34767105Y-88841771D01*
X34906461Y-88841771D01*
X35015866Y-88847420D01*
X35093597Y-88850065D01*
X35141177Y-88844035D01*
X35143813Y-88841771D01*
X35315239Y-88841771D01*
X35424644Y-88847420D01*
X35502376Y-88850065D01*
X35549956Y-88844035D01*
X35552592Y-88841771D01*
X35724018Y-88841771D01*
X35833422Y-88847420D01*
X35911154Y-88850065D01*
X35958734Y-88844035D01*
X35983090Y-88823117D01*
X35991151Y-88781099D01*
X35989843Y-88711766D01*
X35989649Y-88707315D01*
X35984149Y-88581639D01*
X35724018Y-88581639D01*
X35724018Y-88841771D01*
X35552592Y-88841771D01*
X35574312Y-88823117D01*
X35582372Y-88781099D01*
X35581065Y-88711766D01*
X35580871Y-88707315D01*
X35575371Y-88581639D01*
X35315239Y-88581639D01*
X35315239Y-88841771D01*
X35143813Y-88841771D01*
X35165534Y-88823117D01*
X35173594Y-88781099D01*
X35172287Y-88711766D01*
X35172093Y-88707315D01*
X35166593Y-88581639D01*
X34906461Y-88581639D01*
X34906461Y-88841771D01*
X34767105Y-88841771D01*
X34767105Y-88442283D01*
G37*
G36*
X32481662Y-92901683D02*
G01*
X34729943Y-92901683D01*
X34729943Y-95558742D01*
X32481662Y-95558742D01*
X32481662Y-94945575D01*
X32686051Y-94945575D01*
X32890441Y-94945575D01*
X32890441Y-95149964D01*
X33094830Y-95149964D01*
X33094830Y-95354353D01*
X33299219Y-95354353D01*
X33299219Y-95149964D01*
X33503608Y-95149964D01*
X33503608Y-95354353D01*
X33707997Y-95354353D01*
X33707997Y-95149964D01*
X33912386Y-95149964D01*
X33912386Y-95354353D01*
X34116776Y-95354353D01*
X34116776Y-95149964D01*
X34321165Y-95149964D01*
X34321165Y-94945575D01*
X34525554Y-94945575D01*
X34525554Y-94741185D01*
X34321165Y-94741185D01*
X34321165Y-94536796D01*
X34525554Y-94536796D01*
X34525554Y-94332407D01*
X34321165Y-94332407D01*
X34321165Y-94128018D01*
X34525554Y-94128018D01*
X34525554Y-93923629D01*
X34321165Y-93923629D01*
X34321165Y-93719240D01*
X34525554Y-93719240D01*
X34525554Y-93514850D01*
X34321165Y-93514850D01*
X34321165Y-93310461D01*
X34116776Y-93310461D01*
X34116776Y-93106072D01*
X33912386Y-93106072D01*
X33912386Y-93310461D01*
X33707997Y-93310461D01*
X33707997Y-93106072D01*
X33503608Y-93106072D01*
X33503608Y-93310461D01*
X33299219Y-93310461D01*
X33299219Y-93106072D01*
X33094830Y-93106072D01*
X33094830Y-93310461D01*
X32890441Y-93310461D01*
X32890441Y-93514850D01*
X32686051Y-93514850D01*
X32686051Y-93719240D01*
X32890441Y-93719240D01*
X32890441Y-93923629D01*
X32686051Y-93923629D01*
X32686051Y-94128018D01*
X32890441Y-94128018D01*
X32890441Y-94332407D01*
X32686051Y-94332407D01*
X32686051Y-94536796D01*
X32890441Y-94536796D01*
X32890441Y-94741185D01*
X32686051Y-94741185D01*
X32686051Y-94945575D01*
X32481662Y-94945575D01*
X32481662Y-92901683D01*
G37*
G36*
X32481662Y-91062180D02*
G01*
X32072884Y-91062180D01*
X32072884Y-90857791D01*
X32481662Y-90857791D01*
X32481662Y-91062180D01*
G37*
G36*
X32890441Y-89631456D02*
G01*
X32686051Y-89631456D01*
X32686051Y-89427067D01*
X32890441Y-89427067D01*
X32890441Y-89631456D01*
G37*
G36*
X33094830Y-92697294D02*
G01*
X32890441Y-92697294D01*
X32890441Y-92288515D01*
X33094830Y-92288515D01*
X33094830Y-92697294D01*
G37*
G36*
X34729943Y-92697294D02*
G01*
X34525554Y-92697294D01*
X34525554Y-92288515D01*
X34729943Y-92288515D01*
X34729943Y-92697294D01*
G37*
G36*
X33707997Y-94536796D02*
G01*
X33503608Y-94536796D01*
X33503608Y-93923629D01*
X33707997Y-93923629D01*
X33707997Y-94536796D01*
G37*
G36*
X33094830Y-93514850D02*
G01*
X34116776Y-93514850D01*
X34116776Y-94945575D01*
X33094830Y-94945575D01*
X33094830Y-94741185D01*
X33299219Y-94741185D01*
X33912386Y-94741185D01*
X33912386Y-93719240D01*
X33299219Y-93719240D01*
X33299219Y-94741185D01*
X33094830Y-94741185D01*
X33094830Y-93514850D01*
G37*
G36*
X33503608Y-92697294D02*
G01*
X33299219Y-92697294D01*
X33299219Y-92288515D01*
X33503608Y-92288515D01*
X33503608Y-92697294D01*
G37*
G36*
X32890441Y-90449013D02*
G01*
X32686051Y-90449013D01*
X32686051Y-90244624D01*
X32890441Y-90244624D01*
X32890441Y-90449013D01*
G37*
G36*
X34321165Y-96171910D02*
G01*
X34116776Y-96171910D01*
X34116776Y-95763131D01*
X34321165Y-95763131D01*
X34321165Y-96171910D01*
G37*
G36*
X33912386Y-92697294D02*
G01*
X33707997Y-92697294D01*
X33707997Y-92288515D01*
X33912386Y-92288515D01*
X33912386Y-92697294D01*
G37*
G36*
X34321165Y-92697294D02*
G01*
X34116776Y-92697294D01*
X34116776Y-92288515D01*
X34321165Y-92288515D01*
X34321165Y-92697294D01*
G37*
G36*
X35138721Y-96171910D02*
G01*
X34934332Y-96171910D01*
X34934332Y-92288515D01*
X35138721Y-92288515D01*
X35138721Y-96171910D01*
G37*
G36*
X33822721Y-97076528D02*
G01*
X33806703Y-97056978D01*
X33795575Y-97033796D01*
X33788456Y-97000287D01*
X33784461Y-96949755D01*
X33782710Y-96875505D01*
X33782321Y-96770841D01*
X33782321Y-96506365D01*
X31819230Y-96506365D01*
X31778829Y-96463360D01*
X31738429Y-96420356D01*
X31738429Y-92084126D01*
X31868495Y-92084126D01*
X31868495Y-96376299D01*
X33912386Y-96376299D01*
X33912386Y-96989466D01*
X39226505Y-96989466D01*
X39226505Y-87791954D01*
X33912386Y-87791954D01*
X33912386Y-88405121D01*
X33707997Y-88405121D01*
X33707997Y-89018289D01*
X33503608Y-89018289D01*
X33503608Y-88813899D01*
X33299219Y-88813899D01*
X33299219Y-87996343D01*
X33094830Y-87996343D01*
X33094830Y-88609510D01*
X32686051Y-88609510D01*
X32686051Y-88813899D01*
X32481662Y-88813899D01*
X32481662Y-88609510D01*
X31868495Y-88609510D01*
X31868495Y-89018289D01*
X32072884Y-89018289D01*
X32072884Y-89631456D01*
X31868495Y-89631456D01*
X31868495Y-90244624D01*
X32073804Y-90244624D01*
X32068699Y-90546562D01*
X32063593Y-90848501D01*
X31868495Y-90859733D01*
X31868495Y-91266569D01*
X32481662Y-91266569D01*
X32481662Y-91062180D01*
X32686051Y-91062180D01*
X32686051Y-91266569D01*
X33094830Y-91266569D01*
X33094830Y-91879737D01*
X33299219Y-91879737D01*
X33299219Y-91062180D01*
X33503608Y-91062180D01*
X33503608Y-90857791D01*
X33707997Y-90857791D01*
X33707997Y-91470959D01*
X33912386Y-91470959D01*
X33912386Y-92084126D01*
X31868495Y-92084126D01*
X31738429Y-92084126D01*
X31738429Y-92034861D01*
X31781433Y-91994461D01*
X31794533Y-91983090D01*
X31809699Y-91974081D01*
X31831101Y-91967160D01*
X31862913Y-91962051D01*
X31909305Y-91958479D01*
X31974451Y-91956170D01*
X32062522Y-91954848D01*
X32177690Y-91954239D01*
X32324127Y-91954068D01*
X32394601Y-91954060D01*
X32964764Y-91954060D01*
X33429285Y-91954060D01*
X33782321Y-91954060D01*
X33782321Y-91601024D01*
X33723130Y-91601024D01*
X33658522Y-91585556D01*
X33620936Y-91560624D01*
X33600010Y-91537299D01*
X33587198Y-91509334D01*
X33580559Y-91467505D01*
X33578153Y-91402593D01*
X33577931Y-91356235D01*
X33577931Y-91192246D01*
X33429285Y-91192246D01*
X33429285Y-91954060D01*
X32964764Y-91954060D01*
X32964764Y-91396635D01*
X32799811Y-91396635D01*
X32712723Y-91394879D01*
X32655926Y-91388936D01*
X32622688Y-91377792D01*
X32611339Y-91368295D01*
X32589780Y-91349643D01*
X32567382Y-91358876D01*
X32556504Y-91368295D01*
X32539208Y-91378505D01*
X32509783Y-91386026D01*
X32463211Y-91391230D01*
X32394476Y-91394486D01*
X32298561Y-91396165D01*
X32172209Y-91396635D01*
X32034402Y-91396744D01*
X31929312Y-91394780D01*
X31852517Y-91387309D01*
X31799596Y-91370895D01*
X31766129Y-91342104D01*
X31747695Y-91297501D01*
X31739874Y-91233649D01*
X31738245Y-91147116D01*
X31738429Y-91059576D01*
X31738777Y-90958018D01*
X31740494Y-90886782D01*
X31744589Y-90839031D01*
X31752071Y-90807928D01*
X31763948Y-90786636D01*
X31781230Y-90768317D01*
X31781433Y-90768126D01*
X31839074Y-90735265D01*
X31883628Y-90727725D01*
X31942818Y-90727725D01*
X31942818Y-90374689D01*
X31881024Y-90374689D01*
X31812329Y-90357812D01*
X31778829Y-90331685D01*
X31764757Y-90314941D01*
X31754394Y-90295319D01*
X31747177Y-90267270D01*
X31742538Y-90225242D01*
X31739911Y-90163686D01*
X31738731Y-90077051D01*
X31738433Y-89959788D01*
X31738429Y-89935436D01*
X31738583Y-89812547D01*
X31739446Y-89721318D01*
X31741619Y-89656248D01*
X31745703Y-89611836D01*
X31752300Y-89582580D01*
X31762009Y-89562978D01*
X31775432Y-89547530D01*
X31781433Y-89541791D01*
X31839074Y-89508930D01*
X31883628Y-89501390D01*
X31942818Y-89501390D01*
X31942818Y-89148354D01*
X31881024Y-89148354D01*
X31812329Y-89131477D01*
X31778829Y-89105350D01*
X31762461Y-89085275D01*
X31751215Y-89061409D01*
X31744139Y-89026838D01*
X31740284Y-88974643D01*
X31738700Y-88897910D01*
X31738429Y-88811296D01*
X31738308Y-88706151D01*
X31740883Y-88625896D01*
X31750564Y-88567179D01*
X31771759Y-88526647D01*
X31808876Y-88500947D01*
X31866324Y-88486726D01*
X31948512Y-88480633D01*
X32059848Y-88479314D01*
X32174813Y-88479444D01*
X32302020Y-88479933D01*
X32397110Y-88481649D01*
X32465119Y-88484965D01*
X32511084Y-88490256D01*
X32540038Y-88497896D01*
X32556504Y-88507784D01*
X32583193Y-88526436D01*
X32603051Y-88517204D01*
X32611339Y-88507784D01*
X32633770Y-88493072D01*
X32675759Y-88484162D01*
X32744040Y-88480040D01*
X32799811Y-88479444D01*
X32964764Y-88479444D01*
X32964764Y-88213261D01*
X32965067Y-88108342D01*
X32966592Y-88034003D01*
X32970262Y-87983666D01*
X32976999Y-87950752D01*
X32987727Y-87928680D01*
X33003368Y-87910872D01*
X33007768Y-87906677D01*
X33035287Y-87885834D01*
X33069555Y-87873569D01*
X33120655Y-87867757D01*
X33198667Y-87866277D01*
X33199628Y-87866277D01*
X33276505Y-87867498D01*
X33326185Y-87872667D01*
X33358593Y-87884037D01*
X33383656Y-87903865D01*
X33388884Y-87909281D01*
X33402741Y-87925725D01*
X33413008Y-87944974D01*
X33420221Y-87972459D01*
X33424917Y-88013613D01*
X33427633Y-88073867D01*
X33428905Y-88158654D01*
X33429271Y-88273404D01*
X33429285Y-88318060D01*
X33429285Y-88683834D01*
X33577931Y-88683834D01*
X33577931Y-88519845D01*
X33578893Y-88439145D01*
X33583070Y-88386364D01*
X33592404Y-88352280D01*
X33608833Y-88327672D01*
X33620936Y-88315456D01*
X33678576Y-88282595D01*
X33723130Y-88275055D01*
X33782321Y-88275055D01*
X33782321Y-88008872D01*
X33782624Y-87903952D01*
X33784149Y-87829614D01*
X33787819Y-87779277D01*
X33794556Y-87746363D01*
X33805283Y-87724291D01*
X33820924Y-87706483D01*
X33825325Y-87702288D01*
X33868329Y-87661888D01*
X39275770Y-87661888D01*
X39316170Y-87704892D01*
X39356571Y-87747897D01*
X39356571Y-97038731D01*
X39313566Y-97079132D01*
X39270562Y-97119532D01*
X33863122Y-97119532D01*
X33822721Y-97076528D01*
G37*
X71124000Y-30009000D02*
X71985000Y-30009000D01*
X74065000Y-30489000D02*
X75272000Y-30489000D01*
X74065000Y-30769000D02*
X75407000Y-30769000D01*
X71420000Y-29729000D02*
X71985000Y-29729000D01*
X74065000Y-31210000D02*
X75545000Y-31210000D01*
X70445000Y-31770000D02*
X75605000Y-31770000D01*
X74065000Y-31130000D02*
X75526000Y-31130000D01*
X70903000Y-30289000D02*
X71985000Y-30289000D01*
X70446000Y-31690000D02*
X75604000Y-31690000D01*
X74065000Y-30089000D02*
X74996000Y-30089000D01*
X70449000Y-31610000D02*
X75601000Y-31610000D01*
X71372000Y-29769000D02*
X71985000Y-29769000D01*
X71199000Y-29929000D02*
X71985000Y-29929000D01*
X70452000Y-31570000D02*
X75598000Y-31570000D01*
X74065000Y-31370000D02*
X75575000Y-31370000D01*
X71706000Y-29529000D02*
X71985000Y-29529000D01*
X70990000Y-30169000D02*
X71985000Y-30169000D01*
X71550000Y-34574775D02*
X71550000Y-34074775D01*
X71161000Y-29969000D02*
X71985000Y-29969000D01*
X70825000Y-30409000D02*
X71985000Y-30409000D01*
X70876000Y-30329000D02*
X71985000Y-30329000D01*
X70447000Y-31650000D02*
X75603000Y-31650000D01*
X71927000Y-29409000D02*
X74123000Y-29409000D01*
X74065000Y-30529000D02*
X75293000Y-30529000D01*
X70497000Y-31250000D02*
X71985000Y-31250000D01*
X74065000Y-29689000D02*
X74579000Y-29689000D01*
X71642000Y-29569000D02*
X71985000Y-29569000D01*
X70930000Y-30249000D02*
X71985000Y-30249000D01*
X74065000Y-30369000D02*
X75200000Y-30369000D01*
X74065000Y-31170000D02*
X75536000Y-31170000D01*
X72220000Y-29289000D02*
X73830000Y-29289000D01*
X71471000Y-29689000D02*
X71985000Y-29689000D01*
X74065000Y-30129000D02*
X75029000Y-30129000D01*
X70475000Y-31370000D02*
X71985000Y-31370000D01*
X71021000Y-30129000D02*
X71985000Y-30129000D01*
X74065000Y-31049000D02*
X75505000Y-31049000D01*
X70627000Y-30809000D02*
X71985000Y-30809000D01*
X70456000Y-31530000D02*
X71985000Y-31530000D01*
X70545000Y-31049000D02*
X71985000Y-31049000D01*
X70482000Y-31330000D02*
X71985000Y-31330000D01*
X74065000Y-31450000D02*
X75586000Y-31450000D01*
X74065000Y-30569000D02*
X75315000Y-30569000D01*
X71326000Y-29809000D02*
X71985000Y-29809000D01*
X74065000Y-31530000D02*
X75594000Y-31530000D01*
X74065000Y-29609000D02*
X74468000Y-29609000D01*
X70469000Y-31410000D02*
X71985000Y-31410000D01*
X70677000Y-30689000D02*
X71985000Y-30689000D01*
X71774000Y-29489000D02*
X71985000Y-29489000D01*
X70505000Y-31210000D02*
X71985000Y-31210000D01*
X74065000Y-29529000D02*
X74344000Y-29529000D01*
X70460000Y-31490000D02*
X71985000Y-31490000D01*
X74065000Y-30009000D02*
X74926000Y-30009000D01*
X74065000Y-30289000D02*
X75147000Y-30289000D01*
X70778000Y-30489000D02*
X71985000Y-30489000D01*
X72507000Y-29209000D02*
X73543000Y-29209000D01*
X72014000Y-29369000D02*
X74036000Y-29369000D01*
X71300000Y-34324775D02*
X71800000Y-34324775D01*
X74065000Y-30689000D02*
X75373000Y-30689000D01*
X74065000Y-31090000D02*
X75516000Y-31090000D01*
X74065000Y-30049000D02*
X74962000Y-30049000D01*
X70557000Y-31009000D02*
X71985000Y-31009000D01*
X74065000Y-30449000D02*
X75249000Y-30449000D01*
X70489000Y-31290000D02*
X71985000Y-31290000D01*
X70524000Y-31130000D02*
X71985000Y-31130000D01*
X74065000Y-30729000D02*
X75390000Y-30729000D01*
X71088000Y-30049000D02*
X71985000Y-30049000D01*
X71240000Y-29889000D02*
X71985000Y-29889000D01*
X72348000Y-29249000D02*
X73702000Y-29249000D01*
X74065000Y-31250000D02*
X75553000Y-31250000D01*
X74065000Y-29809000D02*
X74724000Y-29809000D01*
X70534000Y-31090000D02*
X71985000Y-31090000D01*
X74065000Y-29889000D02*
X74810000Y-29889000D01*
X74065000Y-30209000D02*
X75090000Y-30209000D01*
X71847000Y-29449000D02*
X74203000Y-29449000D01*
X70850000Y-30369000D02*
X71985000Y-30369000D01*
X74065000Y-30609000D02*
X75335000Y-30609000D01*
X74065000Y-30809000D02*
X75423000Y-30809000D01*
X72110000Y-29329000D02*
X73940000Y-29329000D01*
X74065000Y-29849000D02*
X74768000Y-29849000D01*
X74065000Y-30329000D02*
X75174000Y-30329000D01*
X70960000Y-30209000D02*
X71985000Y-30209000D01*
X71582000Y-29609000D02*
X71985000Y-29609000D01*
X70643000Y-30769000D02*
X71985000Y-30769000D01*
X70514000Y-31170000D02*
X71985000Y-31170000D01*
X74065000Y-30409000D02*
X75225000Y-30409000D01*
X70715000Y-30609000D02*
X71985000Y-30609000D01*
X70597000Y-30889000D02*
X71985000Y-30889000D01*
X74065000Y-30649000D02*
X75354000Y-30649000D01*
X74065000Y-29569000D02*
X74408000Y-29569000D01*
X74065000Y-29769000D02*
X74678000Y-29769000D01*
X74065000Y-30169000D02*
X75060000Y-30169000D01*
X74065000Y-29649000D02*
X74525000Y-29649000D01*
X71525000Y-29649000D02*
X71985000Y-29649000D01*
X74065000Y-31490000D02*
X75590000Y-31490000D01*
X70464000Y-31450000D02*
X71985000Y-31450000D01*
X74065000Y-30889000D02*
X75453000Y-30889000D01*
X70696000Y-30649000D02*
X71985000Y-30649000D01*
X74065000Y-29969000D02*
X74889000Y-29969000D01*
X72741000Y-29169000D02*
X73309000Y-29169000D01*
X74065000Y-29729000D02*
X74630000Y-29729000D01*
X70801000Y-30449000D02*
X71985000Y-30449000D01*
X70735000Y-30569000D02*
X71985000Y-30569000D01*
X74065000Y-30249000D02*
X75120000Y-30249000D01*
X74065000Y-29489000D02*
X74276000Y-29489000D01*
X74065000Y-31009000D02*
X75493000Y-31009000D01*
X74065000Y-31290000D02*
X75561000Y-31290000D01*
X74065000Y-30849000D02*
X75439000Y-30849000D01*
X74065000Y-31410000D02*
X75581000Y-31410000D01*
X70583000Y-30929000D02*
X71985000Y-30929000D01*
X71282000Y-29849000D02*
X71985000Y-29849000D01*
X70660000Y-30729000D02*
X71985000Y-30729000D01*
X70570000Y-30969000D02*
X71985000Y-30969000D01*
X70757000Y-30529000D02*
X71985000Y-30529000D01*
X74065000Y-30969000D02*
X75480000Y-30969000D01*
X70445000Y-31730000D02*
X75605000Y-31730000D01*
X71054000Y-30089000D02*
X71985000Y-30089000D01*
X74065000Y-31330000D02*
X75568000Y-31330000D01*
X74065000Y-29929000D02*
X74851000Y-29929000D01*
X70611000Y-30849000D02*
X71985000Y-30849000D01*
X74065000Y-30929000D02*
X75467000Y-30929000D01*
X75645000Y-31770000D02*
G75*
G03*
X75645000Y-31770000I-2620000J0D01*
G01*
X39855019Y-42036245D02*
X39855019Y-52036245D01*
X39855019Y-52036245D02*
X32105019Y-52036245D01*
X32105019Y-42036245D02*
X39855019Y-42036245D01*
X60706000Y-99476000D02*
X57946000Y-99476000D01*
X57946000Y-93056000D02*
X57946000Y-93801000D01*
X60706000Y-99476000D02*
X63466000Y-99476000D01*
X63466000Y-98731000D02*
X65156000Y-98731000D01*
X63466000Y-93056000D02*
X63466000Y-93801000D01*
X60706000Y-93056000D02*
X63466000Y-93056000D01*
X57946000Y-99476000D02*
X57946000Y-98731000D01*
X63466000Y-99476000D02*
X63466000Y-98731000D01*
X60706000Y-93056000D02*
X57946000Y-93056000D01*
X48291270Y-48035335D02*
X47768766Y-48035335D01*
X48291270Y-46565335D02*
X47768766Y-46565335D01*
X43480635Y-41335000D02*
X43480635Y-40005000D01*
X44810635Y-41335000D02*
X43480635Y-41335000D01*
X46080635Y-41335000D02*
X46080635Y-38675000D01*
X46080635Y-41335000D02*
X53760635Y-41335000D01*
X46080635Y-38675000D02*
X53760635Y-38675000D01*
X53760635Y-41335000D02*
X53760635Y-38675000D01*
X49268748Y-91594000D02*
X49791252Y-91594000D01*
X49268748Y-93064000D02*
X49791252Y-93064000D01*
X64035000Y-69442064D02*
X64035000Y-68987936D01*
X65505000Y-69442064D02*
X65505000Y-68987936D01*
X74566700Y-104778733D02*
X74566700Y-100585400D01*
X78546700Y-91092067D02*
X74806700Y-91092067D01*
X74806700Y-91092067D02*
X74806700Y-104538733D01*
X76806700Y-104778733D02*
X74566700Y-104778733D01*
X74806700Y-104538733D02*
X78546700Y-104538733D01*
X47397936Y-59590000D02*
X47852064Y-59590000D01*
X47397936Y-61060000D02*
X47852064Y-61060000D01*
X57735000Y-41335000D02*
X57735000Y-40005000D01*
X60335000Y-41335000D02*
X60335000Y-38675000D01*
X60335000Y-38675000D02*
X68015000Y-38675000D01*
X59065000Y-41335000D02*
X57735000Y-41335000D01*
X60335000Y-41335000D02*
X68015000Y-41335000D01*
X68015000Y-41335000D02*
X68015000Y-38675000D01*
X39070331Y-83560000D02*
X30470331Y-83560000D01*
X39070331Y-52590000D02*
X39070331Y-83560000D01*
X30470331Y-52590000D02*
X39070331Y-52590000D01*
X39630000Y-101102500D02*
X39630000Y-103082500D01*
X39630000Y-115322500D02*
X54350000Y-115322500D01*
X39630000Y-106782500D02*
X39630000Y-115322500D01*
X54350000Y-106782500D02*
X54350000Y-115322500D01*
X54350000Y-103082500D02*
X54350000Y-101102500D01*
X43490000Y-100722500D02*
X43990000Y-100222500D01*
X42990000Y-100222500D02*
X43490000Y-100722500D01*
X39630000Y-101102500D02*
X54350000Y-101102500D01*
X43990000Y-100222500D02*
X42990000Y-100222500D01*
X55653000Y-70096748D02*
X55653000Y-70619252D01*
X57123000Y-70096748D02*
X57123000Y-70619252D01*
X53456064Y-66267000D02*
X53001936Y-66267000D01*
X53456064Y-64797000D02*
X53001936Y-64797000D01*
X48251044Y-42102092D02*
X47728540Y-42102092D01*
X48251044Y-43572092D02*
X47728540Y-43572092D01*
X57685000Y-60459252D02*
X57685000Y-59936748D01*
X59155000Y-60459252D02*
X59155000Y-59936748D01*
X71053000Y-67310000D02*
X68393000Y-67310000D01*
X71053000Y-36770000D02*
X68393000Y-36770000D01*
X71053000Y-67310000D02*
X71053000Y-36770000D01*
X68393000Y-67310000D02*
X68393000Y-36770000D01*
G36*
X47462314Y-112774950D02*
G01*
X47147438Y-112774950D01*
X47147438Y-112460074D01*
X47462314Y-112460074D01*
X47462314Y-112774950D01*
G37*
G36*
X50925950Y-107736934D02*
G01*
X50611074Y-107736934D01*
X50611074Y-107422058D01*
X50925950Y-107422058D01*
X50925950Y-107736934D01*
G37*
G36*
X49036694Y-112774950D02*
G01*
X48406942Y-112774950D01*
X48406942Y-112460074D01*
X49036694Y-112460074D01*
X49036694Y-112774950D01*
G37*
G36*
X43683802Y-108996438D02*
G01*
X43368926Y-108996438D01*
X43368926Y-108681562D01*
X43683802Y-108681562D01*
X43683802Y-108996438D01*
G37*
G36*
X47462314Y-106477430D02*
G01*
X47147438Y-106477430D01*
X47147438Y-106162554D01*
X47462314Y-106162554D01*
X47462314Y-106477430D01*
G37*
G36*
X43998678Y-108366686D02*
G01*
X43683802Y-108366686D01*
X43683802Y-108051810D01*
X43998678Y-108051810D01*
X43998678Y-108366686D01*
G37*
G36*
X49981322Y-111830322D02*
G01*
X49981322Y-111515446D01*
X49351570Y-111515446D01*
X49351570Y-111830322D01*
X49036694Y-111830322D01*
X49036694Y-112145198D01*
X48406942Y-112145198D01*
X48406942Y-111830322D01*
X47147438Y-111830322D01*
X47147438Y-111515446D01*
X46517686Y-111515446D01*
X46517686Y-111830322D01*
X46832562Y-111830322D01*
X46832562Y-112145198D01*
X47147438Y-112145198D01*
X47147438Y-112460074D01*
X46517686Y-112460074D01*
X46517686Y-112774950D01*
X46202810Y-112774950D01*
X46202810Y-112460074D01*
X46517686Y-112460074D01*
X46517686Y-112145198D01*
X46202810Y-112145198D01*
X46202810Y-112460074D01*
X45887934Y-112460074D01*
X45887934Y-111830322D01*
X46202810Y-111830322D01*
X46202810Y-111200570D01*
X46517686Y-111200570D01*
X46832562Y-111200570D01*
X46832562Y-110885694D01*
X46517686Y-110885694D01*
X46517686Y-111200570D01*
X46202810Y-111200570D01*
X46202810Y-110885694D01*
X46517686Y-110885694D01*
X46517686Y-110570818D01*
X47147438Y-110570818D01*
X47147438Y-111200570D01*
X47462314Y-111200570D01*
X47462314Y-111515446D01*
X48092066Y-111515446D01*
X48092066Y-111200570D01*
X48406942Y-111200570D01*
X49351570Y-111200570D01*
X49351570Y-110255942D01*
X48406942Y-110255942D01*
X48406942Y-111200570D01*
X48092066Y-111200570D01*
X48092066Y-110885694D01*
X47462314Y-110885694D01*
X47462314Y-110255942D01*
X47777190Y-110255942D01*
X47777190Y-109941066D01*
X48092066Y-109941066D01*
X48406942Y-109941066D01*
X49981322Y-109941066D01*
X49981322Y-109626190D01*
X49666446Y-109626190D01*
X49666446Y-109941066D01*
X49036694Y-109941066D01*
X49036694Y-109626190D01*
X48721818Y-109626190D01*
X48721818Y-109311314D01*
X49351570Y-109311314D01*
X49666446Y-109311314D01*
X50296198Y-109311314D01*
X50296198Y-108996438D01*
X49666446Y-108996438D01*
X49666446Y-109311314D01*
X49351570Y-109311314D01*
X49351570Y-108996438D01*
X49666446Y-108996438D01*
X49666446Y-108681562D01*
X49981322Y-108681562D01*
X49981322Y-108366686D01*
X49666446Y-108366686D01*
X49666446Y-108051810D01*
X49036694Y-108051810D01*
X49036694Y-108366686D01*
X49351570Y-108366686D01*
X49351570Y-108681562D01*
X49036694Y-108681562D01*
X49036694Y-108996438D01*
X48406942Y-108996438D01*
X48406942Y-109941066D01*
X48092066Y-109941066D01*
X48092066Y-109626190D01*
X47777190Y-109626190D01*
X47777190Y-109941066D01*
X47462314Y-109941066D01*
X47462314Y-109311314D01*
X48092066Y-109311314D01*
X48092066Y-108996438D01*
X47777190Y-108996438D01*
X47777190Y-108681562D01*
X47462314Y-108681562D01*
X47462314Y-109311314D01*
X46832562Y-109311314D01*
X46832562Y-108681562D01*
X46517686Y-108681562D01*
X46517686Y-109311314D01*
X45887934Y-109311314D01*
X45887934Y-108366686D01*
X46202810Y-108366686D01*
X46202810Y-108051810D01*
X45887934Y-108051810D01*
X45887934Y-107736934D01*
X45573058Y-107736934D01*
X45573058Y-108051810D01*
X45258182Y-108051810D01*
X45258182Y-107736934D01*
X44943306Y-107736934D01*
X44943306Y-107422058D01*
X45573058Y-107422058D01*
X45573058Y-107107182D01*
X45887934Y-107107182D01*
X46202810Y-107107182D01*
X46202810Y-107736934D01*
X46517686Y-107736934D01*
X46517686Y-108366686D01*
X46832562Y-108366686D01*
X46832562Y-108051810D01*
X47147438Y-108051810D01*
X47147438Y-108681562D01*
X47462314Y-108681562D01*
X47462314Y-108366686D01*
X48406942Y-108366686D01*
X48721818Y-108366686D01*
X48721818Y-108051810D01*
X49036694Y-108051810D01*
X49036694Y-107736934D01*
X48406942Y-107736934D01*
X48406942Y-108366686D01*
X47462314Y-108366686D01*
X47462314Y-108051810D01*
X47777190Y-108051810D01*
X48092066Y-108051810D01*
X48092066Y-107736934D01*
X47777190Y-107736934D01*
X47777190Y-108051810D01*
X47462314Y-108051810D01*
X47462314Y-107736934D01*
X46832562Y-107736934D01*
X46832562Y-107422058D01*
X46517686Y-107422058D01*
X46517686Y-107107182D01*
X46832562Y-107107182D01*
X46832562Y-106792306D01*
X46517686Y-106792306D01*
X46517686Y-106162554D01*
X45887934Y-106162554D01*
X45887934Y-107107182D01*
X45573058Y-107107182D01*
X45573058Y-105847678D01*
X46202810Y-105847678D01*
X46202810Y-104903050D01*
X46517686Y-104903050D01*
X46517686Y-105847678D01*
X46832562Y-105847678D01*
X46832562Y-106477430D01*
X47147438Y-106477430D01*
X47147438Y-107422058D01*
X47462314Y-107422058D01*
X47462314Y-107736934D01*
X47777190Y-107736934D01*
X47777190Y-107422058D01*
X49981322Y-107422058D01*
X49981322Y-108051810D01*
X50296198Y-108051810D01*
X50296198Y-108366686D01*
X50611074Y-108366686D01*
X50611074Y-108681562D01*
X50925950Y-108681562D01*
X50925950Y-108996438D01*
X50611074Y-108996438D01*
X50611074Y-109311314D01*
X50296198Y-109311314D01*
X50296198Y-109626190D01*
X50611074Y-109626190D01*
X50611074Y-109941066D01*
X50296198Y-109941066D01*
X50296198Y-110255942D01*
X49666446Y-110255942D01*
X49666446Y-110885694D01*
X50925950Y-110885694D01*
X50925950Y-111200570D01*
X50296198Y-111200570D01*
X50296198Y-111515446D01*
X50925950Y-111515446D01*
X50925950Y-111830322D01*
X50611074Y-111830322D01*
X50611074Y-112460074D01*
X50925950Y-112460074D01*
X50925950Y-112774950D01*
X49981322Y-112774950D01*
X49981322Y-112460074D01*
X49036694Y-112460074D01*
X49036694Y-112145198D01*
X49666446Y-112145198D01*
X49981322Y-112145198D01*
X50296198Y-112145198D01*
X50296198Y-111830322D01*
X49981322Y-111830322D01*
X49981322Y-112145198D01*
X49666446Y-112145198D01*
X49666446Y-111830322D01*
X49981322Y-111830322D01*
G37*
G36*
X44628430Y-106477430D02*
G01*
X43683802Y-106477430D01*
X43683802Y-105532802D01*
X44628430Y-105532802D01*
X44628430Y-106477430D01*
G37*
G36*
X47462314Y-105532802D02*
G01*
X46832562Y-105532802D01*
X46832562Y-105217926D01*
X47147438Y-105217926D01*
X47147438Y-104903050D01*
X47462314Y-104903050D01*
X47462314Y-105532802D01*
G37*
G36*
X45887934Y-112774950D02*
G01*
X45573058Y-112774950D01*
X45573058Y-112460074D01*
X45887934Y-112460074D01*
X45887934Y-112774950D01*
G37*
G36*
X45258182Y-108366686D02*
G01*
X44943306Y-108366686D01*
X44943306Y-108681562D01*
X45258182Y-108681562D01*
X45258182Y-108996438D01*
X44943306Y-108996438D01*
X44943306Y-109311314D01*
X45573058Y-109311314D01*
X45573058Y-109626190D01*
X44628430Y-109626190D01*
X44628430Y-109941066D01*
X45887934Y-109941066D01*
X45887934Y-110255942D01*
X46202810Y-110255942D01*
X46202810Y-109941066D01*
X46517686Y-109941066D01*
X46517686Y-110570818D01*
X45887934Y-110570818D01*
X45887934Y-110885694D01*
X45573058Y-110885694D01*
X45573058Y-110255942D01*
X44313554Y-110255942D01*
X44313554Y-109311314D01*
X44628430Y-109311314D01*
X44628430Y-108681562D01*
X44313554Y-108681562D01*
X44313554Y-109311314D01*
X43998678Y-109311314D01*
X43998678Y-109626190D01*
X43683802Y-109626190D01*
X43683802Y-109941066D01*
X43054050Y-109941066D01*
X43054050Y-109311314D01*
X43683802Y-109311314D01*
X43683802Y-108996438D01*
X43998678Y-108996438D01*
X43998678Y-108366686D01*
X44628430Y-108366686D01*
X44628430Y-108051810D01*
X45258182Y-108051810D01*
X45258182Y-108366686D01*
G37*
G36*
X46517686Y-107107182D02*
G01*
X46202810Y-107107182D01*
X46202810Y-106792306D01*
X46517686Y-106792306D01*
X46517686Y-107107182D01*
G37*
G36*
X45887934Y-105217926D02*
G01*
X45573058Y-105217926D01*
X45573058Y-104903050D01*
X45887934Y-104903050D01*
X45887934Y-105217926D01*
G37*
G36*
X47777190Y-107107182D02*
G01*
X47462314Y-107107182D01*
X47462314Y-106477430D01*
X47777190Y-106477430D01*
X47777190Y-107107182D01*
G37*
G36*
X48406942Y-107107182D02*
G01*
X48092066Y-107107182D01*
X48092066Y-105847678D01*
X48406942Y-105847678D01*
X48406942Y-107107182D01*
G37*
G36*
X46832562Y-109626190D02*
G01*
X46517686Y-109626190D01*
X46517686Y-109311314D01*
X46832562Y-109311314D01*
X46832562Y-109626190D01*
G37*
G36*
X45258182Y-104903050D02*
G01*
X45258182Y-107107182D01*
X43054050Y-107107182D01*
X43054050Y-106792306D01*
X43368926Y-106792306D01*
X44943306Y-106792306D01*
X44943306Y-105217926D01*
X43368926Y-105217926D01*
X43368926Y-106792306D01*
X43054050Y-106792306D01*
X43054050Y-104903050D01*
X45258182Y-104903050D01*
G37*
G36*
X44628430Y-112145198D02*
G01*
X43683802Y-112145198D01*
X43683802Y-111200570D01*
X44628430Y-111200570D01*
X44628430Y-112145198D01*
G37*
G36*
X45887934Y-111515446D02*
G01*
X45573058Y-111515446D01*
X45573058Y-111200570D01*
X45887934Y-111200570D01*
X45887934Y-111515446D01*
G37*
G36*
X43368926Y-107736934D02*
G01*
X43054050Y-107736934D01*
X43054050Y-107422058D01*
X43368926Y-107422058D01*
X43368926Y-107736934D01*
G37*
G36*
X48092066Y-105847678D02*
G01*
X47777190Y-105847678D01*
X47777190Y-106162554D01*
X47462314Y-106162554D01*
X47462314Y-105532802D01*
X48092066Y-105532802D01*
X48092066Y-105847678D01*
G37*
G36*
X50925950Y-104903050D02*
G01*
X50925950Y-107107182D01*
X48721818Y-107107182D01*
X48721818Y-106792306D01*
X49036694Y-106792306D01*
X50611074Y-106792306D01*
X50611074Y-105217926D01*
X49036694Y-105217926D01*
X49036694Y-106792306D01*
X48721818Y-106792306D01*
X48721818Y-104903050D01*
X50925950Y-104903050D01*
G37*
G36*
X48092066Y-112460074D02*
G01*
X47462314Y-112460074D01*
X47462314Y-112145198D01*
X48092066Y-112145198D01*
X48092066Y-112460074D01*
G37*
G36*
X44628430Y-107736934D02*
G01*
X44313554Y-107736934D01*
X44313554Y-107422058D01*
X44628430Y-107422058D01*
X44628430Y-107736934D01*
G37*
G36*
X50611074Y-108051810D02*
G01*
X50296198Y-108051810D01*
X50296198Y-107736934D01*
X50611074Y-107736934D01*
X50611074Y-108051810D01*
G37*
G36*
X50296198Y-106477430D02*
G01*
X49351570Y-106477430D01*
X49351570Y-105532802D01*
X50296198Y-105532802D01*
X50296198Y-106477430D01*
G37*
G36*
X43683802Y-108051810D02*
G01*
X43368926Y-108051810D01*
X43368926Y-107736934D01*
X43683802Y-107736934D01*
X43683802Y-108051810D01*
G37*
G36*
X48406942Y-105532802D02*
G01*
X48092066Y-105532802D01*
X48092066Y-104903050D01*
X48406942Y-104903050D01*
X48406942Y-105532802D01*
G37*
G36*
X49036694Y-110885694D02*
G01*
X48721818Y-110885694D01*
X48721818Y-110570818D01*
X49036694Y-110570818D01*
X49036694Y-110885694D01*
G37*
G36*
X47462314Y-110255942D02*
G01*
X47147438Y-110255942D01*
X47147438Y-109941066D01*
X47462314Y-109941066D01*
X47462314Y-110255942D01*
G37*
G36*
X45573058Y-108681562D02*
G01*
X45258182Y-108681562D01*
X45258182Y-108366686D01*
X45573058Y-108366686D01*
X45573058Y-108681562D01*
G37*
G36*
X44313554Y-108051810D02*
G01*
X43998678Y-108051810D01*
X43998678Y-107736934D01*
X44313554Y-107736934D01*
X44313554Y-108051810D01*
G37*
G36*
X45258182Y-110570818D02*
G01*
X45258182Y-112774950D01*
X43054050Y-112774950D01*
X43054050Y-112460074D01*
X43368926Y-112460074D01*
X44943306Y-112460074D01*
X44943306Y-110885694D01*
X43368926Y-110885694D01*
X43368926Y-112460074D01*
X43054050Y-112460074D01*
X43054050Y-110570818D01*
X45258182Y-110570818D01*
G37*
X48267252Y-45566000D02*
X47744748Y-45566000D01*
X48267252Y-44096000D02*
X47744748Y-44096000D01*
X64216000Y-41402000D02*
X64816000Y-41402000D01*
X64216000Y-41162000D02*
X64216000Y-41402000D01*
X64816000Y-48768000D02*
X64216000Y-48768000D01*
X62566000Y-46185000D02*
X62566000Y-43985000D01*
X62566000Y-43985000D02*
X62326000Y-43985000D01*
X66466000Y-43985000D02*
X66466000Y-46185000D01*
X53621000Y-70096748D02*
X53621000Y-70619252D01*
X55091000Y-70096748D02*
X55091000Y-70619252D01*
X56615000Y-34772936D02*
X56615000Y-35227064D01*
X55145000Y-34772936D02*
X55145000Y-35227064D01*
X47397936Y-58520000D02*
X47852064Y-58520000D01*
X47397936Y-57050000D02*
X47852064Y-57050000D01*
X47397936Y-64670000D02*
X47852064Y-64670000D01*
X47397936Y-66140000D02*
X47852064Y-66140000D01*
X75946000Y-104394000D02*
X75946000Y-105156000D01*
X74586000Y-106984748D02*
X74586000Y-108407252D01*
X76327000Y-104775000D02*
X75565000Y-104775000D01*
X77306000Y-106984748D02*
X77306000Y-108407252D01*
D11*
X51498500Y-78469000D02*
X51498500Y-74319000D01*
X51978500Y-78469000D02*
X51978500Y-79594000D01*
X51498500Y-74319000D02*
X51978500Y-74319000D01*
X61658500Y-78469000D02*
X61658500Y-74319000D01*
X51498500Y-78469000D02*
X51978500Y-78469000D01*
X61658500Y-74319000D02*
X61178500Y-74319000D01*
X61658500Y-78469000D02*
X61178500Y-78469000D01*
D10*
X47397936Y-72290000D02*
X47852064Y-72290000D01*
X47397936Y-73760000D02*
X47852064Y-73760000D01*
X55605000Y-90754667D02*
X55605000Y-92954667D01*
X51705000Y-92954667D02*
X51705000Y-90754667D01*
X53355000Y-87931667D02*
X53355000Y-88171667D01*
X53355000Y-88171667D02*
X53955000Y-88171667D01*
X53955000Y-95537667D02*
X53355000Y-95537667D01*
X51705000Y-90754667D02*
X51465000Y-90754667D01*
%LPC*%
D13*
X54213000Y-59817000D03*
X52213000Y-59817000D03*
D14*
X59579000Y-91821000D03*
X61579000Y-91821000D03*
D15*
X64516000Y-54737000D03*
X64516000Y-49857000D03*
D13*
X54213000Y-63627000D03*
X52213000Y-63627000D03*
D14*
X46625000Y-67945000D03*
D16*
X45212000Y-67945000D03*
D14*
X48625000Y-67945000D03*
D16*
X50038000Y-67945000D03*
D17*
X50046413Y-62888717D03*
D16*
X45212000Y-70485000D03*
D14*
X46625000Y-70485000D03*
X48625000Y-70485000D03*
D16*
X50038000Y-70485000D03*
D18*
X52324000Y-69320500D03*
X52324000Y-71395500D03*
D19*
X69723000Y-81280000D03*
X69723000Y-78740000D03*
D16*
X45212000Y-55245000D03*
D14*
X46625000Y-55245000D03*
X48625000Y-55245000D03*
D16*
X50038000Y-55245000D03*
D19*
X67056000Y-81280000D03*
X67056000Y-78740000D03*
X67056000Y-76200000D03*
X69806000Y-76200000D03*
D13*
X54213000Y-61722000D03*
X52213000Y-61722000D03*
D19*
X72390000Y-86360000D03*
X72390000Y-83820000D03*
X72390000Y-81280000D03*
X72390000Y-78740000D03*
X72390000Y-76200000D03*
X72390000Y-73660000D03*
X72390000Y-71120000D03*
X72390000Y-68580000D03*
X72390000Y-66040000D03*
X72390000Y-63500000D03*
X72390000Y-60960000D03*
X72390000Y-58420000D03*
X72390000Y-55880000D03*
X72390000Y-53340000D03*
X72390000Y-50800000D03*
X72390000Y-48260000D03*
X72390000Y-45720000D03*
X72390000Y-43180000D03*
X72390000Y-40640000D03*
X72390000Y-38100000D03*
D20*
X60485500Y-56642000D03*
X60485500Y-55372000D03*
X60485500Y-54102000D03*
X60485500Y-52832000D03*
X60485500Y-51562000D03*
X60485500Y-50292000D03*
X60485500Y-49022000D03*
X60485500Y-47752000D03*
X60485500Y-46482000D03*
X60485500Y-45212000D03*
X60485500Y-43942000D03*
X60485500Y-42672000D03*
X53560500Y-42672000D03*
X53560500Y-43942000D03*
X53560500Y-45212000D03*
X53560500Y-46482000D03*
X53560500Y-47752000D03*
X53560500Y-49022000D03*
X53560500Y-50292000D03*
X53560500Y-51562000D03*
X53560500Y-52832000D03*
X53560500Y-54102000D03*
X53560500Y-55372000D03*
X53560500Y-56642000D03*
D21*
X45720635Y-33684506D03*
X51500635Y-33684506D03*
D22*
X51835635Y-35129506D03*
D23*
X49908980Y-32537012D03*
D22*
X51060635Y-35129506D03*
D24*
X50360635Y-35129506D03*
X49860635Y-35129506D03*
D23*
X49258980Y-32537012D03*
D24*
X49360635Y-35129506D03*
X48860635Y-35129506D03*
D23*
X48608980Y-32537012D03*
D24*
X48360635Y-35129506D03*
X47860635Y-35129506D03*
X47360635Y-35129506D03*
X46860635Y-35129506D03*
D22*
X46160635Y-35129506D03*
X45385635Y-35129506D03*
D23*
X47308980Y-32537012D03*
D25*
X52930635Y-30034506D03*
D26*
X50823219Y-30571992D03*
D19*
X51631980Y-29657012D03*
D27*
X49568980Y-29387012D03*
D28*
X45608980Y-31337012D03*
D29*
X51028980Y-32657012D03*
D30*
X46350311Y-30543394D03*
D31*
X52930635Y-34214506D03*
D27*
X47648980Y-29387012D03*
D32*
X45708980Y-32657012D03*
D28*
X51558980Y-31337012D03*
D32*
X51458980Y-32637012D03*
D33*
X45858980Y-30899012D03*
D25*
X44290635Y-30034506D03*
D29*
X46188980Y-32657012D03*
D33*
X51338980Y-30899012D03*
D19*
X45535980Y-29629012D03*
D31*
X44290635Y-34214506D03*
D23*
X47958980Y-32537012D03*
D34*
X52212000Y-97917000D03*
D35*
X50912000Y-97917000D03*
D36*
X37284483Y-102508257D03*
D19*
X37284483Y-105048257D03*
X37284483Y-107588257D03*
X37284483Y-110128257D03*
D36*
X61976000Y-70485000D03*
D19*
X61976000Y-67945000D03*
D37*
X55870000Y-32084506D03*
X55870000Y-30084506D03*
D36*
X79375000Y-86355000D03*
D19*
X76835000Y-86355000D03*
X79375000Y-83815000D03*
X76835000Y-83815000D03*
X79375000Y-81275000D03*
X76835000Y-81275000D03*
X79375000Y-78735000D03*
X76835000Y-78735000D03*
X79375000Y-76195000D03*
X76835000Y-76195000D03*
X79375000Y-73655000D03*
X76835000Y-73655000D03*
X79375000Y-71115000D03*
X76835000Y-71115000D03*
X79375000Y-68575000D03*
X76835000Y-68575000D03*
X79375000Y-66035000D03*
X76835000Y-66035000D03*
X79375000Y-63495000D03*
X76835000Y-63495000D03*
X79375000Y-60955000D03*
X76835000Y-60955000D03*
X79375000Y-58415000D03*
X76835000Y-58415000D03*
X79375000Y-55875000D03*
X76835000Y-55875000D03*
X79375000Y-53335000D03*
X76835000Y-53335000D03*
X79375000Y-50795000D03*
X76835000Y-50795000D03*
X79375000Y-48255000D03*
X76835000Y-48255000D03*
X79375000Y-45715000D03*
X76835000Y-45715000D03*
X79375000Y-43175000D03*
X76835000Y-43175000D03*
X79375000Y-40635000D03*
X76835000Y-40635000D03*
X79375000Y-38095000D03*
X76835000Y-38095000D03*
D38*
X40455000Y-72445000D03*
X40455000Y-71945000D03*
X40455000Y-71445000D03*
X40455000Y-70945000D03*
X40455000Y-70445000D03*
X40455000Y-69945000D03*
X40455000Y-69445000D03*
X40455000Y-68945000D03*
X40455000Y-68445000D03*
X40455000Y-67945000D03*
X40455000Y-67445000D03*
X40455000Y-66945000D03*
X40455000Y-66445000D03*
X40455000Y-65945000D03*
X40455000Y-65445000D03*
X40455000Y-64945000D03*
X40455000Y-64445000D03*
X40455000Y-63945000D03*
X40455000Y-63445000D03*
D39*
X39695000Y-60695000D03*
D40*
X33735000Y-60695000D03*
X33735000Y-75195000D03*
D39*
X39695000Y-75195000D03*
D13*
X49006000Y-49276000D03*
X47006000Y-49276000D03*
D41*
X68664381Y-95867757D03*
D16*
X68664381Y-94454757D03*
D41*
X68664381Y-97867757D03*
D16*
X68664381Y-99280757D03*
D42*
X41275000Y-88900000D03*
D43*
X41275000Y-91400000D03*
X41275000Y-93400000D03*
X41275000Y-95900000D03*
D44*
X38565000Y-98970000D03*
X38565000Y-85830000D03*
D45*
X50066639Y-75569345D03*
D16*
X45212000Y-52705000D03*
D14*
X46625000Y-52705000D03*
D16*
X50038000Y-52705000D03*
D14*
X48625000Y-52705000D03*
X70628000Y-99568000D03*
X72628000Y-99568000D03*
D42*
X61270000Y-102222500D03*
D43*
X63770000Y-102222500D03*
X65770000Y-102222500D03*
X68270000Y-102222500D03*
D44*
X71340000Y-104932500D03*
X58200000Y-104932500D03*
D46*
X44511000Y-82550000D03*
D47*
X44511000Y-78549500D03*
X42103000Y-78549500D03*
D46*
X42103000Y-82550000D03*
D21*
X65729600Y-33682000D03*
X59949600Y-33682000D03*
D22*
X66064600Y-35127000D03*
X65289600Y-35127000D03*
D23*
X64137945Y-32534506D03*
D24*
X64589600Y-35127000D03*
X64089600Y-35127000D03*
D23*
X63487945Y-32534506D03*
D24*
X63589600Y-35127000D03*
D23*
X62837945Y-32534506D03*
D24*
X63089600Y-35127000D03*
X62589600Y-35127000D03*
X62089600Y-35127000D03*
X61589600Y-35127000D03*
X61089600Y-35127000D03*
D22*
X60389600Y-35127000D03*
D23*
X61537945Y-32534506D03*
D22*
X59614600Y-35127000D03*
D28*
X65787945Y-31334506D03*
D32*
X59937945Y-32654506D03*
D26*
X65052184Y-30569486D03*
D25*
X67159600Y-30032000D03*
D30*
X60579276Y-30540888D03*
D27*
X61877945Y-29384506D03*
D32*
X65687945Y-32634506D03*
D19*
X65860945Y-29654506D03*
D33*
X60087945Y-30896506D03*
D28*
X59837945Y-31334506D03*
D29*
X65257945Y-32654506D03*
D33*
X65567945Y-30896506D03*
D25*
X58519600Y-30032000D03*
D19*
X59764945Y-29626506D03*
D31*
X58519600Y-34212000D03*
X67159600Y-34212000D03*
D29*
X60417945Y-32654506D03*
D27*
X63797945Y-29384506D03*
D23*
X62187945Y-32534506D03*
D48*
X44838400Y-46990000D03*
D49*
X42838400Y-46990000D03*
D36*
X31369000Y-38684200D03*
D19*
X31369000Y-36144200D03*
X33909000Y-38684200D03*
X33909000Y-36144200D03*
X36449000Y-38684200D03*
X36449000Y-36144200D03*
X38989000Y-38684200D03*
X38989000Y-36144200D03*
X41529000Y-38684200D03*
X41529000Y-36144200D03*
D36*
X59309000Y-70485000D03*
D19*
X59309000Y-67945000D03*
D50*
X48492500Y-94615000D03*
X50567500Y-94615000D03*
D51*
X60579000Y-61235500D03*
X60579000Y-59160500D03*
D50*
X64494500Y-91821000D03*
X66569500Y-91821000D03*
D52*
X52133500Y-83666500D03*
X53403500Y-83666500D03*
X54673500Y-83666500D03*
X55943500Y-83666500D03*
X57213500Y-83666500D03*
X58483500Y-83666500D03*
X59753500Y-83666500D03*
X61023500Y-83666500D03*
X61023500Y-76741500D03*
X59753500Y-76741500D03*
X58483500Y-76741500D03*
X57213500Y-76741500D03*
X55943500Y-76741500D03*
X54673500Y-76741500D03*
X53403500Y-76741500D03*
X52133500Y-76741500D03*
D15*
X65024000Y-88011000D03*
X60144000Y-88011000D03*
D37*
X41275000Y-57150000D03*
D16*
X41275000Y-58563000D03*
D37*
X41275000Y-55150000D03*
D16*
X41275000Y-53737000D03*
D15*
X48260000Y-85762000D03*
X48260000Y-80882000D03*
D51*
X62738000Y-61235500D03*
X62738000Y-59160500D03*
D53*
X73025000Y-33020000D03*
D54*
X73025000Y-30520000D03*
D55*
X37955019Y-50786245D03*
D56*
X38155019Y-47036245D03*
D55*
X37955019Y-43286245D03*
D57*
X34255019Y-47036245D03*
D58*
X64206000Y-98171000D03*
X64206000Y-96901000D03*
X64206000Y-95631000D03*
X64206000Y-94361000D03*
X57206000Y-94361000D03*
X57206000Y-95631000D03*
X57206000Y-96901000D03*
X57206000Y-98171000D03*
D59*
X49067518Y-47300335D03*
X46992518Y-47300335D03*
D36*
X44810635Y-40005000D03*
D19*
X47350635Y-40005000D03*
X49890635Y-40005000D03*
X52430635Y-40005000D03*
D17*
X54483000Y-97917000D03*
D50*
X48492500Y-92329000D03*
X50567500Y-92329000D03*
D37*
X64770000Y-70215000D03*
X64770000Y-68215000D03*
D60*
X76806700Y-103355400D03*
X76806700Y-100585400D03*
X76806700Y-97815400D03*
X76806700Y-95045400D03*
X76806700Y-92275400D03*
D16*
X45212000Y-60325000D03*
D14*
X46625000Y-60325000D03*
D16*
X50038000Y-60325000D03*
D14*
X48625000Y-60325000D03*
D36*
X59065000Y-40005000D03*
D19*
X61605000Y-40005000D03*
X64145000Y-40005000D03*
X66685000Y-40005000D03*
D61*
X35350331Y-80575000D03*
X35350331Y-55575000D03*
D53*
X37400331Y-72390000D03*
D54*
X37400331Y-70100000D03*
X37400331Y-67810000D03*
X37400331Y-65520000D03*
X37400331Y-63230000D03*
X35420331Y-73535000D03*
X35420331Y-71245000D03*
X35420331Y-68955000D03*
X35420331Y-66665000D03*
X35420331Y-64375000D03*
X33440331Y-72390000D03*
X33440331Y-70100000D03*
X33440331Y-67810000D03*
X33440331Y-65520000D03*
X33440331Y-63230000D03*
D42*
X43490000Y-102222500D03*
D43*
X45990000Y-102222500D03*
X47990000Y-102222500D03*
X50490000Y-102222500D03*
D44*
X40420000Y-104932500D03*
X53560000Y-104932500D03*
D18*
X56388000Y-69320500D03*
X56388000Y-71395500D03*
D13*
X54229000Y-65532000D03*
X52229000Y-65532000D03*
D59*
X49027292Y-42837092D03*
X46952292Y-42837092D03*
D51*
X58420000Y-61235500D03*
X58420000Y-59160500D03*
D19*
X69723000Y-66040000D03*
X69723000Y-63500000D03*
X69723000Y-60960000D03*
X69723000Y-58420000D03*
X69723000Y-55880000D03*
X69723000Y-53340000D03*
X69723000Y-50800000D03*
X69723000Y-48260000D03*
X69723000Y-45720000D03*
X69723000Y-43180000D03*
X69723000Y-40640000D03*
X69723000Y-38100000D03*
D59*
X49043500Y-44831000D03*
X46968500Y-44831000D03*
D46*
X63312000Y-43053000D03*
D47*
X63312000Y-47053500D03*
X65720000Y-47053500D03*
D46*
X65720000Y-43053000D03*
D18*
X54356000Y-69320500D03*
X54356000Y-71395500D03*
D41*
X55880000Y-34000000D03*
X55880000Y-36000000D03*
D16*
X45212000Y-57785000D03*
D14*
X46625000Y-57785000D03*
D16*
X50038000Y-57785000D03*
D14*
X48625000Y-57785000D03*
D16*
X45212000Y-65405000D03*
D14*
X46625000Y-65405000D03*
D16*
X50038000Y-65405000D03*
D14*
X48625000Y-65405000D03*
D62*
X75946000Y-106329500D03*
X75946000Y-109062500D03*
D63*
X52451000Y-78994000D03*
X53086000Y-78994000D03*
X53721000Y-78994000D03*
X54356000Y-78994000D03*
X54991000Y-78994000D03*
X55626000Y-78994000D03*
X56261000Y-78994000D03*
X56896000Y-78994000D03*
X57531000Y-78994000D03*
X58166000Y-78994000D03*
X58801000Y-78994000D03*
X59436000Y-78994000D03*
X60071000Y-78994000D03*
X60706000Y-78994000D03*
X60706000Y-73794000D03*
X60071000Y-73794000D03*
X59436000Y-73794000D03*
X58801000Y-73794000D03*
X58166000Y-73794000D03*
X57531000Y-73794000D03*
X56896000Y-73794000D03*
X56261000Y-73794000D03*
X55626000Y-73794000D03*
X54991000Y-73794000D03*
X54356000Y-73794000D03*
X53721000Y-73794000D03*
X53086000Y-73794000D03*
X52451000Y-73794000D03*
D16*
X45212000Y-73025000D03*
D14*
X46625000Y-73025000D03*
D16*
X50038000Y-73025000D03*
D14*
X48625000Y-73025000D03*
D46*
X52451000Y-89822667D03*
D47*
X52451000Y-93823167D03*
X54859000Y-93823167D03*
D46*
X54859000Y-89822667D03*
D64*
X66764318Y-109982000D03*
X62764318Y-109982000D03*
M02*
