G04 #@! TF.GenerationSoftware,KiCad,Pcbnew,6.0.11-2627ca5db0~126~ubuntu20.04.1*
G04 #@! TF.CreationDate,2023-09-26T13:38:11+05:00*
G04 #@! TF.ProjectId,33NJU23,33334e4a-5532-4332-9e6b-696361645f70,rev?*
G04 #@! TF.SameCoordinates,Original*
G04 #@! TF.FileFunction,Paste,Top*
G04 #@! TF.FilePolarity,Positive*
%FSLAX46Y46*%
G04 Gerber Fmt 4.6, Leading zero omitted, Abs format (unit mm)*
G04 Created by KiCad (PCBNEW 6.0.11-2627ca5db0~126~ubuntu20.04.1) date 2023-09-26 13:38:11*
%MOMM*%
%LPD*%
G01*
G04 APERTURE LIST*
G04 Aperture macros list*
%AMRoundRect*
0 Rectangle with rounded corners*
0 $1 Rounding radius*
0 $2 $3 $4 $5 $6 $7 $8 $9 X,Y pos of 4 corners*
0 Add a 4 corners polygon primitive as box body*
4,1,4,$2,$3,$4,$5,$6,$7,$8,$9,$2,$3,0*
0 Add four circle primitives for the rounded corners*
1,1,$1+$1,$2,$3*
1,1,$1+$1,$4,$5*
1,1,$1+$1,$6,$7*
1,1,$1+$1,$8,$9*
0 Add four rect primitives between the rounded corners*
20,1,$1+$1,$2,$3,$4,$5,0*
20,1,$1+$1,$4,$5,$6,$7,0*
20,1,$1+$1,$6,$7,$8,$9,0*
20,1,$1+$1,$8,$9,$2,$3,0*%
G04 Aperture macros list end*
%ADD10RoundRect,0.250000X0.350000X0.450000X-0.350000X0.450000X-0.350000X-0.450000X0.350000X-0.450000X0*%
%ADD11R,2.000000X0.700000*%
%ADD12R,1.400000X1.600000*%
%ADD13R,1.400000X1.200000*%
%ADD14R,2.200000X1.200000*%
%ADD15RoundRect,0.250000X-0.350000X-0.450000X0.350000X-0.450000X0.350000X0.450000X-0.350000X0.450000X0*%
%ADD16R,2.600000X0.300000*%
%ADD17RoundRect,0.250000X0.450000X-0.350000X0.450000X0.350000X-0.450000X0.350000X-0.450000X-0.350000X0*%
%ADD18RoundRect,0.150000X0.587500X0.150000X-0.587500X0.150000X-0.587500X-0.150000X0.587500X-0.150000X0*%
%ADD19RoundRect,0.150000X-0.587500X-0.150000X0.587500X-0.150000X0.587500X0.150000X-0.587500X0.150000X0*%
%ADD20RoundRect,0.250000X-0.450000X0.350000X-0.450000X-0.350000X0.450000X-0.350000X0.450000X0.350000X0*%
%ADD21R,3.480000X1.846667*%
G04 APERTURE END LIST*
D10*
X58150000Y-95351600D03*
X56150000Y-95351600D03*
D11*
X43245000Y-44795000D03*
X43245000Y-43695000D03*
X43245000Y-42595000D03*
X43245000Y-41495000D03*
X43245000Y-40395000D03*
D12*
X42645000Y-49395000D03*
D11*
X43245000Y-39295000D03*
D13*
X42645000Y-34795000D03*
D14*
X33145000Y-34795000D03*
X33045000Y-50295000D03*
D11*
X43245000Y-38195000D03*
X43245000Y-37095000D03*
X43245000Y-35995000D03*
D15*
X46625000Y-67945000D03*
X48625000Y-67945000D03*
X46625000Y-70485000D03*
X48625000Y-70485000D03*
X46625000Y-55245000D03*
X48625000Y-55245000D03*
D10*
X46059675Y-82550000D03*
X44059675Y-82550000D03*
D15*
X42175031Y-79258622D03*
X44175031Y-79258622D03*
X51070000Y-82550000D03*
X53070000Y-82550000D03*
X64405000Y-81280000D03*
X66405000Y-81280000D03*
X63813724Y-94591650D03*
X65813724Y-94591650D03*
X67326000Y-104013000D03*
X69326000Y-104013000D03*
X67317000Y-98497000D03*
X69317000Y-98497000D03*
D10*
X45085000Y-106045000D03*
X43085000Y-106045000D03*
D16*
X40455000Y-72445000D03*
X40455000Y-71945000D03*
X40455000Y-71445000D03*
X40455000Y-70945000D03*
X40455000Y-70445000D03*
X40455000Y-69945000D03*
X40455000Y-69445000D03*
X40455000Y-68945000D03*
X40455000Y-68445000D03*
X40455000Y-67945000D03*
X40455000Y-67445000D03*
X40455000Y-66945000D03*
X40455000Y-66445000D03*
X40455000Y-65945000D03*
X40455000Y-65445000D03*
X40455000Y-64945000D03*
X40455000Y-64445000D03*
X40455000Y-63945000D03*
X40455000Y-63445000D03*
D15*
X63843288Y-92344802D03*
X65843288Y-92344802D03*
X46625000Y-52705000D03*
X48625000Y-52705000D03*
X51050000Y-85524500D03*
X53050000Y-85524500D03*
D17*
X62865000Y-88630000D03*
X62865000Y-86630000D03*
D10*
X48990000Y-33655000D03*
X46990000Y-33655000D03*
D18*
X67406881Y-86115527D03*
X67406881Y-84215527D03*
X65531881Y-85165527D03*
D10*
X69310000Y-109474000D03*
X67310000Y-109474000D03*
X69307000Y-107067000D03*
X67307000Y-107067000D03*
D15*
X56150000Y-97282000D03*
X58150000Y-97282000D03*
D17*
X69850000Y-91043000D03*
X69850000Y-89043000D03*
D19*
X58300352Y-82649390D03*
X58300352Y-84549390D03*
X60175352Y-83599390D03*
D20*
X72771000Y-98060000D03*
X72771000Y-100060000D03*
D15*
X46625000Y-60325000D03*
X48625000Y-60325000D03*
X35830000Y-106045000D03*
X37830000Y-106045000D03*
D10*
X69310000Y-111506000D03*
X67310000Y-111506000D03*
D20*
X60293101Y-90149032D03*
X60293101Y-92149032D03*
X74676000Y-108855000D03*
X74676000Y-110855000D03*
D17*
X41275000Y-57145923D03*
X41275000Y-55145923D03*
D21*
X76839500Y-103330000D03*
X76839500Y-100560000D03*
X76839500Y-97790000D03*
X76839500Y-95020000D03*
X76839500Y-92250000D03*
D20*
X76835000Y-108855000D03*
X76835000Y-110855000D03*
X57150000Y-90170000D03*
X57150000Y-92170000D03*
D15*
X46625000Y-57785000D03*
X48625000Y-57785000D03*
X67317000Y-101387000D03*
X69317000Y-101387000D03*
X46625000Y-65405000D03*
X48625000Y-65405000D03*
D20*
X72390000Y-89112553D03*
X72390000Y-91112553D03*
D15*
X46625000Y-73025000D03*
X48625000Y-73025000D03*
M02*
