M48
; DRILL file {KiCad 6.0.11-2627ca5db0~126~ubuntu20.04.1} date Вт 26 сен 2023 13:38:57
; FORMAT={-:-/ absolute / metric / decimal}
; #@! TF.CreationDate,2023-09-26T13:38:57+05:00
; #@! TF.GenerationSoftware,Kicad,Pcbnew,6.0.11-2627ca5db0~126~ubuntu20.04.1
; #@! TF.FileFunction,Plated,1,2,PTH
FMAT,2
METRIC
; #@! TA.AperFunction,Plated,PTH,ViaDrill
T1C0.400
; #@! TA.AperFunction,Plated,PTH,ViaDrill
T2C0.500
; #@! TA.AperFunction,Plated,PTH,ComponentDrill
T3C0.600
; #@! TA.AperFunction,Plated,PTH,ComponentDrill
T4C0.650
; #@! TA.AperFunction,Plated,PTH,ViaDrill
T5C0.700
; #@! TA.AperFunction,Plated,PTH,ComponentDrill
T6C0.800
; #@! TA.AperFunction,Plated,PTH,ComponentDrill
T7C0.900
; #@! TA.AperFunction,Plated,PTH,ComponentDrill
T8C0.920
; #@! TA.AperFunction,Plated,PTH,ComponentDrill
T9C1.000
; #@! TA.AperFunction,Plated,PTH,ComponentDrill
T10C1.200
; #@! TA.AperFunction,Plated,PTH,ComponentDrill
T11C2.300
; #@! TA.AperFunction,Plated,PTH,ViaDrill
T12C3.000
; #@! TA.AperFunction,Plated,PTH,ComponentDrill
T13C3.200
%
G90
G05
T1
X42.401Y-64.525
T2
X37.211Y-39.497
X41.846Y-62.23
X41.876Y-39.25
X42.898Y-70.118
X44.35Y-63.246
X45.085Y-43.494
X45.604Y-46.297
X50.419Y-43.053
X55.425Y-35.854
X55.725Y-61.44
X55.755Y-74.077
X57.023Y-81.661
X57.15Y-79.375
X58.166Y-46.736
X58.166Y-47.879
X58.166Y-49.149
X58.166Y-51.943
X58.166Y-53.213
X58.166Y-54.483
X58.674Y-36.068
X61.214Y-43.974
X65.532Y-42.164
X65.532Y-44.831
X67.056Y-36.703
X67.922Y-39.982
X68.065Y-44.838
X68.199Y-36.703
X68.46Y-41.282
X70.296Y-54.296
X70.453Y-48.619
X70.474Y-51.192
X70.612Y-96.647
X70.958Y-41.025
X71.12Y-95.758
X71.264Y-83.676
X71.755Y-81.915
X71.755Y-94.996
X72.76Y-82.587
X73.176Y-93.861
X73.686Y-85.243
X74.358Y-100.787
X74.4Y-99.049
X74.539Y-87.376
X76.454Y-89.164
X80.391Y-67.31
X80.929Y-80.363
X81.724Y-61.976
X82.285Y-52.324
T5
X61.468Y-47.244
X61.468Y-52.578
X64.516Y-47.244
X64.516Y-52.578
T6
X49.824Y-95.504
X50.76Y-89.789
X52.324Y-95.504
X53.26Y-89.789
T9
X33.44Y-63.23
X33.44Y-65.52
X33.44Y-67.81
X33.44Y-70.1
X33.44Y-72.39
X34.417Y-106.045
X35.42Y-64.375
X35.42Y-66.665
X35.42Y-68.955
X35.42Y-71.245
X35.42Y-73.535
X37.4Y-63.23
X37.4Y-65.52
X37.4Y-67.81
X37.4Y-70.1
X37.4Y-72.39
X39.243Y-106.045
X39.354Y-110.739
X40.762Y-79.259
X41.275Y-53.733
X41.275Y-58.559
X41.672Y-106.045
X41.894Y-110.739
X41.925Y-29.845
X42.647Y-82.55
X44.434Y-110.739
X44.465Y-29.845
X45.212Y-52.705
X45.212Y-55.245
X45.212Y-57.785
X45.212Y-60.325
X45.212Y-65.405
X45.212Y-67.945
X45.212Y-70.485
X45.212Y-73.025
X45.577Y-33.655
X45.588Y-79.259
X46.355Y-87.645
X46.355Y-90.185
X46.355Y-92.725
X46.498Y-106.045
X46.99Y-36.83
X46.99Y-39.37
X46.99Y-41.91
X46.99Y-44.45
X46.99Y-46.99
X46.99Y-49.53
X47.005Y-29.845
X47.473Y-82.55
X49.637Y-85.524
X49.657Y-82.55
X50.033Y-75.591
X50.033Y-78.131
X50.038Y-52.705
X50.038Y-55.245
X50.038Y-57.785
X50.038Y-60.325
X50.038Y-65.405
X50.038Y-67.945
X50.038Y-70.485
X50.038Y-73.025
X50.044Y-62.874
X50.403Y-33.655
X52.973Y-102.039
X52.973Y-104.839
X53.975Y-29.595
X53.975Y-32.135
X53.975Y-34.675
X53.975Y-37.215
X53.975Y-39.755
X53.975Y-42.295
X53.975Y-44.835
X53.975Y-47.375
X53.975Y-49.915
X53.975Y-52.455
X53.975Y-54.995
X53.975Y-57.535
X53.975Y-60.075
X53.975Y-62.615
X53.975Y-65.155
X53.975Y-67.695
X53.975Y-70.235
X53.975Y-72.775
X53.975Y-75.315
X53.975Y-77.855
X54.463Y-85.524
X54.483Y-82.55
X54.737Y-95.352
X54.737Y-97.282
X55.073Y-104.839
X56.811Y-84.638
X57.15Y-88.757
X57.15Y-93.583
X57.673Y-104.839
X59.563Y-95.352
X59.563Y-97.282
X59.735Y-81.58
X59.773Y-102.039
X59.773Y-104.839
X60.228Y-85.06
X60.293Y-88.736
X60.293Y-93.562
X62.401Y-94.592
X62.43Y-92.345
X62.865Y-85.217
X62.865Y-90.043
X62.992Y-81.28
X65.375Y-83.723
X65.868Y-87.203
X65.894Y-107.067
X65.897Y-109.474
X65.897Y-111.506
X65.904Y-98.497
X65.904Y-101.387
X65.913Y-104.013
X67.227Y-94.592
X67.256Y-92.345
X67.818Y-81.28
X68.792Y-84.145
X69.85Y-87.63
X69.85Y-92.456
X70.72Y-107.067
X70.723Y-109.474
X70.723Y-111.506
X70.73Y-98.497
X70.73Y-101.387
X70.739Y-104.013
X71.755Y-29.595
X71.755Y-32.135
X71.755Y-34.675
X71.755Y-37.215
X71.755Y-39.755
X71.755Y-42.295
X71.755Y-44.835
X71.755Y-47.375
X71.755Y-49.915
X71.755Y-52.455
X71.755Y-54.995
X71.755Y-57.535
X71.755Y-60.075
X71.755Y-62.615
X71.755Y-65.155
X71.755Y-67.695
X71.755Y-70.235
X71.755Y-72.775
X71.755Y-75.315
X71.755Y-77.855
X72.39Y-87.7
X72.39Y-92.526
X72.771Y-96.647
X72.771Y-101.473
X74.676Y-107.442
X74.676Y-112.268
X76.225Y-29.452
X76.225Y-31.992
X76.225Y-34.532
X76.835Y-38.095
X76.835Y-40.635
X76.835Y-43.175
X76.835Y-45.715
X76.835Y-48.255
X76.835Y-50.795
X76.835Y-53.335
X76.835Y-55.875
X76.835Y-58.415
X76.835Y-60.955
X76.835Y-63.495
X76.835Y-66.035
X76.835Y-68.575
X76.835Y-71.115
X76.835Y-73.655
X76.835Y-76.195
X76.835Y-78.735
X76.835Y-81.275
X76.835Y-83.815
X76.835Y-86.355
X76.835Y-107.442
X76.835Y-112.268
X79.375Y-38.095
X79.375Y-40.635
X79.375Y-43.175
X79.375Y-45.715
X79.375Y-48.255
X79.375Y-50.795
X79.375Y-53.335
X79.375Y-55.875
X79.375Y-58.415
X79.375Y-60.955
X79.375Y-63.495
X79.375Y-66.035
X79.375Y-68.575
X79.375Y-71.115
X79.375Y-73.655
X79.375Y-76.195
X79.375Y-78.735
X79.375Y-81.275
X79.375Y-83.815
X79.375Y-86.355
T11
X49.889Y-102.786
X63.029Y-102.786
T12
X33.02Y-31.115
X33.02Y-110.49
X80.645Y-31.115
X80.645Y-110.49
T13
X35.35Y-55.575
X35.35Y-80.575
T3
X58.545Y-29.711G85X58.545Y-30.311
G05
X58.545Y-33.641G85X58.545Y-34.741
G05
X67.185Y-29.711G85X67.185Y-30.311
G05
X67.185Y-33.641G85X67.185Y-34.741
G05
T4
X60.42Y-32.546G85X60.42Y-32.946
G05
X65.26Y-32.546G85X65.26Y-32.946
G05
T7
X34.135Y-60.695G85X33.335Y-60.695
G05
X34.135Y-75.195G85X33.335Y-75.195
G05
X40.595Y-60.695G85X38.795Y-60.695
G05
X40.595Y-75.195G85X38.795Y-75.195
G05
T8
X52.959Y-99.155G85X52.959Y-100.235
G05
X55.459Y-99.155G85X55.459Y-100.235
G05
X57.459Y-99.155G85X57.459Y-100.235
G05
X59.959Y-99.155G85X59.959Y-100.235
G05
T9
X31.125Y-90.77G85X31.125Y-89.77
G05
X31.125Y-100.93G85X31.125Y-99.93
G05
X33.525Y-88.77G85X33.525Y-87.77
G05
X33.525Y-98.93G85X33.525Y-97.93
G05
X37.225Y-90.77G85X37.225Y-89.77
G05
X37.225Y-100.93G85X37.225Y-99.93
G05
X39.025Y-88.77G85X39.025Y-87.77
G05
X39.025Y-98.93G85X39.025Y-97.93
G05
X42.725Y-90.77G85X42.725Y-89.77
G05
X42.725Y-100.93G85X42.725Y-99.93
G05
X49.523Y-106.939G85X49.523Y-108.439
G05
X55.373Y-108.489G85X57.373Y-108.489
G05
X63.223Y-106.939G85X63.223Y-108.439
G05
T10
X59.817Y-29.746G85X59.817Y-29.746
G05
X65.913Y-29.718G85X65.913Y-29.718
G05
T0
M30
