G04 #@! TF.GenerationSoftware,KiCad,Pcbnew,6.0.11-2627ca5db0~126~ubuntu20.04.1*
G04 #@! TF.CreationDate,2023-09-26T13:38:11+05:00*
G04 #@! TF.ProjectId,33NJU23,33334e4a-5532-4332-9e6b-696361645f70,rev?*
G04 #@! TF.SameCoordinates,Original*
G04 #@! TF.FileFunction,Soldermask,Top*
G04 #@! TF.FilePolarity,Negative*
%FSLAX46Y46*%
G04 Gerber Fmt 4.6, Leading zero omitted, Abs format (unit mm)*
G04 Created by KiCad (PCBNEW 6.0.11-2627ca5db0~126~ubuntu20.04.1) date 2023-09-26 13:38:11*
%MOMM*%
%LPD*%
G01*
G04 APERTURE LIST*
G04 Aperture macros list*
%AMRoundRect*
0 Rectangle with rounded corners*
0 $1 Rounding radius*
0 $2 $3 $4 $5 $6 $7 $8 $9 X,Y pos of 4 corners*
0 Add a 4 corners polygon primitive as box body*
4,1,4,$2,$3,$4,$5,$6,$7,$8,$9,$2,$3,0*
0 Add four circle primitives for the rounded corners*
1,1,$1+$1,$2,$3*
1,1,$1+$1,$4,$5*
1,1,$1+$1,$6,$7*
1,1,$1+$1,$8,$9*
0 Add four rect primitives between the rounded corners*
20,1,$1+$1,$2,$3,$4,$5,0*
20,1,$1+$1,$4,$5,$6,$7,0*
20,1,$1+$1,$6,$7,$8,$9,0*
20,1,$1+$1,$8,$9,$2,$3,0*%
%AMFreePoly0*
4,1,57,1.881438,0.792513,1.914631,0.788760,1.924366,0.782642,1.935575,0.780064,1.961670,0.759195,1.989950,0.741421,2.341668,0.389704,2.359398,0.361385,2.380215,0.335261,2.382772,0.324050,2.388875,0.314303,2.392571,0.281098,2.400000,0.248529,2.400000,-0.248878,2.392513,-0.281438,2.388760,-0.314632,2.382641,-0.324367,2.380064,-0.335575,2.359196,-0.361669,2.341421,-0.389950,
1.989704,-0.741668,1.961385,-0.759398,1.935261,-0.780215,1.924050,-0.782772,1.914303,-0.788875,1.881098,-0.792571,1.848529,-0.800000,-0.248878,-0.800000,-0.281438,-0.792513,-0.314632,-0.788760,-0.324367,-0.782641,-0.335575,-0.780064,-0.361669,-0.759196,-0.389950,-0.741421,-0.741668,-0.389704,-0.759398,-0.361385,-0.780215,-0.335261,-0.782772,-0.324050,-0.788875,-0.314303,-0.792571,-0.281098,
-0.800000,-0.248529,-0.800000,0.248878,-0.792513,0.281438,-0.788760,0.314631,-0.782642,0.324366,-0.780064,0.335575,-0.759195,0.361670,-0.741421,0.389950,-0.389704,0.741668,-0.361385,0.759398,-0.335261,0.780215,-0.324050,0.782772,-0.314303,0.788875,-0.281098,0.792571,-0.248529,0.800000,1.848878,0.800000,1.881438,0.792513,1.881438,0.792513,$1*%
%AMFreePoly1*
4,1,57,0.281438,0.792513,0.314631,0.788760,0.324366,0.782642,0.335575,0.780064,0.361670,0.759195,0.389950,0.741421,0.741668,0.389704,0.759398,0.361385,0.780215,0.335261,0.782772,0.324050,0.788875,0.314303,0.792571,0.281098,0.800000,0.248529,0.800000,-0.248878,0.792513,-0.281438,0.788760,-0.314632,0.782641,-0.324367,0.780064,-0.335575,0.759196,-0.361669,0.741421,-0.389950,
0.389704,-0.741668,0.361385,-0.759398,0.335261,-0.780215,0.324050,-0.782772,0.314303,-0.788875,0.281098,-0.792571,0.248529,-0.800000,-0.248878,-0.800000,-0.281438,-0.792513,-0.314632,-0.788760,-0.324367,-0.782641,-0.335575,-0.780064,-0.361669,-0.759196,-0.389950,-0.741421,-0.741668,-0.389704,-0.759398,-0.361385,-0.780215,-0.335261,-0.782772,-0.324050,-0.788875,-0.314303,-0.792571,-0.281098,
-0.800000,-0.248529,-0.800000,0.248878,-0.792513,0.281438,-0.788760,0.314631,-0.782642,0.324366,-0.780064,0.335575,-0.759195,0.361670,-0.741421,0.389950,-0.389704,0.741668,-0.361385,0.759398,-0.335261,0.780215,-0.324050,0.782772,-0.314303,0.788875,-0.281098,0.792571,-0.248529,0.800000,0.248878,0.800000,0.281438,0.792513,0.281438,0.792513,$1*%
G04 Aperture macros list end*
%ADD10RoundRect,0.250000X0.350000X0.450000X-0.350000X0.450000X-0.350000X-0.450000X0.350000X-0.450000X0*%
%ADD11C,1.700000*%
%ADD12C,1.000000*%
%ADD13R,2.000000X0.700000*%
%ADD14R,1.400000X1.600000*%
%ADD15R,1.400000X1.200000*%
%ADD16R,2.200000X1.200000*%
%ADD17RoundRect,0.250000X-0.350000X-0.450000X0.350000X-0.450000X0.350000X0.450000X-0.350000X0.450000X0*%
%ADD18R,1.700000X1.700000*%
%ADD19O,1.700000X1.700000*%
%ADD20R,2.600000X0.300000*%
%ADD21RoundRect,0.350000X-1.300000X0.350000X-1.300000X-0.350000X1.300000X-0.350000X1.300000X0.350000X0*%
%ADD22RoundRect,0.350000X-0.700000X0.350000X-0.700000X-0.350000X0.700000X-0.350000X0.700000X0.350000X0*%
%ADD23RoundRect,0.250000X0.450000X-0.350000X0.450000X0.350000X-0.450000X0.350000X-0.450000X-0.350000X0*%
%ADD24RoundRect,0.150000X0.587500X0.150000X-0.587500X0.150000X-0.587500X-0.150000X0.587500X-0.150000X0*%
%ADD25O,1.800000X2.800000*%
%ADD26O,2.000000X3.500000*%
%ADD27O,4.000000X2.000000*%
%ADD28RoundRect,0.150000X-0.587500X-0.150000X0.587500X-0.150000X0.587500X0.150000X-0.587500X0.150000X0*%
%ADD29R,1.524000X2.600000*%
%ADD30O,1.524000X2.600000*%
%ADD31C,3.500000*%
%ADD32RoundRect,0.250000X-0.450000X0.350000X-0.450000X-0.350000X0.450000X-0.350000X0.450000X0.350000X0*%
%ADD33C,4.000000*%
%ADD34R,1.600000X1.600000*%
%ADD35C,1.600000*%
%ADD36FreePoly0,0.000000*%
%ADD37FreePoly1,0.000000*%
%ADD38O,3.200000X1.600000*%
%ADD39RoundRect,0.200000X-0.600000X-0.600000X0.600000X-0.600000X0.600000X0.600000X-0.600000X0.600000X0*%
%ADD40RoundRect,0.200000X-1.400000X-0.600000X1.400000X-0.600000X1.400000X0.600000X-1.400000X0.600000X0*%
%ADD41R,3.480000X1.846667*%
%ADD42C,0.650000*%
%ADD43O,1.000000X1.600000*%
%ADD44O,1.000000X2.100000*%
%ADD45O,1.100000X1.500000*%
G04 APERTURE END LIST*
D10*
X58150000Y-95351600D03*
D11*
X59563000Y-95351600D03*
D10*
X56150000Y-95351600D03*
D11*
X54737000Y-95351600D03*
D12*
X32745000Y-37595000D03*
X32745000Y-45595000D03*
D13*
X43245000Y-44795000D03*
X43245000Y-43695000D03*
X43245000Y-42595000D03*
X43245000Y-41495000D03*
X43245000Y-40395000D03*
D14*
X42645000Y-49395000D03*
D13*
X43245000Y-39295000D03*
D15*
X42645000Y-34795000D03*
D16*
X33145000Y-34795000D03*
X33045000Y-50295000D03*
D13*
X43245000Y-38195000D03*
X43245000Y-37095000D03*
X43245000Y-35995000D03*
D17*
X46625000Y-67945000D03*
D11*
X45212000Y-67945000D03*
D17*
X48625000Y-67945000D03*
D11*
X50038000Y-67945000D03*
X45212000Y-70485000D03*
D17*
X46625000Y-70485000D03*
X48625000Y-70485000D03*
D11*
X50038000Y-70485000D03*
X45212000Y-55245000D03*
D17*
X46625000Y-55245000D03*
X48625000Y-55245000D03*
D11*
X50038000Y-55245000D03*
D10*
X46059675Y-82550000D03*
D11*
X47472675Y-82550000D03*
D10*
X44059675Y-82550000D03*
D11*
X42646675Y-82550000D03*
D17*
X42175031Y-79258622D03*
D11*
X40762031Y-79258622D03*
D17*
X44175031Y-79258622D03*
D11*
X45588031Y-79258622D03*
D17*
X51070000Y-82550000D03*
D11*
X49657000Y-82550000D03*
D17*
X53070000Y-82550000D03*
D11*
X54483000Y-82550000D03*
X62992000Y-81280000D03*
D17*
X64405000Y-81280000D03*
X66405000Y-81280000D03*
D11*
X67818000Y-81280000D03*
X62400724Y-94591650D03*
D17*
X63813724Y-94591650D03*
X65813724Y-94591650D03*
D11*
X67226724Y-94591650D03*
X65913000Y-104013000D03*
D17*
X67326000Y-104013000D03*
D11*
X70739000Y-104013000D03*
D17*
X69326000Y-104013000D03*
X67317000Y-98497000D03*
D11*
X65904000Y-98497000D03*
D17*
X69317000Y-98497000D03*
D11*
X70730000Y-98497000D03*
D18*
X79375000Y-86355000D03*
D19*
X76835000Y-86355000D03*
X79375000Y-83815000D03*
X76835000Y-83815000D03*
X79375000Y-81275000D03*
X76835000Y-81275000D03*
X79375000Y-78735000D03*
X76835000Y-78735000D03*
X79375000Y-76195000D03*
X76835000Y-76195000D03*
X79375000Y-73655000D03*
X76835000Y-73655000D03*
X79375000Y-71115000D03*
X76835000Y-71115000D03*
X79375000Y-68575000D03*
X76835000Y-68575000D03*
X79375000Y-66035000D03*
X76835000Y-66035000D03*
X79375000Y-63495000D03*
X76835000Y-63495000D03*
X79375000Y-60955000D03*
X76835000Y-60955000D03*
X79375000Y-58415000D03*
X76835000Y-58415000D03*
X79375000Y-55875000D03*
X76835000Y-55875000D03*
X79375000Y-53335000D03*
X76835000Y-53335000D03*
X79375000Y-50795000D03*
X76835000Y-50795000D03*
X79375000Y-48255000D03*
X76835000Y-48255000D03*
X79375000Y-45715000D03*
X76835000Y-45715000D03*
X79375000Y-43175000D03*
X76835000Y-43175000D03*
X79375000Y-40635000D03*
X76835000Y-40635000D03*
X79375000Y-38095000D03*
X76835000Y-38095000D03*
D10*
X45085000Y-106045000D03*
D11*
X46498000Y-106045000D03*
X41672000Y-106045000D03*
D10*
X43085000Y-106045000D03*
D20*
X40455000Y-72445000D03*
X40455000Y-71945000D03*
X40455000Y-71445000D03*
X40455000Y-70945000D03*
X40455000Y-70445000D03*
X40455000Y-69945000D03*
X40455000Y-69445000D03*
X40455000Y-68945000D03*
X40455000Y-68445000D03*
X40455000Y-67945000D03*
X40455000Y-67445000D03*
X40455000Y-66945000D03*
X40455000Y-66445000D03*
X40455000Y-65945000D03*
X40455000Y-65445000D03*
X40455000Y-64945000D03*
X40455000Y-64445000D03*
X40455000Y-63945000D03*
X40455000Y-63445000D03*
D21*
X39695000Y-60695000D03*
D22*
X33735000Y-60695000D03*
X33735000Y-75195000D03*
D21*
X39695000Y-75195000D03*
D17*
X63843288Y-92344802D03*
D11*
X62430288Y-92344802D03*
D17*
X65843288Y-92344802D03*
D11*
X67256288Y-92344802D03*
X45212000Y-52705000D03*
D17*
X46625000Y-52705000D03*
D11*
X50038000Y-52705000D03*
D17*
X48625000Y-52705000D03*
D18*
X50033422Y-78130833D03*
D19*
X50033422Y-75590833D03*
D17*
X51050000Y-85524500D03*
D11*
X49637000Y-85524500D03*
X54463000Y-85524500D03*
D17*
X53050000Y-85524500D03*
D11*
X62865000Y-90043000D03*
D23*
X62865000Y-88630000D03*
D11*
X62865000Y-85217000D03*
D23*
X62865000Y-86630000D03*
D11*
X50403000Y-33655000D03*
D10*
X48990000Y-33655000D03*
D11*
X45577000Y-33655000D03*
D10*
X46990000Y-33655000D03*
D18*
X50043916Y-62874035D03*
D11*
X65375497Y-83723399D03*
D24*
X67406881Y-86115527D03*
X67406881Y-84215527D03*
D11*
X68792024Y-84144777D03*
X65868066Y-87202778D03*
D24*
X65531881Y-85165527D03*
D25*
X39025000Y-88270000D03*
X37225000Y-90270000D03*
X31125000Y-90270000D03*
X33525000Y-88270000D03*
X42725000Y-90270000D03*
D18*
X57673448Y-104839098D03*
D11*
X55073448Y-104839098D03*
X59773448Y-104839098D03*
D26*
X49523448Y-107689098D03*
X63223448Y-107689098D03*
D27*
X56373448Y-108489098D03*
D11*
X52973448Y-104839098D03*
X59773448Y-102039098D03*
X52973448Y-102039098D03*
X70723000Y-109474000D03*
D10*
X69310000Y-109474000D03*
X67310000Y-109474000D03*
D11*
X65897000Y-109474000D03*
X70720000Y-107067000D03*
D10*
X69307000Y-107067000D03*
D11*
X65894000Y-107067000D03*
D10*
X67307000Y-107067000D03*
D25*
X39025000Y-98430000D03*
X37225000Y-100430000D03*
X31125000Y-100430000D03*
X33525000Y-98430000D03*
X42725000Y-100430000D03*
D17*
X56150000Y-97282000D03*
D11*
X54737000Y-97282000D03*
X59563000Y-97282000D03*
D17*
X58150000Y-97282000D03*
D11*
X69850000Y-92456000D03*
D23*
X69850000Y-91043000D03*
X69850000Y-89043000D03*
D11*
X69850000Y-87630000D03*
X60227503Y-85059601D03*
D28*
X58300352Y-82649390D03*
X58300352Y-84549390D03*
D11*
X56810976Y-84638223D03*
X59734934Y-81580222D03*
D28*
X60175352Y-83599390D03*
D18*
X44434070Y-110738885D03*
D19*
X41894070Y-110738885D03*
X39354070Y-110738885D03*
D29*
X52959000Y-99695000D03*
D30*
X55459000Y-99695000D03*
X57459000Y-99695000D03*
X59959000Y-99695000D03*
D31*
X49889000Y-102786000D03*
X63029000Y-102786000D03*
D32*
X72771000Y-98060000D03*
D11*
X72771000Y-96647000D03*
X72771000Y-101473000D03*
D32*
X72771000Y-100060000D03*
D11*
X45212000Y-60325000D03*
D17*
X46625000Y-60325000D03*
D11*
X50038000Y-60325000D03*
D17*
X48625000Y-60325000D03*
D33*
X35350331Y-80575000D03*
X35350331Y-55575000D03*
D34*
X37400331Y-72390000D03*
D35*
X37400331Y-70100000D03*
X37400331Y-67810000D03*
X37400331Y-65520000D03*
X37400331Y-63230000D03*
X35420331Y-73535000D03*
X35420331Y-71245000D03*
X35420331Y-68955000D03*
X35420331Y-66665000D03*
X35420331Y-64375000D03*
X33440331Y-72390000D03*
X33440331Y-70100000D03*
X33440331Y-67810000D03*
X33440331Y-65520000D03*
X33440331Y-63230000D03*
D11*
X34417000Y-106045000D03*
D17*
X35830000Y-106045000D03*
X37830000Y-106045000D03*
D11*
X39243000Y-106045000D03*
D36*
X52375000Y-29595000D03*
D37*
X53975000Y-29595000D03*
D35*
X53975000Y-32135000D03*
D38*
X53175000Y-32135000D03*
D39*
X53975000Y-34675000D03*
D40*
X53175000Y-34675000D03*
D38*
X53175000Y-37215000D03*
D35*
X53975000Y-37215000D03*
D38*
X53175000Y-39755000D03*
D35*
X53975000Y-39755000D03*
X53975000Y-42295000D03*
D38*
X53175000Y-42295000D03*
X53175000Y-44835000D03*
D35*
X53975000Y-44835000D03*
D40*
X53175000Y-47375000D03*
D39*
X53975000Y-47375000D03*
D35*
X53975000Y-49915000D03*
D38*
X53175000Y-49915000D03*
D35*
X53975000Y-52455000D03*
D38*
X53175000Y-52455000D03*
D35*
X53975000Y-54995000D03*
D38*
X53175000Y-54995000D03*
D35*
X53975000Y-57535000D03*
D38*
X53175000Y-57535000D03*
D39*
X53975000Y-60075000D03*
D40*
X53175000Y-60075000D03*
D38*
X53175000Y-62615000D03*
D35*
X53975000Y-62615000D03*
D38*
X53175000Y-65155000D03*
D35*
X53975000Y-65155000D03*
X53975000Y-67695000D03*
D38*
X53175000Y-67695000D03*
X53175000Y-70235000D03*
D35*
X53975000Y-70235000D03*
D39*
X53975000Y-72775000D03*
D40*
X53175000Y-72775000D03*
D38*
X53175000Y-75315000D03*
D35*
X53975000Y-75315000D03*
D38*
X53175000Y-77855000D03*
D35*
X53975000Y-77855000D03*
D38*
X72555000Y-77855000D03*
D35*
X71755000Y-77855000D03*
X71755000Y-75315000D03*
D38*
X72555000Y-75315000D03*
D39*
X71755000Y-72775000D03*
D40*
X72555000Y-72775000D03*
D35*
X71755000Y-70235000D03*
D38*
X72555000Y-70235000D03*
X72555000Y-67695000D03*
D35*
X71755000Y-67695000D03*
X71755000Y-65155000D03*
D38*
X72555000Y-65155000D03*
X72555000Y-62615000D03*
D35*
X71755000Y-62615000D03*
D39*
X71755000Y-60075000D03*
D40*
X72555000Y-60075000D03*
D35*
X71755000Y-57535000D03*
D38*
X72555000Y-57535000D03*
X72555000Y-54995000D03*
D35*
X71755000Y-54995000D03*
D38*
X72555000Y-52455000D03*
D35*
X71755000Y-52455000D03*
D38*
X72555000Y-49915000D03*
D35*
X71755000Y-49915000D03*
D39*
X71755000Y-47375000D03*
D40*
X72555000Y-47375000D03*
D35*
X71755000Y-44835000D03*
D38*
X72555000Y-44835000D03*
D35*
X71755000Y-42295000D03*
D38*
X72555000Y-42295000D03*
X72555000Y-39755000D03*
D35*
X71755000Y-39755000D03*
X71755000Y-37215000D03*
D38*
X72555000Y-37215000D03*
D40*
X72555000Y-34675000D03*
D39*
X71755000Y-34675000D03*
D35*
X71755000Y-32135000D03*
D38*
X72555000Y-32135000D03*
D35*
X71755000Y-29595000D03*
D38*
X72555000Y-29595000D03*
D11*
X70723000Y-111506000D03*
D10*
X69310000Y-111506000D03*
D11*
X65897000Y-111506000D03*
D10*
X67310000Y-111506000D03*
D32*
X60293101Y-90149032D03*
D11*
X60293101Y-88736032D03*
D32*
X60293101Y-92149032D03*
D11*
X60293101Y-93562032D03*
D34*
X52324000Y-95504000D03*
D35*
X49824000Y-95504000D03*
D32*
X74676000Y-108855000D03*
D11*
X74676000Y-107442000D03*
D32*
X74676000Y-110855000D03*
D11*
X74676000Y-112268000D03*
D23*
X41275000Y-57145923D03*
D11*
X41275000Y-58558923D03*
X41275000Y-53732923D03*
D23*
X41275000Y-55145923D03*
D34*
X53259791Y-89789000D03*
D35*
X50759791Y-89789000D03*
D41*
X76839500Y-103330000D03*
X76839500Y-100560000D03*
X76839500Y-97790000D03*
X76839500Y-95020000D03*
X76839500Y-92250000D03*
D18*
X46990000Y-36830000D03*
D19*
X46990000Y-39370000D03*
X46990000Y-41910000D03*
X46990000Y-44450000D03*
X46990000Y-46990000D03*
X46990000Y-49530000D03*
D11*
X76835000Y-107442000D03*
D32*
X76835000Y-108855000D03*
D11*
X76835000Y-112268000D03*
D32*
X76835000Y-110855000D03*
D11*
X57150000Y-88757000D03*
D32*
X57150000Y-90170000D03*
X57150000Y-92170000D03*
D11*
X57150000Y-93583000D03*
X45212000Y-57785000D03*
D17*
X46625000Y-57785000D03*
D11*
X50038000Y-57785000D03*
D17*
X48625000Y-57785000D03*
X67317000Y-101387000D03*
D11*
X65904000Y-101387000D03*
X70730000Y-101387000D03*
D17*
X69317000Y-101387000D03*
D11*
X45212000Y-65405000D03*
D17*
X46625000Y-65405000D03*
D11*
X50038000Y-65405000D03*
D17*
X48625000Y-65405000D03*
D32*
X72390000Y-89112553D03*
D11*
X72390000Y-87699553D03*
D32*
X72390000Y-91112553D03*
D11*
X72390000Y-92525553D03*
D18*
X76225479Y-29452407D03*
D19*
X76225479Y-31992407D03*
D18*
X76225479Y-34532407D03*
X46355000Y-87645000D03*
D19*
X46355000Y-90185000D03*
X46355000Y-92725000D03*
D18*
X41925000Y-29845000D03*
D19*
X44465000Y-29845000D03*
X47005000Y-29845000D03*
D11*
X45212000Y-73025000D03*
D17*
X46625000Y-73025000D03*
D11*
X50038000Y-73025000D03*
D17*
X48625000Y-73025000D03*
D42*
X59975000Y-33661000D03*
X65755000Y-33661000D03*
D43*
X67185000Y-30011000D03*
D44*
X67185000Y-34191000D03*
D43*
X58545000Y-30011000D03*
D44*
X58545000Y-34191000D03*
D19*
X65913000Y-29718000D03*
X59817000Y-29746000D03*
D45*
X65260000Y-32746000D03*
X60420000Y-32746000D03*
M02*
